<svg width="64" height="82" viewBox="0 0 64 82" fill="none" xmlns="http://www.w3.org/2000/svg">
<path d="M0 0V49.7067C0.000693384 58.1931 3.37242 66.3318 9.37351 72.3324C15.3746 78.333 23.5135 81.704 32 81.704C40.4865 81.704 48.6254 78.333 54.6265 72.3324C60.6276 66.3318 63.9993 58.1931 64 49.7067V0H0Z" fill="#E7E7E7"/>
<path fill-rule="evenodd" clip-rule="evenodd" d="M20.5293 24.1447H9.05245V9.28448L7.41797 7.93747V5.32422H10.6839V6.88917H13.1578V5.32422H16.4237V6.88917H18.8976V5.32422H22.1636V7.94031L20.5293 9.28448V24.1447Z" fill="#C6C4C9"/>
<path d="M20.6851 9.35961V24.1475V24.3025H20.5301H9.05323H8.89816V24.1475V9.35961L7.3208 8.05951L7.26367 8.0125V7.94026V5.327V5.17188H7.41875H10.6847H10.8397V5.327V6.73693H13.0036V5.327V5.17188H13.1585H16.4245H16.5795V5.327V6.73693H18.7434V5.327V5.17188H18.8984H22.1644H22.3194V5.327V7.94309V8.01564L22.2623 8.06235L20.6851 9.35961ZM20.375 23.9924V9.28726V9.21502L20.4321 9.168L22.0093 7.87085V5.48213H19.0535V6.89196V7.04708H18.8984H16.4245H16.2695V6.89196V5.48213H13.3136V6.89196V7.04708H13.1585H10.6847H10.5296V6.89196V5.48213H7.57382V7.86791L9.15118 9.168L9.20831 9.21522V9.28726V23.9924H20.375Z" fill="black"/>
<path fill-rule="evenodd" clip-rule="evenodd" d="M14.7931 11.5625H14.7934C15.0585 11.5625 15.2751 11.7791 15.2751 12.0443V14.795H14.3115V12.0443C14.3115 11.7791 14.5281 11.5625 14.7931 11.5625Z" fill="black"/>
<path fill-rule="evenodd" clip-rule="evenodd" d="M17.0314 11.5625H17.0316C17.2968 11.5625 17.5134 11.7791 17.5134 12.0443V14.795H16.5498V12.0443C16.5498 11.7791 16.7664 11.5625 17.0314 11.5625Z" fill="black"/>
<path fill-rule="evenodd" clip-rule="evenodd" d="M12.554 11.5625H12.5542C12.8193 11.5625 13.0358 11.7791 13.0358 12.0443V14.795H12.0723V12.0443C12.0723 11.7791 12.2888 11.5625 12.554 11.5625Z" fill="black"/>
<path fill-rule="evenodd" clip-rule="evenodd" d="M15.9134 16.4688H15.9136C16.1786 16.4688 16.3952 16.6854 16.3952 16.9505V19.7011H15.4316V16.9505C15.4316 16.6854 15.6482 16.4688 15.9134 16.4688Z" fill="black"/>
<path fill-rule="evenodd" clip-rule="evenodd" d="M13.675 16.4688H13.6752C13.9403 16.4688 14.1568 16.6854 14.1568 16.9505V19.7011H13.1934V16.9505C13.1934 16.6854 13.4099 16.4688 13.675 16.4688Z" fill="black"/>
<path d="M9.03367 9.13155H20.5176V9.4418H9.03367V9.13155ZM22.182 8.09693L7.39746 8.09409V7.78516L22.182 7.78809V8.09693Z" fill="black"/>
<path fill-rule="evenodd" clip-rule="evenodd" d="M37.7483 24.1447H26.2712V9.28448L24.6367 7.93747V5.32422H27.9027V6.88917H30.3766V5.32422H33.6427V6.88917H36.1166V5.32422H39.3825V7.94031L37.7483 9.28448V24.1447Z" fill="#C6C4C9"/>
<path d="M37.905 9.35961V24.1475V24.3025H37.7499H26.273H26.1179V24.1475V9.35961L24.5405 8.05951L24.4834 8.0125V7.94026V5.327V5.17188H24.6385H27.9044H28.0595V5.327V6.73693H30.2233V5.327V5.17188H30.3784H33.6443H33.7994V5.327V6.73693H35.9632V5.327V5.17188H36.1183H39.3842H39.5393V5.327V7.94309V8.01564L39.4821 8.06235L37.905 9.35961ZM37.5948 23.9924V9.28726V9.21502L37.652 9.168L39.2291 7.87085V5.48213H36.2733V6.89196V7.04708H36.1183H33.6443H33.4892V6.89196V5.48213H30.5334V6.89196V7.04708H30.3784H27.9044H27.7493V6.89196V5.48213H24.7935V7.86791L26.3709 9.168L26.428 9.21522V9.28726V23.9924H37.5948Z" fill="black"/>
<path fill-rule="evenodd" clip-rule="evenodd" d="M54.9669 24.1447H43.49V9.28448L41.8555 7.93747V5.32422H45.1217V6.88917H47.5952V5.32422H50.8617V6.88917H53.3352V5.32422H56.6007V7.94031L54.9669 9.28448V24.1447Z" fill="#C6C4C9"/>
<path d="M55.1227 9.35961V24.1475V24.3025H54.9677H43.4907H43.3357V24.1475V9.35961L41.7583 8.05951L41.7012 8.0125V7.94026V5.327V5.17188H41.8562H45.1222H45.2773V5.327V6.73693H47.4411V5.327V5.17188H47.5961H50.8621H51.0171V5.327V6.73693H53.181V5.327V5.17188H53.336H56.602H56.7569V5.327V7.94309V8.01564L56.6999 8.06235L55.1227 9.35961ZM54.8126 23.9924V9.28726V9.21502L54.8696 9.168L56.4469 7.87085V5.48213H53.491V6.89196V7.04708H53.336H50.8621H50.707V6.89196V5.48213H47.7512V6.89196V7.04708H47.5961H45.1222H44.9671V6.89196V5.48213H42.0113V7.86791L43.5887 9.168L43.6458 9.21522V9.28726V23.9924H54.8126Z" fill="black"/>
<path d="M26.2555 9.13155H37.7394V9.4418H26.2555V9.13155ZM39.4037 8.09693L24.6191 8.09409V7.78516L39.4037 7.78809V8.09693Z" fill="black"/>
<path d="M43.4752 9.13155H54.959V9.4418H43.4752V9.13155ZM56.6235 8.09693L41.8389 8.09409V7.78516L56.6235 7.78809V8.09693Z" fill="black"/>
<path fill-rule="evenodd" clip-rule="evenodd" d="M32.011 11.5625H32.0112C32.2763 11.5625 32.4929 11.7791 32.4929 12.0443V14.795H31.5293V12.0443C31.5293 11.7791 31.7459 11.5625 32.011 11.5625Z" fill="black"/>
<path fill-rule="evenodd" clip-rule="evenodd" d="M34.2493 11.5625H34.2495C34.5146 11.5625 34.7311 11.7791 34.7311 12.0443V14.795H33.7676V12.0443C33.7676 11.7791 33.9841 11.5625 34.2493 11.5625Z" fill="black"/>
<path fill-rule="evenodd" clip-rule="evenodd" d="M29.7726 11.5625H29.7728C30.0379 11.5625 30.2545 11.7791 30.2545 12.0443V14.795H29.291V12.0443C29.291 11.7791 29.5076 11.5625 29.7726 11.5625Z" fill="black"/>
<path fill-rule="evenodd" clip-rule="evenodd" d="M33.1301 16.4688H33.1303C33.3954 16.4688 33.612 16.6854 33.612 16.9505V19.7011H32.6484V16.9505C32.6484 16.6854 32.865 16.4688 33.1301 16.4688Z" fill="black"/>
<path fill-rule="evenodd" clip-rule="evenodd" d="M30.8918 16.4688H30.892C31.1572 16.4688 31.3737 16.6854 31.3737 16.9505V19.7011H30.4102V16.9505C30.4102 16.6854 30.6267 16.4688 30.8918 16.4688Z" fill="black"/>
<path fill-rule="evenodd" clip-rule="evenodd" d="M49.2288 11.5625H49.229C49.4941 11.5625 49.7106 11.7791 49.7106 12.0443V14.795H48.7471V12.0443C48.7471 11.7791 48.9636 11.5625 49.2288 11.5625Z" fill="black"/>
<path fill-rule="evenodd" clip-rule="evenodd" d="M51.467 11.5625H51.4673C51.7323 11.5625 51.9489 11.7791 51.9489 12.0443V14.795H50.9854V12.0443C50.9854 11.7791 51.2019 11.5625 51.467 11.5625Z" fill="black"/>
<path fill-rule="evenodd" clip-rule="evenodd" d="M46.9895 11.5625H46.9897C47.2548 11.5625 47.4714 11.7791 47.4714 12.0443V14.795H46.5078V12.0443C46.5078 11.7791 46.7245 11.5625 46.9895 11.5625Z" fill="black"/>
<path fill-rule="evenodd" clip-rule="evenodd" d="M50.3488 16.4688H50.349C50.6141 16.4688 50.8306 16.6854 50.8306 16.9505V19.7011H49.8672V16.9505C49.8672 16.6854 50.0837 16.4688 50.3488 16.4688Z" fill="black"/>
<path fill-rule="evenodd" clip-rule="evenodd" d="M48.1105 16.4688H48.1107C48.3759 16.4688 48.5925 16.6854 48.5925 16.9505V19.7011H47.6289V16.9505C47.6289 16.6854 47.8455 16.4688 48.1105 16.4688Z" fill="black"/>
<path fill-rule="evenodd" clip-rule="evenodd" d="M21.0932 63.628H7.18652V62.6465L9.05164 60.9422V26.2395L7.41716 24.8924V21.8398H10.6831V23.4048H13.1569V21.8398H16.4229V23.4048H18.8968V21.8398H22.1628V23.4053L24.6367 23.4024V21.8398H27.9027V23.4048H30.3766V21.8398H33.6426V23.4048H36.1165V21.8398H39.3825V23.4053L41.8544 23.4024V21.8398H45.1203V23.4048H47.5943V21.8398H50.8602V23.4048H53.3341V21.8398H56.6V24.8954L54.9657 26.2395L54.9462 60.9422L56.8113 62.6465V63.628H42.8432V44.3035C42.8432 38.3199 37.9495 33.4248 31.9683 33.4248H31.9681C25.9868 33.4248 21.0932 38.3199 21.0932 44.3035V63.628Z" fill="#C6C4C9"/>
<path d="M21.0949 63.7819H7.18827H7.0332V63.6269V62.6453V62.5774L7.08415 62.5309L8.89832 60.8732V26.3107L7.32097 25.0107L7.26384 24.9637V24.8913V21.8387V21.6836H7.41891H10.6848H10.8399V21.8387V23.2485H13.0037V21.8387V21.6836H13.1587H16.4246H16.5797V21.8387V23.2485H18.7435V21.8387V21.6836H18.8986H22.1645H22.3196V21.8387V23.2495L24.4834 23.247V21.8387V21.6836H24.6385H27.9044H28.0595V21.8387V23.2485H30.2233V21.8387V21.6836H30.3784H33.6443H33.7994V21.8387V23.2485H35.9632V21.8387V21.6836H36.1183H39.3842H39.5393V21.8387V23.2495L41.7011 23.247V21.8387V21.6836H41.8562H45.1221H45.2771V21.8387V23.2485H47.441V21.8387V21.6836H47.596H50.862H51.017V21.8387V23.2485H53.1809V21.8387V21.6836H53.3359H56.6019H56.7568V21.8387V24.8943V24.9667L56.6998 25.0135L55.122 26.3114L55.1024 60.8726L56.9172 62.5309L56.9681 62.5774V62.6453V63.6269V63.7819H56.8132H42.8449H42.6898V63.6269V44.3024C42.6898 41.3534 41.4838 38.6725 39.541 36.7287C37.5979 34.7851 34.9179 33.5788 31.97 33.5788H31.9698C29.0219 33.5788 26.342 34.7851 24.3988 36.7287C22.456 38.6725 21.25 41.3534 21.25 44.3024V63.6269V63.7819H21.0949ZM7.34335 63.4717H20.9399V44.3024C20.9399 41.2679 22.1808 38.5093 24.1797 36.5095C26.1788 34.5098 28.9364 33.2685 31.9698 33.2685H31.97C35.0034 33.2685 37.7611 34.5098 39.7602 36.5095C41.759 38.5093 43 41.2679 43 44.3024V63.4717H56.6581V62.7132L54.8439 61.0556L54.7934 61.0097L54.7936 60.9411L54.8131 26.2384V26.1657L54.8695 26.1191L56.4468 24.8219V21.9938H53.4909V23.4037V23.5588H53.3359H50.862H50.7069V23.4037V21.9938H47.7511V23.4037V23.5588H47.596H45.1221H44.967V23.4037V21.9938H42.0112V23.4012V23.5558H41.8562L39.3842 23.5586L39.2291 23.5588V23.4042V21.9938H36.2734V23.4037V23.5588H36.1183H33.6443H33.4893V23.4037V21.9938H30.5335V23.4037V23.5588H30.3784H27.9044H27.7494V23.4037V21.9938H24.7936V23.4012V23.5558H24.6385L22.1645 23.5586L22.0095 23.5588V23.4042V21.9938H19.0537V23.4037V23.5588H18.8986H16.4246H16.2697V23.4037V21.9938H13.3138V23.4037V23.5588H13.1587H10.6848H10.5298V23.4037V21.9938H7.57399V24.8191L9.15134 26.1191L9.20847 26.1664V26.2384V60.9411V61.0092L9.15752 61.0556L7.34335 62.7132V63.4717Z" fill="black"/>
<path d="M40.6038 27.4258C41.0054 27.4258 41.3704 27.5887 41.6346 27.8533L41.6348 27.8538L41.6353 27.854C41.8996 28.1182 42.0626 28.4834 42.0626 28.8851C42.0626 29.1568 41.9875 29.4125 41.8571 29.6314C41.7387 29.8298 41.574 29.9981 41.3783 30.1211V31.4934V31.6486H41.2232H39.9847H39.8296V31.4934V30.1211C39.6337 29.9981 39.469 29.8298 39.3506 29.6312C39.2202 29.4123 39.145 29.1568 39.145 28.8851C39.145 28.4823 39.3087 28.1171 39.5724 27.8533L39.5728 27.8538C39.8371 27.5892 40.2021 27.4258 40.6038 27.4258ZM41.4161 28.0719C41.2087 27.8643 40.9214 27.7359 40.6038 27.7359C40.2862 27.7359 39.9988 27.8645 39.7916 28.0719V28.0725C39.5839 28.2804 39.4551 28.5678 39.4551 28.8851C39.4551 29.1004 39.514 29.3016 39.6159 29.4725C39.7222 29.6508 39.8753 29.798 40.0578 29.8966L40.1397 29.941V30.0328V31.3383H41.0682V30.0328V29.941L41.1501 29.8966C41.3323 29.7982 41.4855 29.6508 41.5917 29.4727C41.6936 29.3018 41.7526 29.1004 41.7526 28.8851C41.7526 28.5673 41.6242 28.2799 41.4167 28.0725L41.4161 28.0719ZM23.3943 27.4258C23.7958 27.4258 24.1608 27.5887 24.4251 27.8533L24.4253 27.8538L24.4257 27.854C24.6902 28.1182 24.8532 28.4834 24.8532 28.8851C24.8532 29.1568 24.778 29.4125 24.6475 29.6314C24.5291 29.8298 24.3644 29.9981 24.1687 30.1211V31.4934V31.6486H24.0137H22.7752H22.6202V31.4934V30.1211C22.4242 29.9981 22.2595 29.8298 22.1411 29.6312C22.0106 29.4123 21.9355 29.1568 21.9355 28.8851C21.9355 28.4823 22.0991 28.1171 22.3629 27.8533L22.3634 27.8538C22.6275 27.5892 22.9926 27.4258 23.3943 27.4258ZM24.2065 28.0719C23.9992 27.8643 23.7119 27.7359 23.3943 27.7359C23.0768 27.7359 22.7892 27.8645 22.5822 28.0719V28.0725C22.3743 28.2804 22.2457 28.5678 22.2457 28.8851C22.2457 29.1004 22.3045 29.3016 22.4064 29.4725C22.5127 29.6508 22.6658 29.798 22.8484 29.8966L22.9302 29.941V30.0328V31.3383H23.8586V30.0328V29.941L23.9405 29.8966C24.1229 29.7982 24.2759 29.6508 24.3823 29.4727C24.4842 29.3018 24.543 29.1004 24.543 28.8851C24.543 28.5673 24.4148 28.2799 24.2071 28.0725L24.2065 28.0719Z" fill="black"/>
<path d="M43.8232 26.2305V40.1799V41.077L43.5223 40.2313C42.6649 37.822 41.0727 35.7536 39.0194 34.3006C37.0236 32.8884 34.5894 32.0563 31.9687 32.0563C29.3808 32.0563 26.9743 32.8684 24.9914 34.25C22.95 35.6726 21.3566 37.6992 20.4756 40.0644L20.1758 40.8694V40.0106V26.2305H20.4859V39.224C21.4284 37.1128 22.9368 35.3044 24.8149 33.9955C26.8482 32.5788 29.3156 31.7461 31.9687 31.7461C34.6538 31.7461 37.1494 32.5997 39.1973 34.0488C41.0819 35.3826 42.5878 37.2215 43.513 39.3639V26.2305H43.8232Z" fill="black"/>
<path d="M45.527 35.0537L45.5239 37.6408L54.9598 37.6316V37.9405L43.6722 37.9514V37.6426L45.2151 37.641L45.2181 35.054L43.6719 35.0555V34.7466L46.9914 34.7433L46.9955 32.1004L43.6724 32.1036V31.7948L45.2153 31.7933L45.2194 29.1782L43.6729 29.1797V28.8709L46.9927 28.8675L46.9958 26.2578H47.3046L47.3015 28.8673L51.1236 28.8636L51.1267 26.2578H51.4355L51.4325 28.8634L54.9606 28.8598V29.1688L53.6599 29.1701L53.6569 31.7851L54.9608 31.7837V32.0927L51.4359 32.0962L51.4319 34.7391L54.9603 34.7356V35.0445L45.5278 35.0537H45.527ZM47.3038 32.1002L47.2997 34.743L51.1218 34.7394L51.1249 32.0964L47.3028 32.1002H47.3038ZM45.5236 31.793L49.1595 31.7895L49.1625 29.1744L45.5268 29.178L45.5227 31.793H45.5236ZM49.4682 31.789L53.3467 31.7853L53.3497 29.1703L49.4714 29.174L49.4674 31.789H49.4682ZM54.9595 40.8923L43.6719 40.9033V40.5944L54.9595 40.5834V40.8923ZM54.9595 43.8439L43.6719 43.8549V43.546L54.9595 43.535V43.8439ZM54.9595 46.7122L43.6719 46.7232V46.4143L54.9595 46.4033V46.7122ZM54.9595 49.5944L43.6719 49.6054V49.2965L54.9595 49.2855V49.5944ZM54.9595 52.407L43.6719 52.4179V52.109L54.9595 52.098V52.407ZM54.9595 55.3027L43.6719 55.3137V55.0048L54.9595 54.9938V55.3027ZM54.9595 58.3657L43.6719 58.3767V58.0677L54.9595 58.0568V58.3657Z" fill="black"/>
<path d="M18.5165 35.0537L18.5198 37.6408L9.08398 37.6316V37.9405L20.3715 37.9514V37.6426L18.8286 37.641L18.8253 35.054L20.3715 35.0555V34.7466L17.052 34.7433L17.0485 32.1004L20.3715 32.1036V31.7948L18.8286 31.7933L18.8251 29.1782L20.3715 29.1797V28.8709L17.0518 28.8675L17.0485 26.2578H16.7396L16.743 28.8673L12.921 28.8636L12.9176 26.2578H12.6088L12.6122 28.8634L9.08398 28.8598V29.1688L10.3846 29.1701L10.3879 31.7851L9.08398 31.7837V32.0927L12.6088 32.0962L12.6124 34.7391L9.08398 34.7356V35.0445L18.5165 35.0537ZM16.7397 32.1002L16.7432 34.743L12.9212 34.7394L12.9176 32.0964L16.7397 32.1002ZM18.5198 31.793L14.8841 31.7895L14.8805 29.1744L18.5163 29.178L18.5198 31.793ZM14.5752 31.789L10.6967 31.7853L10.6935 29.1703L14.5717 29.174L14.5752 31.789ZM9.084 40.8923L20.3715 40.9033V40.5944L9.084 40.5834V40.8923ZM9.084 43.8439L20.3715 43.8549V43.546L9.084 43.535V43.8439ZM9.084 46.7122L20.3715 46.7232V46.4143L9.084 46.4033V46.7122ZM9.084 49.5944L20.3715 49.6054V49.2965L9.084 49.2855V49.5944ZM9.084 52.407L20.3715 52.4179V52.109L9.084 52.098V52.407ZM9.084 55.3027L20.3715 55.3137V55.0048L9.084 54.9938V55.3027ZM9.084 58.3657L20.3715 58.3767V58.0677L9.084 58.0568V58.3657Z" fill="black"/>
<path d="M9.08543 26.073H54.9537V26.3832H9.08543V26.073ZM56.6181 25.0383L7.44922 25.0355V24.7266L56.6181 24.7295V25.0383Z" fill="black"/>
<path d="M9.02799 60.8242H19.1903V61.1345H9.02799V60.8242ZM44.1376 60.8242H54.9529V61.1345H44.1376V60.8242ZM56.4137 62.478L43.9389 62.479V62.1701L56.4137 62.1691V62.478ZM18.7929 62.479L7.59375 62.4811V62.1721L18.7929 62.1701V62.479Z" fill="black"/>
<path fill-rule="evenodd" clip-rule="evenodd" d="M53.3957 33.7695H53.3955C53.3365 33.7695 53.2778 33.7707 53.2189 33.7718C47.4961 33.8688 42.8438 38.669 42.8438 44.524V63.6276H53.3496H53.3957V33.7695Z" fill="white"/>
<path d="M53.3973 33.6094H53.3975H53.5526V33.7645V63.6225V63.7777H53.3975H53.3512H42.8455H42.6904V63.6225V44.519C42.6904 41.5529 43.8683 38.853 45.7706 36.8817C47.6767 34.9063 50.3114 33.6615 53.2183 33.6123L53.2203 33.6116H53.2209V33.6123L53.3969 33.6094H53.3973ZM53.2424 33.9209L53.2238 33.9212L53.2217 33.9219H53.2211V33.9212C50.4011 33.9695 47.8441 35.1786 45.9936 37.0962C44.1454 39.0115 43.001 41.6355 43.001 44.519V63.4675H53.2428V33.9209H53.2424Z" fill="black"/>
<path fill-rule="evenodd" clip-rule="evenodd" d="M51.7229 54.3834H42.8438V55.5767H51.7229L52.3191 54.9801L51.7229 54.3834ZM51.7229 45.918H42.8438V47.1112H51.7229L52.3191 46.5147L51.7229 45.918Z" fill="#C6C4C9"/>
<path d="M51.6611 54.5335H43.0006V55.4165H51.6605L52.1021 54.9747L51.6611 54.5335ZM42.8455 54.2232H51.7246H51.788L51.8342 54.2694L52.4305 54.8661L52.5397 54.9756L52.4305 55.0847L51.8342 55.6813L51.7887 55.7268H51.7246H42.8455H42.6904V55.5717V54.3784V54.2232H42.8455ZM51.6611 46.0681H43.0006V46.9511H51.6605L52.1021 46.5092L51.6611 46.0681ZM42.8455 45.7578H51.7246H51.788L51.8342 45.8039L52.4305 46.4007L52.5397 46.5101L52.4305 46.6193L51.8342 47.2158L51.7887 47.2613H51.7246H42.8455H42.6904V47.1061V45.9129V45.7578H42.8455Z" fill="black"/>
<path fill-rule="evenodd" clip-rule="evenodd" d="M10.541 33.7695H10.5412C10.6003 33.7695 10.659 33.7707 10.7179 33.7718C16.4406 33.8688 21.093 38.669 21.093 44.524V63.6276H10.5872H10.541V33.7695Z" fill="white"/>
<path d="M10.5418 33.6094H10.542L10.7212 33.6123C13.628 33.6615 16.2625 34.9063 18.1687 36.8817C20.071 38.853 21.2488 41.5529 21.2488 44.519V63.6225V63.7777H21.0938H10.5881H10.5418H10.3867V63.6225V33.7645V33.6094H10.5418ZM10.7164 33.9212L10.6969 33.9209V63.4675H20.9387V44.519C20.9387 41.6355 19.7942 39.0115 17.946 37.0962C16.0949 35.178 13.5373 33.9689 10.7164 33.9212Z" fill="black"/>
<path fill-rule="evenodd" clip-rule="evenodd" d="M12.2144 54.3834H21.0936V55.5767H12.2144L11.6182 54.9801L12.2144 54.3834ZM12.2144 45.918H21.0936V47.1112H12.2144L11.6182 46.5147L12.2144 45.918Z" fill="#C6C4C9"/>
<path d="M12.2166 54.2232H21.0958H21.2508V54.3784V55.5717V55.7268H21.0958H12.2166H12.1525L12.107 55.6813L11.5108 55.0847L11.4014 54.9756L11.5108 54.8662L12.107 54.2694L12.153 54.2232H12.2166ZM20.9407 54.5335H12.2801L11.8391 54.9747L12.2809 55.4165H20.9407V54.5335ZM12.2166 45.7578H21.0958H21.2508V45.9129V47.1061V47.2613H21.0958H12.2166H12.1525L12.107 47.2158L11.5108 46.6193L11.4014 46.5101L11.5108 46.4007L12.107 45.8039L12.153 45.7578H12.2166ZM20.9407 46.0681H12.2801L11.8391 46.5092L12.2809 46.9511H20.9407V46.0681Z" fill="black"/>
<path fill-rule="evenodd" clip-rule="evenodd" d="M28.9278 55.81C29.492 55.3822 30.9291 55.3365 31.5841 55.3549C32.2392 55.3732 33.4855 55.4643 34.0313 55.5643C34.5772 55.6642 34.9957 55.8375 34.9592 56.6199C34.9227 57.4023 34.8591 58.5217 34.8772 59.9778C34.8953 61.4339 34.8591 61.9798 34.9318 62.5805C35.0045 63.1812 35.1864 63.5996 34.5679 63.272C33.9493 62.9445 33.6399 62.7081 32.7667 62.2529C31.8934 61.7978 31.1112 61.8161 30.8566 61.3974C30.6018 60.9788 30.6018 60.6515 30.2561 60.5057C29.9103 60.36 29.7105 60.36 29.492 60.4874C29.2736 60.6148 29.0554 61.1243 29.0554 60.4327C29.0554 59.7412 29.1825 59.3771 29.1643 58.6856C29.1462 57.994 29.11 57.9756 28.9462 57.3206C28.7824 56.6655 28.7461 56.3925 28.9278 55.81Z" fill="white"/>
<path d="M28.8771 55.7448C29.1168 55.5632 29.4994 55.4481 29.9144 55.3769C30.5161 55.2738 31.1918 55.2618 31.5864 55.2729C31.9455 55.283 32.4759 55.3143 32.9712 55.3567C33.3922 55.3927 33.7919 55.437 34.0464 55.4837C34.3329 55.5361 34.5872 55.609 34.7702 55.7759C34.9566 55.9461 35.0626 56.2057 35.0431 56.6255C35.0388 56.7161 35.0352 56.7931 35.0313 56.8735C34.9946 57.6376 34.9448 58.6738 34.961 59.9789C34.9671 60.4633 34.9671 60.8476 34.9671 61.1666C34.9671 61.8007 34.9671 62.1745 35.0153 62.5726C35.028 62.6773 35.0429 62.7702 35.0565 62.8553C35.0933 63.0855 35.1222 63.2656 35.0657 63.3724C34.9953 63.5055 34.8432 63.515 34.5286 63.3484C34.2541 63.203 34.0394 63.075 33.8096 62.9381C33.5246 62.768 33.2157 62.5839 32.7278 62.3296C32.3615 62.1387 32.0086 62.0318 31.7061 61.9402C31.2793 61.8109 30.9473 61.7104 30.7848 61.4432C30.6964 61.298 30.6384 61.1648 30.5864 61.0456C30.4934 60.8324 30.4221 60.6688 30.2235 60.5851C30.0606 60.5164 29.934 60.4822 29.8249 60.48C29.7212 60.478 29.6301 60.5062 29.5341 60.5621C29.4826 60.5922 29.4252 60.654 29.3727 60.7108C29.2931 60.7969 29.2216 60.8741 29.1404 60.8741C29.0359 60.8741 28.9712 60.7653 28.9712 60.4347C28.9712 60.1037 29 59.8466 29.0284 59.5934C29.0594 59.3177 29.0898 59.0468 29.0805 58.6895C29.0656 58.1209 29.0381 58.0154 28.9354 57.6194C28.9129 57.5326 28.8871 57.4331 28.8645 57.3429C28.7814 57.0104 28.7306 56.774 28.7235 56.5424C28.7163 56.3092 28.7538 56.0873 28.8475 55.787L28.8555 55.7613L28.8771 55.7448H28.8771ZM29.9427 55.5428C29.564 55.6077 29.2174 55.7089 28.9999 55.8634C28.9179 56.1321 28.885 56.3317 28.8912 56.5378C28.8978 56.752 28.9471 56.9796 29.0278 57.3021C29.0587 57.426 29.0796 57.5067 29.098 57.5773C29.2044 57.9878 29.2329 58.0971 29.2483 58.6856C29.258 59.0562 29.227 59.3316 29.1956 59.6119C29.1678 59.8592 29.1396 60.1104 29.1396 60.4347C29.1396 60.6384 29.1399 60.7055 29.1404 60.7055C29.1491 60.7055 29.1966 60.6541 29.2496 60.597C29.3109 60.5308 29.3775 60.4589 29.4499 60.4166C29.5723 60.3453 29.6904 60.3096 29.8276 60.3122C29.9594 60.3143 30.1057 60.3533 30.2886 60.4304C30.5493 60.5402 30.6323 60.7305 30.7404 60.9784C30.7901 61.0924 30.8456 61.2198 30.9283 61.3557C31.0572 61.5676 31.3624 61.66 31.7547 61.7789C32.0641 61.8726 32.425 61.9819 32.8055 62.1803C33.2914 62.4335 33.6057 62.6209 33.8959 62.7939C34.1226 62.9289 34.3343 63.0552 34.607 63.1997C34.813 63.3087 34.898 63.3297 34.9169 63.2941C34.9474 63.2365 34.9225 63.0807 34.8906 62.8815C34.8761 62.79 34.8601 62.6903 34.8482 62.5923C34.7993 62.1889 34.7993 61.8097 34.7993 61.1666C34.7993 60.8485 34.7993 60.4653 34.7932 59.9808C34.7769 58.6679 34.8267 57.6306 34.8635 56.8656C34.8679 56.7739 34.8721 56.6858 34.8753 56.6183C34.8922 56.2556 34.8072 56.0374 34.657 55.9004C34.5034 55.7601 34.2755 55.6964 34.0161 55.6489C33.7706 55.6039 33.3761 55.5604 32.9574 55.5246C32.4593 55.4819 31.9327 55.4506 31.5818 55.4408C31.1951 55.4299 30.5329 55.4417 29.9427 55.5428Z" fill="black"/>
<path fill-rule="evenodd" clip-rule="evenodd" d="M30.6561 57.0904C30.3106 57.0538 29.8195 56.3987 29.8558 57.2723C29.892 58.146 29.8558 59.0193 29.8193 59.62C29.7828 60.2207 29.8012 60.8943 29.9285 61.5676C30.0558 62.2408 30.1472 62.5323 30.2741 63.4602C30.3119 63.7378 30.3098 64.6375 30.7106 64.6435C31.0733 64.6486 31.1049 64.5019 31.1058 64.3011C31.1082 63.8194 31.1215 62.9746 31.1473 62.5504C31.2015 61.6587 31.3476 61.058 31.3112 60.2025C31.2747 59.3471 31.3474 59.2924 31.3293 58.6737C31.3112 58.0548 31.1838 57.3997 30.6561 57.0904Z" fill="white"/>
<path d="M30.6292 57.1695C30.5126 57.1514 30.3932 57.0826 30.2789 57.0167C30.175 56.957 30.0761 56.9 30.0164 56.9025C29.9619 56.9046 29.9294 56.9924 29.9407 57.2671C29.9589 57.7052 29.9589 58.1438 29.9498 58.5483C29.9406 58.955 29.9225 59.3238 29.9042 59.623C29.8851 59.9385 29.8811 60.2743 29.9005 60.6192C29.9176 60.9247 29.9531 61.2375 30.0121 61.5502C30.0515 61.7581 30.0874 61.9296 30.122 62.0948C30.1995 62.4648 30.2703 62.8034 30.3583 63.4472C30.3652 63.4975 30.3703 63.5577 30.376 63.6275C30.4043 63.9676 30.453 64.5537 30.7127 64.5576C30.8658 64.5596 30.9444 64.5353 30.9817 64.4924C31.0171 64.4519 31.0226 64.3817 31.023 64.2989C31.0243 64.0256 31.0291 63.6368 31.0377 63.2744C31.0444 62.9923 31.0533 62.7267 31.0645 62.5436C31.0847 62.2096 31.1177 61.918 31.1491 61.6386C31.2019 61.1694 31.251 60.7348 31.2283 60.2039C31.2077 59.7221 31.2215 59.4923 31.2345 59.275C31.2446 59.105 31.2543 58.9429 31.2464 58.674C31.2376 58.3728 31.2023 58.0631 31.1055 57.7924C31.0134 57.535 30.8651 57.3131 30.6292 57.1695ZM30.3625 56.8712C30.4678 56.9319 30.5783 56.9956 30.6657 57.0048L30.6838 57.0068L30.6995 57.0159C30.9828 57.182 31.1579 57.4386 31.2641 57.7356C31.3674 58.0245 31.4049 58.3518 31.4142 58.6693C31.4224 58.9479 31.4126 59.1124 31.4023 59.2847C31.3895 59.4988 31.376 59.725 31.3961 60.1972C31.4193 60.742 31.3698 61.182 31.3163 61.657C31.2849 61.935 31.2522 62.2252 31.2323 62.5533C31.221 62.7392 31.2121 63.002 31.2056 63.2783C31.197 63.6412 31.1921 64.0285 31.1907 64.2994C31.1902 64.4175 31.1794 64.5212 31.1081 64.603C31.0388 64.6824 30.9203 64.7286 30.7108 64.7254C30.2978 64.7193 30.2411 64.0371 30.2082 63.6412C30.2023 63.5699 30.1972 63.5085 30.1919 63.4695C30.1048 62.8326 30.0344 62.4965 29.9574 62.129C29.9227 61.9629 29.8866 61.7904 29.847 61.581C29.7864 61.2609 29.7502 60.9407 29.7327 60.6283C29.713 60.2763 29.717 59.9343 29.7364 59.6131C29.7547 59.3116 29.773 58.9433 29.782 58.5448C29.791 58.1442 29.791 57.7092 29.7729 57.2736C29.7563 56.8713 29.854 56.741 30.0098 56.7345C30.1174 56.7305 30.2369 56.7989 30.3625 56.8711V56.8712Z" fill="black"/>
<path fill-rule="evenodd" clip-rule="evenodd" d="M33.43 57.0904C33.7756 57.0538 34.2484 56.3987 34.2123 57.2723C34.176 58.146 34.103 59.0193 34.1394 59.62C34.176 60.2207 34.1757 60.8397 34.0484 61.5129C33.9211 62.1862 33.8452 62.5628 33.7756 63.4965C33.7196 64.2469 33.7132 64.5442 33.3208 64.6253C33.0311 64.6852 32.9812 64.5017 32.9803 64.3011C32.9782 63.8194 32.9465 62.9927 32.9206 62.5686C32.8665 61.6768 32.7385 61.058 32.775 60.2025C32.8115 59.3471 32.7387 59.2924 32.7569 58.6737C32.775 58.0548 32.9023 57.3997 33.43 57.0904Z" fill="white"/>
<path d="M33.4206 57.0047C33.5084 56.9956 33.6183 56.9308 33.7221 56.8697C33.8442 56.7979 33.9594 56.7302 34.0641 56.7346C34.2169 56.7407 34.3119 56.8712 34.2952 57.2736C34.2849 57.5218 34.272 57.7637 34.2594 57.9996C34.2269 58.6117 34.1964 59.1843 34.2225 59.6131C34.2408 59.9151 34.2499 60.2225 34.2384 60.5402C34.2268 60.8585 34.1945 61.1858 34.1301 61.5264L34.115 61.606C33.9973 62.2274 33.9251 62.6082 33.8585 63.5008L33.8523 63.5853C33.7983 64.3187 33.7764 64.6148 33.3366 64.7057C33.1543 64.7434 33.043 64.6986 32.9749 64.6103C32.9123 64.5288 32.896 64.4156 32.8955 64.2995C32.8945 64.075 32.8869 63.7732 32.8765 63.4718C32.865 63.1354 32.8496 62.7982 32.8358 62.5715C32.8169 62.2597 32.789 61.9829 32.7624 61.7176C32.7123 61.2183 32.6662 60.7594 32.6901 60.1972C32.7102 59.7251 32.6966 59.4988 32.6839 59.2847C32.6737 59.1125 32.6638 58.9479 32.6719 58.6694C32.6813 58.3518 32.7187 58.0245 32.822 57.7357C32.9283 57.4387 33.1033 57.182 33.3866 57.016L33.4024 57.0068L33.4206 57.0048V57.0047ZM33.807 57.0148C33.694 57.0812 33.5749 57.1513 33.4571 57.1696C33.2211 57.3132 33.0727 57.5351 32.9807 57.7925C32.8838 58.0632 32.8486 58.3729 32.8398 58.6741C32.8319 58.943 32.8416 59.1053 32.8517 59.2751C32.8647 59.4924 32.8785 59.7222 32.8579 60.204C32.8345 60.7545 32.88 61.208 32.9295 61.7013C32.9566 61.9698 32.9847 62.25 33.0037 62.5618C33.0172 62.7849 33.0325 63.1237 33.0444 63.4668C33.0547 63.7677 33.0623 64.0709 33.0633 64.299C33.0636 64.3834 33.0728 64.4623 33.1078 64.5078C33.1374 64.5462 33.1959 64.5635 33.3031 64.5413C33.6179 64.4762 33.637 64.2167 33.6844 63.5737L33.6907 63.4889V63.4885C33.7579 62.5885 33.8308 62.2033 33.9498 61.5753L33.9649 61.4957C34.0278 61.1632 34.0593 60.8442 34.0705 60.5345C34.0818 60.2243 34.0728 59.9217 34.0546 59.6231C34.0281 59.1857 34.0588 58.6084 34.0916 57.9913C34.1044 57.7519 34.1174 57.5065 34.1274 57.2672C34.1388 56.9922 34.1087 56.9047 34.0576 56.9027C34.0018 56.9006 33.9072 56.9559 33.807 57.0148Z" fill="black"/>
<path fill-rule="evenodd" clip-rule="evenodd" d="M30.8663 58.6605C31.1301 58.9154 31.4394 59.3247 31.3938 58.4511C31.3483 57.5775 31.2753 57.4045 31.3483 56.8949C31.4213 56.3854 31.4031 56.3218 31.3121 56.0123C31.2209 55.703 31.3938 55.5846 30.8936 55.5209C30.3932 55.4572 30.1933 55.539 29.9294 55.7666C29.6654 55.9942 29.6565 55.9756 29.7475 56.54C29.8383 57.1045 29.7746 57.3411 30.2203 57.5503C30.6661 57.7595 30.5478 57.7142 30.6024 58.0417C30.657 58.3693 30.6298 58.433 30.8663 58.6605Z" fill="#B8C0C2"/>
<path d="M30.9222 58.598C30.9503 58.625 30.9791 58.6541 31.0078 58.6831C31.1143 58.7906 31.2213 58.8987 31.2696 58.8962C31.3061 58.8941 31.3249 58.7835 31.3076 58.4534C31.2929 58.1692 31.2744 57.9535 31.2594 57.7779C31.2291 57.4241 31.2127 57.2309 31.2628 56.8811C31.2984 56.632 31.3119 56.493 31.3054 56.3813C31.2992 56.2728 31.2729 56.183 31.2291 56.0341C31.202 55.942 31.1962 55.868 31.1914 55.8059C31.1826 55.6938 31.1785 55.6401 30.8807 55.6022C30.6426 55.5719 30.4777 55.5758 30.3433 55.6136C30.2118 55.6505 30.1048 55.7223 29.982 55.8282L29.9817 55.8285L29.9519 55.8542C29.7523 56.0254 29.7482 56.0289 29.828 56.5249C29.8458 56.6353 29.8569 56.7244 29.8669 56.8047C29.9095 57.1468 29.9311 57.321 30.2535 57.4724C30.6501 57.6584 30.6508 57.667 30.6656 57.8706C30.6685 57.9108 30.6722 57.9613 30.683 58.026C30.692 58.0802 30.6983 58.1226 30.7038 58.1604C30.7326 58.3572 30.7427 58.4252 30.9222 58.598ZM30.8887 58.8016C30.861 58.7737 30.8332 58.7457 30.8057 58.7192C30.5844 58.5062 30.5723 58.4238 30.5372 58.1848C30.5314 58.1443 30.5247 58.099 30.5171 58.0536C30.5049 57.9802 30.5009 57.9257 30.4977 57.8824C30.4897 57.7731 30.4894 57.7684 30.1825 57.6243C29.7754 57.4332 29.7499 57.2282 29.6997 56.8251C29.6892 56.7401 29.6774 56.6458 29.6622 56.5512C29.5674 55.9626 29.5729 55.9579 29.8426 55.7264L29.8725 55.7008C30.0134 55.5793 30.1384 55.4964 30.2978 55.4516C30.4543 55.4076 30.6396 55.4023 30.9018 55.4356C31.3356 55.4909 31.3433 55.5888 31.3592 55.7934C31.3634 55.8476 31.3685 55.9125 31.3904 55.9866C31.4376 56.1471 31.466 56.244 31.4732 56.3721C31.4804 56.4969 31.4665 56.6445 31.4293 56.9048C31.382 57.2348 31.398 57.4218 31.4273 57.7641C31.4419 57.936 31.46 58.1471 31.4755 58.4449C31.4992 58.9009 31.4152 59.0569 31.2783 59.0641C31.155 59.0701 31.0215 58.9356 30.8887 58.8016Z" fill="black"/>
<path fill-rule="evenodd" clip-rule="evenodd" d="M33.1835 58.5906C32.9198 58.8453 32.7562 58.9544 32.7835 58.3265C32.8106 57.6987 32.8476 57.3346 32.7745 56.825C32.7016 56.3155 32.7197 56.2517 32.8108 55.9424C32.902 55.633 32.7293 55.5146 33.2293 55.451C34.2017 55.3273 34.0746 55.5903 34.1479 56.388C34.2002 56.9573 34.3483 57.5078 33.9116 57.544C33.4749 57.5803 33.5024 57.6442 33.4478 57.9717C33.3932 58.2993 33.4201 58.363 33.1835 58.5906Z" fill="#B8C0C2" stroke="black" stroke-width="0.022509"/>
<path fill-rule="evenodd" clip-rule="evenodd" d="M33.8409 56.1228C34.1318 56.1774 34.3955 56.3136 34.5048 56.0862C34.614 55.8589 34.5501 55.7766 34.7505 55.7312C34.9507 55.6859 34.987 55.5676 34.9779 55.2127C34.9688 54.8576 35.2692 54.5575 34.5778 54.512C33.8862 54.4664 33.4495 54.4755 33.1312 54.3937C32.8128 54.3118 32.6767 54.0933 32.4126 54.4028C32.1487 54.7122 31.9851 55.0763 32.1124 55.3856C32.2398 55.6951 32.4492 55.8499 32.6674 56.05C32.8855 56.2502 33.1042 56.2865 33.3315 56.1409C33.5588 55.9954 33.7045 56.0773 33.8409 56.1229V56.1228Z" fill="#B8C0C2"/>
<path d="M33.8627 56.0408C33.927 56.053 33.9868 56.0683 34.0442 56.0827C34.2232 56.128 34.3741 56.1661 34.4301 56.0497C34.462 55.9834 34.4782 55.9286 34.4912 55.8845C34.53 55.7539 34.5489 55.6906 34.733 55.649C34.8041 55.6329 34.8451 55.6062 34.866 55.5559C34.8937 55.4889 34.8992 55.3803 34.895 55.2143C34.8924 55.1145 34.9112 55.0229 34.9284 54.9386C34.9388 54.8876 34.9486 54.8396 34.9514 54.7977C34.9583 54.6922 34.8992 54.6171 34.5735 54.5956C34.3581 54.5814 34.1725 54.5727 34.0065 54.5649C33.622 54.5469 33.341 54.5337 33.1115 54.4746C33.0169 54.4504 32.9414 54.417 32.8735 54.387C32.7302 54.3236 32.6294 54.2791 32.4775 54.4571C32.3436 54.6139 32.2374 54.7842 32.1862 54.9516C32.1437 55.091 32.1396 55.2283 32.1911 55.3533C32.2932 55.6013 32.456 55.7468 32.6326 55.9044C32.6678 55.936 32.7039 55.9681 32.7253 55.9878C32.8216 56.0762 32.9159 56.128 33.0089 56.1414C33.0988 56.1544 33.1912 56.1312 33.2871 56.0698C33.5233 55.9185 33.6811 55.9755 33.8232 56.0269C33.8355 56.031 33.8476 56.036 33.8627 56.0408ZM34.0035 56.246C33.9454 56.2313 33.8847 56.216 33.8264 56.205L33.8211 56.204L33.8152 56.202C33.8021 56.1979 33.7844 56.1912 33.7666 56.1848C33.6614 56.1468 33.5445 56.1045 33.3779 56.2112C33.2464 56.2954 33.1159 56.3267 32.9852 56.3079C32.8574 56.2895 32.7333 56.2232 32.6114 56.1114C32.5711 56.0744 32.5459 56.0519 32.5207 56.0294C32.3292 55.8584 32.1524 55.7005 32.0358 55.4171C31.9683 55.2532 31.9722 55.0778 32.0257 54.9028C32.0841 54.7113 32.2022 54.5207 32.3498 54.3477C32.5829 54.0745 32.731 54.1399 32.9413 54.2329C33.0046 54.2608 33.0749 54.2919 33.1529 54.312C33.3648 54.3664 33.6391 54.3793 34.0144 54.3969C34.1846 54.405 34.3751 54.4139 34.584 54.4276C35.0505 54.4584 35.1327 54.6025 35.1192 54.8082C35.1158 54.8603 35.1046 54.9145 35.0929 54.972C35.0775 55.0475 35.0608 55.1295 35.0628 55.2102C35.0677 55.3992 35.0596 55.5273 35.0213 55.6196C34.9762 55.7284 34.8989 55.7836 34.7698 55.8128C34.682 55.8327 34.6723 55.8651 34.6525 55.9319C34.6379 55.9811 34.6198 56.0423 34.5815 56.1221C34.4658 56.3628 34.2542 56.3093 34.0035 56.2459V56.246Z" fill="black"/>
<path fill-rule="evenodd" clip-rule="evenodd" d="M29.1947 55.8804C29.4585 56.1623 29.495 56.1989 29.8224 56.1261C30.1498 56.0533 30.3683 56.0349 30.3773 55.9075C30.3864 55.7802 30.4863 55.7623 30.641 55.935C30.7958 56.1077 31.0235 56.3352 31.2416 56.0624C31.3859 55.8817 31.4812 55.8226 31.4997 55.9646C31.5203 56.1234 31.4799 56.2526 31.6708 56.2709C31.8619 56.2892 32.5968 56.3762 32.5735 56.1316C32.5503 55.887 32.7389 55.7853 32.8391 55.5851C32.9393 55.3849 32.8753 55.2938 32.7208 55.2301C32.5662 55.1665 32.448 55.2574 32.4389 54.9844C32.4299 54.7115 32.0054 54.4607 31.2778 54.3424C30.5502 54.2241 29.7768 54.0784 29.3493 54.4152C28.9217 54.752 28.7855 54.934 28.8764 55.2706C28.9672 55.6072 28.9763 55.6527 29.1947 55.8804Z" fill="#B8C0C2"/>
<path d="M29.2536 55.8134C29.3774 55.9458 29.4478 56.0206 29.5153 56.0492C29.5779 56.0758 29.6564 56.0668 29.8019 56.0345C29.8625 56.021 29.9151 56.0102 29.9638 56.0002C30.1621 55.9595 30.2881 55.9337 30.2911 55.892C30.294 55.8509 30.3043 55.8156 30.3216 55.7875C30.3441 55.7508 30.3765 55.7271 30.4176 55.7182C30.4523 55.7111 30.4908 55.7152 30.5318 55.7335C30.5811 55.7552 30.6384 55.7993 30.7012 55.8693C30.7726 55.9491 30.8601 56.0411 30.9481 56.0787C31.018 56.1087 31.095 56.099 31.1737 56.0003C31.2543 55.8995 31.3245 55.8311 31.3815 55.8058C31.4918 55.7568 31.5613 55.7957 31.5807 55.9441V55.9444C31.5853 55.9804 31.5871 56.0121 31.5887 56.0418C31.5927 56.1152 31.5957 56.1699 31.6764 56.1776H31.6768L31.7112 56.1807C31.8375 56.1932 32.093 56.2188 32.2871 56.2003C32.4019 56.1895 32.4914 56.1686 32.4876 56.1294C32.4692 55.9344 32.5565 55.8223 32.6503 55.702C32.6903 55.6507 32.7317 55.5975 32.7617 55.5375C32.7999 55.4613 32.8089 55.4109 32.7954 55.378C32.7826 55.3465 32.7437 55.3212 32.6865 55.2977C32.653 55.2839 32.6176 55.279 32.5861 55.2746C32.4526 55.2562 32.3615 55.2436 32.3527 54.977C32.3491 54.8701 32.2527 54.7618 32.0763 54.6643C31.8863 54.5592 31.6106 54.4719 31.2619 54.4153L31.1642 54.3993C30.4838 54.2878 29.7784 54.1722 29.3989 54.4712C29.1929 54.6336 29.058 54.7569 28.9885 54.8753C28.925 54.9834 28.9161 55.0937 28.9553 55.2388L28.9606 55.2588C29.0418 55.5593 29.054 55.6048 29.253 55.8121L29.2536 55.813V55.8134ZM29.4495 56.2039C29.351 56.1621 29.2714 56.0778 29.132 55.9288L29.1318 55.929C28.9027 55.6902 28.8889 55.6392 28.7982 55.3026L28.7927 55.2826C28.7411 55.0911 28.7548 54.9421 28.8437 54.7908C28.9264 54.65 29.0735 54.5138 29.2949 54.3393C29.7323 53.9948 30.4749 54.1164 31.1911 54.2337L31.289 54.2497C31.6574 54.3096 31.9515 54.4033 32.1572 54.5171C32.3882 54.6449 32.5149 54.8022 32.5205 54.9721C32.5247 55.0968 32.5589 55.1016 32.6092 55.1085C32.6502 55.1145 32.6965 55.1205 32.7503 55.1428C32.8478 55.1829 32.9181 55.2351 32.9508 55.3152C32.9828 55.3938 32.9737 55.489 32.9118 55.613C32.874 55.6884 32.8274 55.7481 32.7826 55.8058C32.71 55.8987 32.6426 55.9853 32.6548 56.114C32.6706 56.2806 32.5112 56.3483 32.3029 56.368C32.0923 56.388 31.8263 56.3609 31.6948 56.3483L31.6603 56.3452V56.3451C31.4357 56.3234 31.4293 56.207 31.4208 56.0506C31.4196 56.0285 31.4184 56.0053 31.4161 55.9828C31.3868 56.0077 31.3491 56.0497 31.3047 56.1054C31.1654 56.2797 31.0194 56.2925 30.8823 56.2338C30.7633 56.1828 30.6596 56.0746 30.5762 55.9816C30.5307 55.9308 30.4931 55.9006 30.4641 55.8879L30.4611 55.8868C30.4601 55.8919 30.4594 55.8975 30.4589 55.9044C30.4468 56.0732 30.2722 56.1089 29.9974 56.1654C29.9465 56.1758 29.8916 56.1871 29.8381 56.1989C29.6563 56.2394 29.5529 56.2485 29.4495 56.204V56.2039Z" fill="black"/>
<path fill-rule="evenodd" clip-rule="evenodd" d="M26.2424 42.462C26.2424 43.8883 26.2792 45.5712 26.6082 48.2772C26.937 50.9834 27.2663 53.3242 27.2296 54.2752C27.1929 55.2261 26.6082 57.2744 26.0231 58.6275C25.4382 59.9805 25.4744 59.7979 25.365 60.7851C25.2556 61.7724 25.7569 60.9943 26.0495 60.4823C26.342 59.9703 26.3888 59.7976 26.6446 60.1635C26.9004 60.5292 26.9667 60.2658 27.2561 59.6603C27.5455 59.0548 27.6684 59.2859 27.8146 59.4685C27.9607 59.6512 28.2165 59.7976 28.5457 58.664C28.8749 57.5302 29.2039 56.0675 29.3136 54.6777C29.4232 53.2879 30.8122 46.4484 30.4103 45.2415C30.0084 44.0347 29.7157 43.3763 29.1306 42.6449C28.5457 41.9135 28.1436 41.3648 28.1436 40.2676C28.1436 39.1704 28.2896 37.9635 28.2532 37.671C28.2167 37.3784 28.107 36.9031 27.7049 36.9763C27.3028 37.0495 26.754 37.1957 26.5349 39.1339C26.3158 41.0722 26.2424 42.462 26.2424 42.462V42.462Z" fill="#B8C0C2"/>
<path d="M26.3266 42.4605C26.3266 43.1747 26.3357 43.9518 26.3857 44.8839C26.4359 45.818 26.5271 46.9131 26.6916 48.2659C26.7533 48.7739 26.8174 49.2874 26.8789 49.7797C27.1341 51.8238 27.3433 53.5006 27.3134 54.2767C27.2951 54.7498 27.1443 55.4868 26.9258 56.2749C26.6995 57.0914 26.3999 57.9656 26.1 58.6593C26.0159 58.8537 25.9627 58.9756 25.916 59.0826C25.7405 59.4843 25.6469 59.6987 25.5898 59.886C25.525 60.0984 25.5042 60.2871 25.4597 60.6917L25.4484 60.7928C25.4124 61.1185 25.4442 61.1829 25.4998 61.1323C25.6397 61.0048 25.833 60.6898 25.9763 60.4391C26.007 60.3853 26.032 60.3406 26.0551 60.2994C26.1638 60.1057 26.236 59.9769 26.3186 59.9191C26.4478 59.8286 26.5539 59.8859 26.7133 60.1139C26.7881 60.2208 26.8284 60.2569 26.8522 60.2402C26.9105 60.1994 26.9813 60.0474 27.0868 59.8209C27.1088 59.7734 27.1331 59.7214 27.1803 59.6226C27.3806 59.2035 27.5329 59.1379 27.6713 59.2041C27.7432 59.2384 27.7964 59.3069 27.8508 59.3769C27.8687 59.4 27.8744 59.4077 27.8799 59.4147C27.9297 59.4768 27.9953 59.5345 28.0648 59.4885L28.0647 59.4883C28.1737 59.4156 28.307 59.1834 28.465 58.6391C28.6428 58.0268 28.8207 57.317 28.9639 56.5735C29.0842 55.9493 29.1796 55.302 29.2295 54.6696C29.2633 54.2404 29.4185 53.2949 29.6055 52.156C30.0239 49.6067 30.6023 46.0823 30.3306 45.2664C30.1311 44.6672 29.9586 44.204 29.7634 43.8C29.5694 43.3984 29.3531 43.0558 29.0651 42.6958C28.7689 42.3255 28.5189 42.0011 28.3416 41.6279C28.1627 41.2511 28.0592 40.8283 28.0592 40.2662C28.0592 39.679 28.1011 39.0586 28.1346 38.5636C28.1632 38.1393 28.1856 37.8087 28.1695 37.6797C28.1523 37.5412 28.1182 37.3603 28.0427 37.2261C27.9771 37.1094 27.8762 37.029 27.7196 37.0574C27.534 37.0912 27.3148 37.1417 27.1187 37.4046C26.9116 37.6821 26.726 38.19 26.6184 39.1417C26.4062 41.0194 26.331 42.3753 26.3265 42.4605H26.3266ZM26.2179 44.8925C26.1674 43.95 26.1581 43.1727 26.1581 42.4605C26.1581 42.459 26.1581 42.4575 26.1582 42.456H26.1584C26.1592 42.4421 26.2328 41.0557 26.4513 39.1232C26.5628 38.1367 26.7611 37.6024 26.9837 37.3038C27.2173 36.9909 27.4735 36.9316 27.69 36.8922C27.9355 36.8475 28.0906 36.9681 28.1895 37.1439C28.2785 37.3021 28.3175 37.5052 28.3366 37.6593C28.3546 37.8028 28.3317 38.1409 28.3024 38.5749C28.2693 39.0654 28.2277 39.6804 28.2277 40.2662C28.2277 40.8012 28.3252 41.2014 28.4936 41.5561C28.6637 41.9143 28.9073 42.23 29.1961 42.5911C29.4931 42.9624 29.7157 43.3147 29.9147 43.7269C30.1126 44.1367 30.2876 44.6062 30.4898 45.2137C30.7748 46.0692 30.1924 49.6169 29.7713 52.1829C29.5853 53.3163 29.431 54.257 29.3973 54.6828C29.347 55.3209 29.2506 55.9746 29.1291 56.6051C28.9853 57.3519 28.8058 58.0672 28.6262 58.6859C28.4551 59.2752 28.2958 59.5366 28.1581 59.6285L28.1114 59.5584L28.1578 59.6285C27.9806 59.7467 27.8454 59.6399 27.749 59.5194C27.7231 59.4871 27.7199 59.4829 27.7179 59.4803C27.6753 59.4256 27.6338 59.3722 27.5989 59.3555C27.5489 59.3315 27.475 59.3953 27.3317 59.695C27.3114 59.7375 27.274 59.8176 27.2395 59.892C27.1229 60.1423 27.0446 60.3104 26.9483 60.3778C26.828 60.462 26.719 60.4149 26.5758 60.21C26.4857 60.0812 26.4415 60.0379 26.4146 60.0567C26.3645 60.0918 26.2995 60.2076 26.2019 60.3817C26.1764 60.4273 26.1489 60.4762 26.1224 60.5227C25.9732 60.7839 25.7695 61.114 25.613 61.2567C25.3722 61.4762 25.208 61.436 25.2813 60.7744L25.2924 60.6733C25.3381 60.2594 25.3594 60.0663 25.4293 59.8374C25.4897 59.6389 25.5844 59.4219 25.762 59.0154C25.8221 58.8779 25.8906 58.7208 25.946 58.5927C26.2425 57.907 26.5392 57.0406 26.7639 56.2301C26.9793 55.4533 27.1279 54.7301 27.1456 54.2707C27.1749 53.5108 26.9662 51.8385 26.7118 49.8001C26.6518 49.3198 26.5893 48.8189 26.5245 48.2857C26.3599 46.9323 26.2683 45.8328 26.2179 44.8925Z" fill="black"/>
<path fill-rule="evenodd" clip-rule="evenodd" d="M31.7827 43.7188C33.0434 43.7188 34.0652 45.0208 34.0652 46.6264C34.0652 48.2322 33.0434 49.5341 31.7827 49.5341C30.5219 49.5341 29.5 48.2322 29.5 46.6264C29.5 45.0208 30.5219 43.7188 31.7827 43.7188Z" fill="#BBBFC2"/>
<path d="M31.7829 43.6367C32.4404 43.6367 33.0343 43.9745 33.463 44.5207C33.8872 45.0611 34.1496 45.8065 34.1496 46.6286C34.1496 47.4509 33.8872 48.1963 33.463 48.7367C33.0343 49.2828 32.4404 49.6205 31.7829 49.6205C31.1254 49.6205 30.5313 49.2828 30.1027 48.7368C29.6784 48.1963 29.416 47.4509 29.416 46.6286C29.416 45.8065 29.6784 45.061 30.1027 44.5207C30.5314 43.9745 31.1254 43.6367 31.7829 43.6367ZM33.3307 44.6246C32.9333 44.1184 32.386 43.8053 31.7829 43.8053C31.1797 43.8053 30.6324 44.1184 30.2349 44.6246C29.833 45.1366 29.5845 45.8451 29.5845 46.6286C29.5845 47.4123 29.833 48.1208 30.2349 48.6327C30.6323 49.1389 31.1797 49.452 31.7829 49.452C32.386 49.452 32.9333 49.1389 33.3307 48.6327C33.7326 48.1208 33.9812 47.4123 33.9812 46.6286C33.9812 45.8451 33.7326 45.1366 33.3307 44.6246Z" fill="black"/>
<path fill-rule="evenodd" clip-rule="evenodd" d="M32.4325 52.1074C32.3447 50.9957 32.4544 50.2062 32.4544 49.6501C32.4544 49.0941 32.9767 49.0687 33.1815 49.1271C33.3862 49.1854 33.4685 49.2602 33.4283 50.0301C33.3879 50.7999 33.4223 51.367 33.4554 52.1457C33.4885 52.9244 33.6161 53.2668 33.7333 53.8518C33.8505 54.4368 33.8339 54.488 33.5924 54.7661C33.3511 55.0441 33.2728 55 33.0442 54.8227C32.8156 54.6453 32.5452 54.5869 32.5236 53.8225C32.5019 53.0582 32.491 53.0437 32.4325 52.1074Z" fill="#BBBFC2"/>
<path d="M32.3496 52.1164C32.2889 51.3458 32.3223 50.7291 32.3489 50.2372C32.3608 50.0197 32.3712 49.827 32.3712 49.6524C32.3712 49.5723 32.3812 49.5015 32.3991 49.4388C32.4456 49.2755 32.5441 49.171 32.6603 49.1071C32.772 49.0457 32.8995 49.0237 33.0105 49.0237V49.0234C33.0853 49.0234 33.1538 49.0336 33.2056 49.0484C33.3336 49.0848 33.4236 49.1273 33.4775 49.2874C33.5221 49.42 33.5339 49.6405 33.5132 50.0366C33.4777 50.7172 33.5007 51.2393 33.5294 51.8917C33.5329 51.9691 33.5364 52.0499 33.5405 52.1447C33.5648 52.7177 33.6415 53.0526 33.7271 53.4263C33.7571 53.5578 33.7882 53.694 33.817 53.8376C33.8776 54.1397 33.9033 54.3056 33.8814 54.4398C33.8582 54.5822 33.788 54.6725 33.6571 54.8232C33.5191 54.9822 33.4217 55.0492 33.3163 55.0513C33.2102 55.0533 33.1226 54.9912 32.9939 54.8914C32.9639 54.8681 32.9306 54.8453 32.8973 54.8226C32.6789 54.6735 32.4606 54.5243 32.4407 53.8271C32.4247 53.2625 32.4146 53.1087 32.3861 52.6782C32.3766 52.5346 32.365 52.3595 32.3497 52.1163L32.3496 52.1164ZM32.5168 50.2457C32.4904 50.732 32.4573 51.3415 32.5175 52.1032V52.1048C32.5321 52.3371 32.544 52.5188 32.5539 52.6677C32.5822 53.0949 32.5922 53.2475 32.6085 53.8226C32.6259 54.4336 32.809 54.5587 32.9921 54.6837C33.0264 54.7072 33.0608 54.7306 33.0966 54.7585C33.1966 54.836 33.2626 54.8844 33.313 54.8834C33.3642 54.8824 33.4266 54.8325 33.53 54.7133C33.6406 54.5861 33.6994 54.5118 33.7155 54.4128C33.733 54.3057 33.7085 54.1533 33.6518 53.8705C33.6212 53.7177 33.5916 53.5885 33.5632 53.4639C33.4759 53.0826 33.3978 52.7411 33.3727 52.1513C33.3693 52.0728 33.3655 51.9854 33.3616 51.8989C33.3326 51.2418 33.3094 50.7159 33.3454 50.0281C33.365 49.6544 33.3558 49.4524 33.3182 49.3407C33.2898 49.2563 33.2363 49.2322 33.1595 49.2103C33.1215 49.1994 33.0694 49.192 33.0105 49.192V49.1916C32.924 49.1916 32.8256 49.2082 32.7412 49.2546C32.6613 49.2985 32.5933 49.3711 32.5609 49.4849C32.5474 49.5327 32.5397 49.5882 32.5397 49.6524C32.5397 49.8235 32.5289 50.0218 32.5168 50.2457Z" fill="black"/>
<path fill-rule="evenodd" clip-rule="evenodd" d="M30.0249 52.0555C30.1126 50.9438 30.113 50.1449 30.113 49.5888C30.113 49.0329 29.8096 49.2173 29.6048 49.2758C29.4001 49.3341 29.2539 49.1625 29.2942 49.9323C29.3344 50.7022 29.3271 51.3241 29.2939 52.1028C29.2608 52.8816 29.0238 53.1782 28.9066 53.7631C28.7894 54.348 28.806 54.3994 29.0475 54.6774C29.2889 54.9554 29.3672 54.9114 29.5958 54.734C29.8244 54.5567 29.9302 54.5531 29.8425 53.8801C29.7547 53.2071 29.9663 52.9917 30.0249 52.0555Z" fill="#BBBFC2"/>
<path d="M29.941 52.0472C29.985 51.4895 30.007 51.0142 30.018 50.6101C30.0288 50.214 30.0289 49.8698 30.0289 49.5872C30.0289 49.3445 29.972 49.2818 29.9002 49.2818C29.8462 49.2818 29.7776 49.3053 29.7135 49.3272C29.6835 49.3375 29.6543 49.3474 29.6279 49.355C29.5806 49.3685 29.5392 49.3716 29.5011 49.3744C29.4079 49.3814 29.3499 49.3857 29.3781 49.9264C29.3983 50.3114 29.4065 50.6609 29.4056 51.0126C29.4046 51.3643 29.3944 51.7153 29.3779 52.1045C29.3565 52.606 29.2534 52.9105 29.1501 53.2156C29.0911 53.39 29.032 53.5647 28.9893 53.7778C28.9326 54.0606 28.908 54.213 28.9256 54.3201C28.9417 54.4191 29.0005 54.4935 29.111 54.6208C29.2144 54.7398 29.2768 54.7898 29.3281 54.7909C29.3785 54.7919 29.4445 54.7434 29.5444 54.6658C29.5658 54.6492 29.5865 54.6339 29.6059 54.6195C29.7645 54.5017 29.8325 54.4512 29.7593 53.8893C29.7075 53.4923 29.7554 53.252 29.8173 52.9416C29.8628 52.7133 29.9162 52.4458 29.941 52.0488V52.0472ZM30.1858 50.6141C30.1746 51.0263 30.1526 51.5064 30.1088 52.0604H30.1087C30.0829 52.4708 30.0287 52.7425 29.9825 52.9745C29.9235 53.2705 29.8778 53.4996 29.9258 53.8676C30.0118 54.5273 29.92 54.5955 29.7059 54.7544C29.6875 54.7682 29.6679 54.7827 29.6471 54.7988C29.5185 54.8986 29.4309 54.9608 29.3247 54.9588C29.2194 54.9568 29.122 54.8896 28.984 54.7307C28.853 54.5799 28.7829 54.4896 28.7597 54.3472C28.7378 54.2129 28.7635 54.0472 28.8241 53.745C28.8685 53.523 28.9297 53.3422 28.9909 53.1616C29.0905 52.8676 29.1898 52.5742 29.2101 52.0979C29.2267 51.7084 29.2368 51.359 29.2377 51.0126C29.2386 50.6663 29.2304 50.3197 29.2103 49.9349C29.1734 49.2301 29.2944 49.221 29.4885 49.2065C29.5183 49.2044 29.5508 49.2019 29.5818 49.193C29.6071 49.1858 29.6331 49.177 29.6595 49.1679C29.7367 49.1416 29.8191 49.1133 29.9002 49.1133C30.066 49.1133 30.1973 49.2105 30.1973 49.5872C30.1973 49.8605 30.1972 50.1939 30.1858 50.6141Z" fill="black"/>
<path fill-rule="evenodd" clip-rule="evenodd" d="M30.6665 52.0099C30.7542 50.898 30.7361 50.1175 30.7361 49.5615C30.7361 49.0055 30.4325 49.19 30.2278 49.2484C30.0231 49.3067 29.8769 49.1352 29.9171 49.905C29.9575 50.6749 29.9687 51.2784 29.9356 52.0572C29.9024 52.8358 29.848 53.1691 29.7308 53.7541C29.6137 54.3391 29.6302 54.3904 29.8717 54.6684C30.113 54.9464 30.1913 54.9024 30.4199 54.725C30.6485 54.5476 30.7544 54.5441 30.6667 53.8711C30.5789 53.1981 30.6078 52.946 30.6665 52.0099Z" fill="#BBBFC2"/>
<path d="M30.5826 51.9976C30.6582 51.0395 30.6552 50.3311 30.653 49.7994L30.652 49.5559C30.652 49.3133 30.595 49.2505 30.5232 49.2505C30.4692 49.2505 30.4007 49.2739 30.3365 49.2959C30.3066 49.3062 30.2774 49.3162 30.251 49.3237C30.2037 49.3372 30.1621 49.3403 30.1241 49.3431C30.0309 49.35 29.9729 49.3544 30.0012 49.8951C30.0212 50.2794 30.0341 50.6237 30.0379 50.9714C30.0416 51.3181 30.0361 51.6649 30.0195 52.0548C30.0028 52.4464 29.9807 52.7266 29.948 52.9832C29.9148 53.2432 29.8719 53.4733 29.8135 53.7649C29.7569 54.0477 29.7323 54.2001 29.7498 54.3072C29.7659 54.4062 29.8247 54.4806 29.9352 54.6078C30.0387 54.7269 30.1012 54.7769 30.1523 54.7779C30.2027 54.7789 30.2687 54.7304 30.3687 54.6529C30.3901 54.6363 30.4107 54.621 30.4301 54.6065C30.5888 54.4888 30.6567 54.4382 30.5835 53.8764C30.5025 53.2549 30.5194 52.9891 30.5677 52.2344C30.5729 52.1539 30.5784 52.0663 30.5826 51.9993V51.9976ZM30.8208 49.7988C30.823 50.336 30.8261 51.052 30.7504 52.0107H30.7503C30.7441 52.1102 30.7397 52.1788 30.7355 52.245C30.6879 52.9886 30.6712 53.2505 30.75 53.8546C30.836 54.5144 30.7442 54.5825 30.5301 54.7415C30.5117 54.7552 30.4921 54.7698 30.4714 54.7859C30.3427 54.8857 30.2552 54.9479 30.1491 54.9458C30.0436 54.9437 29.9462 54.8767 29.8082 54.7178C29.6773 54.5669 29.6071 54.4766 29.5839 54.3343C29.562 54.2 29.5877 54.0343 29.6483 53.732C29.707 53.4388 29.7499 53.2097 29.7815 52.9621C29.8135 52.7112 29.8352 52.4354 29.8517 52.0482C29.8683 51.6594 29.8738 51.3151 29.87 50.9727C29.8664 50.6317 29.8535 50.2892 29.8334 49.9037C29.7965 49.1988 29.9173 49.1897 30.1116 49.1753C30.1414 49.173 30.1739 49.1706 30.2049 49.1618C30.2302 49.1546 30.256 49.1457 30.2826 49.1366C30.3597 49.1102 30.4422 49.082 30.5232 49.082C30.6889 49.082 30.8204 49.1793 30.8204 49.5559C30.8204 49.705 30.8206 49.7527 30.8208 49.7988Z" fill="black"/>
<path fill-rule="evenodd" clip-rule="evenodd" d="M31.7469 52.1053C31.8347 50.9936 31.6248 50.2222 31.6248 49.6661C31.6248 49.1102 31.148 49.0666 30.9433 49.125C30.7386 49.1833 30.6563 49.2581 30.6965 50.028C30.7367 50.7978 30.7025 51.3649 30.6693 52.1436C30.6362 52.9223 30.6455 53.2192 30.5283 53.8041C30.4111 54.3891 30.6558 54.5224 30.8973 54.8004C31.1386 55.0785 31.2169 55.0344 31.4455 54.8571C31.6742 54.6797 31.9445 54.6213 31.9662 53.857C31.9878 53.0926 31.6883 53.0416 31.7469 52.1053Z" fill="#BBBFC2"/>
<path d="M31.6642 52.1011C31.7204 51.3902 31.6532 50.8182 31.5988 50.3538C31.5684 50.0949 31.5418 49.8689 31.5418 49.6684C31.5418 49.5979 31.5335 49.5375 31.5188 49.4857C31.4863 49.3716 31.4217 49.2985 31.3463 49.2544C31.2686 49.2087 31.1775 49.1919 31.0968 49.1919C31.0468 49.1919 31.0022 49.1983 30.9675 49.2081C30.8909 49.23 30.8373 49.2541 30.8089 49.3386C30.7713 49.4503 30.7621 49.6523 30.7817 50.0259C30.8176 50.7138 30.7944 51.2398 30.7655 51.8971C30.7617 51.9839 30.7577 52.0742 30.7545 52.1492C30.7486 52.2878 30.7441 52.4082 30.74 52.518C30.7205 53.0459 30.7097 53.3353 30.6121 53.8228C30.5211 54.2772 30.6692 54.4341 30.8515 54.6272C30.887 54.6647 30.9236 54.7034 30.9621 54.7477C31.0655 54.8668 31.1279 54.9168 31.1791 54.9178C31.2296 54.9188 31.2955 54.8704 31.3955 54.7928C31.4313 54.765 31.4657 54.7416 31.5 54.7181C31.6831 54.593 31.8663 54.468 31.8836 53.8569C31.8932 53.5169 31.8365 53.3222 31.7781 53.1223C31.7061 52.8751 31.6319 52.6203 31.6642 52.1027V52.1011ZM31.766 50.3347C31.8213 50.8063 31.8895 51.3874 31.832 52.1142L31.8319 52.1141C31.8015 52.6027 31.8715 52.8427 31.9394 53.0755C32.0014 53.2882 32.0617 53.4953 32.0514 53.8615C32.0317 54.5587 31.8133 54.7078 31.5948 54.857C31.5615 54.8797 31.5283 54.9025 31.4982 54.9258C31.3695 55.0256 31.282 55.0878 31.1759 55.0857C31.0704 55.0836 30.973 55.0166 30.835 54.8577C30.8007 54.8182 30.7643 54.7797 30.7292 54.7424C30.5139 54.5144 30.3389 54.3291 30.4469 53.7899C30.5426 53.3125 30.5531 53.029 30.5723 52.512C30.5765 52.3999 30.581 52.2768 30.5867 52.1426C30.5908 52.0444 30.5943 51.9668 30.5977 51.8898C30.6264 51.2374 30.6495 50.7151 30.6138 50.0345C30.5932 49.6384 30.605 49.4179 30.6497 49.2853C30.7035 49.1252 30.7935 49.0827 30.9214 49.0462C30.9701 49.0324 31.031 49.0234 31.0968 49.0234C31.2025 49.0234 31.3239 49.0465 31.4312 49.1096C31.5411 49.174 31.6348 49.2785 31.6807 49.4396C31.6997 49.5061 31.7104 49.582 31.7104 49.6684C31.7104 49.861 31.7363 50.0819 31.766 50.3347Z" fill="black"/>
<path fill-rule="evenodd" clip-rule="evenodd" d="M31.6844 52.1095C31.5967 50.9978 31.6148 50.2173 31.6148 49.6613C31.6148 49.1052 31.7001 49.3718 32.1231 49.3481C32.546 49.3244 32.474 49.2258 32.4337 49.9957C32.3934 50.7655 32.3822 51.3782 32.4153 52.1569C32.4485 52.9356 32.5029 53.2689 32.6201 53.8539C32.7372 54.4389 32.7207 54.4901 32.4792 54.7682C32.2379 55.0462 32.1596 55.0021 31.931 54.8248C31.7023 54.6474 31.5965 54.6438 31.6842 53.9708C31.772 53.2978 31.7431 53.0457 31.6844 52.1095Z" fill="#BBBFC2"/>
<path d="M31.6005 52.1184C31.5248 51.1596 31.5279 50.4436 31.5301 49.9064C31.5303 49.8603 31.5305 49.8125 31.5305 49.6635C31.5305 49.304 31.5724 49.2227 31.7208 49.2227C31.7547 49.2227 31.7916 49.2303 31.8369 49.2397C31.9059 49.254 31.9983 49.2731 32.1184 49.2664C32.1722 49.2634 32.2131 49.2597 32.2482 49.2565C32.4028 49.2426 32.4777 49.2358 32.5264 49.3374C32.5582 49.4036 32.551 49.5045 32.5369 49.7C32.5309 49.784 32.5236 49.8865 32.5176 50.0021C32.4974 50.3877 32.4845 50.7325 32.4809 51.0759C32.4772 51.4205 32.4826 51.767 32.4992 52.1558C32.5156 52.5429 32.5374 52.8188 32.5694 53.0697C32.601 53.3173 32.6439 53.5464 32.7026 53.8396C32.7631 54.1417 32.7889 54.3076 32.767 54.4419C32.7438 54.5842 32.6736 54.6745 32.5427 54.8253C32.4047 54.9843 32.3073 55.0512 32.2019 55.0534C32.0957 55.0554 32.0082 54.9933 31.8796 54.8935C31.8588 54.8774 31.8392 54.8628 31.8207 54.8491C31.6067 54.6901 31.5149 54.622 31.6009 53.9622C31.6797 53.358 31.663 53.0961 31.6154 52.3524C31.6107 52.2793 31.6058 52.2015 31.6006 52.1183L31.6005 52.1184ZM31.6979 49.907C31.6957 50.4386 31.6927 51.1471 31.7683 52.1052V52.1065C31.7735 52.1901 31.7786 52.2684 31.7832 52.3419C31.8314 53.0966 31.8485 53.3624 31.7674 53.984C31.6942 54.5458 31.7622 54.5964 31.9208 54.7141C31.9402 54.7286 31.9609 54.7439 31.9823 54.7605C32.0822 54.838 32.1482 54.8865 32.1986 54.8855C32.2498 54.8844 32.3123 54.8345 32.4157 54.7153C32.5262 54.5882 32.585 54.5138 32.6011 54.4148C32.6187 54.3076 32.594 54.1553 32.5374 53.8725C32.479 53.5808 32.4361 53.3507 32.4029 53.0908C32.3702 52.8342 32.348 52.5539 32.3314 52.1624C32.3148 51.7725 32.3093 51.4233 32.3131 51.0746C32.3168 50.7245 32.3297 50.378 32.3497 49.9936C32.3564 49.8658 32.3634 49.7682 32.3692 49.6881C32.381 49.5214 32.3872 49.4352 32.3751 49.4098C32.3732 49.4061 32.3395 49.4168 32.2626 49.4238C32.2226 49.4273 32.1759 49.4316 32.1276 49.4343C31.9863 49.4421 31.8816 49.4204 31.8034 49.4042C31.7686 49.397 31.7402 49.3912 31.7208 49.3912C31.7038 49.3912 31.699 49.4414 31.699 49.6635L31.6979 49.907Z" fill="black"/>
<path fill-rule="evenodd" clip-rule="evenodd" d="M30.1645 48.1192C30.7004 48.2948 31.0017 48.4704 31.8396 48.4996C32.6773 48.5288 32.9455 48.2072 33.0125 48.7631C33.0794 49.3188 33.381 49.4357 32.7109 49.4944C32.0406 49.553 31.3374 49.5528 30.734 49.4066C30.1308 49.2604 29.4609 49.2602 29.4944 48.7336C29.5278 48.207 29.6618 48.0314 30.1645 48.1192Z" fill="#BBBFC2"/>
<path fill-rule="evenodd" clip-rule="evenodd" d="M30.1645 48.1192C30.7004 48.2948 31.0017 48.4704 31.8396 48.4996C32.6773 48.5288 32.9455 48.2072 33.0125 48.7631C33.0794 49.3188 33.381 49.4357 32.7109 49.4944C32.0406 49.553 31.3374 49.5528 30.734 49.4066C30.1308 49.2604 29.4609 49.2602 29.4944 48.7336C29.5278 48.207 29.6618 48.0314 30.1645 48.1192V48.1192Z" stroke="black" stroke-width="0.0103138"/>
<path fill-rule="evenodd" clip-rule="evenodd" d="M33.3821 52.1074C33.2944 50.9957 33.303 50.2059 33.303 49.6499C33.303 49.094 33.981 49.0687 34.1858 49.1271C34.3905 49.1855 34.4727 49.2602 34.4324 50.0301C34.3922 50.7999 34.4266 51.3671 34.4597 52.1457C34.4928 52.9244 34.6204 53.2668 34.7376 53.8518C34.8547 54.4368 34.8382 54.4881 34.5967 54.7661C34.3554 55.0441 34.2771 55 34.0484 54.8227C33.8198 54.6453 33.5495 54.5869 33.5278 53.8225C33.5061 53.0583 33.4407 53.0437 33.3821 52.1074Z" fill="#BBBFC2"/>
<path d="M33.3002 52.1164C33.2194 51.0927 33.2203 50.3382 33.2209 49.789C33.221 49.6948 33.2207 49.989 33.2207 49.6522C33.2207 49.5865 33.2292 49.5268 33.2447 49.4726C33.2959 49.293 33.4206 49.1794 33.5677 49.111C33.7069 49.0463 33.8656 49.0234 33.9963 49.0234C34.0827 49.0234 34.1589 49.0336 34.2108 49.0484C34.3387 49.0848 34.4288 49.1273 34.4827 49.2874C34.5272 49.42 34.5391 49.6405 34.5184 50.0366C34.4829 50.7174 34.5058 51.2395 34.5346 51.8921C34.538 51.969 34.5414 52.0465 34.5455 52.1447C34.57 52.7178 34.6466 53.0526 34.7322 53.4265C34.7623 53.5579 34.7934 53.694 34.8222 53.8376C34.8827 54.1397 34.9085 54.3056 34.8866 54.4398C34.8634 54.5822 34.7932 54.6725 34.6622 54.8232C34.5243 54.9822 34.4268 55.0492 34.3214 55.0513C34.2153 55.0533 34.1277 54.9912 33.9991 54.8914C33.969 54.8681 33.9358 54.8453 33.9025 54.8226C33.6841 54.6735 33.4656 54.5243 33.4459 53.8271C33.4346 53.4281 33.4108 53.2341 33.3823 53.0014C33.357 52.7956 33.3281 52.5596 33.3003 52.1163L33.3002 52.1164ZM33.3887 49.789C33.3881 50.3327 33.3872 51.0797 33.4681 52.1032V52.1048C33.4952 52.5386 33.5242 52.775 33.5494 52.9811C33.5781 53.2149 33.6021 53.4099 33.6137 53.8226C33.631 54.4336 33.8142 54.5587 33.9973 54.6837C34.0316 54.7072 34.066 54.7306 34.1018 54.7585C34.2018 54.836 34.2677 54.8844 34.3182 54.8834C34.3694 54.8824 34.4318 54.8325 34.5352 54.7133C34.6457 54.5861 34.7046 54.5118 34.7207 54.4128C34.7382 54.3057 34.7137 54.1533 34.657 53.8705C34.6264 53.7178 34.5969 53.5886 34.5683 53.464C34.481 53.0827 34.4029 52.7411 34.3778 52.1513C34.3746 52.0764 34.3706 51.9862 34.3668 51.8993C34.3378 51.242 34.3146 50.7161 34.3506 50.0281C34.3701 49.6544 34.3609 49.4524 34.3233 49.3407C34.295 49.2563 34.2415 49.2322 34.1647 49.2103C34.1265 49.1994 34.0671 49.1919 33.9963 49.1919C33.8855 49.1919 33.7522 49.2107 33.6381 49.2638C33.532 49.3131 33.4422 49.3936 33.4066 49.5187C33.3953 49.558 33.3893 49.6023 33.3893 49.6522C33.3893 49.9008 33.3889 49.6006 33.3887 49.789Z" fill="black"/>
<path fill-rule="evenodd" clip-rule="evenodd" d="M29.6069 43.2891C29.1682 43.3477 28.7294 43.5525 28.5833 43.8743C28.4371 44.1961 28.4661 44.2839 28.4955 44.986C28.5249 45.6882 28.5246 46.8001 28.4077 47.9996C28.2907 49.1992 28.5249 49.404 28.5249 49.8722C28.5249 50.3404 28.7882 50.0768 28.8173 50.5158C28.8465 50.9549 28.9635 50.8378 29.3437 50.984C29.7241 51.1302 29.8408 50.8668 29.8994 50.428C29.958 49.9892 30.2213 48.8482 30.2505 48.2631C30.2796 47.6778 30.0455 46.7122 29.9871 45.8053C29.9288 44.8983 30.2213 44.7519 30.426 44.6057C30.6307 44.4595 30.9814 44.0791 30.7182 43.7865C30.4552 43.4938 30.0458 43.2891 29.6069 43.2891Z" fill="#BBBFC2" stroke="black" stroke-width="0.022509"/>
<path fill-rule="evenodd" clip-rule="evenodd" d="M32.0063 37.25C33.4197 37.25 34.5654 38.3961 34.5654 39.81C34.5654 41.2238 33.4197 42.3699 32.0063 42.3699C30.5928 42.3699 29.4473 41.2238 29.4473 39.81C29.4473 38.3961 30.5928 37.25 32.0063 37.25Z" fill="white"/>
<path d="M32.0046 37.1719C32.7345 37.1719 33.3953 37.4678 33.8737 37.9464C34.352 38.4248 34.6479 39.086 34.6479 39.8161C34.6479 40.5464 34.352 41.2074 33.8737 41.6859C33.3953 42.1644 32.7345 42.4604 32.0046 42.4604C31.2747 42.4604 30.6139 42.1644 30.1355 41.6859C29.6572 41.2074 29.3613 40.5464 29.3613 39.8161C29.3613 39.086 29.6572 38.4248 30.1355 37.9464C30.6139 37.4678 31.2747 37.1719 32.0046 37.1719ZM33.7546 38.0656C33.3067 37.6176 32.688 37.3405 32.0046 37.3405C31.3212 37.3405 30.7024 37.6176 30.2546 38.0656C29.8068 38.5135 29.5298 39.1325 29.5298 39.8161C29.5298 40.4999 29.8068 41.1188 30.2546 41.5667C30.7024 42.0148 31.3212 42.2918 32.0046 42.2918C32.688 42.2918 33.3067 42.0148 33.7546 41.5667C34.2024 41.1188 34.4794 40.4999 34.4794 39.8161C34.4794 39.1325 34.2024 38.5135 33.7546 38.0656Z" fill="black"/>
<path fill-rule="evenodd" clip-rule="evenodd" d="M32.0614 43.7404H32.0632C31.6795 43.7587 30.6921 43.1186 30.9481 42.9358C31.2041 42.7529 31.6244 41.8568 31.6427 41.0705C31.6481 40.8422 32.4771 40.861 32.482 41.0705C32.5003 41.8568 32.9205 42.7529 33.1766 42.9358C33.4326 43.1186 32.4453 43.7587 32.0614 43.7404Z" fill="#EFEFEF"/>
<path d="M32.0594 43.658H32.0612L32.0619 43.6892L32.0633 43.6583C32.2536 43.6674 32.6171 43.4911 32.8734 43.3004C32.9597 43.2361 33.0325 43.1711 33.0804 43.1119C33.1166 43.067 33.1365 43.0317 33.1322 43.0123C33.1319 43.011 33.1299 43.009 33.1259 43.0061C32.9739 42.8975 32.7732 42.5699 32.6222 42.1642C32.4981 41.8312 32.4046 41.4416 32.3961 41.074C32.3955 41.0485 32.3215 41.0243 32.2257 41.0071C32.1711 40.9974 32.1109 40.9922 32.0509 40.9921C31.9909 40.9919 31.9314 40.9966 31.8782 41.0063C31.791 41.0223 31.7252 41.0458 31.7246 41.074C31.716 41.4416 31.6225 41.8312 31.4986 42.1642C31.3474 42.5699 31.1467 42.8975 30.9947 43.0061C30.9908 43.009 30.9887 43.011 30.9885 43.0123C30.9841 43.0317 31.004 43.067 31.0402 43.1119C31.0881 43.1711 31.1609 43.2361 31.2472 43.3004C31.5035 43.4911 31.867 43.6674 32.0573 43.6583L32.0587 43.6892L32.0594 43.658ZM32.0612 43.8264V43.8265H32.0594V43.8264C31.8314 43.8338 31.4257 43.6427 31.1472 43.4353C31.0501 43.3631 30.9668 43.2881 30.91 43.2179C30.8415 43.1333 30.8078 43.0499 30.8246 42.9754C30.834 42.9335 30.8576 42.8975 30.8973 42.8691C31.0247 42.7782 31.2013 42.4815 31.3413 42.1057C31.4596 41.7879 31.5487 41.4177 31.5568 41.0706C31.5597 40.9452 31.684 40.8711 31.8479 40.8411C31.911 40.8295 31.9809 40.8239 32.0509 40.8242C32.1208 40.8244 32.1913 40.8304 32.2554 40.8419C32.4275 40.8728 32.561 40.9489 32.5638 41.0706C32.5719 41.4177 32.661 41.7879 32.7793 42.1057C32.9193 42.4815 33.0959 42.7782 33.2233 42.8691C33.263 42.8975 33.2866 42.9335 33.296 42.9754C33.3128 43.0499 33.2791 43.1333 33.2106 43.2179C33.1538 43.2881 33.0707 43.3631 32.9735 43.4353C32.6949 43.6427 32.2893 43.8338 32.0612 43.8264Z" fill="black"/>
<path fill-rule="evenodd" clip-rule="evenodd" d="M37.7582 42.462C37.7582 43.8883 37.7216 45.5712 37.3926 48.2772C37.0636 50.9834 36.7344 53.3242 36.7711 54.2752C36.8079 55.2261 37.3926 57.2744 37.9775 58.6275C38.5626 59.9805 38.5263 59.7979 38.6357 60.7851C38.7452 61.7724 38.2437 60.9943 37.9513 60.4823C37.6588 59.9703 37.6119 59.7976 37.3561 60.1635C37.1003 60.5292 37.034 60.2658 36.7446 59.6603C36.4552 59.0548 36.3323 59.2859 36.1862 59.4685C36.04 59.6512 35.7842 59.7976 35.4551 58.664C35.1258 57.5302 34.7969 56.0675 34.6872 54.6777C34.5775 53.2879 33.1884 46.4484 33.5903 45.2415C33.9924 44.0347 34.2851 43.3763 34.87 42.6449C35.4551 41.9135 35.8572 41.3648 35.8572 40.2676C35.8572 39.1704 35.711 37.9635 35.7475 37.671C35.7839 37.3784 35.8936 36.9031 36.2957 36.9763C36.698 37.0495 37.2466 37.1957 37.4657 39.1339C37.6848 41.0722 37.7582 42.462 37.7582 42.462V42.462Z" fill="#B8C0C2"/>
<path d="M37.8409 42.4605C37.8409 43.1727 37.8317 43.95 37.7811 44.8925C37.7306 45.8328 37.6391 46.9323 37.4746 48.2857C37.4098 48.819 37.3473 49.3199 37.2873 49.8002C37.0329 51.8386 36.8241 53.5108 36.8535 54.2707C36.8712 54.7301 37.0198 55.4533 37.2351 56.2301C37.4598 57.0407 37.7566 57.907 38.053 58.5927C38.1078 58.7196 38.1768 58.8775 38.237 59.0152C38.4145 59.4218 38.5092 59.6389 38.5698 59.8372C38.6397 60.0663 38.661 60.2594 38.7066 60.6732L38.7177 60.7744C38.7911 61.436 38.6269 61.4762 38.3861 61.2567C38.2295 61.114 38.0259 60.7839 37.8766 60.5227C37.8502 60.4763 37.8226 60.4273 37.7971 60.3817C37.6994 60.2076 37.6345 60.0918 37.5844 60.0567C37.5574 60.0379 37.5134 60.0812 37.4233 60.21C37.28 60.4149 37.1711 60.462 37.0507 60.3778C36.9544 60.3103 36.8762 60.1423 36.7596 59.892C36.725 59.8177 36.6871 59.7362 36.6673 59.695C36.5241 59.3953 36.4501 59.3315 36.4001 59.3554C36.3652 59.3722 36.3236 59.4257 36.2811 59.4804C36.2787 59.4834 36.2761 59.4865 36.25 59.5194C36.1536 59.64 36.0183 59.7468 35.8409 59.6285C35.7032 59.5366 35.5439 59.2752 35.3729 58.6859C35.1932 58.0672 35.0138 57.3519 34.8699 56.605C34.7484 55.9746 34.652 55.3209 34.6017 54.6828C34.5681 54.257 34.4137 53.3161 34.2277 52.1827C33.8065 49.6167 33.2243 46.0692 33.5092 45.2137C33.7115 44.6062 33.8865 44.1366 34.0843 43.7269C34.2834 43.3147 34.506 42.9624 34.803 42.5911C35.0918 42.23 35.3353 41.9143 35.5053 41.5561C35.6738 41.2014 35.7713 40.8012 35.7713 40.2662C35.7713 39.6805 35.7298 39.0654 35.6967 38.5749C35.6673 38.1409 35.6445 37.8028 35.6623 37.6593C35.6816 37.5052 35.7205 37.3021 35.8096 37.1439C35.9084 36.9681 36.0634 36.8475 36.3091 36.8922C36.5256 36.9316 36.7818 36.9909 37.0153 37.3039C37.238 37.6024 37.4363 38.1367 37.5478 39.1232C37.7662 41.0557 37.8398 42.4421 37.8405 42.456H37.8407C37.8408 42.4575 37.8409 42.459 37.8409 42.4605V42.4605ZM37.6132 44.8839C37.6633 43.9518 37.6724 43.1747 37.6724 42.4605H37.6725C37.6679 42.3753 37.5929 41.0194 37.3806 39.1417C37.273 38.19 37.0875 37.6821 36.8804 37.4046C36.6842 37.1417 36.4649 37.0912 36.2794 37.0574C36.1228 37.029 36.0219 37.1094 35.9564 37.2261C35.8809 37.3603 35.8468 37.5412 35.8295 37.6797C35.8135 37.8087 35.8357 38.1393 35.8644 38.5636C35.8979 39.0586 35.9399 39.6791 35.9399 40.2662C35.9399 40.8283 35.8362 41.2511 35.6574 41.6279C35.4801 42.0011 35.2301 42.3255 34.9339 42.6958C34.6459 43.0558 34.4297 43.3984 34.2357 43.8C34.0405 44.204 33.868 44.6672 33.6685 45.2664C33.3967 46.0823 33.9752 49.6065 34.3935 52.1558C34.5805 53.2948 34.7357 54.2404 34.7695 54.6696C34.8194 55.302 34.9148 55.9493 35.0351 56.5735C35.1783 57.317 35.3562 58.0267 35.534 58.6391C35.6921 59.1834 35.8254 59.4156 35.9344 59.4883C36.0037 59.5345 36.0694 59.4768 36.119 59.4147C36.1249 59.4076 36.1307 59.3995 36.1482 59.377C36.2027 59.3069 36.2559 59.2384 36.3278 59.2041C36.4662 59.1379 36.6184 59.2036 36.8186 59.6226C36.8666 59.7228 36.8902 59.7734 36.9122 59.8208C37.0177 60.0474 37.0885 60.1994 37.1468 60.2402C37.1707 60.2569 37.211 60.2208 37.2858 60.1139C37.4452 59.8859 37.5512 59.8286 37.6804 59.9191C37.763 59.9769 37.8353 60.1057 37.9439 60.2994C37.9669 60.3406 37.9921 60.3853 38.0228 60.4391C38.166 60.6898 38.3593 61.0048 38.4992 61.1323C38.5548 61.1829 38.5867 61.1185 38.5506 60.7928L38.5394 60.6916C38.4948 60.287 38.474 60.0984 38.4093 59.886C38.352 59.6986 38.2585 59.4842 38.0829 59.0824C38.0364 58.9758 37.9836 58.8548 37.899 58.6593C37.5992 57.9656 37.2996 57.0914 37.0733 56.2749C36.8548 55.4868 36.7039 54.7498 36.6857 54.2767C36.6557 53.5006 36.865 51.8238 37.1201 49.7798C37.1816 49.2874 37.2457 48.7739 37.3075 48.2659C37.4719 46.9131 37.5632 45.818 37.6132 44.8839Z" fill="black"/>
<path d="M36.2323 54.4173C36.2309 54.3709 36.1921 54.3346 36.1458 54.336C36.0994 54.337 36.0631 54.3762 36.0645 54.4226C36.081 54.9032 36.278 55.7814 36.5429 56.7412C36.8702 57.9271 37.3023 59.2424 37.6245 60.0823C37.6411 60.1256 37.6896 60.1471 37.7328 60.1306C37.7761 60.1141 37.7977 60.0656 37.7812 60.0223C37.4612 59.1882 37.0312 57.8792 36.7048 56.6964C36.4429 55.7476 36.2483 54.8831 36.2323 54.4173Z" fill="black"/>
<path d="M35.537 55.5818C35.5313 55.5356 35.4893 55.5028 35.4432 55.5085C35.397 55.5135 35.3642 55.5561 35.3698 55.6022C35.5482 57.0246 36.4753 59.3282 36.478 59.3349C36.4952 59.3779 36.5441 59.3988 36.5871 59.3816C36.6303 59.3643 36.6512 59.3154 36.6339 59.2722C36.6313 59.2651 35.7127 56.9832 35.537 55.5818Z" fill="black"/>
<path fill-rule="evenodd" clip-rule="evenodd" d="M32.0618 38.375C32.7118 38.375 33.2389 39.114 33.2389 40.0254C33.2389 40.937 32.7118 41.6758 32.0618 41.6758C31.4119 41.6758 30.8848 40.937 30.8848 40.0254C30.8848 39.114 31.4119 38.375 32.0618 38.375Z" fill="#EFEFEF"/>
<path d="M32.064 38.2852C32.4177 38.2852 32.736 38.4835 32.9647 38.8041C33.1875 39.1164 33.3253 39.5463 33.3253 40.0198C33.3253 40.4932 33.1875 40.9232 32.9647 41.2356C32.736 41.5562 32.4177 41.7546 32.064 41.7546C31.7103 41.7546 31.3919 41.5562 31.1632 41.2356C30.9405 40.9232 30.8027 40.4932 30.8027 40.0198C30.8027 39.5463 30.9405 39.1164 31.1632 38.8041C31.3919 38.4835 31.7103 38.2852 32.064 38.2852ZM32.8278 38.9016C32.6305 38.6249 32.3602 38.4538 32.064 38.4538C31.7677 38.4538 31.4975 38.6249 31.3002 38.9016C31.0969 39.1865 30.9712 39.5818 30.9712 40.0198C30.9712 40.4578 31.0969 40.8532 31.3002 41.1381C31.4975 41.4149 31.7677 41.586 32.064 41.586C32.3602 41.586 32.6305 41.4149 32.8279 41.1381C33.0311 40.8532 33.1568 40.4578 33.1568 40.0198C33.1568 39.5818 33.0311 39.1865 32.8278 38.9016Z" fill="black"/>
<path fill-rule="evenodd" clip-rule="evenodd" d="M32.4315 38.0042C33.3089 37.9766 34.0697 39.6806 33.7016 39.9703C33.3523 40.2452 33.3819 39.1658 32.7147 39.0105C32.0475 38.8553 31.7914 38.05 32.4315 38.0042V38.0042Z" fill="#766841"/>
<path d="M32.4279 37.9222C32.7856 37.911 33.1197 38.1553 33.3768 38.4822C33.5239 38.6692 33.6466 38.8841 33.7337 39.0925C33.8217 39.303 33.8739 39.5088 33.8791 39.6752C33.8842 39.8364 33.845 39.9659 33.7526 40.0385C33.6096 40.1511 33.5077 40.1158 33.4158 39.999C33.3643 39.9334 33.3199 39.8383 33.2698 39.7308H33.2695C33.1549 39.4851 33.0065 39.167 32.695 39.0945H32.6947C32.3922 39.0241 32.1663 38.8298 32.0557 38.623C32.0084 38.5344 31.9815 38.4427 31.9779 38.3559C31.9742 38.2636 31.9965 38.1769 32.0479 38.1042C32.1187 38.0043 32.242 37.9353 32.4246 37.9222H32.4279ZM33.2445 38.5862C33.018 38.2983 32.7316 38.0824 32.4365 38.0901C32.3092 38.0993 32.2275 38.1414 32.1848 38.2017C32.1559 38.2424 32.1435 38.2935 32.1458 38.3493C32.1483 38.4108 32.1684 38.4777 32.2038 38.544C32.2941 38.7128 32.4808 38.872 32.7327 38.9305V38.9306C33.1247 39.022 33.2926 39.3818 33.4221 39.6597L33.4218 39.6598C33.4672 39.757 33.5074 39.8432 33.5481 39.895C33.5754 39.9297 33.6057 39.9399 33.6487 39.9062C33.6954 39.8694 33.7147 39.7883 33.7113 39.6804C33.7067 39.5348 33.659 39.3498 33.5784 39.1571C33.497 38.9622 33.3822 38.7612 33.2445 38.5862Z" fill="black"/>
<path fill-rule="evenodd" clip-rule="evenodd" d="M31.6913 38.0042C30.8138 37.9766 30.0531 39.6806 30.4211 39.9703C30.7705 40.2452 30.7409 39.1658 31.4081 39.0105C32.0754 38.8553 32.3313 38.05 31.6913 38.0042V38.0042Z" fill="#766841"/>
<path d="M31.6873 38.0901C31.3921 38.0824 31.1057 38.2983 30.8792 38.5862C30.7415 38.7612 30.6268 38.9622 30.5453 39.1571C30.4647 39.3498 30.417 39.5348 30.4124 39.6804C30.4091 39.7883 30.4284 39.8694 30.4751 39.9062C30.518 39.9399 30.5483 39.9297 30.5756 39.895C30.6156 39.8442 30.656 39.7575 30.7016 39.6597C30.8312 39.3817 30.999 39.0218 31.3913 38.9305C31.643 38.872 31.8296 38.7128 31.9199 38.544C31.9553 38.4777 31.9754 38.4108 31.9779 38.3493C31.9803 38.2935 31.9678 38.2424 31.9389 38.2017C31.8962 38.1414 31.8145 38.0993 31.6873 38.0901ZM30.747 38.4822C31.004 38.1553 31.3381 37.911 31.6958 37.9222H31.6992C31.8817 37.9353 32.005 38.0043 32.0758 38.1042C32.1272 38.1768 32.1495 38.2636 32.1458 38.3559C32.1422 38.4426 32.1154 38.5344 32.068 38.6229C31.9574 38.8297 31.7315 39.024 31.4287 39.0945C31.1172 39.167 30.9688 39.4851 30.8543 39.7308C30.8044 39.8378 30.7602 39.9324 30.7079 39.999C30.616 40.1158 30.5141 40.1511 30.3711 40.0385C30.2787 39.9658 30.2395 39.8364 30.2446 39.6752C30.2498 39.5088 30.302 39.303 30.39 39.0925C30.4771 38.8841 30.5998 38.6692 30.747 38.4822Z" fill="black"/>
<path fill-rule="evenodd" clip-rule="evenodd" d="M31.3353 41.3477C31.0702 41.2654 30.5311 40.6253 30.5493 40.3053C30.5674 39.9854 30.9964 39.2358 30.9601 39.4826C30.9238 39.7294 30.8597 40.0311 30.9329 40.5431C31.0061 41.0551 31.262 41.1831 31.3353 41.3477Z" fill="#766841"/>
<path d="M31.3033 41.424C31.1466 41.3712 30.9164 41.1613 30.7394 40.9264C30.5777 40.712 30.4557 40.4711 30.4654 40.2991C30.4774 40.0855 30.6553 39.7013 30.7786 39.5055C30.8078 39.459 30.8354 39.4212 30.8584 39.3966C30.9252 39.3252 30.9848 39.3181 31.0304 39.3929C31.0447 39.4164 31.0497 39.4495 31.0432 39.4932C31.0424 39.4992 31.0376 39.5297 31.0312 39.5715C30.9959 39.7988 30.9521 40.0818 31.0161 40.5296C31.0641 40.8658 31.1967 41.0254 31.2952 41.1439C31.344 41.2025 31.3855 41.2526 31.4119 41.3119L31.3352 41.3461L31.4122 41.3119C31.4311 41.3544 31.4119 41.4042 31.3695 41.4231C31.3476 41.4328 31.3238 41.4325 31.3033 41.424ZM30.8736 40.8251C30.8986 40.8582 30.9246 40.8909 30.9511 40.9223C30.9078 40.8245 30.8712 40.7047 30.8496 40.5533C30.7993 40.2019 30.8122 39.9472 30.8373 39.7413C30.7404 39.9261 30.6412 40.1657 30.6332 40.3083C30.6259 40.4372 30.7328 40.6382 30.8736 40.8251Z" fill="black"/>
<path fill-rule="evenodd" clip-rule="evenodd" d="M32.7871 41.3477C33.0522 41.2654 33.5911 40.6253 33.573 40.3053C33.5549 39.9854 33.126 39.2358 33.1623 39.4826C33.1985 39.7294 33.2627 40.0311 33.1894 40.5431C33.1163 41.0551 32.8602 41.1831 32.7871 41.3477Z" fill="#766841"/>
<path d="M33.1734 40.9223C33.2 40.8908 33.2259 40.8582 33.2509 40.8251C33.3917 40.6383 33.4987 40.4372 33.4914 40.3083C33.4833 40.1657 33.3842 39.9261 33.2872 39.7413C33.3123 39.9472 33.3252 40.2019 33.2749 40.5533C33.2534 40.7047 33.2167 40.8245 33.1734 40.9223ZM33.3851 40.9264C33.2081 41.1613 32.978 41.3712 32.8213 41.424C32.8007 41.4325 32.7769 41.4328 32.7551 41.4231C32.7126 41.4042 32.6934 41.3544 32.7124 41.3119L32.7894 41.3461L32.7127 41.3119C32.739 41.2526 32.7806 41.2025 32.8294 41.1439C32.9278 41.0254 33.0604 40.8658 33.1084 40.5296C33.1724 40.0818 33.1286 39.7988 33.0934 39.5714C33.0869 39.5296 33.082 39.4987 33.0813 39.4932C33.0748 39.4495 33.0799 39.4164 33.0941 39.3929C33.1397 39.3181 33.1993 39.3252 33.2661 39.3966C33.2891 39.4212 33.3167 39.459 33.3459 39.5055C33.4692 39.7013 33.6471 40.0855 33.6591 40.2991C33.6689 40.4711 33.5468 40.712 33.3851 40.9264Z" fill="black"/>
<path d="M27.9334 54.4226C27.9349 54.3762 27.8985 54.3375 27.8522 54.336C27.8058 54.3349 27.7671 54.3709 27.7656 54.4173C27.7496 54.883 27.555 55.7476 27.2932 56.6963C26.9673 57.8771 26.5372 59.1865 26.2165 60.0223C26.1999 60.0657 26.2218 60.1144 26.2652 60.1309C26.3086 60.1475 26.3572 60.1258 26.3738 60.0823C26.6953 59.2441 27.1273 57.929 27.455 56.7411C27.72 55.7814 27.9169 54.9032 27.9334 54.4226Z" fill="black"/>
<path d="M28.6295 55.6023C28.6352 55.5562 28.6023 55.5141 28.5562 55.5085C28.51 55.5025 28.468 55.5357 28.4624 55.5819C28.2866 56.9833 27.3681 59.2657 27.3655 59.2723C27.3481 59.3155 27.3691 59.3644 27.4122 59.3816C27.4552 59.3989 27.5041 59.3776 27.5214 59.3349C27.5241 59.3278 28.4512 57.0246 28.6295 55.6023Z" fill="black"/>
<path fill-rule="evenodd" clip-rule="evenodd" d="M32.0351 43.409C32.4446 43.409 32.971 43.409 33.0587 43.0872C33.1466 42.7654 33.1466 42.7068 33.5851 42.7946C34.0238 42.8824 34.8133 42.7362 35.223 43.3798C35.6327 44.0233 35.4863 43.9066 35.3985 44.3455C35.3107 44.7842 33.2634 48.3829 32.854 48.2073C32.4446 48.0317 32.1229 48.2365 31.8304 47.7978C31.5379 47.3589 31.187 46.5104 31.0407 45.6911C30.8943 44.872 31.0113 44.4622 30.6896 44.1112C30.3679 43.7602 29.9587 43.5262 29.5198 43.4676C29.0811 43.409 28.7302 43.5552 29.1396 43.2042C29.5491 42.8533 29.8415 42.736 30.2802 42.7946C30.7188 42.8533 30.7483 42.9705 31.07 43.1458C31.3915 43.3212 31.6257 43.409 32.0351 43.409H32.0351Z" fill="#929292"/>
<path d="M32.0347 43.3235C32.4161 43.3235 32.9065 43.3235 32.9774 43.0641L32.9771 43.0639L32.9855 43.0327L32.9856 43.0328C33.0829 42.674 33.1002 42.6105 33.6012 42.7108C33.7016 42.7309 33.8231 42.7383 33.9544 42.7463C34.4031 42.7737 34.9585 42.8076 35.2932 43.3336C35.6303 43.8631 35.6136 43.9145 35.5403 44.14C35.5222 44.1954 35.5001 44.2637 35.4807 44.3607C35.472 44.4041 35.4478 44.4715 35.4106 44.5582C35.2286 44.9829 34.7104 45.9296 34.1875 46.7591C33.6503 47.6114 33.0955 48.3421 32.852 48.2934C32.8412 48.2913 32.8307 48.2879 32.8204 48.2836L32.8205 48.2834C32.6825 48.2243 32.5518 48.2116 32.4294 48.1998C32.1841 48.1759 31.9679 48.1549 31.7602 47.8433C31.6025 47.6066 31.4285 47.2543 31.2779 46.8526C31.1434 46.4938 31.0272 46.0955 30.9574 45.7049C30.9068 45.4223 30.8874 45.1883 30.8707 44.9884C30.8402 44.6222 30.8197 44.3766 30.6273 44.1667C30.471 43.9961 30.2929 43.8542 30.1005 43.7483C29.9139 43.6457 29.7144 43.5772 29.5086 43.5497C29.385 43.5332 29.2672 43.5336 29.1731 43.534C29.0411 43.5344 28.947 43.5347 28.8999 43.4797C28.8371 43.4064 28.8847 43.3105 29.0846 43.1391C29.2969 42.9572 29.4803 42.8353 29.6696 42.7657C29.8621 42.6949 30.0573 42.679 30.2906 42.7101C30.6205 42.7542 30.7327 42.8295 30.8912 42.9358C30.9515 42.9762 31.0191 43.0216 31.1096 43.0709C31.2655 43.156 31.3996 43.2196 31.5425 43.2613C31.6842 43.3028 31.8378 43.3235 32.0347 43.3235H32.0347ZM33.1392 43.1081C33.0345 43.4921 32.4721 43.4921 32.0347 43.4921C31.8223 43.4921 31.6539 43.4689 31.4958 43.4226C31.3388 43.3767 31.195 43.3088 31.0293 43.2184C30.9316 43.1651 30.8609 43.1177 30.7978 43.0754C30.6583 42.9818 30.5594 42.9155 30.2689 42.8767C30.0636 42.8493 29.8933 42.8627 29.7274 42.9236C29.5585 42.9857 29.3909 43.098 29.1938 43.2669C29.0868 43.3586 29.0143 43.3549 29.0276 43.3705C29.0309 43.3743 29.0863 43.3664 29.1731 43.3661C29.2723 43.3657 29.3966 43.3653 29.5303 43.3831C29.7579 43.4135 29.9774 43.4886 30.1814 43.6008C30.3893 43.7152 30.5817 43.8687 30.7511 44.0534C30.9828 44.3063 31.0052 44.5747 31.0385 44.9746C31.0548 45.1704 31.074 45.3996 31.1232 45.6752C31.1916 46.0577 31.3046 46.4458 31.4352 46.794C31.5811 47.1834 31.7487 47.5231 31.8998 47.7499C32.0635 47.9954 32.2422 48.0127 32.4452 48.0325C32.5802 48.0457 32.7245 48.0597 32.8849 48.1281C33.0442 48.1601 33.5412 47.4695 34.0454 46.6697C34.5639 45.847 35.0767 44.9108 35.256 44.4924C35.2884 44.4169 35.3089 44.3606 35.3155 44.3278C35.3364 44.2234 35.3606 44.1487 35.3803 44.088C35.4338 43.9235 35.446 43.886 35.1517 43.4238C34.8632 42.9702 34.3551 42.9392 33.9446 42.9142C33.8059 42.9058 33.6776 42.898 33.5683 42.8761C33.2213 42.8066 33.2102 42.8471 33.148 43.0766V43.0769L33.1396 43.1081H33.1392ZM32.8867 48.1288L32.8855 48.1284L32.8865 48.1288H32.8867Z" fill="black"/>
<path d="M31.9619 43.8042C31.9919 43.8542 32.0258 43.9056 32.06 43.9574C32.2201 44.1997 32.3876 44.4533 32.4125 44.9551C32.4174 45.0512 32.4269 45.1495 32.4362 45.2451C32.4609 45.4987 32.484 45.7357 32.4166 45.889C32.3364 46.0712 32.1617 46.1325 31.7975 45.9723C31.1013 45.6659 30.9835 45.2817 30.8988 45.0048V45.0045C30.8902 44.9768 30.8821 44.9502 30.8744 44.9271H30.8743C30.8414 44.8285 30.8345 44.7422 30.8276 44.6548C30.8157 44.5034 30.8034 44.3478 30.6261 44.1349C30.5139 44.0001 30.4295 43.86 30.3904 43.7349C30.3631 43.6473 30.357 43.5649 30.3771 43.4931C30.3993 43.4142 30.4505 43.3511 30.5366 43.3109C30.5988 43.2818 30.6787 43.2656 30.7784 43.2656C31.024 43.2656 31.2325 43.3045 31.4232 43.3902C31.6132 43.4755 31.7829 43.6064 31.9516 43.7907L31.9577 43.7974L31.9619 43.8042ZM31.9198 44.0502C31.887 44.0004 31.8544 43.9511 31.8219 43.8974C31.6711 43.734 31.5208 43.6181 31.3547 43.5436C31.1872 43.4684 31.0008 43.4341 30.7784 43.4341C30.7034 43.4341 30.6473 43.4445 30.6077 43.463C30.5701 43.4806 30.548 43.5067 30.5391 43.5386C30.5281 43.5775 30.5332 43.6277 30.551 43.6848C30.5836 43.7893 30.6568 43.9095 30.7551 44.0276C30.9671 44.2821 30.9815 44.4643 30.9955 44.6416C31.0017 44.7195 31.0077 44.7963 31.0336 44.8739V44.8742C31.0427 44.9013 31.0508 44.9279 31.0592 44.9554H31.0593C31.1347 45.2013 31.2393 45.5428 31.8653 45.8182C32.1145 45.9279 32.2239 45.9093 32.2626 45.8212C32.3125 45.7076 32.2916 45.4918 32.2691 45.2609C32.2595 45.1624 32.2496 45.0614 32.2448 44.963C32.2221 44.5077 32.0675 44.2738 31.9198 44.0502Z" fill="black"/>
<path fill-rule="evenodd" clip-rule="evenodd" d="M31.1094 43.5C31.5967 43.5542 31.705 43.4456 31.4884 43.1479C31.272 42.85 31.2718 42.7147 30.7575 42.7416C30.2432 42.7687 29.9453 42.796 30.2702 43.175C30.5952 43.5542 30.5952 43.5269 31.1094 43.5Z" fill="#929292"/>
<path d="M31.1191 43.4107C31.3369 43.435 31.4641 43.4285 31.5057 43.3891C31.5296 43.3665 31.5002 43.3009 31.4208 43.1916C31.3879 43.1464 31.3606 43.106 31.3358 43.0692C31.21 42.8825 31.1538 42.7993 30.7622 42.8199C30.5166 42.8329 30.3233 42.8454 30.242 42.8931C30.2 42.9177 30.2197 42.9808 30.3345 43.1148C30.6115 43.438 30.6292 43.437 31.0125 43.4155C31.0391 43.414 31.0672 43.4124 31.1056 43.4103L31.1128 43.41L31.1191 43.4107ZM31.6208 43.5115C31.5414 43.5866 31.3728 43.6075 31.1071 43.5785C31.081 43.5799 31.0504 43.5817 31.0216 43.5833C30.5594 43.6092 30.5381 43.6104 30.2069 43.224C29.9968 42.9789 30.003 42.8388 30.1571 42.7483C30.2722 42.6808 30.485 42.6663 30.7536 42.6521C31.2402 42.6266 31.3127 42.734 31.4753 42.975C31.4998 43.0113 31.5267 43.0511 31.5569 43.0929C31.694 43.2813 31.7188 43.4189 31.6208 43.5115Z" fill="black"/>
<path fill-rule="evenodd" clip-rule="evenodd" d="M32.1318 44.0352H36.6688C36.6688 47.1047 35.33 54.5248 34.4004 54.5248C33.4707 54.5248 32.1318 47.1144 32.1318 44.0352Z" fill="white"/>
<path d="M32.1311 43.9492H36.6681H36.7524V44.0334C36.7524 45.6988 36.3599 48.6392 35.8521 50.9875C35.4138 53.0138 34.8746 54.6072 34.3996 54.6072C33.9243 54.6072 33.3847 53.0134 32.9462 50.9861C32.4389 48.6401 32.0469 45.7029 32.0469 44.0334V43.9492H32.1311ZM36.5836 44.1177H32.2157C32.2285 45.7902 32.6141 48.6539 33.1108 50.9506C33.5331 52.9034 34.0206 54.4387 34.3996 54.4387C34.7783 54.4387 35.2654 52.9038 35.6875 50.9519C36.1847 48.6531 36.5708 45.7863 36.5836 44.1177Z" fill="black"/>
<path d="M32.7952 44.6094H36.0057H36.09V44.6936C36.09 45.8232 35.7978 48.3639 35.4149 50.3385C35.1196 51.8614 34.7555 53.0558 34.4004 53.0558C34.0454 53.0558 33.6814 51.8614 33.3861 50.3385C33.0031 48.3639 32.7109 45.8232 32.7109 44.6936V44.6094H32.7952ZM35.9209 44.7779H32.88C32.8937 45.9379 33.1795 48.3896 33.5512 50.3068C33.8317 51.753 34.1464 52.8873 34.4004 52.8873C34.6545 52.8873 34.9693 51.753 35.2497 50.3068C35.6215 48.3896 35.9073 45.9379 35.9209 44.7779Z" fill="black"/>
<path fill-rule="evenodd" clip-rule="evenodd" d="M34.0664 44.6992H34.6952V45.9114H35.9424C35.9258 46.1109 35.9061 46.3214 35.8837 46.5404H34.6952V52.6553C34.5951 52.8603 34.4956 52.9771 34.3995 52.9771C34.2915 52.9771 34.1793 52.8302 34.0664 52.5755V46.5404H32.9151C32.8927 46.3214 32.8731 46.1109 32.8564 45.9114H34.0664V44.6992Z" fill="white"/>
<path d="M34.068 44.6094H34.6968H34.7811V44.6936V45.8215H35.944H36.0355L36.0279 45.9127C36.0212 45.9934 36.0121 46.0952 36.0007 46.217C35.9904 46.3281 35.9798 46.4369 35.969 46.543L35.9612 46.619H35.8854H34.7811V52.6498V52.669L34.7725 52.6866C34.7179 52.7983 34.6624 52.8868 34.6062 52.948C34.5415 53.0184 34.4731 53.0558 34.401 53.0558C34.3215 53.0558 34.2463 53.0101 34.1754 52.9246C34.1135 52.8499 34.0518 52.7412 33.9911 52.6038L33.9839 52.5875V52.5699V46.619H32.9167H32.8408L32.8331 46.543C32.8223 46.437 32.8117 46.3283 32.8013 46.2172C32.79 46.0956 32.7809 45.9936 32.7742 45.9127L32.7666 45.8215H32.8581H33.9839V44.6936V44.6094H34.068ZM34.6126 44.7779H34.1523V45.9058V45.9901H34.068H32.9497C32.9564 46.069 32.9627 46.1395 32.9685 46.2021C32.9758 46.2804 32.9839 46.3634 32.9926 46.4505H34.068H34.1523V46.5348V52.5522C34.2044 52.6676 34.2554 52.7575 34.3051 52.8173C34.3428 52.8628 34.3752 52.8873 34.401 52.8873C34.4231 52.8873 34.4505 52.8688 34.4824 52.8341C34.5244 52.7885 34.5679 52.7195 34.6126 52.6302V46.5348V46.4505H34.6968H35.8095C35.8182 46.3633 35.8263 46.2802 35.8336 46.2018C35.8394 46.1394 35.8457 46.0689 35.8524 45.9901H34.6968H34.6126V45.9058V44.7779Z" fill="black"/>
<path fill-rule="evenodd" clip-rule="evenodd" d="M28.4708 53.5185C28.5816 53.5207 28.7911 53.4171 28.7877 53.2843L28.7243 50.9948C28.7208 50.8626 28.6386 50.7523 28.5283 50.75H28.5279C28.4176 50.7477 28.3309 50.8548 28.3221 50.9865L28.1643 53.2715C28.1554 53.4031 28.3603 53.5162 28.4708 53.5185Z" fill="#4E503A"/>
<path d="M28.4741 53.4284C28.4791 53.4285 28.4773 53.4286 28.479 53.4286C28.5205 53.4274 28.58 53.4071 28.6306 53.3741C28.6724 53.347 28.7051 53.3139 28.7057 53.283H28.7054H28.7057H28.7054C28.7055 53.2795 28.7057 53.2841 28.7056 53.2814V53.2811L28.6422 50.9916C28.641 50.9434 28.6258 50.9001 28.6014 50.8696C28.582 50.8455 28.557 50.8301 28.5296 50.829H28.5276C28.4997 50.8284 28.4734 50.8429 28.4528 50.8666C28.4271 50.8961 28.4101 50.9387 28.4069 50.9867L28.2493 53.2717C28.2492 53.2731 28.2491 53.2725 28.2491 53.2731V53.2735C28.2485 53.3039 28.2799 53.3384 28.3206 53.3675C28.3698 53.4025 28.4281 53.4256 28.4692 53.4284H28.4695C28.471 53.4285 28.4694 53.4283 28.4741 53.4284ZM28.4828 53.5975L28.4706 53.5978C28.4698 53.5978 28.4654 53.5975 28.4582 53.597C28.3889 53.5922 28.2968 53.5577 28.2241 53.5059C28.1427 53.4478 28.0802 53.3657 28.0821 53.2704C28.0822 53.2658 28.0823 53.2627 28.0825 53.2607V53.2604L28.2401 50.9754C28.2459 50.8897 28.2781 50.8114 28.3273 50.7547C28.3789 50.6953 28.4492 50.6592 28.5292 50.6602H28.5296H28.5316C28.6122 50.6619 28.6817 50.7011 28.7313 50.763C28.7782 50.8216 28.8071 50.9012 28.8094 50.987L28.8728 53.2763L28.873 53.2864L28.7892 53.2847L28.8727 53.2864C28.8708 53.3822 28.8048 53.4617 28.7207 53.5163C28.6456 53.5652 28.5521 53.5956 28.4828 53.5975Z" fill="black"/>
<path fill-rule="evenodd" clip-rule="evenodd" d="M28.3311 50.4885L28.7334 50.4968C28.7591 49.2466 29.0769 37.3143 28.804 37.3086C28.531 37.303 28.3568 49.2379 28.3311 50.4885Z" fill="#4E503A"/>
<path d="M28.4199 50.4005L28.6539 50.4053C28.6571 50.2564 28.6626 50.0275 28.6697 49.7328C28.6882 48.9536 28.7177 47.7175 28.7465 46.3242C28.8259 42.4747 28.9124 37.3895 28.8053 37.3874C28.698 37.3851 28.5746 42.4767 28.4954 46.3272C28.4667 47.7217 28.4452 48.9524 28.4318 49.7284C28.4267 50.0238 28.4227 50.2535 28.4199 50.4005ZM28.7346 50.5756L28.3323 50.5673L28.248 50.5656L28.2498 50.4814C28.2526 50.3439 28.2572 50.0832 28.2633 49.7258C28.2769 48.9482 28.2983 47.7148 28.3269 46.3239C28.4077 42.4008 28.5576 37.2136 28.8086 37.2188C29.0596 37.2239 28.9959 42.4054 28.9149 46.3275C28.8861 47.7257 28.8567 48.9592 28.8381 49.7368C28.8295 50.0969 28.8233 50.3597 28.8205 50.4929L28.8188 50.5773L28.7346 50.5756Z" fill="black"/>
<path fill-rule="evenodd" clip-rule="evenodd" d="M28.5378 50.2697C29.002 50.2793 29.3719 50.6057 29.3638 50.9987L29.3619 51.0361L27.6829 51.0014L27.6826 50.964C27.6906 50.5711 28.0737 50.2601 28.5378 50.2697Z" fill="#4E503A"/>
<path d="M28.5408 50.1838C28.7935 50.189 29.0212 50.2811 29.185 50.4257C29.3525 50.5735 29.4539 50.7763 29.4492 50.9987V51.001L29.4474 51.0384L29.4433 51.1204L29.3615 51.1186L27.6826 51.0841L27.6007 51.0824L27.5999 51.0005L27.5996 50.9631V50.9608C27.6042 50.7382 27.7138 50.5397 27.8873 50.3988C28.0568 50.2612 28.2881 50.1787 28.5408 50.1838ZM29.0734 50.5519C28.9382 50.4327 28.7489 50.3567 28.5374 50.3523C28.326 50.348 28.1336 50.4161 27.9936 50.5297C27.8702 50.6299 27.7879 50.7657 27.7711 50.9173L29.2797 50.9484C29.2692 50.7961 29.1926 50.6571 29.0734 50.5519Z" fill="black"/>
<path fill-rule="evenodd" clip-rule="evenodd" d="M28.9128 52.0553C29.1847 51.8239 29.5056 51.6356 29.3457 51.3217C29.1858 51.0078 28.9447 51.0055 28.6322 51.0448C28.3196 51.0842 27.9987 51.2725 28.0958 51.4793C28.1929 51.6861 28.5126 51.6184 28.3823 51.8868C28.2521 52.1552 28.2141 52.4174 28.4761 52.4555C28.738 52.4937 28.7123 52.2449 28.9128 52.0553Z" fill="#BEBEBE"/>
<path d="M28.8594 51.9934C28.9109 51.9496 28.9432 51.9235 28.9753 51.8975H28.9757C29.185 51.728 29.3785 51.5716 29.2716 51.3619C29.2036 51.2283 29.1209 51.1617 29.0237 51.1334C28.9186 51.1027 28.79 51.1117 28.6437 51.1301H28.6433C28.545 51.1425 28.4459 51.1709 28.3617 51.2105C28.2958 51.2414 28.2402 51.2788 28.2036 51.3199C28.1752 51.3518 28.1598 51.3846 28.1636 51.4156H28.1637C28.1649 51.4252 28.1678 51.4352 28.1728 51.4458C28.1998 51.5034 28.2626 51.5352 28.3184 51.5635C28.458 51.6341 28.5721 51.692 28.4589 51.9253C28.4144 52.0169 28.3817 52.1067 28.3705 52.1837C28.3638 52.2298 28.3648 52.2698 28.376 52.3004C28.3847 52.3245 28.4013 52.3439 28.4275 52.3567C28.4439 52.3646 28.4643 52.3705 28.4888 52.3741C28.5977 52.39 28.636 52.3212 28.6857 52.2318C28.7267 52.1581 28.7732 52.0745 28.8562 51.996L28.8594 51.9934ZM29.0811 52.0284L29.0812 52.0285C29.039 52.0627 28.9958 52.0976 28.9712 52.1184L28.9713 52.1185C28.9072 52.1791 28.8675 52.2505 28.8325 52.3135C28.7508 52.4602 28.688 52.5731 28.4652 52.5407C28.423 52.5346 28.3862 52.5234 28.3545 52.508C28.2855 52.4746 28.2416 52.4227 28.218 52.3577C28.1968 52.2992 28.1935 52.232 28.204 52.1601C28.2178 52.0646 28.2561 51.9583 28.3076 51.8523C28.3488 51.7673 28.3011 51.7431 28.2428 51.7136C28.1627 51.673 28.0727 51.6274 28.0207 51.5168C28.0082 51.4901 28.0005 51.4634 27.9971 51.4366V51.4363C27.9866 51.3525 28.0179 51.2753 28.0779 51.208C28.1296 51.15 28.2042 51.099 28.2906 51.0584C28.39 51.0117 28.5068 50.9781 28.6226 50.9636C28.7887 50.9426 28.9369 50.9331 29.0705 50.9721C29.212 51.0135 29.3298 51.1051 29.4217 51.2855C29.5902 51.6163 29.3459 51.8142 29.0811 52.0284Z" fill="black"/>
<path fill-rule="evenodd" clip-rule="evenodd" d="M31.2584 64.95C31.2222 65.1683 31.2037 65.3505 30.5124 65.7327C29.8211 66.1149 29.6029 66.315 29.5483 65.769C29.4937 65.2229 29.6393 65.1683 29.9849 64.9135C30.3305 64.6588 30.531 64.5137 30.8764 64.6225C31.2217 64.7313 31.131 64.5494 31.2584 64.95Z" fill="#19172A"/>
<path d="M31.34 64.9619L31.338 64.9739C31.2992 65.2089 31.266 65.41 30.5516 65.8049C30.4643 65.8532 30.3938 65.8931 30.3292 65.9299C30.0764 66.0732 29.9022 66.1721 29.77 66.1853C29.5822 66.2042 29.4949 66.091 29.4634 65.7757C29.4084 65.2253 29.539 65.1305 29.8552 64.9015C29.8835 64.881 29.9134 64.8593 29.934 64.8442C30.1112 64.7135 30.2514 64.6108 30.3985 64.5521C30.5532 64.4904 30.7069 64.4797 30.9001 64.5406C30.9989 64.5717 31.0581 64.5772 31.097 64.5806C31.1476 64.5857 31.1775 64.5877 31.213 64.6185C31.2536 64.6532 31.2686 64.702 31.3051 64.8204C31.316 64.8555 31.3284 64.896 31.337 64.9231L31.3432 64.9426L31.34 64.9619ZM30.4707 65.6574C31.1052 65.3066 31.1398 65.1425 31.1709 64.9543C31.158 64.9138 31.1508 64.89 31.1445 64.8697C31.1182 64.7844 31.1073 64.7492 31.1039 64.7462C31.0991 64.7422 31.0987 64.7492 31.0818 64.7482C31.0352 64.7442 30.9642 64.7375 30.85 64.7015C30.6979 64.6536 30.5787 64.6612 30.4604 64.7086C30.3344 64.7589 30.2016 64.8562 30.0333 64.9803C29.9986 65.0059 29.9756 65.0225 29.9538 65.0383C29.693 65.2273 29.5851 65.3054 29.6305 65.7597C29.65 65.9539 29.6849 66.0255 29.7535 66.0186C29.8501 66.0085 30.0118 65.9173 30.2462 65.7842C30.3183 65.7433 30.3965 65.699 30.4707 65.6579V65.6574Z" fill="black"/>
<path fill-rule="evenodd" clip-rule="evenodd" d="M30.44 64.7294C30.1607 65.0297 29.8217 65.4222 30.1408 65.4685C30.46 65.5148 30.6195 65.5841 30.819 65.2837C31.0184 64.9834 31.2176 64.7755 30.8587 64.7294C30.4998 64.6834 30.6594 64.5908 30.44 64.7294Z" fill="white"/>
<path d="M30.4932 64.7932C30.3586 64.9383 30.2117 65.1035 30.138 65.2341C30.0932 65.3135 30.0834 65.3741 30.1517 65.3839C30.1849 65.389 30.2223 65.3949 30.2576 65.4007C30.4758 65.4361 30.6015 65.4566 30.7478 65.2361C30.7707 65.2017 30.7971 65.1635 30.8223 65.127C30.8997 65.0149 30.9646 64.9209 30.9718 64.865C30.9747 64.8416 30.9425 64.8237 30.8471 64.8115C30.6873 64.791 30.6206 64.7614 30.5821 64.7443C30.5752 64.7412 30.5819 64.7392 30.5764 64.7392C30.5742 64.7392 30.5585 64.7519 30.5023 64.7874L30.4932 64.7935V64.7932ZM29.9919 65.1518C30.0765 65.002 30.2347 64.8243 30.3773 64.6709L30.3846 64.6628L30.3941 64.6567L30.4129 64.6449C30.4998 64.5899 30.5306 64.5703 30.5764 64.5703C30.6058 64.5703 30.6231 64.5784 30.65 64.59C30.6809 64.6036 30.7344 64.6274 30.8682 64.6446C31.0864 64.6725 31.1547 64.7567 31.1382 64.8856C31.1258 64.9825 31.0504 65.0918 30.9604 65.222C30.9382 65.2544 30.9148 65.2882 30.888 65.3285C30.6815 65.6395 30.5168 65.6126 30.2307 65.5661C30.2004 65.5611 30.1683 65.556 30.128 65.5501C29.8771 65.5137 29.8772 65.3549 29.9919 65.1514V65.1518Z" fill="black"/>
<path fill-rule="evenodd" clip-rule="evenodd" d="M32.9482 64.8953C32.9845 65.1135 33.0028 65.2958 33.6942 65.678C34.3855 66.0602 34.3853 66.1145 34.7674 65.8963C35.1493 65.678 34.5672 65.1135 34.2217 64.8588C33.8761 64.6041 33.6756 64.459 33.3303 64.5678C32.9849 64.6765 33.0756 64.4947 32.9482 64.8953Z" fill="#19172A"/>
<path d="M32.8684 64.9154L32.8664 64.9033L32.8633 64.884L32.8695 64.8645C32.8779 64.8381 32.8905 64.797 32.9014 64.7618C32.9378 64.6434 32.9529 64.5946 32.9933 64.5599C33.029 64.5294 33.0588 64.5267 33.1095 64.522C33.1484 64.519 33.2076 64.5129 33.3064 64.482C33.4996 64.4211 33.6533 64.4318 33.808 64.4935C33.9551 64.5522 34.0952 64.6549 34.2725 64.7856C34.476 64.9356 34.7597 65.191 34.8948 65.4276C34.9377 65.5027 34.9665 65.5772 34.9751 65.6481C34.9849 65.7279 34.9695 65.8025 34.9214 65.8676C34.8944 65.9044 34.8577 65.9368 34.8102 65.9639H34.8099C34.4294 66.1813 34.3886 66.1584 33.8617 65.862C33.7985 65.8264 33.7281 65.7868 33.6548 65.7463C32.9405 65.3514 32.9072 65.1502 32.8684 64.9154ZM33.0356 64.8957C33.0667 65.0839 33.1012 65.248 33.7358 65.5988C33.8172 65.6438 33.8841 65.6814 33.9439 65.7151C34.394 65.9685 34.429 65.988 34.7268 65.8179L34.7267 65.8178C34.7534 65.8025 34.773 65.7859 34.7858 65.7682C34.8064 65.7405 34.8127 65.7062 34.808 65.6678C34.8022 65.6203 34.7809 65.5668 34.7486 65.5105C34.627 65.2974 34.3634 65.0614 34.1731 64.9212C34.0049 64.7971 33.872 64.6998 33.7461 64.6495C33.6278 64.6023 33.5086 64.5947 33.3565 64.6424C33.2423 64.6784 33.1713 64.6849 33.1246 64.6891C33.1078 64.6901 33.1074 64.6831 33.1026 64.6871C33.0991 64.6901 33.0882 64.7253 33.0619 64.8106C33.0557 64.8309 33.0485 64.8542 33.0356 64.8952V64.8957Z" fill="black"/>
<path fill-rule="evenodd" clip-rule="evenodd" d="M33.7677 64.6747C34.0468 64.975 34.3859 65.3675 34.0667 65.4138C33.7475 65.4601 33.5881 65.5294 33.3887 65.2291C33.1892 64.9287 32.99 64.7207 33.3489 64.6747C33.7078 64.6287 33.5481 64.5361 33.7677 64.6747Z" fill="white"/>
<path d="M33.8287 64.6119C33.9713 64.7653 34.1296 64.943 34.2142 65.0928C34.3288 65.2963 34.3289 65.455 34.078 65.4915C34.0377 65.4976 34.0057 65.5026 33.9754 65.5075C33.6893 65.554 33.5246 65.5809 33.3181 65.2699C33.2913 65.2296 33.2679 65.1958 33.2456 65.1634C33.1557 65.0332 33.0802 64.9239 33.0678 64.827C33.0513 64.6981 33.1195 64.614 33.3379 64.5859C33.4717 64.5688 33.5252 64.545 33.5561 64.5313C33.5828 64.5194 33.6002 64.5117 33.6297 64.5117C33.6754 64.5117 33.7062 64.5313 33.7932 64.5863L33.812 64.5981L33.8215 64.6042L33.8287 64.6123V64.6119ZM34.0681 65.1751C33.9944 65.0445 33.8475 64.8792 33.7129 64.7342L33.7038 64.7281C33.6476 64.6926 33.6318 64.6799 33.6297 64.6799C33.6241 64.6799 33.6308 64.6819 33.6239 64.685C33.5854 64.7021 33.5187 64.7317 33.3589 64.7522C33.2636 64.7643 33.2313 64.7823 33.2343 64.8057C33.2414 64.8616 33.3064 64.9556 33.3838 65.0677C33.4089 65.1042 33.4354 65.1424 33.4582 65.1768C33.6046 65.3973 33.7303 65.3768 33.9485 65.3414C33.9838 65.3353 34.0211 65.3295 34.0543 65.3246C34.1226 65.3145 34.1129 65.2542 34.0681 65.1748V65.1751Z" fill="black"/>
<path d="M29.8912 55.1992C29.957 55.1992 30.0168 55.226 30.06 55.2692C30.1032 55.3124 30.1299 55.3722 30.1299 55.4381C30.1299 55.504 30.1032 55.5638 30.06 55.6069C30.0168 55.6502 29.9571 55.677 29.8912 55.677C29.8252 55.677 29.7656 55.6502 29.7223 55.6069C29.6791 55.5638 29.6523 55.504 29.6523 55.4381C29.6523 55.3722 29.6791 55.3125 29.7223 55.2692C29.7656 55.226 29.8252 55.1992 29.8912 55.1992ZM29.9409 55.3884C29.9282 55.3756 29.9105 55.3678 29.8912 55.3678C29.8717 55.3678 29.8541 55.3759 29.8414 55.3884C29.8288 55.4011 29.8209 55.4187 29.8209 55.4381C29.8209 55.4575 29.8288 55.4751 29.8414 55.4878C29.8541 55.5006 29.8717 55.5085 29.8912 55.5085C29.9106 55.5085 29.9282 55.5004 29.9409 55.4878C29.9536 55.4751 29.9615 55.4575 29.9615 55.4381C29.9615 55.4187 29.9536 55.4011 29.9409 55.3884Z" fill="black"/>
<path d="M30.1425 56.375C30.1993 56.375 30.251 56.3982 30.2884 56.4357L30.2887 56.436C30.3262 56.4735 30.3494 56.5252 30.3494 56.582C30.3494 56.6389 30.3262 56.6905 30.2887 56.728V56.7283C30.2513 56.7658 30.1995 56.789 30.1425 56.789C30.0854 56.789 30.0336 56.7658 29.9962 56.7283C29.9587 56.6909 29.9355 56.6392 29.9355 56.582C29.9355 56.525 29.9587 56.4732 29.9962 56.4357H29.9965C30.034 56.3982 30.0856 56.375 30.1425 56.375ZM30.1699 56.5549L30.1696 56.5546C30.1626 56.5475 30.1531 56.5435 30.1425 56.5435C30.1317 56.5435 30.1221 56.5476 30.1151 56.5547L30.1153 56.5549C30.1083 56.5619 30.104 56.5715 30.104 56.582C30.104 56.5926 30.1083 56.6023 30.1153 56.6092C30.1222 56.6163 30.1318 56.6205 30.1425 56.6205C30.153 56.6205 30.1626 56.6165 30.1696 56.6092L30.1698 56.6094C30.1766 56.6023 30.1809 56.5927 30.1809 56.582C30.1809 56.5714 30.1767 56.5618 30.1699 56.5549Z" fill="black"/>
<path d="M33.6039 56.5898C33.662 56.5898 33.7148 56.6135 33.7532 56.6517C33.7917 56.6903 33.8155 56.7431 33.8155 56.8012C33.8155 56.8595 33.7918 56.9123 33.7535 56.9506V56.9509C33.7152 56.9892 33.6623 57.0129 33.6039 57.0129C33.5458 57.0129 33.493 56.9891 33.4545 56.9506C33.4163 56.9123 33.3926 56.8594 33.3926 56.8012C33.3926 56.7432 33.4163 56.6905 33.4547 56.6519L33.4545 56.6517C33.4928 56.6135 33.5456 56.5898 33.6039 56.5898ZM33.6347 56.7709C33.6269 56.7628 33.616 56.7583 33.6039 56.7583C33.5921 56.7583 33.5814 56.7634 33.5736 56.7709H33.5733C33.5657 56.779 33.561 56.7892 33.561 56.8012C33.561 56.8134 33.5658 56.8243 33.5736 56.832C33.5812 56.8401 33.5919 56.8444 33.6039 56.8444C33.6158 56.8444 33.6266 56.8393 33.6344 56.8317L33.6346 56.8319C33.6423 56.8238 33.647 56.8133 33.647 56.8012C33.647 56.7892 33.6423 56.7785 33.6347 56.7709Z" fill="black"/>
<path fill-rule="evenodd" clip-rule="evenodd" d="M32.5985 39.5352C32.8015 39.5352 32.9875 39.588 32.9717 39.6391C32.9559 39.6902 32.8214 39.6245 32.6184 39.6245C32.4154 39.6245 32.2557 39.687 32.2367 39.6391C32.2179 39.5912 32.3956 39.5352 32.5985 39.5352Z" fill="black"/>
<path d="M31.9475 39.6203C31.93 39.6081 31.9059 39.6122 31.8936 39.6296C31.8813 39.6472 31.8855 39.6713 31.9029 39.6835C31.9237 39.6982 31.9425 39.7124 31.9559 39.7417C31.9715 39.7761 31.9822 39.8311 31.9852 39.9275C31.9883 40.0314 31.9374 40.1565 31.8966 40.2566C31.8577 40.3521 31.8268 40.4281 31.8542 40.4714C31.8656 40.4894 31.8895 40.4948 31.9077 40.4833C31.9257 40.4719 31.9311 40.4479 31.9196 40.4298C31.9136 40.4203 31.9378 40.3606 31.9684 40.2856C32.0117 40.179 32.0659 40.0459 32.0622 39.9254C32.059 39.817 32.0458 39.7527 32.0264 39.7099C32.0046 39.6621 31.9773 39.6414 31.9475 39.6203Z" fill="black"/>
<path d="M31.961 40.4568C31.9414 40.4485 31.9187 40.4576 31.9103 40.4773C31.902 40.4969 31.9111 40.5196 31.9308 40.528C31.9777 40.5481 32.0263 40.5554 32.0704 40.553C32.1207 40.5503 32.166 40.5348 32.1978 40.5109C32.215 40.4981 32.2184 40.4739 32.2055 40.4569C32.1928 40.4398 32.1686 40.4363 32.1516 40.4492C32.1316 40.4641 32.1013 40.4739 32.0665 40.4758C32.0333 40.4777 31.9966 40.4721 31.961 40.4568Z" fill="black"/>
<path fill-rule="evenodd" clip-rule="evenodd" d="M31.498 39.7578C31.6807 39.7578 31.8289 39.7768 31.8289 39.8001C31.8289 39.8234 31.7943 39.9586 31.6114 39.9586C31.4287 39.9586 31.167 39.8234 31.167 39.8001C31.167 39.7768 31.3152 39.7578 31.498 39.7578Z" fill="black"/>
<path fill-rule="evenodd" clip-rule="evenodd" d="M32.6239 39.7578C32.4412 39.7578 32.293 39.7768 32.293 39.8001C32.293 39.8234 32.3276 39.9586 32.5103 39.9586C32.6932 39.9586 32.9548 39.8234 32.9548 39.8001C32.9548 39.7768 32.8066 39.7578 32.6239 39.7578Z" fill="black"/>
<path fill-rule="evenodd" clip-rule="evenodd" d="M31.4795 39.5352C31.2766 39.5352 31.0907 39.588 31.1064 39.6391C31.1222 39.6902 31.2568 39.6245 31.4597 39.6245C31.6627 39.6245 31.8224 39.687 31.8413 39.6391C31.8602 39.5912 31.6824 39.5352 31.4795 39.5352Z" fill="black"/>
<path fill-rule="evenodd" clip-rule="evenodd" d="M32.1523 40.8453C32.0483 40.8453 32.0672 40.8298 32.0277 40.8323C31.9882 40.8298 31.9934 40.8453 31.8894 40.8453C31.7854 40.8453 31.5986 40.8619 31.5986 40.8824C31.5986 40.9028 31.8286 41.0218 31.9892 41.0218C32.0003 41.0218 32.0109 41.0212 32.0209 41.0201C32.0308 41.0212 32.0414 41.0218 32.0525 41.0218C32.2131 41.0218 32.4431 40.9028 32.4431 40.8824C32.4431 40.8619 32.2562 40.8453 32.1523 40.8453Z" fill="black"/>
</svg>
