<svg width="64" height="82" viewBox="0 0 64 82" fill="none" xmlns="http://www.w3.org/2000/svg">
<path d="M0 0V49.7067C0.000693384 58.1931 3.37242 66.3318 9.37351 72.3324C15.3746 78.333 23.5135 81.704 32 81.704C40.4865 81.704 48.6254 78.333 54.6265 72.3324C60.6276 66.3318 63.9993 58.1931 64 49.7067V0H0Z" fill="#E7E7E7"/>
<path d="M54.769 25.4926L55.6651 56.1652H56.7332V61.5597H49.3877V56.1652H49.9252C49.9824 50.6356 48.2756 45.2317 45.0526 40.7381C41.8296 36.2445 37.2583 32.8951 32.0023 31.1763C26.7463 32.8951 22.175 36.2445 18.9521 40.7381C15.7291 45.2317 14.0223 50.6356 14.0795 56.1652H14.617V61.5597H7.27148V56.1652H8.33957L9.23569 25.4926H8.17102L7.65998 23.5558H9.38474V16.2169H7.94643V10.8225H10.9116V13.4237H12.8314V10.8225H15.7965V13.4237H17.7164V10.8225H20.6815V16.2169H19.2432V23.5558H21.2727V20.0811H24.2378V23.5558H26.685V11.9178H25.3778V6.52344H28.5243V9.12469H30.5198V6.52344H33.4849V9.12469H35.4804V6.52344H38.6269V11.9178H37.3196V23.5558H39.7668V20.0811H42.732V23.5558H44.7615V16.2169H43.3231V10.8225H46.2883V13.4237H48.2081V10.8225H51.1732V13.4237H53.0931V10.8225H56.0582V16.2169H54.6199V23.5558H56.3447L55.8336 25.4926H54.769H55.8336H54.769Z" fill="black"/>
<path d="M21.7852 23.6325H23.7221V20.6719H21.7852V23.6325Z" fill="white"/>
<path d="M14.0546 23.6351V21.859H13.4359V20.2227H9.89648V23.6351H14.0546Z" fill="white"/>
<path d="M18.7268 19.7054V16.293H9.89648V19.7054H13.4359V17.5549H15.1874V19.7054H18.7268Z" fill="white"/>
<path d="M18.7284 20.2227H15.189V21.859H14.5703V23.6351H18.7284V20.2227Z" fill="white"/>
<path d="M7.7832 61.1202H14.1005V56.7539H7.7832V61.1202Z" fill="white"/>
<path d="M42.2163 23.6325H40.2793V20.6719H42.2163V23.6325Z" fill="white"/>
<path d="M49.9453 23.6351V21.859H50.564V20.2227H54.1034V23.6351H49.9453Z" fill="white"/>
<path d="M45.2734 19.7054V16.293H54.1037V19.7054H50.5643V17.5549H48.8129V19.7054H45.2734Z" fill="white"/>
<path d="M45.2734 20.2227H48.8129V21.859H49.4316V23.6351H45.2734V20.2227Z" fill="white"/>
<path d="M56.2158 61.1202H49.8984V56.7539H56.2158V61.1202Z" fill="white"/>
<path d="M12.7451 25.5664H19.6096V28.4648H12.7451V25.5664Z" fill="white"/>
<path d="M16.4375 28.9805H23.8656V32.4036H16.4375V28.9805Z" fill="white"/>
<path d="M20.124 25.5664H27.3368V28.4648H20.124V25.5664Z" fill="white"/>
<path d="M12.7451 32.918H19.6096V36.2719H12.7451V32.918Z" fill="white"/>
<path d="M43.8769 25.5664H36.6641V28.4648H43.8769V25.5664Z" fill="white"/>
<path d="M27.8486 28.4648H36.1489V25.5664H27.8486V28.4648Z" fill="white"/>
<path d="M9.74874 25.5664H12.2314V28.4648H9.66406L9.74874 25.5664Z" fill="white"/>
<path d="M9.64884 28.9805H15.9236V32.4036H9.54883L9.64884 28.9805Z" fill="white"/>
<path d="M9.53158 32.918H12.229V36.2719H9.43359L9.53158 32.918Z" fill="white"/>
<path d="M9.41821 36.7852H15.921V40.3367H9.31445L9.41821 36.7852Z" fill="white"/>
<path d="M9.30015 40.8516H12.2293V44.2058H9.20215L9.30015 40.8516Z" fill="white"/>
<path d="M9.18971 44.7227H14.6044C14.0951 45.8761 13.6647 47.0628 13.3161 48.2745H9.08594L9.18971 44.7227Z" fill="white"/>
<path d="M9.06833 48.7852H12.2293V52.0599H8.97266L9.06833 48.7852Z" fill="white"/>
<path d="M8.95769 52.582H12.436C12.2866 53.7982 12.2176 55.0229 12.2294 56.2482H8.85059L8.95769 52.582Z" fill="white"/>
<path d="M12.7451 40.8516H16.6909C15.9966 41.9258 15.3771 43.0465 14.8368 44.2058H12.7451V40.8516Z" fill="white"/>
<path d="M16.4375 36.7852H19.6096V37.0855C18.6705 38.1036 17.8087 39.1904 17.0313 40.3367H16.4375V36.7852Z" fill="white"/>
<path d="M20.124 32.918H24.4514C22.9955 33.9053 21.6364 35.0283 20.3923 36.2719H20.124V32.918Z" fill="white"/>
<path d="M12.7441 48.7852H13.1717L12.7441 50.6379V48.7852Z" fill="white"/>
<path d="M51.2551 25.5664H44.3906V28.4648H51.2551V25.5664Z" fill="white"/>
<path d="M47.5629 28.9805H40.1348V32.4036H47.5629V28.9805Z" fill="white"/>
<path d="M51.2551 32.918H44.3906V36.2719H51.2551V32.918Z" fill="white"/>
<path d="M54.2522 25.5664H51.7695V28.4648H54.3369L54.2522 25.5664Z" fill="white"/>
<path d="M54.3529 28.9805H48.0781V32.4036H54.4529L54.3529 28.9805Z" fill="white"/>
<path d="M54.4669 32.918H51.7695V36.2719H54.5649L54.4669 32.918Z" fill="white"/>
<path d="M54.5809 36.7852H48.0781V40.3367H54.6847L54.5809 36.7852Z" fill="white"/>
<path d="M54.6987 40.8516H51.7695V44.2058H54.7967L54.6987 40.8516Z" fill="white"/>
<path d="M54.8112 44.7227H49.3965C49.9058 45.8761 50.3363 47.0628 50.6848 48.2745H54.915L54.8112 44.7227Z" fill="white"/>
<path d="M54.9305 48.7852H51.7695V52.0599H55.0262L54.9305 48.7852Z" fill="white"/>
<path d="M51.2563 40.8516H47.3105C48.0048 41.9258 48.6243 43.0465 49.1646 44.2058H51.2563V40.8516Z" fill="white"/>
<path d="M47.5627 36.7852H44.3906V37.0855C45.3297 38.1036 46.1915 39.1904 46.9689 40.3367H47.5627V36.7852Z" fill="white"/>
<path d="M43.8782 32.918H39.5508C41.0067 33.9053 42.3658 35.0283 43.6099 36.2719H43.8782V32.918Z" fill="white"/>
<path d="M51.2557 48.7852H50.8281L51.2557 50.6379V48.7852Z" fill="white"/>
<path d="M55.0428 52.582H51.5645C51.7139 53.7982 51.7829 55.0229 51.7711 56.2482H55.1499L55.0428 52.582Z" fill="white"/>
<path d="M31.9999 29.3156C34.3822 30.0381 36.6569 31.0767 38.7632 32.4036H39.6209V28.9805H31.9999H24.3789V32.4036H25.2366C27.3429 31.0767 29.6176 30.0381 31.9999 29.3156Z" fill="white"/>
<path d="M32.0001 30.7097C26.6027 32.437 21.9005 35.8477 18.5827 40.4419C15.2648 45.0361 13.5056 50.5722 13.5631 56.2389H12.7445C12.6866 50.354 14.5292 44.6075 17.9983 39.8535C21.4675 35.0994 26.378 31.5917 32.0001 29.8516C37.6221 31.5917 42.5326 35.0994 46.0018 39.8535C49.4709 44.6075 51.3135 50.354 51.2556 56.2389H50.437C50.4945 50.5722 48.7353 45.0361 45.4175 40.4419C42.0996 35.8477 37.3974 32.437 32.0001 30.7097Z" fill="white"/>
<path d="M55.5458 11.4141H53.6088V14.0153H50.6608V11.4141H48.7239V14.0153H45.7758V11.4141H43.8389V15.7803H55.5458V11.4141Z" fill="white"/>
<path d="M55.4355 25.0506L55.6735 24.1484H8.3252L8.56324 25.0506H55.4355Z" fill="white"/>
<path d="M28.6445 19.5827H35.3568V15.7891H32.8764V17.9319H31.1249V15.7891H28.6445V19.5827Z" fill="white"/>
<path d="M35.8672 15.7891H36.8002V19.5827H35.8672V15.7891Z" fill="white"/>
<path d="M32.8765 15.2717H36.804V11.9922H32.2578V13.6278H32.8765V15.2717Z" fill="white"/>
<path d="M32.2578 23.6303H36.804V20.0938H32.2578V23.6303Z" fill="white"/>
<path d="M32.9696 7.11328H31.0326V9.71453H28.009V7.11328H25.8906V11.4795H38.1116V7.11328H35.9932V9.71453H32.9696V7.11328Z" fill="white"/>
<path d="M28.1322 15.7891H27.1992V19.5827H28.1322V15.7891Z" fill="white"/>
<path d="M31.1267 15.2717H27.1992V11.9922H31.7454V13.6278H31.1267V15.2717Z" fill="white"/>
<path d="M31.7444 23.6303H27.1982V20.0938H31.7444V23.6303Z" fill="white"/>
<path d="M8.45801 11.4141H10.395V14.0153H13.343V11.4141H15.28V14.0153H18.228V11.4141H20.1649V15.7803H8.45801V11.4141Z" fill="white"/>
<path d="M32.7039 36.813C32.1608 36.8002 31.6047 37.0413 31.125 37.2964C31.062 37.1468 30.9023 37.0434 30.74 37.0472C29.7125 36.9615 28.6346 36.898 27.8918 37.6702C26.9571 37.584 25.9931 37.8743 25.2616 38.4624C24.9728 38.709 24.975 39.1365 25.2304 39.3659C25.1449 40.0434 25.5064 40.6751 26.0804 40.9279C26.0787 41.0503 26.0668 41.1725 26.0448 41.2929C25.4232 41.5782 25.3383 42.3481 25.8134 42.7326C25.796 42.8469 25.8857 42.9666 26.0003 42.9818C26.313 42.9658 26.6263 42.9599 26.9394 42.964C27.0681 43.0963 27.0516 43.3001 26.9038 43.389C26.2693 43.6977 25.5758 43.8845 24.8721 43.9364C24.9393 44.2248 25.1346 44.4809 25.3951 44.6218C24.4594 45.2551 23.4785 45.8215 22.4622 46.3152C22.7336 46.6251 23.0334 46.91 23.3568 47.1652C22.4272 48.2107 22.4519 49.8661 21.1182 50.3161C21.3601 50.5661 21.6087 50.8095 21.8637 51.046C20.8283 51.5678 19.674 51.8516 18.5147 51.8693C18.074 51.8659 17.7611 51.4784 17.8271 51.086C17.8682 50.4415 17.3985 49.9068 16.8124 49.8555C16.526 49.5861 16.071 49.5141 15.7154 49.6819C15.778 49.8671 15.8734 50.0412 15.9958 50.1937C15.9487 50.3445 15.9275 50.5032 15.9335 50.661C15.9396 50.8198 15.7844 50.9649 15.6264 50.9481C15.4429 50.9291 15.2525 50.9943 15.119 51.1216C14.8224 51.1551 14.5428 51.3194 14.3691 51.5622C14.5511 51.7759 14.8032 51.9289 15.0768 51.9917C15.0226 52.2272 15.163 52.4919 15.3883 52.5792C15.5144 52.7394 15.4729 53.0038 15.3037 53.1177C15.1898 53.1571 15.096 53.2508 15.0564 53.3646C15.0167 53.4785 15.0321 53.6101 15.0968 53.7118C14.941 53.9331 14.8482 54.1982 14.832 54.4684C15.1636 54.5929 15.5619 54.517 15.8244 54.2792C16.1186 54.4165 16.4894 54.3706 16.7412 54.1657C16.8048 54.1346 16.8882 54.1514 16.9349 54.2045C16.9815 54.2577 16.9873 54.3426 16.9482 54.4016C16.838 54.5022 16.7746 54.652 16.7793 54.8011C16.7839 54.9502 16.8564 55.0958 16.9726 55.1893C16.978 55.4719 17.1082 55.7499 17.322 55.9348C17.4979 55.781 17.6433 55.5923 17.747 55.3829C17.8157 55.4238 18.2551 55.4727 18.4423 54.9462C18.6253 55.4065 19.3326 55.9856 20.3594 56.2641C20.2967 56.1193 20.0152 55.6835 20.0504 55.3114C20.2148 55.5701 20.8865 55.994 21.2628 55.9993C21.1729 55.5223 20.9151 55.2047 20.9893 54.6569C21.4242 55.088 22.3929 55.2512 22.9162 55.1315C22.6706 55.4446 22.558 55.8587 22.6113 56.253C22.821 56.0036 23.0765 55.7928 23.3612 55.6344C23.4277 55.5801 23.5324 55.5795 23.5994 55.6332C23.6664 55.6868 23.6889 55.789 23.6505 55.8658C23.0826 56.5352 22.5707 57.2521 22.1218 58.0065C21.6761 58.5187 20.9209 58.7374 20.2704 58.5427C19.8425 58.3549 19.2952 58.4939 19.0087 58.8632C18.4255 59.0448 17.9578 59.5566 17.8293 60.1538C18.1072 60.1316 18.388 60.1474 18.6616 60.2005C18.9358 60.2531 19.1457 60.5346 19.1177 60.8125C18.6339 61.3215 18.7273 62.1084 19.2468 62.4725C19.3206 62.2297 19.5107 62.0252 19.7475 61.934C19.9959 62.0086 20.2895 61.8689 20.3883 61.6291C20.7205 61.5495 21.0953 61.7013 21.2784 61.9896C21.3928 62.345 21.6372 62.6569 21.9549 62.853C22.1042 62.6093 22.3217 62.2608 22.262 61.9896C22.496 61.8608 22.6718 61.5181 22.6649 61.2997C23.1276 61.7004 23.1163 61.9644 23.339 62.2277C23.6119 62.1198 23.9285 61.6042 23.9327 61.3108C24.2766 60.9013 24.414 60.3149 24.0711 59.8156C24.6342 59.766 25.1687 59.4539 25.4885 58.9878C26.3285 59.1418 27.224 58.97 27.9474 58.516C27.5519 58.5702 27.1349 58.3279 26.9861 57.9575C27.6258 58.1704 28.3696 58.0369 28.8953 57.6148C28.6822 57.5062 28.5317 57.2834 28.5104 57.0452C28.8135 56.9645 29.1471 57.0043 29.4227 57.1542C29.4375 56.776 29.3318 56.3939 29.1245 56.0772C30.1948 56.1121 31.2674 56.0779 32.3333 55.9748C32.2162 55.7166 31.9528 55.5309 31.6702 55.5075C32.2665 55.0759 33.0566 54.9236 33.7708 55.1026C33.3814 54.8578 32.9608 54.6628 32.5224 54.524C33.7479 54.0453 34.9138 53.4144 35.9848 52.6504C36.5037 52.2313 37.1816 52.0142 37.8474 52.054L36.5567 53.4136C36.0338 53.9069 35.7775 54.6675 35.8952 55.3766C36.2865 56.8057 37.2474 56.9584 38.1834 57.7016C38.3374 57.8249 38.3717 58.073 38.2568 58.2334C38.0959 58.6768 37.8186 59.0773 37.4602 59.3839C37.3028 59.5176 37.041 59.5031 36.8994 59.3527C36.1146 58.7821 35.1361 58.9337 34.6408 59.6776C34.2516 59.7871 33.9346 60.1218 33.8464 60.5165C34.0837 60.6342 34.3555 60.6812 34.6186 60.65C34.8201 60.8568 35.064 61.0222 35.3306 61.1329C35.2909 61.2594 35.2706 61.3919 35.2706 61.5245C35.0879 61.9531 35.1047 62.4618 35.3151 62.8774C35.5694 62.7985 35.803 62.6538 35.9871 62.4613C36.2773 62.4033 36.5457 62.2415 36.7325 62.0118C36.8111 62.13 36.917 62.2297 37.0396 62.3011C37.0632 62.7735 37.3063 63.2304 37.6849 63.5139C38.0104 63.2969 38.2446 62.9473 38.3213 62.5637C38.5527 62.3362 38.7359 62.0599 38.8554 61.7582C39.2134 61.9587 39.4204 62.398 39.3471 62.8018C40.269 62.3316 40.0368 61.803 40.3173 61.0706C40.4463 60.8597 40.3869 60.5546 40.1883 60.4075C40.0823 60.1132 40.3671 59.8644 40.6155 59.9824C40.9293 60.1385 41.2237 60.3333 41.49 60.561C41.6629 60.1326 41.6086 59.6197 41.3498 59.237C41.4699 59.1858 41.6163 59.2023 41.7219 59.279C41.8276 59.3557 41.8887 59.4897 41.8772 59.6197C42.107 59.2278 42.0532 58.6901 41.7504 58.3514C41.6806 58.274 41.6974 58.136 41.7837 58.0777C42.121 57.7924 42.0985 57.29 41.7837 57.0474C40.9431 57.3571 40.787 55.8031 41.0542 55.6273C41.6745 56.5731 42.9051 57.5754 44.0334 57.6527C44.8478 57.79 45.5715 58.3771 45.8737 59.1458C46.0103 59.5832 45.6248 59.967 45.2328 59.8823C44.3956 59.6564 43.58 60.0483 43.2791 60.7902C42.931 61.0085 42.8438 61.4567 43.0543 61.7648C43.1953 61.6543 43.3871 61.6114 43.5617 61.6514C43.8131 61.7948 44.1403 61.7948 44.3917 61.6514C44.3267 61.9694 44.4438 62.3182 44.6877 62.5325C44.5377 62.7869 44.5298 63.1192 44.6676 63.3803C44.9559 63.2444 45.2138 63.0446 45.4175 62.7996C45.7766 62.6562 46.0979 62.4193 46.341 62.1187C46.3202 62.4659 46.6049 62.8037 46.9507 62.8418C47.0362 63.0675 47.3187 63.1956 47.5448 63.1111C47.4886 62.9573 47.465 62.7916 47.4758 62.6282C47.684 62.4953 47.9227 61.7325 47.8053 61.5152C48.1394 61.6137 48.1569 61.8529 48.4282 62.1054C48.718 61.9626 48.8356 61.3753 48.6781 61.1538C49.0349 60.0729 49.0749 59.6057 48.4579 58.4395C48.986 58.4297 49.4586 57.9439 49.5609 57.4257C49.2179 57.4396 48.8718 57.3662 48.564 57.2143C48.8887 57.0098 49.083 56.615 49.0468 56.233C48.8346 56.3224 48.3771 56.3273 48.291 56.1838C48.299 55.9641 48.3966 55.6467 48.2817 55.407C47.2531 55.6078 46.6073 55.3428 46.1802 54.8099C45.9284 54.4856 45.813 54.0587 45.867 53.6517C46.4323 53.818 47.0732 53.7024 47.5448 53.3491C46.9279 53.3905 46.7036 52.7361 46.2008 52.5769C46.3821 52.329 46.6665 52.1589 46.9707 52.1163C46.7605 51.8941 46.4776 51.7419 46.1763 51.6891C46.1858 51.55 46.2765 51.4193 46.4035 51.3617C46.5305 51.3041 46.6884 51.322 46.7994 51.4065C46.8323 51.2245 46.7222 51.0269 46.5502 50.9592C46.1935 50.7818 46.0578 50.363 46.2186 50.038C48.7199 49.8408 49.2863 47.7352 47.9498 46.195C46.8444 45.2516 45.535 44.5484 44.138 44.1478C44.0372 43.7812 43.7298 43.479 43.3614 43.3846C42.3887 42.9608 42.6246 42.0454 43.2791 41.7179C43.0745 41.6384 42.84 41.6392 42.636 41.7201C42.4659 41.0934 41.978 40.5568 41.575 40.23C42.1559 40.5541 42.932 39.6734 43.219 39.7219C42.3628 39.0767 41.3944 39.2193 40.66 38.4023C40.1129 37.8618 39.285 37.9709 38.7419 38.093C38.2896 37.8269 37.7504 37.7112 37.2287 37.7682C35.4261 38.0589 35.1144 40.0176 35.9693 41.1794C37.0289 42.5564 38.5905 43.5382 40.2906 43.8964C39.8163 44.1345 39.475 44.62 39.4117 45.147C39.9654 44.9061 40.5911 44.8339 41.1852 44.9422C41.2696 45.7797 41.9378 46.4019 42.7072 46.4354C42.4743 46.195 42.363 45.8424 42.4157 45.5119C42.4446 45.3357 42.6228 45.2411 42.7673 45.3228C43.102 45.4494 43.4894 45.4287 43.8087 45.2671C44.8933 45.7871 46.4678 46.4111 47.1944 47.205C47.9196 48.7197 45.7652 48.8074 44.5523 48.142C41.3028 46.8766 38.0703 46.624 34.7031 47.3277C34.5633 47.3412 34.4183 47.2819 34.3281 47.1742C34.2378 47.0665 34.2047 46.9134 34.2425 46.778C34.5429 46.9209 34.8855 46.9734 35.2149 46.9271C34.6765 46.2924 34.4472 45.407 34.6097 44.5907C35.0559 44.898 35.6692 44.9438 36.1562 44.7064C35.2896 43.8741 34.7903 42.6722 34.8122 41.4709C35.1675 41.4941 35.5209 41.2358 35.6066 40.8901C34.7414 40.475 34.0806 39.6561 33.8575 38.7228C33.6517 38.5609 33.5189 38.4772 33.3091 38.359C33.1772 37.8061 32.9383 37.091 32.7039 36.813V36.813ZM37.5113 39.0054C37.7288 39.0054 37.9449 39.0965 38.0966 39.2524C37.9843 39.7116 38.0535 40.3212 37.6315 40.5541C38.0699 40.7249 38.5865 40.68 38.9889 40.4362C39.2522 41.2026 39.8431 41.8504 40.5821 42.183C40.438 41.9402 40.2294 41.0506 40.2488 40.7212C40.3756 41.4228 42.1826 41.4475 42.3223 41.9315C41.8527 42.1155 41.3527 42.384 41.2853 42.8884C39.6429 42.5262 37.7032 41.4583 37.006 40.5224C36.3087 39.5865 36.8466 39.0035 37.5113 39.0054ZM27.8206 40.8859C27.9564 41.4684 27.1053 41.453 26.8081 41.2973C26.8157 41.1486 26.8416 40.9763 26.8326 40.8489C27.1199 40.658 27.6663 40.5158 27.8206 40.8859Z" fill="black"/>
<path d="M38.5723 38.7441C39.2126 38.0083 39.7787 38.3389 40.2313 38.6194C40.9236 39.1878 41.6632 39.6012 42.4923 39.7205C41.8881 39.9839 41.2802 39.9542 40.3092 39.566C41.3156 40.368 41.3751 40.7526 41.8022 41.2621C40.9848 40.9129 40.2151 40.4371 39.6881 39.7719C39.8972 40.2623 39.8951 40.7058 39.9377 41.1593C39.4094 40.4689 39.21 39.8225 39.1008 39.1406C39.0349 39.9369 38.6659 39.9948 38.3594 40.1976C38.6115 39.6846 38.2982 39.088 38.5723 38.7441Z" fill="white"/>
<path d="M38.1568 38.6137C38.2389 38.4473 38.263 38.4309 38.3719 38.3345C37.2916 37.8548 35.5195 38.2321 35.976 40.3013C36.6379 42.2294 38.9101 42.9689 40.5962 43.645C40.6924 43.55 40.83 43.3434 41.0087 43.2759C39.2135 42.5489 37.2748 42.0581 36.4512 40.2191C35.8465 38.548 37.5687 38.3036 38.1568 38.6137Z" fill="white"/>
<path d="M41.6964 43.6094C41.7649 43.777 41.8788 43.9295 42.0309 44.0692C41.6991 44.1446 41.5703 44.3578 41.4038 44.5709C40.8855 44.6349 40.7864 44.4235 40.2959 44.4769C40.626 44.0496 41.1279 43.6443 41.6964 43.6094Z" fill="white"/>
<path d="M42.2347 42.3906C42.118 43.2088 43.0255 43.5392 43.4438 44.0408C43.114 43.9933 42.9371 43.9682 42.663 44.0088C41.9282 43.7715 41.6067 42.8783 42.2347 42.3906Z" fill="white"/>
<path d="M43.7143 44.3279C42.0941 44.0382 41.5218 44.6848 41.9137 45.5569C42.0959 45.351 42.0694 44.9452 42.439 44.9311C42.9671 44.9108 43.2675 44.9348 43.7143 44.3279Z" fill="white"/>
<path d="M38.3633 52.082C37.9122 52.5711 37.4988 53.0148 36.8679 53.7287C36.4113 54.4153 35.7772 55.2236 37.0927 56.3478C37.7555 56.8035 38.4906 57.2092 38.8862 57.8431C38.5578 58.5333 38.1527 59.2952 37.3598 59.939C36.1585 59.3062 35.0089 59.0639 35.1367 60.1529C35.1589 60.4021 35.3038 60.5511 35.4567 60.4726C35.8531 60.269 36.2543 60.1741 36.4941 60.4243C36.2746 60.4787 35.9025 60.5381 35.7242 60.7455C35.5536 60.944 35.4281 61.104 35.8243 61.5192C36.7766 62.4082 36.4753 61.0374 37.6267 60.7159C37.5159 61.1972 36.7648 61.9196 37.7068 62.0999C38.4848 62.2547 38.1563 61.4427 38.4478 61.0941C39.1675 61.45 39.2813 61.1346 39.7473 61.172C40.1779 60.7164 39.7479 60.3961 39.6183 60.1128C39.2151 59.7292 39.0055 60.7112 38.4745 60.6847C39.1332 59.168 40.0273 58.2069 41.2049 57.9165C41.3618 57.7046 41.2516 57.4943 41.1314 57.2824C40.531 56.7695 40.5664 56.1702 40.6619 55.5645C40.8524 54.5283 39.6363 52.4908 38.3633 52.082ZM40.179 55.1039C39.9475 56.4953 40.2803 57.0234 40.7465 57.4381C39.476 57.0134 39.0444 56.2662 40.179 55.1039Z" fill="white"/>
<path d="M28.0791 55.6758C27.8394 56.0297 27.4652 56.4258 27.1328 56.7333C27.6498 56.7333 28.3413 56.634 29.0141 56.723C28.8201 56.3033 28.509 55.9539 28.0791 55.6758Z" fill="white"/>
<path d="M26.7639 57C27.193 57.1916 27.7723 57.2352 28.2883 57.3834C27.703 57.4911 27.1288 57.706 26.1953 57.4331L26.7639 57Z" fill="white"/>
<path d="M22.2255 51.3754C22.0218 52.0832 22.0581 52.7196 22.121 53.4679C21.1295 53.6253 20.1331 53.7362 18.688 53.2889C18.5602 53.282 18.4985 53.3076 18.4478 53.4011C19.0813 53.7078 19.6591 54.6831 19.2799 55.2408C19.0452 54.9905 19.0113 54.5841 18.5398 54.3281C18.309 54.5212 18.2697 54.7303 17.6617 54.5462C16.9704 54.0725 17.4175 53.7546 17.3056 53.2809C16.8069 53.4621 16.3083 54.2036 15.8096 53.7297C15.3441 52.7767 16.2728 52.8082 16.6324 52.4581C16.1927 52.3278 15.4359 52.7478 15.473 51.774C15.7417 50.8029 16.4454 51.7396 16.9316 51.8222C17.0326 51.2343 15.676 51.2407 16.6698 50.5132C17.3357 50.2088 17.1822 51 17.4091 51.4549C17.636 51.9098 17.7237 52.4639 18.465 52.3458C19.7897 52.2306 21.1457 51.8988 22.2255 51.3754Z" fill="white"/>
<path d="M39.6312 59.7396C39.554 59.5852 39.9342 58.9759 40.2327 58.9966C40.5599 59.0193 41.1526 59.6512 41.1526 59.6512C40.6455 59.5894 40.1383 59.5253 39.6312 59.7396Z" fill="white"/>
<path d="M40.5156 58.7667C40.6888 58.6391 40.9175 58.3725 41.1348 58.2891C41.5104 58.5276 41.4534 58.694 41.5771 58.8905C41.2684 58.7433 40.8714 58.7727 40.5156 58.7667Z" fill="white"/>
<path d="M35.5253 61.6133C35.6306 61.821 35.7867 61.919 35.9948 62.0582C35.771 62.1423 35.6169 62.2299 35.4788 62.4341C35.3991 62.1125 35.4347 61.9178 35.5253 61.6133Z" fill="white"/>
<path d="M37.2941 62.2578C37.4284 62.3643 37.6313 62.4751 37.8892 62.4781C37.7448 62.7078 37.731 62.8015 37.7205 63.0828C37.528 62.8703 37.2137 62.5572 37.2941 62.2578Z" fill="white"/>
<path d="M34.8774 59.8906C34.8308 60.1394 34.7854 60.1525 34.8932 60.4013C34.6147 60.2719 34.5232 60.2668 34.2617 60.3072C34.5083 59.9422 34.5745 59.9795 34.8774 59.8906Z" fill="white"/>
<path d="M39.2217 61.5932C39.331 61.4621 39.8017 61.397 39.8201 61.4645C39.8041 61.7114 39.7506 61.9553 39.5306 62.1852C39.3636 61.9879 39.2351 61.7905 39.2217 61.5932Z" fill="white"/>
<path d="M44.1818 44.457C44.1698 44.5714 44.1602 44.5767 43.9882 44.8954C45.2771 45.4623 46.0025 45.7865 47.047 46.5533C48.7954 48.0864 46.883 49.5798 44.9831 48.7985C43.363 48.1151 39.8269 46.6801 34.5459 47.6838C34.6505 47.9431 34.7401 47.994 34.938 48.3223C34.324 48.3491 33.7955 48.0186 33.4238 47.7727C33.2816 48.1088 33.4449 48.3646 33.5161 48.6985C32.964 48.6872 32.4451 48.3893 32.1849 47.924C31.6326 49.249 30.7614 50.2245 29.528 50.8034V49.9801C28.491 50.7029 28.0329 51.5716 27.77 52.4879C27.3131 52.3024 27.029 51.9678 26.7976 51.5889C26.7533 51.9469 26.5337 52.42 26.9089 53.6094C26.4564 53.7057 25.9115 53.6833 25.4914 53.5849C25.2311 54.8727 24.874 55.4639 23.8514 56.3375C22.8288 57.2112 22.8923 58.2202 21.2502 59.0478C20.5054 59.1925 19.1471 58.4562 19.0161 59.484C18.9581 59.8204 19.2172 60.053 19.4458 59.8725C19.816 59.5804 20.3945 59.5438 20.7361 59.6709C20.4209 59.852 19.7691 59.7985 19.5382 60.2473C19.4245 60.4684 19.3022 60.6491 19.5768 61.0683C20.8088 61.7779 20.4483 60.1518 21.5595 59.7955C21.7307 60.4166 20.611 60.7982 21.6351 61.391C22.2872 61.6093 22.2905 60.7176 22.5319 60.2316C22.8824 60.4024 22.8914 60.9883 23.3174 60.7924C23.8255 60.6882 23.6311 60.0932 23.6178 59.5952C24.2794 59.3322 24.9563 59.1404 25.5248 58.4737C25.9432 58.5382 26.3546 58.6141 26.8354 58.585C26.4149 58.2916 26.1316 57.9627 26.001 57.7016C25.2856 58.1634 24.5961 58.7074 23.9204 58.7341C26.0758 57.2772 28.6768 55.3658 28.6312 53.1599C28.8367 53.559 28.9361 53.958 28.8181 54.3571C30.7964 54.4292 32.2475 53.3348 33.7937 52.4501C32.309 53.9248 30.6066 54.8335 28.7335 54.6575C28.6407 54.9172 28.4764 55.1865 28.2351 55.4786C29.234 55.6164 30.3302 55.6866 31.3615 55.6299C31.1581 55.3592 31.049 55.0663 31.1368 54.7309C31.5732 54.7353 32.011 54.784 32.4474 54.9178C32.4474 54.9178 32.1055 54.3483 31.9423 54.3037C32.3078 54.1533 34.5194 53.0289 35.1399 52.5146C37.5431 51.111 39.1705 51.4746 39.9664 52.7483C42.8258 58.3292 43.0863 56.5972 45.772 58.0776C46.3771 59.1093 47.0588 60.177 45.4649 60.1938C43.7535 60.1284 43.7613 60.5315 43.9317 60.9793C44.6794 61.5886 44.5825 60.5014 45.5406 60.7167C45.2222 61.0361 44.2408 61.255 45.0666 61.9807C45.9423 62.7124 45.9037 61.0495 46.5508 60.6433C46.5746 61.1843 46.153 62.0442 47.1116 61.9139C47.6045 61.8061 47.443 61.2636 47.4476 60.8302C47.5983 60.5321 47.9898 60.6642 48.4846 60.7101C48.7111 59.229 48.1669 59.0188 48.0973 58.1288C48.407 58.2174 48.9613 58.0304 49.1094 57.7103C48.5265 57.5382 48.1924 57.5349 48.1227 57.0896C48.4203 57.0653 48.5749 56.6864 48.639 56.5211C48.4523 56.4919 48.2303 56.659 47.9245 56.4816C47.9617 56.1706 47.9728 56.0539 47.9727 55.8547C45.7558 56.2446 45.3703 54.5611 45.3537 52.8239C45.4572 52.8028 45.6213 52.8424 45.9522 53.0487C45.7398 52.4036 45.3909 52.2244 45.2068 51.8938C45.6141 51.7532 45.7909 51.9842 45.9745 52.0206C45.7037 51.3596 45.3198 51.1857 44.9798 50.9525C45.0578 53.0325 44.5537 55.7531 47.1271 56.2307C47.4734 56.2454 47.7483 56.3597 47.8681 56.9027C47.7224 57.6615 47.7459 58.4256 47.9371 59.2592C47.2546 58.6676 47.092 57.9653 47.4854 57.1631C47.4999 56.9041 47.3078 56.826 47.1116 56.7514C44.8028 55.9905 44.8475 55.0177 44.6794 53.9454C44.5056 52.8368 44.9299 51.5149 44.3563 50.1692C44.2918 50.018 44.3497 49.8768 44.3483 49.8456C44.9045 50.7417 45.4502 50.9668 45.91 50.8079C45.5702 50.2224 45.1744 49.8619 44.7951 49.5284C49.3505 49.9729 48.4889 47.0005 47.3363 46.1372C46.279 45.3453 45.4057 44.9541 44.1818 44.457ZM39.0741 50.1648C40.2753 50.1365 41.4009 51.8152 41.421 53.6417C39.6496 50.5 39.9711 51.1901 38.9562 50.1715C38.996 50.1674 39.0345 50.1657 39.0741 50.1648V50.1648ZM32.1425 50.9903C32.9731 52.0935 32.1897 52.6986 31.4399 53.099C31.8564 52.3882 32.1546 52.0117 32.1425 50.9903ZM33.1573 51.0282C33.6056 51.331 33.6186 52.5964 32.6991 52.7013C33.0215 52.2025 33.1811 51.527 33.1573 51.0282ZM31.1178 51.5006C31.69 52.425 31.0862 53.1919 30.2745 53.5208C30.2495 53.3953 31.0654 52.3857 31.1178 51.5006Z" fill="white"/>
<path d="M19.3555 53.7773C19.717 53.8634 20.0458 53.89 20.4511 53.9326C20.3802 54.2857 20.4186 54.6628 20.5105 55.1787C19.909 54.7424 19.615 54.2338 19.3555 53.7773Z" fill="white"/>
<path d="M20.7461 53.9257C21.1667 53.9319 21.5949 53.9228 22.0445 53.8711C21.9125 54.0483 21.699 54.2377 21.633 54.5445C21.2554 54.3984 20.9598 54.2357 20.7461 53.9257Z" fill="white"/>
<path d="M22.7636 53.7812C22.4917 53.8292 21.9161 54.6724 21.9749 54.7618C22.2809 54.8105 22.5216 54.7423 22.8685 54.6682C22.9175 54.3834 22.8878 54.0655 22.7636 53.7812Z" fill="white"/>
<path d="M29.0042 47.9609C28.5818 48.1371 28.3574 48.5721 28.1934 49.0066C28.9229 48.6734 28.8312 48.6962 29.0042 47.9609Z" fill="white"/>
<path d="M43.5284 60.7852C43.6282 61.0191 43.8082 61.173 44.0047 61.3103L43.2598 61.4202C43.2628 61.122 43.3627 60.9207 43.5284 60.7852Z" fill="white"/>
<path d="M44.8121 62.1523C44.9953 62.3111 45.4265 62.4341 45.3616 62.4576C45.2271 62.5065 44.771 62.8973 44.8121 62.8973C44.7844 62.6397 44.7456 62.3785 44.8121 62.1523Z" fill="white"/>
<path d="M46.8477 62.1743C47.0394 62.1956 47.2007 62.1559 47.3605 62.1133L47.214 62.6872C47.0191 62.5454 46.8801 62.3812 46.8477 62.1743Z" fill="white"/>
<path d="M47.8691 61.0384C47.9259 60.8944 48.1648 60.903 48.3742 60.8867C48.4365 61.0897 48.4871 61.294 48.2914 61.5263C48.162 61.3466 48.024 61.1798 47.8691 61.0384Z" fill="white"/>
<path d="M18.8003 59.3281C18.7525 59.5612 18.8114 59.6612 18.8612 59.8617C18.6414 59.8115 18.5352 59.8563 18.3154 59.8697C18.4601 59.5769 18.4933 59.4262 18.8003 59.3281V59.3281Z" fill="white"/>
<path d="M19.2917 61.1328C19.3976 61.3363 19.5198 61.3611 19.7233 61.467C19.5496 61.5403 19.3676 61.6629 19.1616 61.8333C19.1278 61.5612 19.1316 61.2757 19.2917 61.1328Z" fill="white"/>
<path d="M21.4326 61.5977C21.6688 61.6543 21.7911 61.7443 22.0599 61.7033L21.8437 62.2288C21.6177 61.9968 21.4632 61.8297 21.4326 61.5977Z" fill="white"/>
<path d="M23.0762 61.1232C23.3035 61.1911 23.3457 61.2752 23.6453 61C23.6828 61.3023 23.641 61.4399 23.4182 61.7097L23.0762 61.1232Z" fill="white"/>
<path d="M33.9734 44.1641C34.0313 44.9545 33.9901 45.5315 34.6011 46.3992C33.5058 46.4253 33.6391 44.8085 33.9734 44.1641Z" fill="white"/>
<path d="M33.3236 45.5039C32.2175 46.1143 31.9418 47.136 32.9641 48.0564C32.9242 47.6775 32.8602 47.2977 33.2254 46.9724C33.3342 47.3113 33.4775 47.6054 33.9494 47.539C33.5486 46.7461 33.4575 46.1264 33.3236 45.5039Z" fill="white"/>
<path d="M26.2834 40.7148L26.634 40.7514C26.6211 40.9656 26.6252 41.1944 26.5624 41.3088L26.2578 41.2742L26.2834 40.7148Z" fill="white"/>
<path d="M28.7179 38.3912C28.0335 38.1974 28.192 38.8535 28.5134 38.8898L28.6718 38.7068C28.6361 38.6158 28.6574 38.4727 28.7179 38.3912Z" fill="white"/>
<path d="M29.2492 38.5273C29.2515 38.6575 29.2358 38.8402 28.9677 38.823C28.9089 38.89 28.7819 39.011 28.6113 39.2459C29.2818 39.3747 29.4866 38.8858 29.5146 38.612L29.2492 38.5273Z" fill="white"/>
<path d="M16.2919 50.3396C16.4283 50.1495 16.5647 50.0964 16.7011 50.0248C16.5008 49.8818 16.2706 49.8582 16.04 49.8359L16.2919 50.3396Z" fill="white"/>
<path d="M15.3248 51.3125C15.2702 51.4895 15.156 51.5975 15.2182 51.8307C14.9506 51.7895 14.8681 51.7117 14.7539 51.5545C14.9536 51.3797 15.0859 51.3754 15.3248 51.3125Z" fill="white"/>
<path d="M15.4697 53.6289C15.5848 53.9151 15.7017 53.935 15.7862 54.0373C15.5929 54.1104 15.4751 54.2372 15.167 54.1676C15.1909 53.8409 15.2965 53.8063 15.4697 53.6289Z" fill="white"/>
<path d="M17.2595 54.7148C17.3861 54.8824 17.427 54.915 17.7351 54.9918C17.5931 55.1393 17.489 55.3708 17.2967 55.385C17.2097 55.1437 17.1122 54.9562 17.2595 54.7148Z" fill="white"/>
<path d="M32.5058 37.125C31.6826 37.2483 31.1529 37.6958 30.6923 38.222C30.7928 37.9272 30.858 37.6935 30.6767 37.3987C29.9171 37.458 29.0714 37.4088 28.4579 37.7185C28.253 37.8405 28.298 37.9376 28.367 38.0596C28.6198 38.0122 28.8123 38.0055 28.9953 38.0731C29.0719 38.2988 29.3737 38.4161 29.6558 38.3369C30.0507 39.3016 29.2159 39.8481 28.4899 39.4859C28.3704 39.5676 28.2321 39.6249 28.0584 39.7948C28.0708 39.4943 28.1554 39.3349 28.2786 39.1733C27.9447 39.0192 27.8564 38.5677 27.9447 37.9712C26.7221 38.0241 26.0724 38.1923 25.354 38.8629C25.2817 38.9839 25.2351 39.226 25.5543 39.1366C25.8033 38.9224 26.0507 38.7726 26.2997 38.6804C26.4082 38.7231 26.6204 38.5797 26.5445 38.9541C25.5557 39.1841 25.4907 39.8245 26.1106 40.4873C26.4256 40.5577 26.8505 40.5747 27.0073 40.5006C27.1511 40.4328 27.0891 40.3543 27.0875 40.1669C29.521 40.4537 28.352 42.5489 27.4435 42.1251C27.4103 41.9448 27.3659 41.8977 27.6371 41.8603C27.8756 41.9394 27.778 41.5945 27.7795 41.4731C27.0147 41.8487 26.5265 41.4672 26.0171 41.433C25.8374 41.8656 25.834 42.4507 26.1706 42.6916C26.3894 42.6075 26.5921 42.6473 26.9717 42.6524C28.2571 42.5544 29.0966 42.1318 29.2125 40.83C29.2849 41.0747 29.3576 41.3206 29.3505 41.6845C29.8946 41.5278 30.4323 40.735 30.2495 39.2901C30.8171 39.5807 31.3374 41.078 30.1738 41.5776C29.0102 42.0773 28.7472 42.9988 27.597 43.0107C27.2675 43.6605 26.5941 44.0375 25.7367 44.3213C26.0679 44.8305 26.8693 44.4233 27.1231 45.0223C24.4831 44.9371 24.6736 45.9911 23.6629 46.3797C24.5822 46.631 25.3225 46.0237 26.0416 45.3138C26.2031 45.817 25.9727 46.3193 25.7367 46.8225C26.2851 46.7782 26.7617 46.2754 27.2299 45.7099C26.9343 46.0831 26.6919 46.6119 26.6335 47.2853C26.0101 47.4697 25.4726 47.5228 24.9713 47.401L25.0536 46.6623C22.4021 47.5812 23.4345 49.4723 21.9248 50.3417C22.2003 50.5092 22.5176 50.5566 23.0386 50.4135C22.6393 51.3894 22.4498 52.224 22.6504 53.1999L23.1288 52.5524C23.0719 53.4157 23.3323 54.2703 23.3001 55.1336C23.711 54.6217 23.6495 53.7707 23.6072 53.0308C24.2199 53.441 24.3129 54.3709 24.2548 55.4518L24.9869 53.7918C24.088 53.4227 23.6993 52.6213 23.7763 51.4264L23.269 51.4554L23.6538 49.907C23.4039 49.973 23.154 50.0458 22.9041 49.9912C23.5196 47.7507 24.7023 47.9207 25.2517 47.7904C24.7048 48.3257 23.9203 48.7794 23.6495 49.5217C24.0608 49.3742 24.4732 49.2802 24.8845 48.9342C24.2896 49.6009 24.1461 50.2149 24.1413 50.8078C24.6738 50.1968 25.0616 50.2494 25.7457 49.4282C25.2365 50.4577 24.6782 51.2079 23.9455 51.4175C24.009 51.9581 24.2048 52.3103 24.5641 52.4411C24.6688 51.1693 25.5116 50.6983 26.2018 50.2315C25.0655 51.5606 24.6468 52.5436 25.0781 53.3401L25.3518 52.3276C25.4504 52.6711 25.7992 52.9612 26.2708 53.1554C26.3248 52.2358 25.9272 51.5052 26.658 50.5542C26.8691 51.1499 27.0374 51.4489 27.3233 51.8203C27.6243 50.7025 29.0749 50.5492 29.1525 48.9208C28.897 49.0856 28.2906 49.3909 27.8017 50.5542C27.513 48.7486 28.1798 48.1192 28.8431 47.4856L26.7136 48.9186C26.5434 47.3999 27.2974 46.4026 28.5116 45.6631C28.3582 46.2403 27.7933 47.0428 27.2009 47.8594C28.2649 47.2919 29.0831 46.4798 29.6999 45.4651C29.8258 45.9117 29.4911 46.6127 29.3505 47.2497C30.2691 46.8703 30.7709 46.3417 30.403 45.0534C30.2652 44.268 30.7608 43.9442 31.0283 43.4535C30.9717 43.9884 30.7515 44.4766 30.9504 45.0846C31.4712 43.5034 32.4826 43.0335 32.9019 41.8669C33.7719 43.2506 34.4311 44.3273 35.2518 44.2768C34.3257 42.872 34.6651 42.0495 34.1369 41.6489C33.2696 40.991 32.9948 40.5961 32.9487 39.8242C33.6147 40.9928 34.468 41.1276 34.9603 40.9524C33.7214 40.0267 33.8017 39.1609 33.1934 38.8184C32.716 39.348 32.3017 39.6216 31.865 39.704C32.3328 39.6144 32.0594 38.2616 31.8961 38.1619C31.683 38.0319 30.8588 38.9731 30.8147 38.8785C31.2629 38.4414 31.1267 38.0049 32.3701 37.5678C32.4095 38.0744 32.475 38.581 32.3634 39.0876C33.2159 38.7272 32.6792 37.389 32.5058 37.125H32.5058ZM31.6825 40.6164C32.6677 41.5648 32.5855 42.0063 31.2419 43.073C31.6814 42.287 31.9909 41.4855 31.6825 40.6164ZM30.5499 42.0027C30.5746 43.3035 29.753 44.8979 27.8418 45.4962C27.8858 44.2582 28.5587 43.446 29.2993 43.0218C29.0558 43.3788 28.6518 43.9454 28.7319 44.4548C29.5227 44.1524 30.0611 42.8949 30.5499 42.0027Z" fill="white"/>
<path d="M33.206 43.3516C32.2022 44.0429 32.256 45.0116 32.3681 45.595C33.0682 45.0542 33.5842 44.2576 33.206 43.3516Z" fill="white"/>
<path d="M32.282 43.6094C29.6941 46.797 31.4132 48.2213 30.1789 48.9724C30.3525 48.2813 30.1997 47.835 30.0978 47.3506C29.8108 47.9775 28.9314 48.0401 30.0437 49.9996C31.6467 48.7036 32.0112 47.3875 31.9348 45.957C31.8891 45.1 32.0466 44.4299 32.282 43.6094Z" fill="white"/>
</svg>
