<svg width="88" height="88" viewBox="0 0 88 88" fill="none" xmlns="http://www.w3.org/2000/svg">
<g clip-path="url(#clip0)">
<path d="M33 66.334L8.25 73.7422V20.6504L33 13.2422V66.334Z" fill="#2D65BA"/>
<path d="M79.75 63.9797L56.375 75.1172V24.3797L79.75 13.2422V63.9797Z" fill="#133D8A"/>
<path d="M56.375 24.3797L33 13.2422C33 31.5218 33 48.5132 33 66.4547L56.375 75.1172C56.375 57.5788 56.375 42.0875 56.375 24.3797Z" fill="url(#paint0_linear)"/>
<path d="M29.887 49.2016C29.1528 49.3968 28.7155 50.1489 28.9108 50.8832C29.0744 51.4992 29.6299 51.9062 30.239 51.9062C30.3545 51.9062 30.4742 51.8911 30.5924 51.8608C31.3624 51.6573 32.1682 51.5006 33 51.3864V48.6172C31.9234 48.7478 30.8812 48.9389 29.887 49.2016Z" fill="#80DDDB"/>
<path d="M24.4808 51.5271C22.8211 52.5679 21.3251 53.8714 20.0326 55.4045C19.5431 55.9848 19.6174 56.8524 20.1976 57.3419C20.4561 57.5592 20.771 57.6651 21.0831 57.6651C21.475 57.6651 21.8628 57.4987 22.135 57.1769C23.2433 55.8624 24.5234 54.7445 25.941 53.8577C26.5845 53.4534 26.7784 52.6051 26.3755 51.9616C25.9726 51.3181 25.1229 51.1228 24.4808 51.5271Z" fill="#80DDDB"/>
<path d="M18.7377 59.6847C18.0474 59.3685 17.2307 59.6668 16.913 60.3571C15.5023 63.4178 15.153 65.8887 15.1379 65.9932C15.0348 66.7453 15.56 67.437 16.3122 67.5401C16.3754 67.5497 16.44 67.5538 16.5019 67.5538C17.177 67.5538 17.7655 67.0561 17.8632 66.37C17.8659 66.348 18.1808 64.1741 19.41 61.5107C19.7277 60.8205 19.4265 60.0037 18.7377 59.6847Z" fill="#80DDDB"/>
<path d="M72.9679 27.569C72.9541 26.8086 72.2941 26.2311 71.5681 26.2188C70.8091 26.2325 70.2041 26.8595 70.2179 27.6185C70.2261 28.0956 70.2316 28.5645 70.2316 29.0238C70.2316 30.3988 70.1904 31.7366 70.1093 33.0016C70.0611 33.7593 70.6359 34.4124 71.3935 34.4619C71.4238 34.4632 71.4526 34.4646 71.4829 34.4646C72.202 34.4646 72.807 33.9064 72.8538 33.1763C72.939 31.8549 72.9816 30.4565 72.9816 29.0238C72.9816 28.5466 72.9775 28.0612 72.9679 27.569Z" fill="white"/>
<path d="M71.0743 37.1875C70.3235 37.0637 69.6099 37.5408 69.4696 38.2875C69.1231 40.141 68.6515 41.835 68.0685 43.3241C67.7921 44.0308 68.14 44.8283 68.8468 45.1061C69.0118 45.1707 69.1809 45.1996 69.3473 45.1996C69.8973 45.1996 70.4156 44.8682 70.6288 44.3251C71.275 42.6765 71.7934 40.8147 72.1729 38.7921C72.3118 38.0468 71.8209 37.3291 71.0743 37.1875Z" fill="white"/>
<path d="M65.5903 47.7315C64.5233 49.0611 63.2583 50.1048 61.8297 50.8349C61.1532 51.1814 60.8851 52.0091 61.2316 52.6856C61.4749 53.1614 61.9562 53.435 62.4567 53.435C62.6671 53.435 62.8816 53.3869 63.0809 53.2851C64.8574 52.3762 66.4236 51.0865 67.7339 49.4544C68.2097 48.8617 68.1148 47.9955 67.5222 47.5211C66.9323 47.0481 66.0661 47.1389 65.5903 47.7315Z" fill="white"/>
<path d="M57.079 52.1267C56.8453 52.1445 56.6101 52.1473 56.375 52.1555V54.9042C56.6803 54.8945 56.9841 54.8918 57.2921 54.8684C58.0484 54.8093 58.6149 54.1493 58.5557 53.3917C58.498 52.634 57.8339 52.0579 57.079 52.1267Z" fill="white"/>
<path d="M46.9831 50.2747C46.3767 50.0203 46.022 49.8443 45.9986 49.8319C45.9092 49.7865 45.8143 49.7494 45.7167 49.7247C44.2276 49.3424 42.7605 49.0399 41.3538 48.8254C40.6045 48.7072 39.9018 49.2255 39.7863 49.9763C39.6722 50.727 40.1878 51.4297 40.9386 51.5438C42.2118 51.739 43.5414 52.0113 44.8944 52.355C45.0787 52.443 45.4307 52.6094 45.923 52.8143C46.0962 52.8872 46.2763 52.9202 46.4523 52.9202C46.99 52.9202 47.5015 52.6039 47.7215 52.0759C48.0143 51.3719 47.6843 50.5675 46.9831 50.2747Z" fill="#2D65BA"/>
<path d="M51.9747 51.7917C51.2267 51.6446 50.5076 52.1341 50.3632 52.8794C50.2188 53.6246 50.7069 54.3465 51.4522 54.4909C52.9496 54.781 54.4126 54.9281 55.7972 54.9281C55.9883 54.9281 56.1836 54.9116 56.3761 54.9061V52.1575C54.9502 52.2084 53.5119 52.0887 51.9747 51.7917Z" fill="#2D65BA"/>
<path d="M37.0425 49.7719C37.026 49.0225 36.4141 48.4258 35.6675 48.4258C35.6579 48.4258 35.6469 48.4258 35.6372 48.4258C34.7366 48.445 33.858 48.5152 33 48.6197V51.3889C33.8704 51.2693 34.771 51.1964 35.6964 51.1758C36.4568 51.1607 37.059 50.5323 37.0425 49.7719Z" fill="#2D65BA"/>
<path d="M20.4811 17.3672C14.7185 17.3672 10.0303 22.1688 10.0303 28.0705C10.0303 35.4884 20.4914 44.8006 20.4914 44.8006C20.4914 44.8006 30.9319 35.1236 30.9319 28.0705C30.9319 22.1688 26.2438 17.3672 20.4811 17.3672ZM23.6343 31.2045C22.7648 32.0948 21.6231 32.54 20.4811 32.54C19.3393 32.54 18.1971 32.0948 17.328 31.2045C15.5893 29.4239 15.5893 26.5266 17.328 24.7458C18.17 23.8832 19.2899 23.408 20.4811 23.408C21.6722 23.408 22.792 23.8834 23.6343 24.7458C25.373 26.5266 25.373 29.4239 23.6343 31.2045Z" fill="#80DDDB"/>
</g>
<defs>
<linearGradient id="paint0_linear" x1="33" y1="13.2422" x2="56.375" y2="13.2422" gradientUnits="userSpaceOnUse">
<stop stop-color="#9EFCDE"/>
<stop offset="1" stop-color="#4FABD6"/>
</linearGradient>
<clipPath id="clip0">
<path d="M0 0H88V88H0V0Z" fill="white"/>
</clipPath>
</defs>
</svg>
