<svg width="88" height="88" viewBox="0 0 88 88" fill="none" xmlns="http://www.w3.org/2000/svg">
<rect x="12.0762" y="9.08984" width="70.125" height="53.625" fill="url(#paint0_linear)"/>
<rect y="19.25" width="74.25" height="49.5" fill="#2D65BA"/>
<rect y="19.25" width="74.25" height="8.25" fill="#133D8A"/>
<path d="M2.37695 80.2778C2.37695 74.8777 6.75462 70.5 12.1547 70.5V70.5C17.5548 70.5 21.9325 74.8777 21.9325 80.2778V81.6746H2.37695V80.2778Z" fill="#80DDDB"/>
<path d="M4.33203 60.7207C4.33203 56.4006 7.83416 52.8984 12.1543 52.8984V52.8984C16.4743 52.8984 19.9765 56.4006 19.9765 60.7207V60.7207C19.9765 65.0407 16.4743 68.5429 12.1543 68.5429V68.5429C7.83416 68.5429 4.33203 65.0407 4.33203 60.7207V60.7207Z" fill="#80DDDB"/>
<path d="M24.4492 77.0278C24.4492 71.6277 28.8269 67.25 34.227 67.25V67.25C39.6271 67.25 44.0048 71.6277 44.0048 77.0278V78.4246H24.4492V77.0278Z" fill="#80DDDB"/>
<path d="M26.4043 57.4707C26.4043 53.1506 29.9064 49.6484 34.2265 49.6484V49.6484C38.5466 49.6484 42.0487 53.1506 42.0487 57.4707V57.4707C42.0487 61.7907 38.5466 65.2929 34.2265 65.2929V65.2929C29.9064 65.2929 26.4043 61.7907 26.4043 57.4707V57.4707Z" fill="#80DDDB"/>
<path d="M46.5215 73.7739C46.5215 68.3738 50.8991 63.9961 56.2993 63.9961V63.9961C61.6994 63.9961 66.077 68.3738 66.077 73.7739V75.1707H46.5215V73.7739Z" fill="#80DDDB"/>
<path d="M48.4766 54.2168C48.4766 49.8967 51.9787 46.3945 56.2988 46.3945V46.3945C60.6189 46.3945 64.121 49.8967 64.121 54.2168V54.2168C64.121 58.5368 60.6189 62.039 56.2988 62.039V62.039C51.9787 62.039 48.4766 58.5368 48.4766 54.2168V54.2168Z" fill="#80DDDB"/>
<defs>
<linearGradient id="paint0_linear" x1="12.0762" y1="9.08984" x2="25.0363" y2="68.6324" gradientUnits="userSpaceOnUse">
<stop stop-color="#9EFCDE"/>
<stop offset="1" stop-color="#4FABD6"/>
</linearGradient>
</defs>
</svg>
