<svg width="88" height="88" viewBox="0 0 88 88" fill="none" xmlns="http://www.w3.org/2000/svg">
<g clip-path="url(#clip0)">
<path fill-rule="evenodd" clip-rule="evenodd" d="M23.2807 28.1602C12.319 28.1602 3.51953 36.8744 3.51953 47.5182C3.51953 58.162 12.319 66.8762 23.2807 66.8762C28.704 66.8762 33.6102 64.7313 37.1683 61.2924L45.7596 53.7734L54.3535 61.2952C57.9097 64.7366 62.821 66.8802 68.2384 66.8802C79.2001 66.8802 87.9995 58.1659 87.9995 47.5221C87.9995 36.8783 79.2001 28.1641 68.2384 28.1641C62.8185 28.1641 57.9107 30.3027 54.3495 33.749L42.694 43.9498C42.6046 44.0224 42.5175 44.0986 42.4327 44.1784L30.6737 54.4698C30.6064 54.5287 30.5408 54.5895 30.4771 54.652C28.6187 56.4745 26.0816 57.5834 23.2807 57.5834C17.6973 57.5834 13.0833 53.1239 13.0833 47.5182C13.0833 41.9125 17.6973 37.453 23.2807 37.453C26.0789 37.453 28.6183 38.5627 30.4706 40.382C32.328 42.2062 35.3557 42.222 37.2331 40.4172C39.1106 38.6124 39.1268 35.6705 37.2694 33.8463C33.7052 30.3458 28.751 28.1602 23.2807 28.1602ZM60.8495 54.4739L52.9046 47.5202L60.8454 40.5705C60.9135 40.5108 60.9799 40.4493 61.0444 40.3859C62.8996 38.5639 65.4346 37.4569 68.2384 37.4569C73.8218 37.4569 78.4358 41.9164 78.4358 47.5221C78.4358 53.1278 73.8218 57.5874 68.2384 57.5874C65.4402 57.5874 62.9008 56.4776 61.0484 54.6583C60.9839 54.595 60.9176 54.5335 60.8495 54.4739Z" fill="url(#paint0_linear)"/>
<path fill-rule="evenodd" clip-rule="evenodd" d="M19.7611 21.1211C8.79945 21.1211 0 30.2314 0 41.359C0 52.4867 8.79945 61.597 19.7611 61.597C25.1844 61.597 30.0907 59.3546 33.6488 55.7593L42.24 47.8986L50.8339 55.7623C54.3901 59.3601 59.3014 61.6011 64.7189 61.6011C75.6805 61.6011 84.48 52.4908 84.48 41.3631C84.48 30.2355 75.6805 21.1252 64.7189 21.1252C59.299 21.1252 54.3911 23.3611 50.83 26.964L39.1744 37.6285C39.0851 37.7043 38.998 37.784 38.9132 37.8675L27.1541 48.6267C27.0869 48.6882 27.0213 48.7517 26.9576 48.8171C25.0992 50.7225 22.5621 51.8818 19.7611 51.8818C14.1777 51.8818 9.56377 47.2195 9.56377 41.359C9.56377 35.4986 14.1777 30.8363 19.7611 30.8363C22.5593 30.8363 25.0987 31.9965 26.9511 33.8985C28.8085 35.8056 31.8362 35.8221 33.7136 33.9353C35.591 32.0484 35.6072 28.9728 33.7498 27.0657C30.1857 23.4061 25.2315 21.1211 19.7611 21.1211ZM57.3299 48.6309L49.3851 41.3611L57.3258 34.0955C57.394 34.0331 57.4604 33.9688 57.5249 33.9026C59.3801 31.9977 61.915 30.8404 64.7189 30.8404C70.3023 30.8404 74.9162 35.5027 74.9162 41.3631C74.9162 47.2236 70.3023 51.8859 64.7189 51.8859C61.9206 51.8859 59.3813 50.7257 57.5289 48.8237C57.4644 48.7575 57.3981 48.6932 57.3299 48.6309Z" fill="url(#paint1_linear)"/>
</g>
<defs>
<linearGradient id="paint0_linear" x1="8.9362" y1="60.4996" x2="33.9296" y2="111.802" gradientUnits="userSpaceOnUse">
<stop stop-color="#9EFCDE"/>
<stop offset="1" stop-color="#4FABD6"/>
</linearGradient>
<linearGradient id="paint1_linear" x1="46.0625" y1="28.8757" x2="114.13" y2="2.21322" gradientUnits="userSpaceOnUse">
<stop stop-color="#2D65BA"/>
<stop offset="1" stop-color="#133D8A"/>
</linearGradient>
<clipPath id="clip0">
<path d="M0 0H88V88H0V0Z" fill="white"/>
</clipPath>
</defs>
</svg>
