<svg width="80" height="80" viewBox="0 0 80 80" fill="none" xmlns="http://www.w3.org/2000/svg">
<path d="M8.75 12C8.75 10.8954 9.64543 10 10.75 10H69.25C70.3546 10 71.25 10.8954 71.25 12V68.5324C71.25 69.6653 70.3099 70.572 69.1777 70.5311L10.6777 68.4144C9.60196 68.3755 8.75 67.4921 8.75 66.4157V12Z" fill="url(#paint0_linear)"/>
<path d="M8.75 12C8.75 10.8954 9.64543 10 10.75 10H69.25C70.3546 10 71.25 10.8954 71.25 12V17.5758H8.75V12Z" fill="#80DDDB"/>
<path fill-rule="evenodd" clip-rule="evenodd" d="M26.1913 26.0977C22.3243 26.0977 19.166 29.2626 19.166 33.1378C19.166 37.013 22.3243 40.1741 26.1913 40.1741C30.0583 40.1741 33.2126 37.013 33.2126 33.1378C33.2126 29.2626 30.0583 26.0977 26.1913 26.0977ZM37.7267 30.1205C37.4644 30.1264 37.215 30.2349 37.0316 30.4228C36.8482 30.6107 36.7456 30.8631 36.7456 31.1259C36.7456 31.3887 36.8482 31.6411 37.0316 31.8291C37.215 32.017 37.4644 32.1255 37.7267 32.1314H60.7758C61.038 32.1255 61.2875 32.017 61.4709 31.8291C61.6542 31.6411 61.7569 31.3887 61.7569 31.1259C61.7569 30.8631 61.6542 30.6107 61.4709 30.4228C61.2875 30.2349 61.038 30.1264 60.7758 30.1205H37.7267ZM48.7946 34.1414C48.7754 34.1414 48.7561 34.1421 48.7368 34.1433H37.7267C37.5904 34.1356 37.4539 34.1559 37.3257 34.2029C37.1975 34.2499 37.0803 34.3226 36.9811 34.4166C36.8819 34.5106 36.8029 34.6238 36.7489 34.7494C36.6949 34.8751 36.667 35.0104 36.667 35.1472C36.667 35.284 36.6949 35.4194 36.7489 35.545C36.8029 35.6707 36.8819 35.784 36.9811 35.878C37.0803 35.972 37.1975 36.0446 37.3257 36.0916C37.4539 36.1386 37.5904 36.1589 37.7267 36.1513H48.7368C48.87 36.1576 49.0032 36.1373 49.1285 36.0915C49.2538 36.0457 49.3687 35.9753 49.4665 35.8845C49.5644 35.7937 49.6432 35.6843 49.6983 35.5626C49.7534 35.4409 49.7838 35.3094 49.7877 35.1758C49.7915 35.0422 49.7687 34.9092 49.7207 34.7845C49.6726 34.6598 49.6003 34.546 49.5078 34.4497C49.4153 34.3534 49.3046 34.2765 49.1822 34.2236C49.0597 34.1706 48.928 34.1427 48.7946 34.1414Z" fill="white"/>
<path d="M37.0171 49.2243C37.2053 49.0357 37.4607 48.9297 37.7269 48.9297H60.7761C61.0423 48.9297 61.2976 49.0357 61.4859 49.2243C61.6741 49.413 61.7799 49.6688 61.7799 49.9356C61.7799 50.2024 61.6741 50.4583 61.4859 50.647C61.2976 50.8356 61.0423 50.9416 60.7761 50.9416H37.7269C37.4607 50.9416 37.2053 50.8356 37.0171 50.647C36.8288 50.4583 36.7231 50.2024 36.7231 49.9356C36.7231 49.6688 36.8288 49.413 37.0171 49.2243Z" fill="white"/>
<path d="M48.7371 52.9525C48.7563 52.9513 48.7756 52.9506 48.7949 52.9505C48.9282 52.9519 49.06 52.9798 49.1824 53.0327C49.3049 53.0857 49.4156 53.1626 49.508 53.2589C49.6005 53.3552 49.6729 53.4691 49.7209 53.5937C49.769 53.7184 49.7917 53.8514 49.7879 53.985C49.7841 54.1186 49.7537 54.2501 49.6985 54.3717C49.6434 54.4934 49.5646 54.6029 49.4668 54.6937C49.3689 54.7845 49.254 54.8549 49.1287 54.9007C49.0034 54.9465 48.8703 54.9668 48.7371 54.9604H37.7269C37.4653 54.9668 37.2116 54.8704 37.0198 54.692C36.8281 54.5136 36.7135 54.2672 36.7005 54.0053C36.6874 53.7434 36.777 53.4867 36.9501 53.2901C37.1231 53.0934 37.366 52.9723 37.627 52.9525C37.6602 52.9508 37.6936 52.9508 37.7269 52.9525H48.7371Z" fill="white"/>
<path d="M19.166 51.9503C19.166 48.0751 22.3243 44.9102 26.1913 44.9102C27.5182 44.9102 28.7561 45.2901 29.8166 45.9362L25.9767 52.3588L24.3835 50.8221C24.2896 50.7262 24.1774 50.6501 24.0536 50.5984C23.9299 50.5467 23.797 50.5204 23.6629 50.521C23.5288 50.5216 23.3962 50.5491 23.2729 50.602C23.1496 50.6548 23.0381 50.7319 22.9451 50.8286C22.852 50.9254 22.7792 51.0399 22.731 51.1653C22.6829 51.2907 22.6603 51.4245 22.6646 51.5588C22.6689 51.6931 22.7 51.8252 22.7561 51.9472C22.8122 52.0693 22.8921 52.1789 22.9912 52.2694L25.4946 54.6849C25.6033 54.7897 25.7342 54.8685 25.8775 54.9156C26.0208 54.9627 26.1729 54.9769 26.3224 54.957C26.4719 54.9371 26.615 54.8836 26.7411 54.8006C26.8672 54.7176 26.973 54.6073 27.0506 54.4777L31.3833 47.2323C32.5154 48.4832 33.2126 50.1362 33.2126 51.9503C33.2126 55.8255 30.0583 58.9865 26.1913 58.9865C22.3243 58.9865 19.166 55.8255 19.166 51.9503Z" fill="#9EFCDE"/>
<defs>
<linearGradient id="paint0_linear" x1="71.25" y1="71.8687" x2="7.95061" y2="11.2526" gradientUnits="userSpaceOnUse">
<stop stop-color="#114391"/>
<stop offset="1" stop-color="#3D77D3"/>
</linearGradient>
</defs>
</svg>
