<svg width="88" height="88" viewBox="0 0 88 88" fill="none" xmlns="http://www.w3.org/2000/svg">
<path d="M29.8409 32.5742L44.6445 75.2438L8.24986 32.5742H29.8409Z" fill="#9EFCDE"/>
<path d="M65.9792 13.75L81.0391 32.5749H59.4481L65.9792 13.75Z" fill="url(#paint0_linear)"/>
<path d="M29.8398 32.5749H8.24884L23.3087 13.75L29.8398 32.5749Z" fill="#2D65BA"/>
<path d="M29.8419 32.5749L44.6455 13.75L59.4492 32.5749H29.8419Z" fill="white"/>
<path d="M44.6437 13.75H65.9785L59.4474 32.5749L44.6437 13.75Z" fill="#9EFCDE"/>
<path d="M23.3097 13.75H44.6445L29.8409 32.5749L23.3097 13.75Z" fill="url(#paint1_linear)"/>
<path d="M59.4492 32.5742L44.6455 75.2438L29.8419 32.5742H59.4492Z" fill="url(#paint2_linear)"/>
<path d="M81.0391 32.5742L44.6444 75.2438L59.4481 32.5742H81.0391Z" fill="url(#paint3_linear)"/>
<defs>
<linearGradient id="paint0_linear" x1="81.0391" y1="13.75" x2="75.9212" y2="34.3724" gradientUnits="userSpaceOnUse">
<stop stop-color="#9EFCDE"/>
<stop offset="1" stop-color="#4FABD6"/>
</linearGradient>
<linearGradient id="paint1_linear" x1="35.6856" y1="17.1875" x2="33.3921" y2="45.8" gradientUnits="userSpaceOnUse">
<stop stop-color="#9EFCDE"/>
<stop offset="1" stop-color="#4FABD6"/>
</linearGradient>
<linearGradient id="paint2_linear" x1="59.4492" y1="32.5742" x2="42.0254" y2="75.0496" gradientUnits="userSpaceOnUse">
<stop stop-color="#9EFCDE"/>
<stop offset="1" stop-color="#4FABD6"/>
</linearGradient>
<linearGradient id="paint3_linear" x1="49.9572" y1="72.4852" x2="84.7605" y2="40.3513" gradientUnits="userSpaceOnUse">
<stop stop-color="#2D87BA"/>
<stop offset="1" stop-color="#133D8A"/>
</linearGradient>
</defs>
</svg>
