<svg width="88" height="88" viewBox="0 0 88 88" fill="none" xmlns="http://www.w3.org/2000/svg">
<g clip-path="url(#clip0)">
<path d="M43.6888 71.141C42.7861 71.1396 41.8939 70.951 41.0685 70.5881V80.312H9.62768C9.62768 80.312 9.625 53.0431 9.625 48.8685H19.3489C17.8946 52.1806 19.4 56.0455 22.7134 57.4997C26.0254 58.9541 29.8904 57.4487 31.3446 54.1353C32.0822 52.457 32.0822 50.5454 31.3446 48.8672H41.0685V58.5911C44.3806 57.1368 48.2455 58.6421 49.6997 61.9556C51.1539 65.269 49.6486 69.1326 46.3352 70.5867C45.502 70.955 44.6007 71.1423 43.6888 71.141Z" fill="#2356A8"/>
<path d="M72.5093 72.4518C72.5093 74.4236 72.5093 80.3122 72.5093 80.3122C72.5093 80.3122 67.0185 80.3127 64.6485 80.3127H41.0658V70.5887C44.3779 72.0431 48.2428 70.5377 49.697 67.2243C51.1513 63.9122 49.646 60.0473 46.3325 58.5931C44.6543 57.8555 42.7427 57.8555 41.0645 58.5931V48.8692H50.7884C49.334 45.5571 50.8394 41.6922 54.1528 40.238C57.4649 38.7837 61.3298 40.289 62.784 43.6025C63.5217 45.2807 63.5217 47.1923 62.784 48.8705H72.5093V72.4518Z" fill="url(#paint0_linear)"/>
<path d="M38.4482 38.3855C39.3509 38.3841 40.2431 38.1956 41.0685 37.8326V48.8667H31.3446C32.7989 52.1788 31.2935 56.0437 27.9801 57.4979C24.6667 58.9522 20.8031 57.4469 19.3489 54.1334C18.6113 52.4552 18.6113 50.5436 19.3489 48.8654H9.625V25.2828C9.625 20.7529 9.62888 17.4219 9.62888 17.4219H41.0685V25.8356C37.7564 24.3813 33.8915 25.8867 32.4373 29.2001C30.983 32.5122 32.4883 36.3771 35.8018 37.8313C36.635 38.1995 37.5363 38.3869 38.4482 38.3855Z" fill="#9EFCDE"/>
<path d="M78.3737 19.6904L67.598 48.8646L58.4938 45.436C61.0315 42.851 60.9923 38.6978 58.4073 36.1615C55.8223 33.625 51.6692 33.663 49.1328 36.248C47.8411 37.5646 47.1623 39.3635 47.2645 41.2055L38.1615 37.7769L42.0396 27.4149C41.1395 27.466 40.2382 27.3284 39.3932 27.0114C36.0103 25.6987 34.3335 21.8926 35.6462 18.5099C36.9367 15.1861 40.6431 13.4973 43.9984 14.7079C44.8434 15.0263 45.6138 15.5189 46.2583 16.1517L49.2142 8.25C58.8862 11.8928 78.3737 19.6904 78.3737 19.6904Z" fill="url(#paint1_linear)"/>
</g>
<defs>
<linearGradient id="paint0_linear" x1="41.0645" y1="39.6836" x2="63.5255" y2="107.021" gradientUnits="userSpaceOnUse">
<stop stop-color="#9EFCDE"/>
<stop offset="1" stop-color="#4FABD6"/>
</linearGradient>
<linearGradient id="paint1_linear" x1="53.1978" y1="17.1875" x2="92.2794" y2="-15.3864" gradientUnits="userSpaceOnUse">
<stop stop-color="#2D65BA"/>
<stop offset="1" stop-color="#133D8A"/>
</linearGradient>
<clipPath id="clip0">
<path d="M0 0H88V88H0V0Z" fill="white"/>
</clipPath>
</defs>
</svg>
