<svg width="123" height="47" viewBox="0 0 123 47" fill="none" xmlns="http://www.w3.org/2000/svg">
<path d="M106.667 0C97.2135 0 91.0405 6.47517 91.0405 17.1808C91.0405 30.4764 100.494 34.2752 107.272 34.2752C112.365 34.2752 117.2 32.2031 120.697 28.5339L116.337 24.1739C114.006 26.246 111.329 27.4978 107.358 27.4978C102.091 27.4978 98.5517 24.4329 98.5517 20.2025H122.035C121.992 20.1593 126.093 0 106.667 0ZM98.5517 14.418C98.5517 8.71987 102.868 6.00033 107.487 6.00033C112.106 6.00033 116.294 8.80622 116.294 14.418H98.5517Z" fill="#00DC06"/>
<path d="M20.2025 13.8568C17.1807 13.4683 8.50404 13.8138 8.50404 9.84224C8.50404 7.51118 12.1733 6.21615 15.4972 6.21615C19.037 6.17291 22.4904 7.16585 25.4258 9.06523L29.9584 4.57577C28.6202 3.49658 23.6559 0 15.4972 0C8.07236 0 1.38136 3.8851 1.38136 10.1012C1.38136 19.6413 12.9071 19.6413 17.6988 20.1162C20.6342 20.4183 23.2674 20.591 23.2674 23.4401C23.2674 26.1165 19.2096 27.5842 16.0584 27.5842C10.9214 27.5842 7.85652 25.9006 4.83478 23.1811L0 28.059C4.18727 32.1168 9.84224 34.3183 15.6699 34.2752C24.3034 34.2752 30.5627 30.4764 30.5627 22.8357C30.5627 17.7851 27.1525 14.7634 20.2025 13.8568Z" fill="#00DC06"/>
<path d="M44.9808 0.000833429C40.1891 -0.0424023 35.4839 1.59804 31.7283 4.57661L36.2609 9.10923C38.8078 7.20985 41.8727 6.21698 45.0239 6.26015C50.7652 6.26015 52.4919 8.54804 52.4919 11.1381V14.3757H42.2612C38.4624 14.3757 31.0376 15.3254 31.0376 23.6568C31.0376 29.7866 34.5342 34.276 42.9087 34.276C47.096 34.276 50.2904 32.9378 52.4919 30.3046V33.6285H59.9168V11.6561C59.9168 3.97227 55.2115 0.000833429 44.9808 0.000833429ZM52.5351 21.6279C52.5351 27.9735 48.0025 27.6282 43.9879 27.6282C39.9733 27.6282 37.2969 26.549 37.2969 23.6999C37.2969 21.0667 39.4121 20.1602 43.8152 20.1602H52.5351V21.6279Z" fill="#00DC06"/>
<path d="M82.8389 0.690694V4.35993C80.292 1.46769 77.2702 0 73.1693 0C66.133 0 62.5069 3.92827 61.2982 8.1587C60.8234 9.71273 60.6938 12.6913 60.6938 17.0944C60.6938 21.2385 60.737 25.0373 62.1616 27.9295C64.1904 31.9873 69.0684 34.2752 73.1693 34.2752C77.1407 34.2752 80.5078 32.7211 82.8389 30.0447V32.1168C82.8389 34.5342 82.0187 36.1314 80.4647 37.3832C78.9106 38.6351 76.9681 39.4121 74.2485 39.4121C71.788 39.4121 69.4569 38.0739 68.1187 37.1242L63.1112 42.1317C66.3488 44.7649 70.1907 46.5348 74.378 46.5779C78.3926 46.6643 82.3209 45.3693 85.4721 42.8224C88.4507 40.4913 90.3501 36.045 90.3501 31.3829V0.690694H82.8389ZM82.8389 17.0944C82.8389 19.6413 82.7957 21.5407 82.5799 22.5335C82.105 24.6488 79.6876 27.4547 75.2845 27.4547C74.1622 27.4547 68.5504 26.8071 67.9029 21.9292C67.7302 20.332 67.6439 18.6916 67.687 17.0944C67.687 13.2957 67.8597 12.0869 68.0324 11.1373C68.4209 9.23788 70.9246 6.38882 75.2845 6.38882C80.5942 6.38882 82.3209 10.0149 82.5799 11.4394C82.7957 13.2957 82.882 15.195 82.8389 17.0944Z" fill="#00DC06"/>
</svg>
