<svg width="130" height="25" viewBox="0 0 130 25" fill="none" xmlns="http://www.w3.org/2000/svg">
<path d="M129.366 18.7713C129.366 18.5103 129.14 18.4152 128.909 18.4152H128.476V19.6318H128.697V19.1226H128.856L129.144 19.631H129.413L129.082 19.0992C129.254 19.0614 129.366 18.947 129.366 18.7713ZM128.697 18.947V18.6005H128.898C129.014 18.6005 129.144 18.6336 129.144 18.7665C129.144 18.9139 129 18.947 128.875 18.947H128.698H128.697ZM128.904 17.9496C128.298 17.9496 127.808 18.4297 127.808 19.0283C127.808 19.6261 128.298 20.0966 128.904 20.0966C129.51 20.0966 130 19.6261 130 19.0283C130 18.4297 129.51 17.9496 128.904 17.9496ZM128.904 19.9395C128.661 19.9402 128.427 19.8448 128.254 19.6741C128.081 19.5034 127.983 19.2713 127.98 19.0283C127.982 18.785 128.08 18.5524 128.253 18.3814C128.427 18.2104 128.66 18.1151 128.904 18.1164C129.413 18.1164 129.827 18.5248 129.827 19.0283C129.827 19.5262 129.413 19.9395 128.904 19.9395ZM58.3646 18.1325C56.7608 18.1325 55.9516 16.7169 55.9516 15.349C55.9516 13.981 56.8293 12.6259 58.2872 12.6259C58.9707 12.6259 59.8338 12.9642 60.1731 13.4396L61.8705 11.7687C61.0484 10.9139 59.7387 10.4031 58.2872 10.4031C55.3343 10.4031 53.1913 12.4962 53.1913 15.3788C53.1913 18.3089 55.3109 20.3544 58.3453 20.3544C59.7895 20.3544 61.1233 19.9371 61.9148 19.0976L60.2626 17.347C59.8814 17.8062 59.0819 18.1325 58.3646 18.1325ZM48.8682 20.0894H51.5036V10.6681H48.8682V20.0894ZM44.0785 15.8332C44.0785 16.9409 43.3475 18.1325 41.9854 18.1325C40.9353 18.1325 40.3744 17.3929 40.3744 15.8718V10.6681H37.7405V16.5155C37.7405 18.4612 38.7238 20.3544 41.352 20.3544C42.5923 20.3544 43.6304 19.3909 44.1542 18.6795H44.1929V20.0894H46.7123V10.6681H44.0785V15.8332ZM32.9879 11.8653H32.9291C32.5567 11.4593 31.5485 10.4039 29.9116 10.4039C27.2254 10.4039 25.1558 12.4809 25.1558 15.3425C25.1558 18.2469 27.0658 20.3552 29.7851 20.3552C31.0198 20.3552 32.1804 19.7091 32.8525 18.9575H32.8912V24.7291H35.5266V10.6681H32.9879V11.8645V11.8653ZM30.4298 18.1333C28.801 18.1333 27.875 16.729 27.875 15.3417C27.875 14.0156 28.7253 12.5888 30.4298 12.5888C31.9974 12.5888 32.9686 14.0374 32.9686 15.3796C32.9686 16.7331 32.0184 18.1333 30.4298 18.1333ZM90.4371 10.4039C87.439 10.4039 85.2637 12.4809 85.2637 15.3425C85.2637 18.3025 87.4881 20.381 90.4371 20.381C93.386 20.381 95.6096 18.2831 95.6096 15.3417C95.6096 12.4809 93.4336 10.4039 90.4371 10.4039ZM90.4371 18.1333C88.7188 18.1333 87.9362 16.6863 87.9362 15.3417C87.9362 14.0156 88.7188 12.5888 90.4371 12.5888C92.1545 12.5888 92.9371 14.0156 92.9371 15.3417C92.9371 16.6863 92.1553 18.1333 90.4371 18.1333ZM123.373 14.2919C122.017 13.9721 121.539 13.8005 121.539 13.2583C121.539 12.5107 122.498 12.3463 122.933 12.3463C123.751 12.3463 124.674 12.8281 125.021 13.2857L126.575 11.8146C125.856 10.9235 124.443 10.4047 122.952 10.4047C121.045 10.4047 119.043 11.3513 119.043 13.4662C119.043 15.2829 120.485 15.8307 121.896 16.1651C123.382 16.5067 123.913 16.7564 123.913 17.3478C123.913 18.2203 122.912 18.3629 122.567 18.3629C121.704 18.3629 120.706 17.8747 120.167 17.243L118.568 18.8447C119.442 19.801 120.938 20.377 122.471 20.377C125.046 20.377 126.575 19.1645 126.575 17.1641C126.575 15.2499 124.704 14.607 123.373 14.2919ZM118.392 10.669H114.995L111.594 14.5788H111.535V5.47656H108.9V20.0886H111.535V15.4424H111.594L115.122 20.0894H118.589L114.488 14.9413L118.393 10.6681L118.392 10.669ZM79.3272 10.4039C78.1223 10.4039 77.2349 10.9243 76.3968 11.6994H76.3468V5.47737H73.713V20.0894H76.2323V18.7576H76.2718C76.8658 19.7196 78.0457 20.3544 79.2699 20.3544C81.9892 20.3544 84.0508 18.2461 84.0508 15.3409C84.0508 12.48 82.0134 10.4031 79.3272 10.4031V10.4039ZM78.8089 18.1333C77.2196 18.1333 76.2702 16.7331 76.2702 15.3796C76.2702 14.0374 77.2414 12.5888 78.8089 12.5888C80.5135 12.5888 81.3622 14.0156 81.3622 15.3417C81.3622 16.729 80.4386 18.1333 78.8089 18.1333ZM72.7217 10.669H69.3246L65.9235 14.5788H65.8647V5.47656H63.2293V20.0886H65.8647V15.4424H65.9227L69.452 20.0894H72.9183L68.8177 14.9413L72.7217 10.6681V10.669ZM102.014 10.4039C99.0155 10.4039 96.8395 12.4809 96.8395 15.3425C96.8395 18.3025 99.0639 20.381 102.014 20.381C104.963 20.381 107.186 18.2831 107.186 15.3417C107.186 12.4809 105.01 10.4039 102.014 10.4039ZM102.014 18.1333C100.295 18.1333 99.5128 16.6863 99.5128 15.3417C99.5128 14.0156 100.295 12.5888 102.014 12.5888C103.731 12.5888 104.514 14.0156 104.514 15.3417C104.514 16.6863 103.731 18.1333 102.014 18.1333Z" fill="black"/>
<path d="M11.097 21.9168C17.2257 21.9168 22.194 17.0106 22.194 10.9584C22.194 4.90625 17.2257 0 11.097 0C4.9683 0 0 4.90625 0 10.9584C0 17.0106 4.9683 21.9168 11.097 21.9168Z" fill="#2CA01C"/>
<path d="M3.08105 10.9605C3.08105 13.3138 5.0129 15.2224 7.39687 15.2224H8.01342V13.6385H7.39687C5.90105 13.6385 4.68407 12.4372 4.68407 10.9605C4.68407 9.48293 5.90105 8.28171 7.39687 8.28171H8.8782V16.5613C8.8782 17.4355 9.59549 18.1436 10.4812 18.1436V6.69862H7.39687C5.0129 6.69862 3.08105 8.60639 3.08105 10.9605ZM14.797 6.69862H14.1805V8.28252H14.797C16.2929 8.28252 17.5098 9.48374 17.5098 10.9605C17.5098 12.438 16.2929 13.6393 14.797 13.6393H13.3157V5.35963C13.3157 4.48551 12.5984 3.77734 11.7119 3.77734V15.2224H14.797C17.1802 15.2224 19.1129 13.3146 19.1129 10.9605C19.1129 8.608 17.1802 6.69862 14.797 6.69862Z" fill="white"/>
<path d="M36.021 2.49464C36.4264 2.49464 36.7544 2.17077 36.7544 1.77036C36.7538 1.67472 36.7343 1.58014 36.6971 1.49202C36.6599 1.4039 36.6057 1.32396 36.5376 1.25678C36.4695 1.1896 36.3888 1.13649 36.3002 1.10048C36.2116 1.06446 36.1167 1.04625 36.021 1.04689C35.9253 1.04625 35.8305 1.06446 35.7418 1.10048C35.6532 1.13649 35.5725 1.1896 35.5044 1.25678C35.4363 1.32396 35.3821 1.4039 35.3449 1.49202C35.3077 1.58014 35.2882 1.67472 35.2876 1.77036C35.2876 2.17077 35.6164 2.49544 36.021 2.49544V2.49464ZM31.6447 2.98286C30.9275 2.98286 30.3512 3.41227 30.1392 3.89163H30.1183V3.12304H28.9658V7.91584H30.1795V5.27895C30.1795 4.64088 30.5438 3.98186 31.3119 3.98186C32.0904 3.98186 32.2226 4.69083 32.2226 5.25962V7.91584H33.4355V4.91964C33.4355 3.94158 32.9101 2.98286 31.6455 2.98286H31.6447ZM26.5093 7.91584H27.7222V3.12224H26.5093V7.91584ZM48.576 2.49464C48.9814 2.49464 49.3094 2.17077 49.3094 1.77036C49.3088 1.67472 49.2893 1.58014 49.2521 1.49202C49.2149 1.4039 49.1607 1.32396 49.0926 1.25678C49.0245 1.1896 48.9438 1.13649 48.8552 1.10048C48.7665 1.06446 48.6717 1.04625 48.576 1.04689C48.4803 1.04625 48.3854 1.06446 48.2968 1.10048C48.2082 1.13649 48.1275 1.1896 48.0594 1.25678C47.9913 1.32396 47.9371 1.4039 47.8999 1.49202C47.8627 1.58014 47.8432 1.67472 47.8426 1.77036C47.8426 2.17077 48.1714 2.49544 48.576 2.49544V2.49464ZM46.6095 3.11982V4.18166H47.9699V7.91584H49.1829V4.18166H50.5433V3.11982H46.6087H46.6095ZM44.5455 7.91584H45.7592V3.12224H44.5455V7.91584ZM34.0537 4.18166H35.4141V7.91584H36.6279V4.18166H37.9883V3.11982H34.0537V4.18166ZM42.0889 5.75912C42.0889 6.398 41.7255 7.05621 40.9574 7.05621C40.1781 7.05621 40.0467 6.34724 40.0467 5.77845V3.12304H38.8329V6.11844C38.8329 7.0973 39.3592 8.05521 40.6229 8.05521C41.341 8.05521 41.9181 7.6258 42.13 7.14644H42.1502V7.91584H43.3027V3.12224H42.0898V5.75912H42.0889Z" fill="black"/>
</svg>
