<svg width="124" height="34" viewBox="0 0 124 34" fill="none" xmlns="http://www.w3.org/2000/svg">
<path d="M2.97701 26.4822L3.16167 26.5419C5.37518 27.2619 7.7392 26.1076 8.41652 23.9765L10.921 15.6877C11.5975 13.5566 10.3406 11.2237 8.1279 10.5052L7.94325 10.4448C5.72974 9.72473 3.36572 10.879 2.6884 13.0101L0.183165 21.2981C-0.49338 23.4292 0.763503 25.7621 2.97701 26.4822Z" fill="#1F65A6"/>
<path d="M19.2306 27.7485C19.7504 26.5142 20.1298 25.0929 20.5263 23.8319C21.4014 21.0482 22.1687 18.2175 23.009 15.4245C23.3628 14.2529 23.7145 13.0806 24.0641 11.9075C24.84 9.47326 23.6584 6.89459 21.4449 6.17532L21.2587 6.11486C19.0514 5.39638 16.6167 6.78937 15.837 9.21021L11.1159 25.1416C10.465 27.191 8.93035 28.6822 7.14588 29.2609C7.00673 29.3097 6.86474 29.3498 6.72072 29.381C5.79174 29.6059 4.81966 29.5693 3.9098 29.275L3.72437 29.2146C3.57773 29.1667 3.4373 29.1086 3.29688 29.0489C4.27445 30.4709 6.24124 31.9888 8.5432 32.7536C11.1035 33.6032 14.0463 33.2247 16.2521 31.6605C17.6897 30.6421 18.5719 29.3135 19.2306 27.7485Z" fill="#328FF8"/>
<path d="M71.8231 10.7028C69.8292 10.3416 68.9028 10.8959 68.9028 10.8959C68.2558 11.2493 68.127 11.9693 68.127 11.9693L65.1896 22.5855L65.112 22.3672L64.8963 21.765L64.5697 20.8557L64.1631 19.7163L63.6976 18.4246L63.2073 17.0576L62.7169 15.6921L62.2514 14.4051L61.8503 13.2728L61.5252 12.3769L61.3142 11.7895C61.2056 11.4848 61.0427 11.181 60.7889 10.9697C60.4933 10.7232 60.086 10.6274 59.7152 10.5724C59.5732 10.5506 59.4297 10.5408 59.2861 10.5434C58.4055 10.5598 57.9113 10.8111 57.6336 11.0145C57.4469 11.1599 57.311 11.3618 57.2456 11.5908L53.8629 22.3633L50.7277 11.9693C50.5585 11.4095 50.2257 10.9642 49.6655 10.775C49.1998 10.6298 48.7134 10.5642 48.2263 10.581C47.8254 10.5886 47.4258 10.6293 47.0315 10.7028C47.0315 10.7028 45.3774 10.9344 45.9329 12.6022C45.9562 12.6807 45.981 12.7545 46.0051 12.8307L46.1773 13.3702C46.2637 13.6387 46.3495 13.9075 46.4349 14.1766L46.7646 15.2052L47.1525 16.4129C47.2963 16.8594 47.4396 17.3065 47.5824 17.7541C47.7375 18.2315 47.8906 18.7086 48.0417 19.1855C48.1968 19.6776 48.3546 20.1702 48.5149 20.6633C48.6753 21.1564 48.8328 21.6506 48.9874 22.1458L49.4483 23.5828C49.5916 24.0319 49.7356 24.4816 49.8804 24.9318L50.2754 26.1504C50.3871 26.4986 50.4985 26.8464 50.6098 27.194C50.6982 27.4688 50.7864 27.7437 50.8743 28.0185C50.9899 28.3797 51.0675 28.7645 51.3701 29.0197C51.796 29.3785 52.4206 29.4986 52.9536 29.5583C53.1964 29.585 53.4401 29.5984 53.6845 29.6015C54.4875 29.6125 55.5162 29.5772 56.1757 29.0346C56.5163 28.755 56.6102 28.2949 56.7297 27.8897L56.9384 27.183L57.5141 25.238L58.1867 22.9664L58.8183 20.8321L59.2714 19.3009L59.4141 18.8204C59.4917 19.0355 59.5693 19.2515 59.6415 19.4666L60.2164 21.0991C60.4698 21.8215 60.724 22.5434 60.979 23.2648L61.7689 25.5074C61.9535 26.0303 62.1281 26.5572 62.312 27.0778C62.4182 27.3832 62.5346 27.6856 62.644 27.9879C62.748 28.2753 62.8256 28.5532 63.0048 28.8053C63.565 29.5905 64.6705 29.5952 65.5333 29.5866C66.3091 29.5787 67.5272 29.4869 67.9563 28.7016C68.0998 28.4386 68.1611 28.1159 68.2519 27.83L68.4071 27.3432C68.5307 26.9501 68.6535 26.5575 68.7756 26.1654C69.0828 25.1734 69.389 24.1811 69.6942 23.1886C70.0402 22.0631 70.3855 20.9376 70.73 19.8121C71.0646 18.7207 71.3982 17.6289 71.7308 16.537C72.0029 15.647 72.2744 14.7571 72.5455 13.8672C72.6735 13.4471 72.7914 13.0223 72.9334 12.6061C73.4773 10.9344 71.8231 10.7028 71.8231 10.7028Z" fill="#111111"/>
<path d="M80.3628 14.4841C79.7137 14.5371 79.0841 14.7347 78.5194 15.0628C78.2328 15.2291 77.9624 15.4223 77.7117 15.64C77.4611 15.8551 77.2462 16.0844 76.9095 16.1606C76.2888 16.3027 75.6735 15.925 75.1878 15.5677C74.9442 15.3895 74.3437 14.8775 74.1187 14.3899C74.0471 14.238 74.018 14.0692 74.0344 13.9017C74.0508 13.7342 74.1122 13.5745 74.2118 13.4398C75.5827 11.7633 77.8226 10.8289 79.9019 10.6664C82.013 10.5007 84.5322 10.609 86.3539 11.8104C87.7621 12.7401 88.4309 14.6129 88.479 16.8681L88.6023 28.6228C88.6015 28.7087 88.5824 28.7933 88.5465 28.871C88.3044 29.4285 87.3113 29.6358 86.5347 29.6444C85.7581 29.6531 84.7603 29.4685 84.5074 28.9181C84.4691 28.8407 84.4479 28.7557 84.4453 28.6692V28.2821C84.127 28.5992 83.7511 28.8509 83.3382 29.0233C82.6399 29.3374 81.5087 29.5094 80.2875 29.5227C78.2649 29.5227 75.9753 28.9911 74.8565 27.9311C73.6819 26.8961 73.0721 25.5353 73.055 23.8934C73.0379 22.3277 73.6951 21.0023 74.7022 19.9579C75.7061 18.8931 77.1965 18.3294 79.1245 18.2846L84.3057 18.2257C84.3189 17.6046 84.4221 16.9105 84.2816 16.3035C83.8945 14.6035 81.8066 14.3742 80.3628 14.4841ZM80.5513 21.6438C79.206 21.6383 77.1934 21.7357 77.1601 23.5142C77.1267 25.3202 79.507 25.6154 80.8066 25.6005H80.978C82.4522 25.584 83.2606 25.2644 83.678 24.9998C84.1435 24.6732 84.4003 23.8715 84.3879 22.7502L84.3809 21.6595L80.5513 21.6438Z" fill="#111111"/>
<path d="M106.003 10.6796C105.912 10.6584 105.82 10.6419 105.728 10.6301C105.143 10.5516 104.564 10.5163 103.975 10.6176C103.215 10.7479 102.711 11.2316 102.477 11.9689L102.202 12.6552L98.1891 22.7406L97.2868 20.3763L95.538 15.7938C95.2222 14.9654 94.8909 14.1448 94.5806 13.3125C94.278 12.5021 94.0096 11.6148 93.3392 11.0298C92.5634 10.349 91.4539 10.4998 90.5198 10.6788C90.2142 10.7316 89.9304 10.8732 89.7028 11.0864C89.2652 11.5182 89.3102 12.1598 89.4918 12.7016C89.7152 13.3666 90.0124 14.0152 90.2676 14.6646L91.3895 17.522L92.672 20.7886L93.9366 24.008C94.278 24.8754 94.6176 25.7439 94.9553 26.6134C95.1245 27.0484 95.2934 27.4831 95.462 27.9176C95.6171 28.3142 95.7413 28.6966 96.0578 28.9949C96.6273 29.5328 97.5319 29.587 98.2721 29.5933C99.0123 29.5996 99.9402 29.4755 100.441 28.8505C100.743 28.4736 100.896 27.9969 101.054 27.5462C101.23 27.0452 101.431 26.5537 101.628 26.0613L102.623 23.5777L103.768 20.7171L104.922 17.8369L105.941 15.292L106.682 13.4397C106.948 12.7777 107.368 11.9666 106.934 11.2787C106.721 10.9466 106.37 10.7699 106.003 10.6796Z" fill="#111111"/>
<path d="M115.602 29.6612C115.602 29.6612 119.607 29.8403 122.313 27.6738C122.51 27.5097 123.115 27.0095 123.459 26.569C123.557 26.4304 123.615 26.2674 123.628 26.0976C123.641 25.9278 123.608 25.7576 123.532 25.6056C123.299 25.1156 122.679 24.6107 122.43 24.4348C122.43 24.4348 121.821 23.9511 121.066 23.8113C120.692 23.7422 120.51 23.8176 120.008 24.2895C119.043 25.1085 117.966 25.5396 116.794 25.5396C115.621 25.5396 113.644 25.1164 112.926 24.4018C112.246 23.7815 111.749 22.9586 111.685 21.7878C111.685 21.7878 120.382 21.7878 122.585 21.7878C122.585 21.7878 123.989 21.7462 123.994 20.1726C123.994 19.4738 123.977 18.5676 123.969 18.4553C123.945 15.9976 123.176 14.0345 121.685 12.6211C120.221 11.2376 117.65 10.3502 114.857 10.501C113.978 10.5481 113.073 10.6651 112.174 10.9886C111.231 11.3291 110.374 11.8776 109.666 12.5944C108.936 13.3207 108.332 14.3219 107.872 15.5618C107.414 16.7765 107.182 18.3101 107.182 20.1263C107.182 22.0171 107.475 23.5813 107.977 24.7591C108.463 26.0084 109.111 26.9986 109.911 27.7092C110.307 28.0419 110.741 28.3256 111.204 28.5541C112.558 29.2785 114.067 29.6584 115.599 29.6612H115.602ZM112.961 15.2555C113.647 14.6972 114.482 14.5614 115.735 14.5159C116.722 14.4805 118.031 14.8912 118.65 15.5076C119.222 16.0957 119.577 17.038 119.665 18.1648L111.662 18.1538C111.878 16.4781 112.321 15.7809 112.969 15.2555H112.961Z" fill="#111111"/>
<path d="M31.457 27.7364C31.2669 28.2727 28.3963 35.8501 19.2412 32.6699C19.8469 32.4348 20.3894 32.0588 20.8251 31.5725C21.2608 31.0861 21.5775 30.5028 21.7495 29.8698C22.0482 28.8114 24.6854 20.0019 24.6854 20.0019H24.69L29.7517 2.77963C30.4282 0.648536 32.7931 -0.505742 35.0066 0.214308L35.1912 0.273985C37.4047 0.99482 38.6616 3.32693 37.9843 5.45646L32.5456 23.976C32.5456 23.976 31.644 27.2001 31.457 27.7364Z" fill="#76C3FC"/>
</svg>
