<svg width="64" height="65" viewBox="0 0 64 65" fill="none" xmlns="http://www.w3.org/2000/svg">
<path d="M32.0007 64.1097C49.6733 64.1097 64 49.7574 64 32.0549C64 14.3495 49.6747 0 32.0007 0C14.3267 0 0 14.3495 0 32.0549C0 49.7574 14.3267 64.1097 32.0007 64.1097Z" fill="#13B5EA"/>
<path d="M15.3179 31.9727L20.7784 26.4866C20.942 26.2985 21.0277 26.0552 21.0183 25.8061C21.0088 25.557 20.9049 25.3209 20.7276 25.1458C20.5502 24.9706 20.3128 24.8696 20.0637 24.8632C19.8145 24.8568 19.5723 24.9456 19.3862 25.1115L13.9286 30.5734L8.44952 25.1015C8.26453 24.919 8.0146 24.8174 7.75471 24.8191C7.49482 24.8209 7.24627 24.9258 7.06373 25.1108C6.88119 25.2958 6.77962 25.5457 6.78136 25.8056C6.7831 26.0655 6.888 26.314 7.073 26.4966L12.5335 31.9642L7.07585 37.4361C6.97951 37.5252 6.90205 37.6328 6.84806 37.7524C6.79406 37.872 6.76463 38.0012 6.76151 38.1324C6.75838 38.2636 6.78163 38.3941 6.82987 38.5161C6.87811 38.6382 6.95037 38.7493 7.04235 38.8429C7.13433 38.9365 7.24416 39.0107 7.36535 39.0611C7.48653 39.1114 7.61659 39.137 7.74782 39.1361C7.87905 39.1353 8.00878 39.1081 8.12931 39.0562C8.24985 39.0043 8.35873 38.9288 8.44952 38.834L13.9214 33.3592L19.372 38.8126C19.5063 38.9555 19.6805 39.0545 19.8719 39.0969C20.0633 39.1393 20.2631 39.1231 20.4452 39.0504C20.6272 38.9776 20.7832 38.8518 20.8927 38.6891C21.0022 38.5265 21.0602 38.3347 21.0591 38.1386C21.0598 38.0103 21.0349 37.8831 20.986 37.7645C20.9371 37.6458 20.8651 37.5381 20.7742 37.4475L15.3165 31.967L15.3179 31.9727ZM47.7803 31.9713C47.7803 32.9545 48.5783 33.7525 49.5615 33.7525C50.034 33.7523 50.4869 33.5645 50.8209 33.2303C51.1548 32.8961 51.3422 32.443 51.342 31.9706C51.3419 31.4982 51.154 31.0452 50.8198 30.7113C50.4857 30.3774 50.0325 30.1899 49.5601 30.1901C48.5812 30.1901 47.7846 30.9881 47.7846 31.9713H47.7803ZM44.4103 31.9713C44.4103 29.1285 46.7187 26.8129 49.5601 26.8129C52.3958 26.8129 54.7086 29.1285 54.7086 31.9713C54.7086 34.8141 52.3972 37.1297 49.5601 37.1297C48.1935 37.1275 46.8836 36.583 45.9181 35.6158C44.9525 34.6487 44.4102 33.3379 44.4103 31.9713ZM42.3839 31.9713C42.3839 35.9327 45.6044 39.1589 49.5601 39.1589C53.5159 39.1589 56.7363 35.9356 56.7363 31.9727C56.7363 28.0113 53.5159 24.7852 49.5601 24.7852C47.6561 24.7889 45.8312 25.5478 44.4859 26.8952C43.1406 28.2426 42.3847 30.0687 42.3839 31.9727V31.9713ZM41.8752 24.9077H41.576C40.6711 24.9077 39.799 25.1927 39.0709 25.7556C39.0208 25.5379 38.8987 25.3435 38.7244 25.2038C38.5501 25.0642 38.3338 24.9875 38.1104 24.9861C37.9827 24.9861 37.8562 25.0113 37.7383 25.0604C37.6204 25.1094 37.5133 25.1813 37.4232 25.2719C37.3332 25.3625 37.2619 25.47 37.2136 25.5882C37.1652 25.7064 37.1407 25.833 37.1414 25.9608L37.1443 38.0659C37.1582 38.3161 37.2674 38.5513 37.4495 38.7234C37.6316 38.8954 37.8727 38.9911 38.1232 38.9907C38.3737 38.9903 38.6145 38.8939 38.7961 38.7214C38.9777 38.5488 39.0862 38.3132 39.0994 38.0631V30.619C39.0994 28.1396 39.3274 27.1364 41.4477 26.8713C41.6472 26.8471 41.8581 26.8514 41.861 26.8514C42.4395 26.83 42.8527 26.4296 42.8527 25.8895C42.852 25.6292 42.7481 25.3799 42.5638 25.1961C42.3795 25.0123 42.1298 24.9091 41.8695 24.9091L41.8752 24.9077ZM23.0855 30.79C23.0855 30.7615 23.0883 30.733 23.0897 30.7074C23.3745 29.5828 24.0282 28.5862 24.9464 27.8772C25.8647 27.1682 26.9942 26.7878 28.1542 26.7968C29.3143 26.8059 30.4377 27.2038 31.3448 27.927C32.2518 28.6502 32.89 29.6568 33.1572 30.7857H23.084L23.0855 30.79ZM35.1593 30.6048C34.7375 28.6055 33.6445 26.9625 31.9816 25.908C30.7765 25.1515 29.3746 24.7682 27.9522 24.8063C26.5298 24.8443 25.1505 25.302 23.9875 26.1218C22.8107 26.9684 21.9141 28.1478 21.413 29.5081C20.912 30.8685 20.8294 32.3477 21.176 33.7554C21.5383 35.1564 22.3123 36.4166 23.3979 37.3734C24.4835 38.3303 25.8309 38.9398 27.2663 39.1233C28.1327 39.2287 28.9763 39.1803 29.8456 38.9523C30.6068 38.7673 31.332 38.4572 31.9916 38.0346C32.6855 37.5886 33.2655 36.9986 33.8298 36.2933C33.8383 36.279 33.8497 36.269 33.8611 36.2548C34.2516 35.7703 34.1789 35.0778 33.7514 34.75C33.3895 34.4721 32.7824 34.3596 32.3065 34.9723C32.2039 35.1205 32.0885 35.2716 31.9645 35.4212C31.584 35.8415 31.1124 36.2477 30.5481 36.564C29.827 36.9488 29.0091 37.1668 28.1399 37.1725C25.2928 37.1397 23.7709 35.149 23.228 33.7297C23.1331 33.4606 23.0602 33.1842 23.0099 32.9032L22.9957 32.7536H33.2128C34.6121 32.7223 35.3645 31.7319 35.1564 30.6019L35.1593 30.6048Z" fill="white"/>
</svg>
