<svg width="114" height="59" viewBox="0 0 114 59" fill="none" xmlns="http://www.w3.org/2000/svg">
<path d="M33.8566 51.5856C33.7618 50.7618 33.6247 50.0653 32.8449 50.0653C31.8889 50.0653 31.657 51.047 31.657 52.7375C31.657 53.3623 31.657 55.0693 32.8449 55.0693C33.7067 55.0693 33.8022 54.1445 33.8566 53.549L35.1958 53.6782C35.0875 54.543 34.8549 56.2652 32.7366 56.2652C30.5498 56.2652 30.1948 54.0901 30.1948 52.6089C30.1948 50.9772 30.6324 48.9141 32.8321 48.9141C34.8414 48.9141 35.1009 50.6914 35.1958 51.4454L33.8566 51.5856Z" fill="#010101"/>
<path d="M37.5734 46.6094V56.0904H36.1792V46.6094H37.5734Z" fill="#010101"/>
<path d="M43.7259 52.5065C43.7259 54.1412 43.3575 56.2613 41.0611 56.2613C38.9704 56.2613 38.4238 54.3989 38.4238 52.5787C38.4238 50.8864 38.8749 48.9102 41.0886 48.9102C43.194 48.9102 43.7259 50.8001 43.7259 52.5065ZM39.9007 52.5922C39.9007 54.4258 40.2967 55.1633 41.0758 55.1633C41.8543 55.1633 42.2503 54.4534 42.2503 52.5781C42.2503 50.7738 41.8678 50.0039 41.0758 50.0039C40.2281 50.0045 39.9007 50.8864 39.9007 52.5922Z" fill="#010101"/>
<path d="M45.9712 49.082V53.5309C45.9712 54.5145 45.9712 55.0953 46.751 55.0953C47.8716 55.0953 47.8716 53.7464 47.8716 52.4525V49.0826H49.2658V56.0905H47.9806V55.0378C47.7364 55.5525 47.393 56.2631 46.2718 56.2631C44.5776 56.2631 44.5776 54.7262 44.5776 53.5609V49.0826H45.9712V49.082Z" fill="#010101"/>
<path d="M55.4036 46.6094V56.0904H54.1201V55.0255C53.9414 55.4374 53.5993 56.2196 52.4242 56.2196C50.525 56.2196 50.1694 53.974 50.1694 52.622C50.1694 50.2204 51.1401 48.9553 52.4786 48.9553C53.5301 48.9553 53.8588 49.5802 54.0228 49.8923V46.6094H55.4036ZM54.0234 51.969C54.0234 51.5149 54.0234 51.0607 53.737 50.6048C53.587 50.3765 53.2859 50.0215 52.8085 50.0215C51.7828 50.0215 51.6463 51.3716 51.6463 52.4947C51.6463 53.69 51.7687 55.1246 52.8214 55.1246C53.2168 55.1246 53.5307 54.8994 53.737 54.5714C53.9145 54.2874 54.0234 53.9446 54.0234 53.1784V51.969Z" fill="#010101"/>
<path d="M58.6185 50.8864C58.9337 49.0803 60.5335 48.9102 61.1621 48.9102C62.1316 48.9102 62.705 49.2798 63.0202 49.6636C63.4432 50.1477 63.4432 51.0143 63.4432 51.7665V54.1412C63.4432 54.7374 63.4432 55.6071 63.5533 56.0887H62.254C62.1879 55.7485 62.1597 55.5795 62.1597 54.924C61.9002 55.4216 61.462 56.262 60.2593 56.262C59.1675 56.262 58.373 55.5361 58.373 54.2428C58.373 53.1204 58.9612 52.337 59.7673 52.053C60.3414 51.8541 61.0807 51.7396 62.0495 51.7672V51.4832C62.0495 50.9739 62.0495 49.9757 61.0519 49.9757C60.1651 49.9757 60.0133 50.775 59.9607 51.0737L58.6185 50.8864ZM62.0489 52.6638C61.8323 52.6491 61.735 52.6491 61.6389 52.6491C60.0262 52.6491 59.8223 53.4876 59.8223 54.1412C59.8223 54.981 60.2587 55.1939 60.7239 55.1939C61.3127 55.1939 62.0489 54.5691 62.0489 53.0182V52.6638Z" fill="#010101"/>
<path d="M68.0062 51.5856C67.9101 50.7618 67.773 50.0653 66.9951 50.0653C66.0379 50.0653 65.8065 51.047 65.8065 52.7375C65.8065 53.3623 65.8065 55.0693 66.9951 55.0693C67.8556 55.0693 67.9517 54.1445 68.0062 53.549L69.3453 53.6782C69.2358 54.543 69.0044 56.2652 66.8855 56.2652C64.6981 56.2652 64.3438 54.0901 64.3438 52.6089C64.3438 50.9772 64.7801 48.9141 66.981 48.9141C68.9909 48.9141 69.2504 50.6914 69.3453 51.4454L68.0062 51.5856Z" fill="#010101"/>
<path d="M73.7828 51.5856C73.6849 50.7618 73.5496 50.0653 72.7699 50.0653C71.8139 50.0653 71.5819 51.047 71.5819 52.7375C71.5819 53.3623 71.5819 55.0693 72.7699 55.0693C73.6304 55.0693 73.7265 54.1445 73.7828 53.549L75.1195 53.6782C75.0136 54.543 74.7786 56.2652 72.6609 56.2652C70.4729 56.2652 70.1191 54.0901 70.1191 52.6089C70.1191 50.9772 70.5561 48.9141 72.7564 48.9141C74.7663 48.9141 75.0265 50.6914 75.1195 51.4454L73.7828 51.5856Z" fill="#010101"/>
<path d="M81.2436 52.5065C81.2436 54.1412 80.8752 56.2613 78.5776 56.2613C76.4881 56.2613 75.9409 54.3989 75.9409 52.5787C75.9409 50.8864 76.3914 48.9102 78.6039 48.9102C80.7105 48.9102 81.2436 50.8001 81.2436 52.5065ZM77.4172 52.5922C77.4172 54.4258 77.8125 55.1633 78.591 55.1633C79.3714 55.1633 79.7674 54.4534 79.7674 52.5781C79.7674 50.7738 79.3855 50.0039 78.591 50.0039C77.7446 50.0045 77.4172 50.8864 77.4172 52.5922Z" fill="#010101"/>
<path d="M83.5218 49.082V53.5309C83.5218 54.5145 83.5218 55.0953 84.2997 55.0953C85.4203 55.0953 85.4203 53.7464 85.4203 52.4525V49.0826H86.8152V56.0905H85.5287V55.0378C85.2826 55.5525 84.9411 56.2631 83.8192 56.2631C82.127 56.2631 82.127 54.7262 82.127 53.5609V49.0826H83.5218V49.082Z" fill="#010101"/>
<path d="M87.8857 49.0803H89.1729V50.1618C89.3357 49.7793 89.6772 48.9102 90.8382 48.9102C91.2752 48.9102 91.9723 49.0234 92.342 49.7793C92.5611 50.2187 92.574 50.8717 92.574 51.5688V56.0887H91.1822V51.6558C91.1822 50.7457 91.1822 50.0773 90.3743 50.0773C89.2806 50.0773 89.2806 51.4415 89.2806 52.1674V56.0887H87.887V49.0803H87.8857Z" fill="#010101"/>
<path d="M96.712 50.252H95.4249V53.3489C95.4249 54.573 95.4249 55.04 96.3546 55.04C96.6012 55.04 96.7665 55.0136 96.9286 54.9977V56.138C96.6557 56.193 96.3417 56.2653 95.8912 56.2653C94.0576 56.2653 94.0576 54.9849 94.0576 53.4487V50.252H93.1836V49.0842H94.0992L94.1684 47.2493L95.4249 47.1367V49.0842H96.712V50.252Z" fill="#010101"/>
<path d="M97.9282 48.13V46.5938H99.3904V48.13H97.9282ZM99.3641 49.0823V56.0901H97.9686V49.0823H99.3641Z" fill="#010101"/>
<path d="M100.544 49.0803H101.83V50.1618C101.993 49.7793 102.336 48.9102 103.497 48.9102C103.933 48.9102 104.632 49.0234 105.001 49.7793C105.218 50.2187 105.233 50.8717 105.233 51.5688V56.0887H103.839V51.6558C103.839 50.7457 103.839 50.0773 103.032 50.0773C101.941 50.0773 101.941 51.4415 101.941 52.1674V56.0887H100.545V49.0803H100.544Z" fill="#010101"/>
<path d="M111.788 49.0245C111.666 48.9958 111.584 48.9823 111.475 48.9823C111.079 48.9823 110.845 49.1677 110.736 49.7504C111.079 50.1898 111.256 50.6893 111.256 51.2579C111.256 52.3516 110.519 53.5034 108.92 53.5034C108.536 53.5034 108.291 53.4465 108.058 53.3767C107.854 53.4771 107.553 53.6044 107.553 54.0016C107.553 54.5274 107.895 54.5414 109.261 54.6137C110.572 54.6993 111.885 54.7703 111.885 56.5049C111.885 58.3661 110.066 58.6794 108.823 58.6794C107.867 58.6794 106.104 58.4952 106.104 56.9168C106.104 55.9369 106.787 55.6792 107.088 55.5654C106.829 55.3952 106.35 55.1094 106.35 54.4013C106.35 53.5316 107.047 53.1637 107.349 53.0071C107.02 52.7653 106.473 52.3675 106.473 51.215C106.473 49.8232 107.457 48.9125 108.837 48.9125C109.479 48.9125 109.834 49.0827 110.124 49.2118C110.217 48.6708 110.341 47.918 111.366 47.918C111.543 47.918 111.666 47.9455 111.803 47.9602L111.788 49.0245ZM107.361 56.6885C107.361 57.4431 107.962 57.6689 108.986 57.6689C109.575 57.6689 110.586 57.5716 110.586 56.7025C110.586 56.0642 110.094 55.9204 109.779 55.894C109.52 55.864 108.235 55.8065 107.949 55.7943C107.758 55.8934 107.361 56.1187 107.361 56.6885ZM107.908 51.2438C107.908 51.4568 107.908 52.5939 108.864 52.5939C109.821 52.5939 109.821 51.4121 109.821 51.2438C109.821 50.9157 109.765 49.8655 108.903 49.8655C108.044 49.8655 107.908 50.647 107.908 51.2438Z" fill="#010101"/>
<path d="M0 21.5234H9.81647V26.0611H4.82347V29.9751H9.25033V34.4025H4.82347V42.7985H0V21.5234Z" fill="#0D83DD"/>
<path d="M10.2169 25.0391H14.9094C16.8086 25.0391 18.305 25.5293 19.4042 26.5037C20.5028 27.478 21.0524 28.8037 21.0524 30.4795C21.0524 31.3388 20.8456 32.1711 20.4306 32.9754C20.012 33.7777 19.4042 34.38 18.6067 34.7876L21.8267 42.7918H17.5705L14.3102 34.7062H14.2429V42.7918H10.2163V25.0391H10.2169ZM14.2429 28.472V32.6846C16.0252 32.651 16.9169 32.0261 16.9169 30.8112C16.9169 29.9874 16.71 29.3962 16.2993 29.0406C15.8881 28.6862 15.2014 28.4983 14.2429 28.472Z" fill="#0D83DD"/>
<path d="M22.1465 25.0391H30.3007V28.8153H26.1774V32.0867H29.7541V35.7711H26.1774V39.0021H30.3276V42.7912H22.1465V25.0391Z" fill="#0D83DD"/>
<path d="M38.9849 25.0391H43.0139V31.6209H46.5913V25.0391H50.6209V42.7918H46.5913V35.4113H43.0139V42.7918H38.9849V25.0391Z" fill="#0D83DD"/>
<path d="M51.478 21.5234H56.4239C59.2999 21.5234 61.3753 22.0841 62.6355 23.2029C63.8981 24.3278 64.5297 25.7587 64.5297 27.4908C64.5297 29.3642 63.6153 30.8692 61.7841 32.007C63.8412 32.8235 64.8694 34.3787 64.8694 36.6714C64.8694 38.5099 64.2225 39.9874 62.9329 41.1123C61.6409 42.2385 59.9364 42.7991 57.8236 42.7991H51.478V21.5234ZM56.3015 25.6094V30.2046C58.5728 30.1507 59.7057 29.4004 59.7057 27.9535C59.7057 27.0905 59.4345 26.4901 58.8916 26.1511C58.3506 25.8126 57.4895 25.6296 56.3015 25.6094ZM56.3015 34.0641V38.7143C57.5501 38.6929 58.484 38.5062 59.1108 38.1439C59.7356 37.784 60.0466 37.1898 60.0466 36.3629C60.0466 34.8291 58.9351 34.0641 56.7091 34.0641H56.3015Z" fill="#060707"/>
<path d="M71.7269 43.2453C69.5835 43.2453 67.9519 42.4215 66.8233 40.777C65.6953 39.1312 65.1328 36.7571 65.1328 33.6547C65.1328 30.7928 65.6983 28.5601 66.8275 26.9602C67.9568 25.3573 69.5352 24.5586 71.5574 24.5586C73.7123 24.5586 75.3581 25.361 76.4965 26.9664C77.6324 28.5705 78.2078 30.862 78.2078 33.8432C78.2078 36.8195 77.6453 39.1306 76.5228 40.7764C75.4028 42.4215 73.8048 43.2453 71.7269 43.2453ZM71.5812 28.5876C70.1283 28.5876 69.4024 30.2958 69.4024 33.7061C69.4024 35.907 69.5854 37.3722 69.9538 38.1097C70.3211 38.8448 70.8554 39.212 71.5568 39.212C72.3089 39.212 72.8873 38.8448 73.2931 38.1097C73.694 37.3722 73.8972 35.9315 73.8972 33.7881C73.8978 30.3185 73.126 28.5876 71.5812 28.5876Z" fill="#060707"/>
<path d="M85.0311 43.2453C82.8865 43.2453 81.2493 42.4215 80.1226 40.777C78.9976 39.1312 78.4346 36.7571 78.4346 33.6547C78.4346 30.7928 78.9995 28.5601 80.1287 26.9602C81.261 25.3573 82.8351 24.5586 84.8585 24.5586C87.0129 24.5586 88.6593 25.361 89.7983 26.9664C90.9385 28.5705 91.5089 30.862 91.5089 33.8432C91.5089 36.8195 90.9483 39.1306 89.8246 40.7764C88.704 42.4215 87.1071 43.2453 85.0311 43.2453ZM84.8861 28.5876C83.4306 28.5876 82.7035 30.2958 82.7035 33.7061C82.7035 35.907 82.8865 37.3722 83.2531 38.1097C83.6234 38.8448 84.1583 39.212 84.8579 39.212C85.6101 39.212 86.1903 38.8448 86.5924 38.1097C86.9994 37.3722 87.1977 35.9315 87.1977 33.7881C87.1983 30.3185 86.4272 28.5876 84.8861 28.5876Z" fill="#060707"/>
<path d="M91.8315 25.0391H95.8624V33.3891H95.9273L99.7317 25.0391H103.961L99.8382 34.1082L103.788 42.7918H99.3627L95.9279 35.4113H95.863V42.7918H91.8322V25.0391H91.8315Z" fill="#060707"/>
<path d="M104.107 42.4729V38.3368C105.382 39.0792 106.453 39.4531 107.326 39.4531C107.832 39.4531 108.23 39.313 108.523 39.0333C108.811 38.756 108.959 38.3833 108.959 37.923C108.959 37.5693 108.842 37.2382 108.608 36.926C108.372 36.6163 107.968 36.2399 107.391 35.7974C106.001 34.7313 104.989 33.7416 104.365 32.8235C103.74 31.9067 103.429 30.8834 103.429 29.7572C103.429 28.2247 103.912 26.9731 104.88 26.0073C105.845 25.0415 107.096 24.5586 108.627 24.5586C109.763 24.5586 110.89 24.801 112.008 25.2912V29.2646C110.81 28.6121 109.837 28.281 109.094 28.281C108.598 28.281 108.206 28.4053 107.914 28.6482C107.626 28.8918 107.483 29.2266 107.483 29.6514C107.483 30.3974 108.152 31.2341 109.489 32.1638C110.29 32.7158 111.099 33.487 111.919 34.4865C112.741 35.4859 113.15 36.6396 113.15 37.9518C113.15 39.4843 112.612 40.7525 111.54 41.7605C110.468 42.7679 109.107 43.2692 107.459 43.2692C106.331 43.2692 105.216 43.0036 104.107 42.4729Z" fill="#060707"/>
<path d="M39.332 38.1835L35.2773 32.3814C31.2231 26.5792 39.9055 22.8232 39.9055 22.8232L39.2684 22.1836C39.2684 22.1836 25.1474 25.0944 31.0548 33.5528L35.0735 39.6095C36.5834 41.882 34.3243 43.1899 32.9295 43.1899C31.5334 43.1899 30.3804 43.1899 30.3804 43.1899V44.28H32.3621C35.7179 44.28 42.9436 43.5449 39.332 38.1835Z" fill="#0D83DD"/>
<path d="M86.7801 16.707C86.7801 16.707 84.9024 17.8118 81.4468 22.8623C80.9076 23.6524 80.541 23.5796 80.541 23.5796C80.541 23.5796 80.7014 24.7871 82.4775 24.4248C82.4775 24.4248 84.9899 18.4672 87.6137 17.2811L86.7801 16.707Z" fill="#6A8A22"/>
<path d="M84.3184 19.7743C84.3184 19.7743 85.4892 3.48372 98.6908 3.90419C109.632 4.25305 113.149 0 113.149 0C113.149 0 113.266 23.1491 84.3184 19.7743Z" fill="#86C61F"/>
<path d="M85.9102 18.1981C85.9102 18.1981 91.3683 9.94535 97.8222 9.3021C104.387 8.646 108.396 5.41016 108.396 5.41016C108.396 5.41016 104.402 10.2899 97.422 10.9913C91.4032 11.5923 85.9102 18.1981 85.9102 18.1981Z" fill="#6A8A22"/>
</svg>
