<svg width="113" height="42" viewBox="0 0 113 42" fill="none" xmlns="http://www.w3.org/2000/svg">
<path d="M42.3587 25.4005L44.8263 31.8795H40.045L42.3597 25.4005H42.3587ZM41.4328 23.2305L36.0347 37.4181H38.0393L39.4271 33.5638H45.4411L46.8289 37.4181H48.8335L43.4354 23.2305H41.4307H41.4328ZM70.5728 37.4305H72.4328V23.2408H70.5728V37.4285V37.4305ZM51.6111 29.0915C52.228 28.1657 53.4711 27.3948 54.6956 27.3948C57.1632 27.3948 58.397 29.0915 58.397 31.5591V37.5731H56.537V31.8671C56.537 29.8624 55.4572 29.0905 54.0694 29.0905C52.5267 29.0905 51.4479 30.6333 51.4479 32.021V37.4192H49.5879V27.5622H51.4479L51.6029 29.105L51.6111 29.0915ZM59.9398 34.5C59.9398 32.33 61.9445 31.1065 64.2591 31.1065C65.6469 31.1065 66.5738 31.4165 66.8807 31.7234V31.4134C66.8807 29.8707 65.6469 29.0988 64.4131 29.0988C63.3333 29.0988 62.4084 29.5617 62.0984 30.4865L60.4017 29.7157C60.7117 28.7898 61.9445 27.401 64.411 27.401C66.7257 27.401 68.7304 28.7888 68.7304 31.5653V37.4264H67.0336V36.0386H66.8786C66.4157 36.8095 65.3359 37.7354 63.6402 37.7354C61.6355 37.7354 59.9388 36.5016 59.9388 34.4969L59.9398 34.5ZM66.8786 33.2631C66.8786 33.2631 66.1078 32.6462 64.564 32.6462C62.704 32.6462 61.9424 33.726 61.9424 34.5062C61.9424 35.586 63.0222 36.049 63.9471 36.049C65.3348 36.049 66.8776 34.8152 66.8776 33.2724" fill="#757575"/>
<path fill-rule="evenodd" clip-rule="evenodd" d="M75.0554 41.7479L77.2254 36.6587L73.3711 27.7132H75.2311L78.1616 34.4991L81.0922 27.7132H82.9522L76.9382 41.7479H75.0782H75.0554ZM102.201 30.9496C101.738 29.7158 100.658 28.9449 99.5795 28.9449C98.0368 28.9449 96.649 30.3327 96.649 32.3384C96.649 34.3441 98.0368 35.7318 99.5795 35.7318C100.659 35.7318 101.75 34.961 102.201 33.8718L103.744 34.7977C102.973 36.4944 101.429 37.5743 99.5795 37.5743C96.958 37.5743 94.7983 35.2596 94.7983 32.3301C94.7983 29.2456 96.9683 27.0859 99.5795 27.0859C101.44 27.0859 102.973 28.1658 103.744 29.8625L102.201 30.9423V30.9496Z" fill="#757575"/>
<path d="M108.832 37.7388C111.3 37.7388 112.534 36.351 112.534 34.6543C112.534 30.9529 107.135 32.3396 107.135 30.182C107.135 29.4112 107.752 28.9482 108.832 28.9482C109.912 28.9482 111.002 29.4112 111.454 30.182L112.534 29.1022C111.917 28.3313 110.219 27.2422 108.679 27.2422C106.365 27.2422 105.132 28.63 105.132 30.3267C105.132 33.8741 110.684 32.6414 110.684 34.491C110.684 35.4169 110.067 36.0338 108.824 36.0338C107.581 36.0338 106.964 35.2629 106.356 34.491L104.986 35.5812C105.912 36.5071 107.301 37.7512 108.84 37.7512L108.832 37.7388ZM91.25 37.4309H93.11V27.5605H91.25V37.4309Z" fill="#757575"/>
<path fill-rule="evenodd" clip-rule="evenodd" d="M92.0207 22.7891C92.7915 22.7891 93.2545 23.406 93.2545 24.0229C93.2545 24.7937 92.6376 25.2567 92.0207 25.2567C91.4038 25.2567 90.7869 24.6398 90.7869 24.0229C90.7869 23.406 91.4038 22.7891 92.0207 22.7891ZM89.3991 35.899L89.7091 37.2867H87.8491C86.1523 37.2867 85.3815 36.0529 85.3815 34.2022V29.4024H83.5215V27.5424H85.3815V24.6305H87.2415V27.561H89.4115V29.421H87.2415V34.5102C87.2415 35.8979 88.3213 35.8979 89.4115 35.8979L89.3991 35.899Z" fill="#757575"/>
<path d="M45.4122 7.5547V9.86936H50.8103C50.6553 11.1032 50.1934 12.0394 49.5765 12.6459C48.8056 13.4168 47.5718 14.3427 45.4122 14.3427C42.1737 14.3427 39.5511 11.7211 39.5511 8.32866C39.5511 5.0902 42.1727 2.31467 45.4122 2.31467C47.2722 2.31467 48.4967 3.08553 49.4215 3.85743L50.9643 2.31467C49.5765 1.08087 47.8798 0 45.4122 0C40.9399 0 37.0835 3.7014 37.0835 8.16333C37.0835 12.6253 40.9378 16.3267 45.4122 16.3267C47.8798 16.3267 49.7315 15.5558 51.1182 14.012C52.661 12.4692 53.1229 10.4646 53.1229 8.76783C53.1229 8.3049 53.1229 7.688 52.9679 7.38006H45.4111L45.4122 7.5547ZM59.1369 5.6947C56.2064 5.6947 53.8927 7.8647 53.8927 10.9389C53.8927 14.013 56.2074 16.183 59.1369 16.183C59.8273 16.1892 60.512 16.0578 61.1511 15.7965C61.7901 15.5351 62.3707 15.1491 62.8589 14.6609C63.3471 14.1727 63.7332 13.5921 63.9945 12.953C64.2559 12.314 64.3873 11.6293 64.3811 10.9389C64.3811 7.85437 62.0664 5.6947 59.1369 5.6947ZM59.1369 14.168C57.5941 14.168 56.2064 12.7803 56.2064 10.9296C56.2064 9.07887 57.5941 7.70143 59.1369 7.70143C60.6797 7.70143 62.0685 8.94143 62.0685 10.9358C62.0685 12.9301 60.6807 14.1742 59.1379 14.1742L59.1369 14.168ZM84.4226 6.7735C83.8057 6.1566 82.8798 5.5397 81.492 5.5397C78.8705 5.5397 76.5568 7.85437 76.5568 10.7839C76.5568 13.7134 78.8715 16.028 81.492 16.028C82.7258 16.028 83.8067 15.4111 84.2686 14.7942H84.4236V15.5651C84.4236 17.5698 83.3438 18.6496 81.647 18.6496C80.2593 18.6496 79.3324 17.5698 79.0255 16.7896L77.0208 17.5605C77.6377 18.9482 79.1908 20.645 81.6481 20.645C84.4246 20.645 86.7372 19.1022 86.7372 15.0929V5.53143H84.5672V6.76523L84.4226 6.7735ZM81.801 14.1763C80.2582 14.1763 79.0244 12.7885 79.0244 10.9378C79.0244 9.08713 80.2582 7.69936 81.801 7.69936C83.3438 7.69936 84.5776 9.08713 84.5776 10.9378C84.5776 12.7885 83.3438 14.1763 81.801 14.1763ZM70.5408 5.70297C67.6102 5.70297 65.2966 7.87297 65.2966 10.9471C65.2966 14.0213 67.6113 16.1913 70.5408 16.1913C71.2312 16.1975 71.9159 16.0661 72.5549 15.8047C73.194 15.5434 73.7746 15.1574 74.2628 14.6691C74.751 14.1809 75.137 13.6004 75.3984 12.9613C75.6597 12.3223 75.7911 11.6375 75.7849 10.9471C75.9399 7.86263 73.4703 5.70297 70.5408 5.70297ZM70.5408 14.1763C68.998 14.1763 67.6102 12.7885 67.6102 10.9378C67.6102 9.08713 68.998 7.69936 70.5408 7.69936C72.0835 7.69936 73.4713 8.93317 73.4713 10.9378C73.4713 12.9425 72.0835 14.1763 70.5408 14.1763ZM88.4526 0.151901H90.7672V16.1913H88.4526V0.151901ZM97.0892 14.1866C95.8554 14.1866 95.0845 13.5697 94.4676 12.6439L101.562 9.71333L101.252 9.09643C100.79 7.86263 99.3925 5.70297 96.7802 5.70297C94.0036 5.70297 91.845 7.87297 91.845 10.9471C91.8388 11.6375 91.9702 12.3223 92.2315 12.9613C92.4929 13.6004 92.8789 14.1809 93.3671 14.6691C93.8554 15.1574 94.4359 15.5434 95.075 15.8047C95.714 16.0661 96.3988 16.1975 97.0892 16.1913C99.5568 16.1913 100.943 14.6485 101.561 13.8766L99.7014 12.6428C99.0845 13.5687 98.3137 14.1856 97.0799 14.1856L97.0892 14.1866ZM96.9342 7.70763C97.86 7.70763 98.6309 8.17057 98.9388 8.94143L94.1576 10.9461C94.1576 8.63143 95.7004 7.70763 96.9342 7.70763Z" fill="#757575"/>
<path d="M22.5762 5.19278V32.284C22.5762 35.3154 24.6696 37.0044 26.8862 37.0044C28.9385 37.0044 31.1961 35.5678 31.1961 32.284V5.39802C31.1961 2.61911 29.1438 0.882812 26.8862 0.882812C24.6285 0.882812 22.5762 2.79767 22.5762 5.19278Z" fill="#F9AB00"/>
<path d="M11.2881 18.9428V32.2832C11.2881 35.3145 13.3815 37.0036 15.5981 37.0036C17.6505 37.0036 19.9081 35.5669 19.9081 32.2832V19.148C19.9081 16.3691 17.8557 14.6328 15.5981 14.6328C13.3405 14.6328 11.2881 16.5477 11.2881 18.9428Z" fill="#E37400"/>
<path d="M4.30999 37.0027C6.69033 37.0027 8.61998 35.0731 8.61998 32.6928C8.61998 30.3125 6.69033 28.3828 4.30999 28.3828C1.92965 28.3828 0 30.3125 0 32.6928C0 35.0731 1.92965 37.0027 4.30999 37.0027Z" fill="#E37400"/>
</svg>
