<svg width="124" height="60" viewBox="0 0 124 60" fill="none" xmlns="http://www.w3.org/2000/svg">
<path d="M7.63264 23.3989C9.84558 22.3111 12.2954 21.7962 14.7568 21.8946C19.5178 22.0566 22.1352 24.4808 22.2392 29.2252C22.3548 34.1952 22.3201 39.1247 22.3028 44.0889C22.3028 46.1081 21.7712 46.5768 19.7778 46.5768H17.016C15.2537 46.5768 14.7048 46.0387 14.6701 44.2625V30.9551C14.6701 28.8954 13.6995 28.0506 11.6194 28.1316C11.2554 28.1374 10.8972 28.1722 10.5389 28.2358C7.81175 28.7912 7.65575 28.9879 7.65575 31.7709V43.6318C7.65575 46.166 7.2224 46.5941 4.72634 46.5941H1.95872C0.658683 46.5941 0.0866688 45.9808 0 44.6385V13.3026C0 11.0115 0.485346 10.5312 2.73874 10.5312H5.17702C7.0664 10.5312 7.64997 11.0635 7.68464 12.9729C7.73664 15.8368 7.68464 18.7008 7.68464 21.559C7.63264 22.0855 7.63264 22.6525 7.63264 23.3989ZM48.3497 35.011C48.1821 36.3301 48.0896 38.0196 47.7372 39.6685C47.1883 43.383 44.3051 46.3222 40.6072 46.9355C38.0765 47.4794 35.4591 47.4446 32.9457 46.8371C29.7621 46.2238 27.2198 43.8112 26.4456 40.6579C25.2957 36.6831 25.2957 32.4594 26.4456 28.4788C27.6647 24.3015 30.8541 22.0623 35.5284 21.9003C37.2156 21.8078 38.9027 21.9177 40.5668 22.2128C44.9753 23.098 47.4772 26.0893 48.0434 30.9783C48.1821 32.2164 48.2225 33.4141 48.3497 35.011ZM40.6477 35.1093C40.561 33.7497 40.5148 32.8181 40.4281 31.904C40.3761 31.4238 40.2779 30.9493 40.1334 30.4865C39.8561 28.9474 38.4521 27.8655 36.8978 27.987C35.3782 27.8713 34.0146 28.9243 33.7431 30.4286C33.0497 33.1769 33.0497 36.0524 33.7431 38.7949C34.0262 40.3223 35.4476 41.3696 36.9903 41.196C38.4521 41.2943 39.7579 40.2934 40.041 38.8527C40.3126 37.6146 40.5148 36.3648 40.6535 35.1035V35.1093H40.6477ZM97.1327 31.3081C97.4678 28.7565 96.9015 27.9696 94.4459 28.0854C92.441 28.2532 90.4534 28.5482 88.4889 28.9706C86.8248 29.2715 85.6057 28.8491 85.3746 27.5531C84.999 25.4181 85.1435 23.584 86.8537 23.0691C90.8116 21.7673 95.0526 21.5532 99.1203 22.4558C102.818 23.341 104.609 25.7884 104.609 29.7864V43.9327C104.609 45.003 104.609 46.1023 103.338 46.5189C101.928 47.0339 100.339 46.5999 99.3918 45.4312L98.9989 44.8642C96.838 46.5941 94.1108 47.4678 91.3432 47.3058C85.3341 47.0859 81.8847 41.3522 84.4963 35.8962C85.7155 33.2984 88.1538 32.4826 90.6729 32.0776C92.8454 31.7536 95.0006 31.5511 97.1327 31.3081ZM97.2482 35.4738C95.7922 35.6937 94.5095 35.8152 93.2672 36.0871C91.9672 36.2549 90.9907 37.3484 90.9618 38.656C90.6903 39.9694 91.3836 41.3001 92.6201 41.8209C93.8392 42.2953 96.4335 41.8209 97.0286 40.9877C97.1442 40.8257 97.2078 40.6348 97.2135 40.438C97.2482 38.8296 97.2482 37.2327 97.2482 35.4565V35.4738ZM53.5729 22.7509V19.5918C53.4631 18.6256 54.0871 17.723 55.0289 17.4916C56.2712 17.075 57.5365 16.7221 58.8192 16.427C59.7437 16.1203 60.7433 16.6179 61.0495 17.5436C61.1304 17.7924 61.1593 18.0528 61.1246 18.3131C61.1651 19.6728 61.1246 21.0267 61.1246 22.5368H64.7416C66.5039 22.5773 67.1106 23.1501 67.1799 24.9784C67.2781 28.6929 67.0759 28.9012 63.4127 28.9012H61.2864C61.2286 29.231 61.1882 29.5665 61.1709 29.9021V37.7361C61.1709 40.1777 61.9047 40.9241 64.2736 41.0976C66.3537 41.2481 66.9199 41.7109 66.9199 43.4062C66.995 46.1139 66.4461 47.0281 64.2736 47.1554C62.5518 47.2826 60.8184 47.1959 59.1197 46.895C55.5894 46.1776 53.6885 43.8864 53.5671 40.1488C53.4631 36.8856 53.5267 33.6224 53.5151 30.3765V28.9127H51.3831C50.3777 28.9937 49.4995 28.2474 49.4128 27.2406V27.0728C49.1181 24.5734 49.563 23.908 51.9377 23.2369L53.5729 22.7509ZM80.0993 37.9386C80.0993 42.168 80.1802 46.4032 80.0993 50.6326C80.0762 55.5158 76.1126 59.456 71.236 59.4328C70.7738 59.4328 70.3115 59.3923 69.8493 59.3171C68.1506 59.103 67.5439 58.4319 67.5208 56.6672V55.0993C67.5959 53.6239 68.0524 53.1089 69.5142 52.837C71.7733 52.4146 72.5071 51.5641 72.5129 49.2035V25.1346C72.5129 23.0922 73.0329 22.5484 75.0725 22.4847H77.8459C79.4869 22.5599 80.1051 23.1559 80.1167 24.8106V37.8576L80.0993 37.9386ZM114.166 24.2147C116.165 22.7798 118.546 21.9756 121.001 21.9003C123.44 21.9003 124 22.4153 123.994 24.8337V25.9215C123.994 27.4836 123.347 28.0391 121.822 28.2011C120.389 28.3747 118.962 28.6292 117.552 28.9532C116.604 29.1557 116.246 29.7285 116.263 30.7873C116.338 35.2019 116.263 39.5817 116.263 43.9732C116.263 46.1313 115.795 46.5826 113.617 46.6231H110.474C109.573 46.6983 108.781 46.0213 108.706 45.1188C108.694 45.0088 108.7 44.8989 108.712 44.789V24.475C108.642 23.5724 109.318 22.7798 110.22 22.7104H110.225H110.301C111.826 22.45 113.426 22.2128 114.166 24.2147Z" fill="black"/>
<path d="M79.2789 18.1905C80.6598 13.2321 80.1629 10.7327 77.742 10.2524C78.1118 11.9361 78.5278 13.6661 76.7597 14.8348C75.8353 15.4481 75.1015 15.2109 73.4606 13.9496C72.7037 15.5059 72.9579 17.0565 73.3103 18.7171C70.9587 18.3063 69.104 17.3285 68.2431 15.0546C67.3533 12.9833 67.8444 10.5822 69.4622 9.02006C70.0285 8.44148 70.6409 7.91497 71.2938 7.44054C73.9401 5.45022 74.4544 3.51777 73.0561 0.526508C72.9925 0.352934 72.9405 0.17936 72.9059 0C75.8468 0.445506 78.6318 1.6316 81.0007 3.43676C86.1604 7.6604 85.5364 15.2572 79.8394 18.0459C79.6429 18.0575 79.458 18.1038 79.2789 18.1905Z" fill="#EE4854"/>
</svg>
