<svg width="130" height="24" viewBox="0 0 130 24" fill="none" xmlns="http://www.w3.org/2000/svg">
<g clip-path="url(#clip0)">
<path d="M45.4438 18.321L41.887 10.8657C41.0379 9.10401 40.1659 7.10276 39.8682 6.16203L39.7994 6.23074C39.914 7.56079 39.9369 9.23613 39.9598 10.6349L40.0514 18.321H37.46V2.44493H40.4425L44.297 10.1962C44.943 11.5141 45.4878 12.8792 45.9265 14.2798L45.9952 14.2111C45.9265 13.4077 45.7662 11.137 45.7662 9.69064L45.7204 2.44141H48.222V18.3175L45.4438 18.321Z" fill="black"/>
<path d="M52.945 13.2034V13.3795C52.945 14.9862 53.5422 16.6826 55.813 16.6826C56.8911 16.6826 57.8319 16.2933 58.7039 15.5358L59.6904 17.0737C58.5334 18.0794 57.0482 18.6265 55.5153 18.6117C52.2351 18.6117 50.1704 16.2493 50.1704 12.5322C50.1704 10.4904 50.6055 9.13568 51.6167 7.98884C52.5575 6.9107 53.7043 6.42801 55.1735 6.42801C56.3519 6.39087 57.4974 6.81934 58.3621 7.62065C59.3716 8.53848 59.8772 9.96014 59.8772 12.6678V13.1963L52.945 13.2034ZM55.17 8.33941C53.7483 8.33941 52.9679 9.46335 52.9679 11.3448H57.2576C57.2576 9.46687 56.4331 8.33941 55.17 8.33941Z" fill="black"/>
<path d="M73.3027 18.3642H70.9315L69.5099 13.0193C69.1434 11.6434 68.7524 9.8483 68.7524 9.8483H68.7065C68.7065 9.8483 68.5304 10.9951 67.949 13.1285L66.5503 18.3589H64.1861L61.0151 6.86405L63.5167 6.51172L64.778 12.1332C65.0987 13.5777 65.3752 15.1844 65.3752 15.1844H65.444C65.6131 14.1338 65.8354 13.0925 66.1099 12.0645L67.602 6.69669H70.0806L71.3896 11.9324C71.8723 13.8138 72.1242 15.2355 72.1242 15.2355H72.1929C72.1929 15.2355 72.4677 13.4738 72.7672 12.1156L73.9598 6.70022H76.5759L73.3027 18.3642Z" fill="black"/>
<path d="M91.2803 18.3175L89.9044 15.8617C88.8052 13.9133 88.0688 12.8123 87.1968 11.9315C87.0695 11.7818 86.9109 11.6618 86.7323 11.5799C86.5536 11.498 86.3592 11.4563 86.1627 11.4576V18.3175H83.5713V2.44141H88.4123C91.9691 2.44141 93.574 4.50607 93.574 6.98473C93.574 9.25551 92.1065 11.3448 89.6279 11.3448C90.2022 11.6426 91.2574 13.1805 92.0818 14.5158L94.4213 18.3245L91.2803 18.3175ZM87.609 4.57654H86.1627V9.60079H87.5156C88.8915 9.60079 89.6296 9.42463 90.1088 8.93489C90.5439 8.49976 90.8135 7.83385 90.8135 7.00763C90.8223 5.401 89.9502 4.57478 87.609 4.57478V4.57654Z" fill="black"/>
<path d="M97.8869 13.2034V13.3795C97.8869 14.9862 98.4841 16.6826 100.755 16.6826C101.833 16.6826 102.774 16.2933 103.646 15.5358L104.632 17.0737C103.475 18.0794 101.99 18.6265 100.457 18.6117C97.177 18.6117 95.1123 16.2493 95.1123 12.5322C95.1123 10.4904 95.5474 9.13568 96.5586 7.98884C97.4994 6.9107 98.6462 6.42801 100.115 6.42801C101.294 6.39087 102.439 6.81934 103.304 7.62065C104.313 8.53848 104.819 9.96014 104.819 12.6678V13.1963L97.8869 13.2034ZM100.114 8.33941C98.692 8.33941 97.9116 9.46335 97.9116 11.3448H102.194C102.194 9.46687 101.375 8.33941 100.114 8.33941Z" fill="black"/>
<path d="M109.542 18.5689C106.995 18.5689 106.995 16.2787 106.995 15.2887V5.39871C107.024 4.26281 106.95 3.12658 106.774 2.00399L109.368 1.42969C109.544 2.13435 109.574 3.10503 109.574 4.61829V14.4607C109.574 16.0215 109.642 16.2734 109.826 16.5483C109.926 16.663 110.06 16.7421 110.209 16.7739C110.358 16.8056 110.514 16.7883 110.652 16.7244L111.064 18.2853C110.58 18.4792 110.063 18.5756 109.542 18.5689Z" fill="black"/>
<path d="M113.923 4.98974C113.706 4.98769 113.491 4.94261 113.291 4.85712C113.092 4.77163 112.911 4.64742 112.759 4.49166C112.608 4.3359 112.489 4.15167 112.409 3.94961C112.329 3.74755 112.29 3.53166 112.294 3.3144C112.296 2.98462 112.397 2.66302 112.582 2.3905C112.768 2.11798 113.031 1.90684 113.337 1.78391C113.643 1.66098 113.978 1.63182 114.301 1.70013C114.624 1.76844 114.919 1.93115 115.149 2.16756C115.379 2.40397 115.533 2.70341 115.592 3.02782C115.652 3.35223 115.613 3.68697 115.482 3.98947C115.351 4.29198 115.132 4.54859 114.855 4.7267C114.577 4.90481 114.253 4.99637 113.923 4.98974ZM112.662 18.3202V6.8941L115.209 6.4343V18.3185L112.662 18.3202Z" fill="black"/>
<path d="M122.436 18.6188C119.265 18.6188 117.503 16.3939 117.503 12.6539C117.503 8.42588 120.027 6.41406 122.612 6.41406C123.873 6.41406 124.791 6.71178 125.823 7.67541L124.567 9.34899C123.878 8.72889 123.283 8.45407 122.617 8.45407C122.23 8.44751 121.85 8.55492 121.523 8.76291C121.197 8.9709 120.939 9.27028 120.781 9.62381C120.429 10.3285 120.3 11.4137 120.3 12.8582C120.3 14.4437 120.552 15.4514 121.081 16.0292C121.275 16.2428 121.513 16.4126 121.778 16.5274C122.043 16.6422 122.33 16.6994 122.619 16.6951C123.422 16.6951 124.204 16.3058 124.958 15.5483L126.151 17.0862C125.096 18.1362 123.995 18.6188 122.436 18.6188Z" fill="black"/>
<path d="M128.304 18.575C127.966 18.5767 127.636 18.4783 127.355 18.2922C127.074 18.1061 126.854 17.8406 126.724 17.5295C126.593 17.2184 126.558 16.8756 126.623 16.5446C126.688 16.2135 126.849 15.9092 127.087 15.67C127.325 15.4309 127.629 15.2678 127.959 15.2014C128.29 15.1349 128.633 15.1681 128.945 15.2968C129.257 15.4255 129.523 15.6438 129.711 15.9241C129.898 16.2045 129.998 16.5342 129.998 16.8715C129.999 17.0947 129.956 17.3159 129.871 17.5224C129.787 17.729 129.662 17.9167 129.505 18.075C129.347 18.2333 129.16 18.3589 128.954 18.4447C128.748 18.5305 128.527 18.5748 128.304 18.575ZM128.304 15.5062C128.03 15.4942 127.759 15.5645 127.526 15.7078C127.293 15.8512 127.108 16.0612 126.995 16.3106C126.882 16.5601 126.847 16.8376 126.893 17.1075C126.939 17.3773 127.065 17.6271 127.255 17.8246C127.445 18.0221 127.689 18.1583 127.957 18.2156C128.225 18.273 128.503 18.2488 128.757 18.1462C129.011 18.0437 129.228 17.8674 129.381 17.6402C129.534 17.413 129.615 17.1453 129.614 16.8715C129.619 16.6953 129.589 16.52 129.526 16.3556C129.462 16.1912 129.367 16.041 129.245 15.9139C129.123 15.7867 128.977 15.685 128.815 15.6147C128.654 15.5444 128.48 15.5069 128.304 15.5044V15.5062ZM128.638 17.8157C128.564 17.6871 128.533 17.6396 128.462 17.4986C128.274 17.1551 128.216 17.0582 128.147 17.0318C128.128 17.0224 128.108 17.0175 128.087 17.0177V17.8157H127.712V15.9043H128.416C128.491 15.8992 128.566 15.9101 128.637 15.9362C128.707 15.9624 128.771 16.0033 128.824 16.0561C128.878 16.109 128.919 16.1726 128.946 16.2427C128.973 16.3128 128.985 16.3878 128.98 16.4628C128.991 16.5889 128.953 16.7144 128.873 16.8129C128.794 16.9114 128.679 16.9754 128.554 16.9913C128.583 17.0154 128.609 17.0432 128.631 17.0741C128.741 17.2115 129.089 17.8157 129.089 17.8157H128.638ZM128.443 16.239C128.373 16.2195 128.301 16.21 128.228 16.2109H128.09V16.7288H128.219C128.385 16.7288 128.457 16.7094 128.508 16.6636C128.557 16.6119 128.584 16.5429 128.582 16.4716C128.587 16.423 128.576 16.374 128.551 16.3321C128.526 16.2901 128.488 16.2575 128.443 16.239Z" fill="black"/>
<path d="M28.5073 8.55242C27.1597 2.36018 19.7343 -1.28117 11.9195 0.417068C4.10481 2.11531 -1.13613 8.51366 0.209776 14.7041C1.55569 20.8946 8.98285 24.5395 16.7958 22.8395C24.6088 21.1395 29.8532 14.7499 28.5073 8.55242ZM14.3594 17.3361C13.2305 17.3361 12.127 17.0013 11.1884 16.3741C10.2497 15.7469 9.51814 14.8555 9.08613 13.8125C8.65413 12.7696 8.54109 11.6219 8.76133 10.5147C8.98156 9.40754 9.52518 8.39051 10.3234 7.59227C11.1217 6.79402 12.1387 6.25041 13.2459 6.03017C14.3531 5.80993 15.5007 5.92297 16.5437 6.35497C17.5867 6.78698 18.4781 7.51856 19.1053 8.4572C19.7325 9.39584 20.0672 10.4994 20.0672 11.6283C20.0672 12.3778 19.9196 13.12 19.6327 13.8125C19.3459 14.505 18.9255 15.1343 18.3954 15.6643C17.8654 16.1943 17.2362 16.6147 16.5437 16.9016C15.8512 17.1884 15.109 17.3361 14.3594 17.3361Z" fill="#008C99"/>
<path d="M15.6207 3.63672C13.9999 3.63707 12.4156 4.11801 11.0682 5.01872C9.72071 5.91944 8.67058 7.19948 8.05057 8.697C7.43056 10.1945 7.26852 11.8422 7.58493 13.4319C7.90135 15.0215 8.68201 16.4815 9.8282 17.6275C10.9744 18.7734 12.4347 19.5538 14.0243 19.8699C15.614 20.1859 17.2617 20.0235 18.7591 19.4032C20.2565 18.7829 21.5363 17.7325 22.4367 16.3848C23.3371 15.0372 23.8177 13.4528 23.8177 11.832C23.8177 10.7556 23.6057 9.68978 23.1937 8.69537C22.7818 7.70096 22.178 6.79745 21.4168 6.03643C20.6556 5.27541 19.752 4.67179 18.7575 4.26004C17.763 3.84829 16.6971 3.63649 15.6207 3.63672ZM14.3576 16.6131C13.3716 16.6131 12.4077 16.3207 11.5878 15.7729C10.768 15.2251 10.129 14.4465 9.75162 13.5355C9.37428 12.6245 9.27555 11.6221 9.46792 10.655C9.66028 9.6879 10.1351 8.79957 10.8323 8.10233C11.5296 7.4051 12.4179 6.93027 13.385 6.73791C14.3521 6.54554 15.3545 6.64427 16.2655 7.02161C17.1765 7.39895 17.9551 8.03795 18.5029 8.85782C19.0507 9.67768 19.3431 10.6416 19.3431 11.6276C19.3431 12.9495 18.8181 14.2174 17.8835 15.1523C16.9489 16.0872 15.6813 16.6126 14.3594 16.6131H14.3576Z" fill="#70CCD3"/>
</g>
<defs>
<clipPath id="clip0">
<rect width="130" height="23.2592" fill="white"/>
</clipPath>
</defs>
</svg>
