<svg width="124" height="41" viewBox="0 0 124 41" fill="none" xmlns="http://www.w3.org/2000/svg">
<g clip-path="url(#clip0)">
<path d="M5.69914 40.5781C8.67249 40.5781 11.0829 38.1673 11.0829 35.1933C11.0829 32.2194 8.67249 29.8086 5.69914 29.8086C2.7258 29.8086 0.31543 32.2194 0.31543 35.1933C0.31543 38.1673 2.7258 40.5781 5.69914 40.5781Z" fill="#4284FB"/>
<path d="M25.1336 39.0587C27.2367 39.0587 28.9415 37.3535 28.9415 35.2501C28.9415 33.1466 27.2367 31.4414 25.1336 31.4414C23.0305 31.4414 21.3257 33.1466 21.3257 35.2501C21.3257 37.3535 23.0305 39.0587 25.1336 39.0587Z" fill="#4284FB"/>
<path d="M41.1536 36.9817C42.1084 36.9817 42.8824 36.2075 42.8824 35.2526C42.8824 34.2976 42.1084 33.5234 41.1536 33.5234C40.1988 33.5234 39.4248 34.2976 39.4248 35.2526C39.4248 36.2075 40.1988 36.9817 41.1536 36.9817Z" fill="#4284FB"/>
<path d="M24.108 23.9132C23.1614 23.9132 22.4603 23.1771 22.4603 22.2652V15.2523C22.4603 12.833 21.3036 10.9746 18.7093 10.9746C16.115 10.9746 14.5375 12.9732 14.5375 15.2876V22.2652C14.5375 23.1771 13.9064 23.9132 12.8898 23.9132C11.9081 23.9132 11.2421 23.1771 11.2421 22.2652V15.2523C11.2421 12.833 9.98009 10.9746 7.38555 10.9746C4.7213 10.9746 3.31908 12.9732 3.31908 15.2876V22.2652C3.31908 23.1771 2.65308 23.9132 1.67138 23.9132C0.724787 23.9132 0.0234375 23.1771 0.0234375 22.2652V9.8174C0.0234375 8.83576 0.65458 8.13452 1.67114 8.13452C2.79301 8.13452 3.31884 8.90574 3.31884 9.8174V10.9395C4.26543 9.08105 6.19348 7.99407 8.26194 7.99407C10.786 7.99407 12.6792 9.25636 13.6258 11.1148C14.9929 9.01107 16.9912 7.99407 19.4801 7.99407C23.7221 7.99407 25.7555 10.9046 25.7555 15.007V22.2647C25.7555 23.1769 25.0897 23.913 24.108 23.913V23.9132ZM30.3834 1.89307C31.4351 1.89307 32.3114 2.76962 32.3114 3.82148C32.3114 4.87335 31.4351 5.7499 30.3834 5.7499C29.3317 5.7499 28.4551 4.87335 28.4551 3.82148C28.4551 2.76962 29.3315 1.89307 30.3834 1.89307ZM30.3834 23.9135C29.4017 23.9135 28.7357 23.1773 28.7357 22.2652V9.78229C28.7357 8.87063 29.4368 8.13427 30.3834 8.13427C31.33 8.13427 32.0311 8.87063 32.0311 9.78229V22.2652C32.0306 23.1771 31.3648 23.9132 30.3834 23.9132V23.9135ZM41.3205 13.8147L45.4923 8.62534C45.7727 8.30958 46.1235 8.13427 46.5793 8.13427C47.4906 8.13427 48.0866 8.73043 48.0866 9.57211C48.0866 9.88762 47.9813 10.2031 47.7009 10.5189L43.1084 15.9889L47.7712 21.4935C48.0164 21.7741 48.1566 22.0545 48.1566 22.4754C48.1566 23.2824 47.4555 23.913 46.6842 23.913C46.1934 23.913 45.8078 23.7377 45.5274 23.3866L41.3205 18.1626L37.1136 23.3866C36.8331 23.7369 36.4476 23.913 35.9567 23.913C35.1853 23.913 34.4842 23.2815 34.4842 22.4754C34.4842 22.0545 34.6247 21.7741 34.8699 21.4935L39.5327 15.9886L34.9401 10.5189C34.6595 10.2029 34.5545 9.88762 34.5545 9.57211C34.5545 8.73067 35.1505 8.13452 36.062 8.13452C36.5176 8.13452 36.8682 8.31007 37.1487 8.62558L41.3205 13.8147ZM59.3048 24.0537C56.956 24.0537 55.028 22.827 53.9061 21.0385V28.8226C53.9061 29.7345 53.2401 30.4702 52.2584 30.4702C51.2767 30.4702 50.6107 29.7343 50.6107 28.8226V9.78229C50.6107 8.87063 51.1716 8.13427 52.1882 8.13427C53.205 8.13427 53.801 8.90574 53.801 9.8174V11.0102C54.8527 9.18686 56.956 7.99456 59.3048 7.99456C63.3364 7.99456 66.6318 11.3603 66.6318 16.0242C66.6318 20.8627 63.3364 24.0537 59.3048 24.0537ZM58.6391 10.7293C55.7993 10.7293 53.9063 13.2185 53.9063 16.024C53.9063 18.8297 55.7995 21.3187 58.6393 21.3187C61.4788 21.3187 63.3364 19.1801 63.3364 16.024C63.3364 12.8684 61.4783 10.7293 58.6391 10.7293ZM84.0203 22.2652C84.0203 23.1771 83.3894 23.9132 82.3726 23.9132C81.3909 23.9132 80.7605 23.1771 80.7605 22.2652V21.4937C79.7788 22.9664 77.9207 24.0537 75.6426 24.0537C70.7337 24.0537 67.8946 20.4775 67.8946 16.0237C67.8946 11.641 71.0503 7.99432 75.9929 7.99432C81.0413 7.99432 84.0213 11.2901 84.0213 16.0237V22.2652H84.0203ZM75.9571 10.7993C73.1524 10.7993 71.189 13.149 71.189 16.0237C71.189 19.0394 72.8367 21.2484 75.9571 21.2484C78.8666 21.2484 80.7247 18.7587 80.7247 16.0237C80.7247 12.7979 78.7618 10.7993 75.9571 10.7993ZM93.9419 7.99456C98.1834 7.99456 101.303 11.2206 101.303 15.323V22.2654C101.304 22.4819 101.261 22.6964 101.178 22.8965C101.096 23.0966 100.974 23.2784 100.821 23.4315C100.668 23.5846 100.487 23.7059 100.286 23.7887C100.086 23.8714 99.872 23.9138 99.6556 23.9135C99.4391 23.9137 99.2247 23.8713 99.0247 23.7886C98.8246 23.7059 98.6429 23.5845 98.4898 23.4314C98.3368 23.2783 98.2154 23.0965 98.1327 22.8964C98.05 22.6964 98.0076 22.4819 98.0079 22.2654V14.937C98.0079 12.7279 96.2551 11.01 93.9419 11.01C91.6279 11.01 89.9098 12.7275 89.9098 14.937V22.2654C89.9101 22.4819 89.8677 22.6964 89.785 22.8965C89.7023 23.0966 89.5809 23.2784 89.4279 23.4315C89.2748 23.5846 89.093 23.7059 88.893 23.7887C88.6929 23.8714 88.4785 23.9138 88.2621 23.9135C88.0456 23.9137 87.8312 23.8713 87.6312 23.7886C87.4311 23.7059 87.2494 23.5845 87.0963 23.4314C86.9433 23.2783 86.8219 23.0965 86.7392 22.8964C86.6565 22.6964 86.6141 22.4819 86.6144 22.2654V15.3227C86.6144 11.2204 89.6994 7.99456 93.9419 7.99456ZM118.446 16.0589C118.446 16.6199 118.131 17.1809 117.184 17.1809H106.702C106.877 19.6004 108.525 21.4233 111.435 21.4233C113.258 21.4233 114.345 20.792 115.501 19.7053C115.782 19.4249 116.167 19.1789 116.588 19.1789C117.324 19.1789 117.956 19.7053 117.956 20.5465C117.956 20.8966 117.78 21.2124 117.535 21.4928C116.203 23.0357 113.818 24.0529 111.295 24.0529C106.071 24.0529 103.301 20.4058 103.301 16.0228C103.301 11.4293 106.632 7.99335 111.154 7.99335C115.572 7.99456 118.446 11.5708 118.446 16.0591V16.0589ZM111.154 10.6245C108.736 10.6245 107.088 12.342 106.772 14.5167H115.396C115.116 12.4122 113.538 10.6245 111.155 10.6245H111.154ZM122.302 23.9132C121.32 23.9132 120.655 23.1771 120.655 22.2652V1.64802C120.655 0.735869 121.321 0 122.302 0C123.284 0 123.95 0.735869 123.95 1.64802V22.2652C123.95 23.1771 123.284 23.9132 122.302 23.9132Z" fill="#4284FB"/>
</g>
<defs>
<clipPath id="clip0">
<rect width="124" height="40.6798" fill="white"/>
</clipPath>
</defs>
</svg>
