<svg width="17" height="20" viewBox="0 0 17 20" fill="none" xmlns="http://www.w3.org/2000/svg">
<path d="M10.4168 15.4295C9.14494 17.6324 6.24934 18.4082 4.04644 17.1364C1.84355 15.8646 1.06768 12.9689 2.33952 10.7661L6.79096 3.05594C7.72364 1.44048 9.80848 0.881853 11.4239 1.81453C13.0394 2.74722 13.598 4.83205 12.6653 6.44751L9.06179 12.689C8.46826 13.717 7.19419 14.0584 6.16618 13.4649C5.13816 12.8714 4.79678 11.5973 5.3903 10.5693L8.5699 5.06207L9.67135 5.69799L6.49175 11.2052C6.23738 11.6458 6.36152 12.1091 6.8021 12.3635C7.24268 12.6178 7.70597 12.4937 7.96034 12.0531L11.5639 5.81159C12.1574 4.78357 11.816 3.50951 10.788 2.91598C9.75999 2.32246 8.48593 2.66384 7.8924 3.69186L3.44096 11.402C2.50828 13.0174 3.06691 15.1023 4.68236 16.0349C6.29782 16.9676 8.38266 16.409 9.31534 14.7935L13.3428 7.81772L14.4443 8.45364L10.4168 15.4295Z" fill="#2255CE"/>
</svg>
