<svg width="24" height="24" viewBox="0 0 24 24" fill="none" xmlns="http://www.w3.org/2000/svg">
<path d="M12 1C5.93447 1 1 5.93447 1 12C1 18.0655 5.93447 23 12 23C18.0655 23 23 18.0655 23 12C23 5.93447 18.0655 1 12 1ZM12 21.1667C6.94558 21.1667 2.83333 17.0544 2.83333 12C2.83333 6.94558 6.94558 2.83333 12 2.83333C17.0544 2.83333 21.1667 6.94558 21.1667 12C21.1667 17.0544 17.0544 21.1667 12 21.1667Z" fill="#4FABD6"/>
<path d="M11.9994 10.6094C11.2572 10.6094 10.6533 11.2172 10.6533 11.9643C10.6533 12.7114 11.2572 13.3192 11.9994 13.3192C12.7416 13.3192 13.3455 12.7114 13.3455 11.9643C13.3455 11.2172 12.7416 10.6094 11.9994 10.6094Z" fill="#4FABD6"/>
<path d="M12.8916 6.5V8.94327C13.5829 9.15046 14.1746 9.59186 14.5756 10.1761L16.8844 9.42096C16.0992 7.89797 14.6314 6.78667 12.8916 6.5Z" fill="#4FABD6"/>
<path d="M17.4378 11.1367L15.1284 11.892C15.129 11.9184 15.1304 11.9447 15.1304 11.9712C15.1304 12.6905 14.8891 13.3539 14.4844 13.8847L15.9103 15.8601C16.8927 14.8597 17.5002 13.4856 17.5002 11.9712C17.5002 11.6876 17.4788 11.4089 17.4378 11.1367Z" fill="#4FABD6"/>
<path d="M7.11523 9.42096L9.42391 10.1761C9.82501 9.59191 10.4167 9.15052 11.108 8.94327V6.5C9.36822 6.78672 7.90047 7.89797 7.11523 9.42096Z" fill="#4FABD6"/>
<path d="M13.0406 14.9375C12.7145 15.0537 12.3642 15.1176 11.999 15.1176C11.634 15.1176 11.2835 15.0537 10.9575 14.9375L9.53125 16.9133C10.2738 17.2902 11.1121 17.5029 11.999 17.5029C12.8859 17.5029 13.7242 17.2903 14.4668 16.9133L13.0406 14.9375Z" fill="#4FABD6"/>
<path d="M8.86994 11.9712C8.86994 11.9447 8.87123 11.9184 8.87187 11.892L6.56245 11.1367C6.52139 11.4089 6.5 11.6876 6.5 11.9712C6.5 13.4856 7.1076 14.8597 8.09003 15.8602L9.51592 13.8847C9.11126 13.3539 8.86994 12.6905 8.86994 11.9712Z" fill="#4FABD6"/>
</svg>
