<svg width="24" height="24" viewBox="0 0 24 24" fill="none" xmlns="http://www.w3.org/2000/svg">
<path d="M17.0038 21.9956H7.00378C5.58701 21.9965 4.21563 21.496 3.13247 20.5827C2.04931 19.6695 1.32425 18.4024 1.08569 17.0059C0.847121 15.6093 1.11044 14.1734 1.82901 12.9524C2.54759 11.7314 3.67506 10.804 5.01178 10.3346C4.9665 9.38823 5.11379 8.44254 5.44474 7.5548C5.77569 6.66706 6.2834 5.85574 6.93713 5.16999C7.59085 4.48424 8.37698 3.93832 9.24788 3.56533C10.1188 3.19233 11.0564 3 12.0038 3C12.9512 3 13.8888 3.19233 14.7597 3.56533C15.6306 3.93832 16.4167 4.48424 17.0704 5.16999C17.7242 5.85574 18.2319 6.66706 18.5628 7.5548C18.8938 8.44254 19.0411 9.38823 18.9958 10.3346C20.3325 10.804 21.46 11.7314 22.1785 12.9524C22.8971 14.1734 23.1604 15.6093 22.9219 17.0059C22.6833 18.4024 21.9583 19.6695 20.8751 20.5827C19.7919 21.496 18.4206 21.9965 17.0038 21.9956ZM17.0038 9.99557C17.004 9.32857 16.8708 8.66827 16.612 8.05354C16.3532 7.4388 15.974 6.88207 15.4967 6.41611C15.0195 5.95015 14.4538 5.58439 13.8331 5.34036C13.2123 5.09633 12.549 4.97896 11.8822 4.99518C11.2154 5.01139 10.5586 5.16085 9.95047 5.43476C9.34231 5.70867 8.79511 6.10149 8.34107 6.59009C7.88703 7.0787 7.53534 7.6532 7.30671 8.27979C7.07807 8.90638 6.97712 9.57237 7.00978 10.2386L7.07978 11.7266L5.67578 12.2206C4.78629 12.5351 4.03653 13.1539 3.55888 13.9675C3.08123 14.7811 2.90639 15.7374 3.06524 16.6674C3.22409 17.5974 3.70641 18.4414 4.42705 19.0503C5.14769 19.6593 6.0603 19.9941 7.00378 19.9956H17.0038C17.7401 19.9953 18.4621 19.7918 19.0902 19.4075C19.7183 19.0232 20.2281 18.473 20.5635 17.8174C20.8989 17.1619 21.0468 16.4265 20.991 15.6923C20.9351 14.9581 20.6777 14.2535 20.2471 13.6562C19.8165 13.059 19.2293 12.5921 18.5503 12.3072C17.8714 12.0223 17.1269 11.9303 16.399 12.0414C15.6711 12.1524 14.988 12.4623 14.4249 12.9368C13.8618 13.4113 13.4406 14.032 13.2078 14.7306L11.3098 14.0976C11.7086 12.903 12.4731 11.864 13.4949 11.1279C14.5168 10.3917 15.7443 9.99558 17.0038 9.99557Z" fill="#2356A8"/>
</svg>
