<svg width="120" height="35" viewBox="0 0 120 35" fill="none" xmlns="http://www.w3.org/2000/svg">
<path d="M12.9962 5.63281V15.2272H4.18189V5.63281H0V28.5358H4.18302V19.2528H12.9951V28.5358H17.1792V5.63281H12.9962ZM30.5683 21.1332C30.5683 22.0512 30.2036 22.9316 29.5545 23.5807C28.9054 24.2298 28.025 24.5945 27.107 24.5945C26.189 24.5945 25.3086 24.2298 24.6595 23.5807C24.0103 22.9316 23.6457 22.0512 23.6457 21.1332V11.3226H19.6777V21.1332C19.6777 23.1016 20.4597 24.9894 21.8516 26.3813C23.2434 27.7731 25.1312 28.5551 27.0996 28.5551C29.068 28.5551 30.9558 27.7731 32.3477 26.3813C33.7396 24.9894 34.5215 23.1016 34.5215 21.1332V11.3226H30.5683V21.1332ZM59.9694 12.3336C59.9694 10.3219 61.2996 9.68451 62.7566 9.68451C63.9317 9.68451 65.4826 10.5788 66.4981 11.6634L69.0962 8.59998C67.7989 6.84527 65.1679 5.63281 63.0136 5.63281C58.7083 5.63281 55.5951 8.15394 55.5951 12.3336C55.5951 20.0883 65.0728 17.6272 65.0728 21.9675C65.0728 23.3056 63.7732 24.4875 62.2857 24.4875C59.9389 24.4875 59.1781 23.3407 58.1004 22.1272L55.2158 25.126C57.0611 27.3902 59.3366 28.5404 62.0615 28.5404C66.1517 28.5404 69.4415 25.9887 69.4415 21.9992C69.4415 13.3909 59.9626 16.066 59.9626 12.3336H59.9694ZM118.604 24.877C116.26 24.877 115.593 23.8626 115.593 22.3094V15.4321H119.238V11.9475H115.593V7.35017L111.569 9.15583V23.1641C111.569 26.7472 114.042 28.5528 117.431 28.5528C117.963 28.5619 118.495 28.5188 119.018 28.426L120 24.8124C119.557 24.843 119.049 24.8736 118.604 24.8736V24.877ZM45.6725 11.437C43.7072 11.437 42.3351 12.0075 41.0083 13.3083V5.76979H37.0347V19.743C37.0347 24.9732 40.8158 28.5573 45.0657 28.5573C49.7796 28.5573 53.9264 24.9098 53.9264 19.9988C53.9264 15.149 50.1102 11.4404 45.6725 11.4404V11.437ZM45.6475 24.5577C45.0553 24.5577 44.4689 24.4411 43.9218 24.2144C43.3747 23.9878 42.8775 23.6556 42.4588 23.2369C42.04 22.8181 41.7078 22.321 41.4812 21.7739C41.2546 21.2267 41.1379 20.6403 41.1379 20.0481C41.1379 19.4559 41.2546 18.8695 41.4812 18.3223C41.7078 17.7752 42.04 17.2781 42.4588 16.8593C42.8775 16.4406 43.3747 16.1084 43.9218 15.8817C44.4689 15.6551 45.0553 15.5385 45.6475 15.5385C46.8436 15.5385 47.9906 16.0136 48.8363 16.8593C49.682 17.705 50.1572 18.8521 50.1572 20.0481C50.1572 21.2441 49.682 22.3912 48.8363 23.2369C47.9906 24.0826 46.8436 24.5577 45.6475 24.5577ZM88.8272 19.7905C88.8272 14.8705 84.6894 11.2321 79.9664 11.2321C75.7177 11.2321 71.9355 14.8151 71.9355 20.0464V34.0275H75.9091V26.4789C77.2336 27.7773 78.6079 28.3502 80.5709 28.3502C85.0087 28.3502 88.826 24.6415 88.826 19.7905H88.8272ZM85.0641 19.7407C85.0641 20.9368 84.589 22.0838 83.7433 22.9295C82.8976 23.7752 81.7506 24.2504 80.5545 24.2504C79.3585 24.2504 78.2115 23.7752 77.3657 22.9295C76.52 22.0838 76.0449 20.9368 76.0449 19.7407C76.0449 18.5447 76.52 17.3977 77.3657 16.552C78.2115 15.7062 79.3585 15.2311 80.5545 15.2311C81.7506 15.2311 82.8976 15.7062 83.7433 16.552C84.589 17.3977 85.0641 18.5447 85.0641 19.7407Z" fill="#33475B"/>
<path d="M101.667 11.04V7.04717C102.195 6.80057 102.642 6.40918 102.955 5.91856C103.269 5.42794 103.437 4.85826 103.44 4.27585V4.18415C103.44 2.48604 102.063 1.10943 100.365 1.10943H100.274C99.4581 1.10943 98.676 1.43338 98.0994 2.01C97.5228 2.58662 97.1988 3.36868 97.1988 4.18415V4.27585C97.2015 4.85826 97.3695 5.42794 97.6834 5.91856C97.9973 6.40918 98.444 6.80057 98.9716 7.04717V11.04C97.4552 11.2722 96.027 11.901 94.8316 12.8626L83.8811 4.33358C83.9592 4.0517 83.9999 3.76189 84.0045 3.47094C84.0058 2.7857 83.8039 2.11546 83.4243 1.54499C83.0446 0.974517 82.5044 0.52945 81.8718 0.266082C81.2391 0.00271462 80.5426 -0.0671207 79.8703 0.0654097C79.198 0.19794 78.5801 0.526882 78.0948 1.01063C77.6095 1.49437 77.2785 2.11119 77.1438 2.78305C77.0091 3.45492 77.0766 4.15165 77.3379 4.78511C77.5992 5.41858 78.0425 5.96032 78.6117 6.34181C79.181 6.7233 79.8506 6.9274 80.5358 6.9283C81.1353 6.92548 81.7235 6.76543 82.2418 6.46415L93.0248 14.8551C92.0562 16.3185 91.5508 18.0398 91.5746 19.7946C91.5985 21.5494 92.1504 23.2563 93.1584 24.6928L89.8788 27.9736C89.6137 27.8888 89.3375 27.8438 89.0592 27.84C88.4967 27.8404 87.947 28.0076 87.4795 28.3204C87.012 28.6332 86.6477 29.0775 86.4327 29.5973C86.2176 30.117 86.1615 30.6888 86.2713 31.2405C86.3812 31.7921 86.6521 32.2988 87.0498 32.6966C87.4475 33.0943 87.9542 33.3652 88.5059 33.475C89.0575 33.5849 89.6294 33.5287 90.1491 33.3137C90.6688 33.0986 91.1132 32.7344 91.426 32.2669C91.7387 31.7994 91.9059 31.2496 91.9064 30.6872C91.9027 30.4089 91.8577 30.1326 91.7728 29.8675L95.0173 26.6219C96.0753 27.4364 97.3057 27.998 98.6143 28.2635C99.9229 28.5291 101.275 28.4916 102.567 28.1539C103.859 27.8162 105.056 27.1874 106.067 26.3154C107.078 25.4435 107.877 24.3517 108.401 23.1236C108.925 21.8955 109.161 20.5638 109.091 19.2304C109.021 17.897 108.646 16.5973 107.996 15.4309C107.346 14.2646 106.438 13.2625 105.341 12.5014C104.244 11.7403 102.987 11.2404 101.667 11.04ZM100.322 24.1721C99.7226 24.1886 99.1257 24.0847 98.5669 23.8666C98.0081 23.6486 97.4987 23.3207 97.0687 22.9024C96.6388 22.4841 96.297 21.9839 96.0637 21.4313C95.8303 20.8787 95.7101 20.2849 95.7101 19.6851C95.7101 19.0852 95.8303 18.4915 96.0637 17.9389C96.297 17.3863 96.6388 16.8861 97.0687 16.4678C97.4987 16.0495 98.0081 15.7216 98.5669 15.5035C99.1257 15.2855 99.7226 15.1816 100.322 15.1981C101.484 15.2388 102.585 15.7289 103.393 16.5653C104.201 17.4016 104.653 18.5189 104.654 19.6818C104.654 20.8447 104.204 21.9624 103.397 22.7995C102.589 23.6367 101.489 24.1279 100.327 24.1698" fill="#FF7A59"/>
</svg>
