<svg width="130" height="30" viewBox="0 0 130 30" fill="none" xmlns="http://www.w3.org/2000/svg">
<g clip-path="url(#clip0)">
<path d="M20.3896 0.0703125H24.5321V4.44319H20.3896V0.0703125ZM92.9148 0.0703125H97.0572V4.44319H92.9148V0.0703125Z" fill="#525254"/>
<path d="M11.2343 6.01562C8.62346 6.01562 7.11348 7.18959 6.38514 8.00064C6.2986 7.30175 5.8385 6.39508 4.04353 6.39508H0.145508V10.4841H1.74304C2.01331 10.4841 2.10036 10.5706 2.10036 10.8409V29.5115H6.74703V22.5041C6.74703 22.3148 6.74322 22.1381 6.7384 21.9799C7.4642 22.648 8.85034 23.5676 11.0156 23.5676C15.5572 23.5676 18.7324 19.9598 18.7324 14.7924C18.7324 9.54312 15.7176 6.01562 11.2343 6.01562ZM10.2903 19.5117C7.78879 19.5117 6.65237 17.1113 6.65237 14.8875C6.65237 11.3847 8.56382 10.1362 10.3524 10.1362C12.5459 10.1362 14.0211 12.0314 14.0211 14.8547C14.0211 18.0742 12.1456 19.5117 10.2905 19.5117" fill="#231F1F"/>
<path d="M24.8494 18.7738V8.88082C24.8494 7.20812 24.0449 6.39453 22.3976 6.39453H18.2461V10.4836H19.8454C20.1147 10.4836 20.2012 10.57 20.2012 10.8401V20.7003C20.2012 22.3967 20.9808 23.1861 22.6489 23.1861H26.8058V19.1332H25.2059C24.9486 19.1332 24.8494 19.0304 24.8494 18.7741" fill="#231F1F"/>
<path d="M36.9866 6.01238C34.375 6.01238 32.867 7.18634 32.1354 7.99739C32.0491 7.2985 31.5913 6.39183 29.7966 6.39183H25.896V10.4809H27.4953C27.7646 10.4809 27.8519 10.5673 27.8519 10.8377V29.5082H32.5006V22.5008C32.5006 22.3116 32.4955 22.1348 32.4896 21.9766C33.2124 22.6448 34.6031 23.5644 36.7676 23.5644C41.3097 23.5644 44.4834 19.9565 44.4834 14.7892C44.4834 9.53987 41.4703 6.01238 36.9868 6.01238H36.9866ZM36.0387 19.5084C33.5441 19.5084 32.4036 17.1081 32.4036 14.8843C32.4036 11.3814 34.3146 10.133 36.1047 10.133C38.2979 10.133 39.7726 12.0282 39.7726 14.8515C39.7726 18.071 37.8994 19.5084 36.0387 19.5084ZM53.0484 6.01238C48.0429 6.01238 44.5428 9.62202 44.5428 14.7892C44.5428 19.8726 48.3195 23.5644 53.5235 23.5644C57.6175 23.5644 60.1187 21.1358 60.2243 21.0331L60.411 20.8485L58.3877 17.482L58.0867 17.7673C58.0674 17.7818 56.2308 19.4782 53.805 19.4782C51.4765 19.4782 49.7722 18.0539 49.3704 15.8197H60.3879L60.4143 15.5145C60.4214 15.4728 60.5136 14.4819 60.5136 13.9977C60.5136 9.22197 57.5134 6.01212 53.0484 6.01212V6.01238ZM49.543 12.3652C50.0473 10.7174 51.3075 9.78377 53.0484 9.78377C54.4468 9.78377 55.5248 10.8499 55.7139 12.3652H49.543ZM77.4119 18.7711V2.55609C77.4119 0.884663 76.5965 0.0703125 74.9279 0.0703125H70.7751V4.15911H72.3739C72.6429 4.15911 72.7317 4.24634 72.7317 4.51694V7.44804C72.046 6.82749 70.7066 6.01212 68.4012 6.01212C63.8924 6.01212 60.746 9.62202 60.746 14.7889C60.746 20.0384 63.7609 23.5644 68.2444 23.5644C70.8083 23.5644 72.2853 22.3716 73.007 21.5412C73.1009 22.2661 73.5692 23.1834 75.3081 23.1834H79.3335V19.1307H77.7679C77.5103 19.1307 77.4119 19.0275 77.4119 18.7711ZM69.126 19.5087C66.9164 19.5087 65.4869 17.6554 65.4869 14.7892C65.4869 12.003 66.9742 10.133 69.1895 10.133C71.7006 10.133 72.8261 12.4537 72.8261 14.7586C72.8261 18.2622 70.9131 19.5084 69.126 19.5084V19.5087ZM89.6967 6.16955C87.763 6.16955 85.9825 7.28833 84.9272 9.07039V8.68661C84.9272 7.16498 84.0888 6.39158 82.444 6.39158H78.4496V10.4809H80.0471C80.3161 10.4809 80.4052 10.5668 80.4052 10.8377V23.1839H85.0508V16.4634C85.0508 15.5783 85.1635 14.7261 85.3833 13.9389C86.0822 11.6213 87.9411 10.7962 89.4442 10.7962C89.9772 10.7962 90.3654 10.853 90.3713 10.8547L90.7596 10.9132V6.28476L90.4769 6.23669C90.4626 6.23415 90.0693 6.16955 89.6967 6.16955ZM97.3725 18.7711V8.87812C97.3725 7.20542 96.5726 6.39183 94.9241 6.39183H91.1679V10.4809H92.3685C92.6395 10.4809 92.7256 10.5673 92.7256 10.8374V20.6976C92.7256 22.394 93.5054 23.1834 95.1766 23.1834H99.3296V19.1305H97.7298C97.4722 19.1305 97.3725 19.0277 97.3725 18.7714" fill="#231F1F"/>
<path d="M114.831 10.4838V6.39479H112.352C110.904 6.39479 110.127 6.89784 109.668 8.13437L106.639 16.6123C106.531 16.9435 106.435 17.2786 106.353 17.6172C106.264 17.2774 106.16 16.9208 106.045 16.606L103.016 8.13132C102.552 6.88207 101.801 6.39453 100.333 6.39453H97.6978V10.4838H98.3817C98.7441 10.4838 98.8606 10.6069 98.9471 10.8343L103.635 23.1864H108.86L113.549 10.8343C113.634 10.6069 113.754 10.4838 114.118 10.4838H114.831Z" fill="#231F1F"/>
<path d="M129.763 15.5182C129.767 15.4763 129.861 14.4852 129.861 14.0012C129.861 9.22547 126.86 6.01562 122.394 6.01562C117.388 6.01562 113.891 9.62552 113.891 14.7924C113.891 19.8764 117.663 23.5679 122.869 23.5679C126.963 23.5679 129.466 21.1393 129.57 21.0366L129.759 20.852L127.739 17.4855L127.432 17.7708C127.416 17.7853 125.57 19.4817 123.153 19.4817C120.823 19.4817 119.118 18.0574 118.715 15.8232H129.736L129.763 15.518V15.5182ZM118.889 12.3689C119.397 10.7209 120.653 9.78702 122.394 9.78702C123.796 9.78702 124.87 10.8534 125.06 12.3689H118.889H118.889Z" fill="#231F1F"/>
<path d="M89.6968 6.16955C88.195 6.16955 86.7962 6.85038 85.7463 7.9834C86.6332 7.97552 87.5258 7.96814 88.4183 7.96814C89.2025 7.96814 89.98 7.97552 90.7599 7.98009V6.28476L90.477 6.23669C90.4627 6.23415 90.0694 6.16955 89.6968 6.16955ZM109.669 8.13142L109.478 8.67033C111.274 8.79419 113.057 8.93076 114.832 9.08361V6.39183H112.353C110.905 6.39183 110.127 6.89489 109.669 8.13142ZM11.2343 6.01238C8.62346 6.01238 7.11298 7.18634 6.38514 7.99713C6.2981 7.2985 5.8385 6.39183 4.04353 6.39183H0.145508V10.4809H1.74304C2.01331 10.4809 2.10036 10.5673 2.10036 10.8374V21.2419C4.27184 20.486 6.45645 19.7685 8.65315 19.0898C7.28783 18.3067 6.65237 16.5471 6.65237 14.8838C6.65237 11.3817 8.56382 10.133 10.3524 10.133C12.5459 10.133 14.0211 12.0282 14.0211 14.8515C14.0211 16.0371 13.7642 16.9776 13.3496 17.6964C15.1044 17.198 16.8652 16.7212 18.6317 16.2663C18.6896 15.7894 18.7324 15.2983 18.7324 14.7892C18.7324 9.53987 15.7176 6.01238 11.2343 6.01238ZM22.3978 6.39183H18.2462V10.4809H19.8455C20.1145 10.4809 20.2008 10.5673 20.2008 10.8377V15.8741C21.7465 15.4879 23.2962 15.1177 24.8495 14.7635V8.87812C24.8495 7.20593 24.045 6.39183 22.3978 6.39183ZM20.3896 0.0703125H24.532V4.44319H20.3896V0.0703125ZM36.9872 6.01238C34.3753 6.01238 32.8676 7.18634 32.136 7.99713C32.0489 7.2985 31.5919 6.39183 29.7966 6.39183H25.8966V10.4809H27.4954C27.7646 10.4809 27.8525 10.5673 27.8525 10.8374V14.0992C29.4383 13.7624 31.027 13.4393 32.6184 13.1302C33.1508 10.9689 34.6595 10.133 36.1048 10.133C37.413 10.133 38.4555 10.8166 39.0913 11.959C40.6951 11.6912 42.3092 11.4331 43.9377 11.1887C42.8794 7.99154 40.3447 6.01212 36.9872 6.01212V6.01238ZM53.0485 6.01238C49.3913 6.01238 46.5462 7.94195 45.2753 10.9954C47.2502 10.7103 49.2457 10.444 51.2586 10.1968C51.7736 9.92797 52.373 9.78403 53.0485 9.78403C53.3046 9.78403 53.5424 9.83184 53.7728 9.89796C55.599 9.69094 57.4419 9.5002 59.2993 9.32548C58.0226 7.24865 55.818 6.01212 53.0485 6.01212V6.01238ZM74.928 0.0703125H70.7752V4.15911H72.374C72.6425 4.15911 72.7318 4.24634 72.7318 4.51694V7.44804C72.0461 6.82749 70.7066 6.01212 68.4013 6.01212C65.8778 6.01212 63.7818 7.14311 62.4244 9.0475C67.4122 8.62862 72.4096 8.3319 77.412 8.15761V2.55609C77.412 0.884663 76.5966 0.0703125 74.928 0.0703125ZM82.4446 6.39183H78.4494V8.12862C80.5692 8.06097 82.6987 8.01265 84.8464 7.98823C84.6111 6.93253 83.8112 6.39183 82.4446 6.39183ZM92.9147 0.0703125H97.0572V4.44319H92.9147V0.0703125ZM94.9244 6.39183H91.1685V7.98289C93.22 8.00146 95.2619 8.03884 97.2929 8.09454C97.062 6.9572 96.2874 6.39183 94.9244 6.39183ZM100.333 6.39183H97.6982V8.107C99.502 8.16041 101.295 8.22653 103.078 8.30792L103.017 8.12862C102.552 6.87937 101.802 6.39183 100.333 6.39183ZM122.394 6.01238C119.54 6.01238 117.18 7.18863 115.674 9.15508C117.856 9.34709 120.025 9.56251 122.169 9.79954C122.5 9.83591 122.824 9.86948 123.149 9.90763C125.219 10.1421 127.266 10.4 129.295 10.6775C128.232 7.7952 125.72 6.01212 122.394 6.01212" fill="#3B3B3C"/>
</g>
<defs>
<clipPath id="clip0">
<rect width="130" height="29.7561" fill="white"/>
</clipPath>
</defs>
</svg>
