<svg width="130" height="36" viewBox="0 0 130 36" fill="none" xmlns="http://www.w3.org/2000/svg">
<g clip-path="url(#clip0)">
<path d="M64.1036 25.4326C64.2276 25.4326 64.3335 25.4763 64.4205 25.563L65.1663 26.3648C64.6193 26.9493 64.0227 27.4741 63.3766 27.9402C62.7301 28.4064 62.0248 28.8044 61.2603 29.1336C60.4957 29.463 59.6568 29.7179 58.7433 29.8979C57.8296 30.0782 56.8258 30.1683 55.7323 30.1683C53.9049 30.1683 52.2299 29.8485 50.7074 29.2082C49.1847 28.5681 47.8796 27.6606 46.792 26.4861C45.7042 25.3116 44.856 23.8914 44.2472 22.2257C43.638 20.5603 43.3335 18.7082 43.3335 16.6696C43.3335 14.6686 43.6472 12.8414 44.2749 11.1881C44.9026 9.53502 45.7852 8.11504 46.9226 6.92775C48.0599 5.7411 49.421 4.82101 51.0057 4.16856C52.5906 3.51589 54.34 3.18966 56.2541 3.18966C57.2111 3.18966 58.0875 3.26125 58.8831 3.40402C59.6783 3.547 60.4214 3.75219 61.1111 4.01919C61.8008 4.28682 62.4503 4.61901 63.0595 5.01662C63.6683 5.41466 64.2649 5.87449 64.8494 6.39654L64.2713 7.23544C64.1718 7.3846 64.0165 7.45917 63.8053 7.45917C63.6934 7.45917 63.5503 7.39397 63.3766 7.26335C63.2023 7.13295 62.9818 6.97143 62.7145 6.77859C62.4471 6.58618 62.1241 6.37502 61.745 6.14467C61.3657 5.91476 60.9153 5.7036 60.3934 5.51097C59.8712 5.31834 59.2682 5.15662 58.5848 5.026C57.901 4.89559 57.1241 4.83017 56.2541 4.83017C54.6507 4.83017 53.1779 5.10697 51.8355 5.65991C50.493 6.21329 49.3371 7.00254 48.3675 8.02789C47.398 9.05345 46.6429 10.2964 46.1023 11.7568C45.5615 13.2175 45.2911 14.855 45.2911 16.6696C45.2911 18.5341 45.5583 20.1997 46.0929 21.6664C46.6271 23.1332 47.3669 24.373 48.3115 25.3859C49.2561 26.3991 50.3718 27.176 51.6584 27.7166C52.9448 28.2574 54.34 28.5276 55.8439 28.5276C56.7885 28.5276 57.6306 28.4656 58.3705 28.3412C59.1098 28.2169 59.7902 28.0305 60.412 27.7818C61.0333 27.5334 61.6114 27.2291 62.146 26.8681C62.6802 26.508 63.2087 26.0851 63.7307 25.6005C63.7927 25.5511 63.8518 25.5104 63.9078 25.4793C63.9638 25.4484 64.029 25.4326 64.1036 25.4326ZM71.0098 29.87V2.74219H72.7809V29.87H71.0098ZM86.836 28.7141C87.9421 28.7141 88.9085 28.5248 89.7352 28.1453C90.5618 27.7665 91.2515 27.2225 91.8047 26.514C92.3576 25.8055 92.7712 24.951 93.0446 23.9504C93.318 22.95 93.455 21.8281 93.455 20.585C93.455 19.3547 93.318 18.236 93.0446 17.229C92.7712 16.2222 92.3576 15.3615 91.8047 14.6468C91.2515 13.932 90.5618 13.382 89.7352 12.9967C88.9085 12.6115 87.9421 12.4186 86.836 12.4186C85.7295 12.4186 84.7634 12.6115 83.9368 12.9967C83.1099 13.382 82.4201 13.932 81.8672 14.6468C81.314 15.3615 80.8976 16.2222 80.6179 17.229C80.3383 18.236 80.1985 19.3547 80.1985 20.585C80.1985 21.8281 80.3383 22.95 80.6179 23.9504C80.8976 24.951 81.314 25.8055 81.8672 26.514C82.4201 27.2225 83.1099 27.7665 83.9368 28.1453C84.7634 28.5248 85.7295 28.7141 86.836 28.7141ZM86.836 11.0202C88.1659 11.0202 89.3559 11.2473 90.4064 11.701C91.4567 12.1549 92.3423 12.7979 93.0633 13.6304C93.7842 14.4634 94.3342 15.467 94.7134 16.6417C95.0923 17.8164 95.2819 19.1307 95.2819 20.585C95.2819 22.0393 95.0923 23.3508 94.7134 24.5191C94.3342 25.6875 93.7842 26.6881 93.0633 27.5208C92.3423 28.3537 91.4567 28.9938 90.4064 29.4411C89.3559 29.8888 88.1659 30.1125 86.836 30.1125C85.5058 30.1125 84.3157 29.8888 83.2654 29.4411C82.2151 28.9938 81.3266 28.3537 80.5993 27.5208C79.8721 26.6881 79.3189 25.6875 78.9399 24.5191C78.5606 23.3508 78.3714 22.0393 78.3714 20.585C78.3714 19.1307 78.5606 17.8164 78.9399 16.6417C79.3189 15.467 79.8721 14.4634 80.5993 13.6304C81.3266 12.7979 82.2151 12.1549 83.2654 11.701C84.3157 11.2473 85.5058 11.0202 86.836 11.0202ZM110.16 13.6304C110.073 13.805 109.936 13.8917 109.75 13.8917C109.613 13.8917 109.436 13.8141 109.218 13.6586C109.001 13.5034 108.715 13.3294 108.361 13.1365C108.006 12.9441 107.571 12.77 107.056 12.6145C106.539 12.4591 105.909 12.3814 105.163 12.3814C104.492 12.3814 103.879 12.4775 103.327 12.6699C102.773 12.8621 102.301 13.1193 101.909 13.4417C101.518 13.7636 101.213 14.1386 100.996 14.5663C100.778 14.994 100.67 15.4436 100.67 15.9145C100.67 16.497 100.819 16.9807 101.117 17.3651C101.415 17.7493 101.807 18.0775 102.292 18.3504C102.776 18.6229 103.327 18.8586 103.942 19.057C104.557 19.2556 105.188 19.454 105.834 19.6528C106.48 19.8516 107.111 20.0723 107.727 20.3146C108.342 20.5571 108.892 20.8586 109.377 21.2189C109.861 21.5797 110.253 22.0205 110.551 22.5426C110.85 23.0648 110.999 23.6985 110.999 24.4443C110.999 25.2526 110.852 26.0043 110.561 26.7004C110.268 27.3968 109.846 27.9996 109.293 28.5089C108.74 29.0188 108.059 29.4226 107.251 29.7209C106.443 30.0192 105.523 30.1683 104.492 30.1683C103.187 30.1683 102.062 29.9602 101.117 29.5438C100.172 29.1274 99.3271 28.5837 98.5813 27.9125L99.0102 27.2785C99.0722 27.179 99.1406 27.1047 99.2154 27.0546C99.2898 27.0051 99.3955 26.9802 99.5323 26.9802C99.6938 26.9802 99.8928 27.0797 100.129 27.2785C100.365 27.4776 100.673 27.6917 101.052 27.9218C101.431 28.152 101.903 28.3663 102.469 28.5649C103.034 28.7639 103.733 28.8632 104.566 28.8632C105.349 28.8632 106.039 28.7545 106.636 28.537C107.233 28.3197 107.73 28.0243 108.128 27.6514C108.525 27.2785 108.827 26.8402 109.032 26.3369C109.237 25.8336 109.34 25.3022 109.34 24.7429C109.34 24.1215 109.19 23.6054 108.892 23.1953C108.594 22.7851 108.202 22.4371 107.717 22.1512C107.233 21.8654 106.683 21.6229 106.067 21.4239C105.452 21.2253 104.818 21.0263 104.166 20.8275C103.513 20.6287 102.879 20.4109 102.264 20.1748C101.649 19.9389 101.098 19.6404 100.614 19.2799C100.129 18.9196 99.7375 18.4815 99.4392 17.9654C99.1406 17.4497 98.9917 16.8064 98.9917 16.0357C98.9917 15.3769 99.1345 14.7432 99.4204 14.134C99.7064 13.5252 100.113 12.9906 100.642 12.5305C101.17 12.0709 101.813 11.704 102.571 11.4306C103.329 11.1572 104.181 11.0202 105.126 11.0202C106.257 11.0202 107.261 11.1845 108.137 11.5118C109.013 11.8395 109.818 12.3404 110.551 13.0155L110.16 13.6304ZM122.357 12.3441C121.401 12.3441 120.544 12.4932 119.787 12.7915C119.03 13.0899 118.376 13.5188 117.823 14.0781C117.271 14.6375 116.824 15.3085 116.483 16.0918C116.141 16.8748 115.915 17.751 115.803 18.7205H128.016C128.016 17.7263 127.879 16.8346 127.606 16.0451C127.333 15.2558 126.948 14.5878 126.452 14.0408C125.955 13.4941 125.36 13.0745 124.665 12.7824C123.97 12.4905 123.2 12.3441 122.357 12.3441ZM122.329 11.0202C123.373 11.0202 124.34 11.2007 125.228 11.561C126.117 11.9217 126.888 12.4468 127.54 13.1365C128.193 13.8263 128.703 14.6748 129.069 15.6814C129.436 16.6884 129.619 17.8443 129.619 19.1495C129.619 19.4231 129.579 19.6095 129.498 19.7088C129.417 19.8083 129.29 19.858 129.116 19.858H115.729V20.2121C115.729 21.6044 115.89 22.8288 116.214 23.885C116.537 24.9417 116.997 25.8272 117.593 26.5419C118.19 27.2568 118.911 27.7944 119.756 28.1547C120.601 28.5155 121.546 28.6953 122.59 28.6953C123.522 28.6953 124.33 28.5928 125.014 28.3878C125.697 28.1826 126.273 27.9529 126.739 27.6981C127.205 27.4432 127.574 27.2131 127.848 27.0079C128.121 26.8032 128.32 26.7004 128.445 26.7004C128.606 26.7004 128.73 26.7629 128.818 26.8869L129.302 27.4835C129.004 27.8564 128.609 28.2046 128.118 28.5276C127.627 28.8511 127.08 29.1274 126.478 29.3574C125.874 29.5875 125.228 29.7707 124.539 29.9073C123.849 30.0439 123.156 30.1125 122.46 30.1125C121.192 30.1125 120.036 29.8918 118.992 29.4505C117.948 29.0094 117.052 28.3663 116.304 27.5208C115.556 26.6757 114.978 25.6408 114.57 24.4164C114.162 23.1923 113.958 21.7908 113.958 20.2121C113.958 18.8823 114.147 17.6549 114.526 16.5298C114.905 15.405 115.452 14.4357 116.167 13.6213C116.882 12.8073 117.758 12.1702 118.796 11.7102C119.834 11.2503 121.012 11.0202 122.329 11.0202Z" fill="#262E39"/>
<path d="M35.1043 18.2833V16.8203C35.1043 15.5718 34.5817 14.3841 33.6417 13.309C33.1316 12.7259 32.4981 12.1757 31.7592 11.6669C31.3415 11.3802 30.8905 11.1064 30.4085 10.8467C30.0551 10.6567 29.685 10.4742 29.2985 10.3002C28.292 9.84635 27.18 9.44972 25.9824 9.12109C26.1226 9.62982 26.2494 10.1539 26.3637 10.6918C26.4756 11.219 26.575 11.7589 26.6612 12.3104C27.3064 12.5214 27.9241 12.7559 28.5107 13.0124C28.7834 13.1322 29.0504 13.2561 29.3092 13.3855C29.4477 13.4546 29.5824 13.5248 29.7149 13.5961C30.1756 13.8438 30.6001 14.1038 30.9853 14.3732C32.384 15.3487 33.2734 16.4473 33.5489 17.5517C33.2734 18.656 32.384 19.7542 30.9853 20.7302C31.1353 21.1264 31.2687 21.5169 31.3839 21.9015C31.5414 22.4255 31.6664 22.9382 31.7592 23.4364C32.4981 22.9277 33.1316 22.3775 33.6417 21.7944C34.5817 20.719 35.1043 19.5315 35.1043 18.2833Z" fill="#2F577E"/>
<path d="M13.7017 26.8494C13.1012 26.3705 12.505 25.8602 11.9175 25.3203C12.0377 25.7797 12.1687 26.2285 12.311 26.6646C12.7669 26.7357 13.2309 26.7967 13.7017 26.8494Z" fill="#2F577E"/>
<path d="M16.8548 25.5919C17.0869 25.7595 17.3194 25.9227 17.5526 26.0811C17.9964 26.3819 18.4418 26.6651 18.8875 26.9301C18.9441 26.9637 19.0012 26.9961 19.0576 27.029C19.8556 26.9952 20.6386 26.9347 21.4036 26.8487C21.8743 26.7961 22.3383 26.7351 22.7933 26.664C23.3452 26.5776 23.8853 26.478 24.4125 26.3661C24.9504 26.252 25.4741 26.1245 25.9828 25.9852C27.1804 25.6564 28.2924 25.2598 29.2989 24.8061C29.2168 24.3428 29.1003 23.8593 28.9496 23.3578C28.9064 23.2139 28.861 23.0693 28.8121 22.9226C28.7204 22.6479 28.6197 22.3715 28.5111 22.0938C27.9245 22.3504 27.3067 22.5852 26.6615 22.7958C26.2256 22.9381 25.777 23.0693 25.3174 23.1895C25.2536 23.2064 25.1897 23.2238 25.1259 23.2398C24.6229 23.3674 24.1084 23.4826 23.5813 23.5835C23.3044 23.6368 23.0245 23.6855 22.7422 23.7314C21.9276 23.8628 21.0912 23.9637 20.2352 24.0311C19.3574 24.1013 18.4609 24.137 17.5526 24.137C16.644 24.137 15.7478 24.1013 14.8701 24.0311C15.5223 24.5883 16.1861 25.1093 16.8548 25.5919Z" fill="#2F577E"/>
<path d="M6.15491 11.7491C6.19813 11.8933 6.24398 12.0381 6.2929 12.1846C6.38416 12.459 6.48529 12.7357 6.59366 13.0132C7.18049 12.7567 7.79781 12.5222 8.44255 12.3112C8.87889 12.169 9.32751 12.0381 9.78754 11.9176C9.85094 11.9005 9.91478 11.8836 9.97862 11.8674C10.4814 11.7397 10.9965 11.6245 11.5232 11.5236C11.8001 11.4705 12.08 11.4214 12.3623 11.3762C13.1769 11.2441 14.0138 11.1437 14.8698 11.0759C15.7475 11.0061 16.6437 10.9704 17.5523 10.9704C18.4605 10.9704 19.3571 11.0061 20.2348 11.0759C19.5822 10.5191 18.9188 9.9981 18.2502 9.51503C18.0181 9.34787 17.7853 9.18422 17.5523 9.02627C17.1081 8.72506 16.6628 8.44229 16.217 8.17728C16.1602 8.14328 16.1038 8.11103 16.0474 8.07812C15.2487 8.11169 14.4655 8.17268 13.7014 8.25823C13.2306 8.31088 12.7667 8.37209 12.3108 8.44317C11.7593 8.52982 11.2196 8.6292 10.6925 8.74086C10.1546 8.85515 9.63003 8.98261 9.1213 9.12191C7.92461 9.45054 6.8126 9.84717 5.80566 10.3011C5.88771 10.7644 6.00376 11.2477 6.15491 11.7491Z" fill="#2F577E"/>
<path d="M21.4033 8.26172C22.0033 8.74083 22.5996 9.25132 23.1875 9.7912C23.0668 9.33139 22.9359 8.88277 22.7931 8.44665C22.3381 8.37557 21.8741 8.31437 21.4033 8.26172Z" fill="#2F577E"/>
<path d="M1.55581 17.5527C1.83134 16.4484 2.72047 15.3497 4.11899 14.3742C3.9685 13.978 3.83599 13.5875 3.72082 13.2027C3.56243 12.6786 3.43783 12.166 3.34547 11.668C2.60618 12.1767 1.97262 12.7269 1.46257 13.31C0.522771 14.3851 0 15.5728 0 16.8213V18.2843C0 19.5326 0.522771 20.72 1.46257 21.7954C1.97262 22.3785 2.60618 22.9287 3.34547 23.4375C3.76272 23.7242 4.21398 23.998 4.69616 24.2573C5.04914 24.4479 5.41966 24.63 5.80576 24.8042C6.8127 25.2578 7.92471 25.6545 9.1214 25.9833C8.9821 25.4746 8.85486 24.9503 8.74057 24.4126C8.62912 23.8856 8.52931 23.3458 8.44265 22.7938C7.79791 22.5832 7.18059 22.3485 6.59376 22.0918C6.3213 21.9722 6.0541 21.8485 5.79502 21.7189C5.65659 21.6495 5.52233 21.5796 5.38983 21.5085C4.9287 21.2604 4.50443 21.0004 4.11899 20.7312C2.72047 19.7552 1.83134 18.657 1.55581 17.5527Z" fill="#2F577E"/>
<path d="M21.4031 26.8438C20.6382 26.9297 19.8552 26.9903 19.0571 27.0241C19.4678 27.2639 19.8776 27.4894 20.2874 27.6969C20.6601 27.4247 21.0328 27.1399 21.4031 26.8438Z" fill="#F4B563"/>
<path d="M30.4807 5.66134L29.4463 4.62698C28.5633 3.74422 27.3539 3.2741 25.9291 3.17845C25.1562 3.12646 24.3193 3.18591 23.4368 3.3489C22.9388 3.44126 22.4257 3.56609 21.902 3.7236C21.5175 3.83943 21.1267 3.97215 20.7308 4.12242C19.6977 4.51313 18.6311 5.01857 17.5522 5.63348C18.0101 5.8941 18.4708 6.1749 18.9319 6.47434C19.3836 6.76765 19.8362 7.0796 20.2874 7.40822C20.8927 7.1011 21.4946 6.83039 22.0913 6.59719C22.3686 6.4886 22.6453 6.38791 22.9197 6.29621C23.0667 6.24729 23.2112 6.20166 23.3556 6.15844C23.8569 6.00751 24.3399 5.89124 24.8037 5.80898C26.4821 5.51019 27.8877 5.65849 28.863 6.24444" fill="#F4B563"/>
<path d="M28.8633 6.24076C29.4499 7.21654 29.5975 8.62186 29.2987 10.3005C29.6853 10.4745 30.0554 10.657 30.4088 10.847C30.8907 11.1067 31.3418 11.3805 31.7595 11.6672C31.9218 10.7847 31.9817 9.9482 31.9295 9.17491C31.8341 7.75006 31.3633 6.54087 30.481 5.65766C30.3068 5.48392 30.1196 5.32641 29.9207 5.18359" fill="#F4B563"/>
<path d="M22.7419 23.7356C23.0242 23.6897 23.3041 23.641 23.581 23.5877C24.1082 23.4868 24.6226 23.3716 25.1256 23.244C25.1895 23.2279 25.2533 23.2106 25.3171 23.1937C25.857 22.6062 26.3671 22.01 26.8464 21.4098C27.1423 21.0394 27.4269 20.667 27.6995 20.2938C28.0282 19.8428 28.3397 19.3902 28.6334 18.9387C28.9327 18.4776 29.2137 18.0176 29.4747 17.5588C30.0892 16.4795 30.5946 15.4131 30.9853 14.3803C30.6001 14.1109 30.1756 13.851 29.7149 13.6033C29.5824 13.532 29.4477 13.4618 29.3093 13.3927C29.0505 13.2633 28.7835 13.1393 28.5108 13.0195C28.2772 13.6162 28.0062 14.2186 27.6995 14.8239C27.4916 15.2332 27.2663 15.6433 27.0267 16.0539C26.9936 16.1105 26.9611 16.1673 26.9276 16.2237C26.6626 16.6695 26.3796 17.1148 26.0788 17.5588C25.9195 17.792 25.7572 18.0246 25.5898 18.2569C25.1065 18.9256 24.5857 19.5889 24.0285 20.2416C23.4573 20.9118 22.8485 21.571 22.2062 22.2133C21.5645 22.8557 20.9053 23.464 20.2349 24.0352C21.0909 23.9679 21.9273 23.867 22.7419 23.7356Z" fill="#F4B563"/>
<path d="M13.7017 8.2594C14.4657 8.17384 15.2489 8.11286 16.0477 8.07929C15.6365 7.8393 15.2268 7.61422 14.817 7.40625C14.4442 7.67871 14.0722 7.96346 13.7017 8.2594Z" fill="#F4B563"/>
<path d="M6.24074 28.8681C5.65501 27.8919 5.50649 26.4861 5.80572 24.8081C5.41962 24.6339 5.04909 24.4518 4.69612 24.2612C4.21393 24.0019 3.76268 23.7281 3.34542 23.4414C3.18221 24.3242 3.1232 25.1606 3.17497 25.9337C3.27084 27.3588 3.74074 28.568 4.62372 29.4512L5.6583 30.4851C6.54084 31.3679 7.75026 31.838 9.1751 31.9339C9.9484 31.9859 10.7849 31.9266 11.6674 31.7632C12.1656 31.671 12.6785 31.5462 13.2026 31.3885C13.5872 31.2729 13.9774 31.1402 14.3736 30.9901C15.4065 30.599 16.4731 30.0935 17.5524 29.4791C17.0941 29.218 16.6334 28.937 16.1721 28.638C15.721 28.3444 15.2685 28.0327 14.8168 27.7039C14.212 28.0114 13.6096 28.2821 13.0129 28.5153C12.7351 28.6235 12.4585 28.7246 12.1845 28.8161C12.0375 28.8652 11.8929 28.9106 11.749 28.9541C11.2473 29.1048 10.7643 29.2208 10.3005 29.3033C8.62206 29.6021 7.21696 29.4538 6.24074 28.8681Z" fill="#F4B563"/>
<path d="M5.38949 21.5066C5.522 21.5777 5.65625 21.6477 5.79468 21.717C6.05376 21.8466 6.32096 21.9704 6.59342 22.0899C6.8264 21.4934 7.09733 20.8913 7.40489 20.2858C7.61242 19.8764 7.83772 19.4664 8.07728 19.0557C8.1104 18.9994 8.14309 18.9425 8.17644 18.886C8.44144 18.4404 8.72443 17.9946 9.02586 17.5508C9.18403 17.3176 9.34724 17.0851 9.51462 16.853C9.99747 16.1843 10.5183 15.521 11.0755 14.8683C11.647 14.1979 12.2551 13.5389 12.8983 12.8968C13.5395 12.254 14.1992 11.6457 14.8696 11.0742C14.0136 11.142 13.1767 11.2425 12.3621 11.3745C12.0798 11.4197 11.7999 11.4689 11.523 11.522C10.9963 11.6229 10.4812 11.738 9.97838 11.8657C9.91455 11.882 9.85071 11.8988 9.78731 11.916C9.24699 12.5034 8.73694 13.0995 8.2576 13.6999C7.96167 14.0702 7.67714 14.4427 7.40445 14.8159C7.07583 15.2669 6.76432 15.7193 6.47035 16.1707C6.17135 16.6323 5.89033 17.0921 5.62971 17.5508C5.0148 18.6299 4.50936 19.6965 4.11865 20.7294C4.50409 20.9985 4.92837 21.2585 5.38949 21.5066Z" fill="#F4B563"/>
<path d="M8.25798 21.4007C8.17265 20.6366 8.11122 19.853 8.07766 19.0547C7.8381 19.4654 7.6128 19.8754 7.40527 20.2847C7.67752 20.6579 7.96205 21.0304 8.25798 21.4007Z" fill="#5CAFCD"/>
<path d="M6.24074 6.24444C7.21696 5.65849 8.62249 5.51019 10.3005 5.8092C10.4745 5.4231 10.6572 5.05279 10.8474 4.69938C11.1069 4.21719 11.3803 3.76616 11.6674 3.3489C10.7849 3.18591 9.9484 3.12646 9.1751 3.17845C7.75026 3.2741 6.54084 3.74422 5.6583 4.62698C5.48411 4.80139 5.32682 4.98873 5.18379 5.18727C5.32682 4.98873 5.48411 4.80139 5.6583 4.62698L4.62372 5.66134C3.74074 6.54454 3.27084 7.75374 3.17497 9.17858C3.1232 9.95188 3.18221 10.7884 3.34542 11.6709C3.43778 12.1689 3.56239 12.6816 3.72077 13.2057C3.83595 13.5904 3.96845 13.9809 4.11894 14.3771C4.50965 15.4099 5.01509 16.4763 5.63 17.5556C5.89061 17.0969 6.17163 16.6371 6.47064 16.1756C6.76461 15.7241 7.07612 15.2717 7.40474 14.8207C7.09762 14.2154 6.82669 13.613 6.59371 13.0163C6.48534 12.7388 6.38421 12.4622 6.29295 12.1878C6.24403 12.0412 6.19818 11.8964 6.15496 11.7523C6.00381 11.2508 5.88776 10.7675 5.80572 10.3042C5.50649 8.62576 5.65501 7.22022 6.24074 6.24444Z" fill="#5CAFCD"/>
<path d="M26.8462 13.7031C26.932 14.4674 26.9925 15.2506 27.0265 16.0491C27.2661 15.6385 27.4914 15.2284 27.6993 14.8191C27.4267 14.4459 27.1421 14.0734 26.8462 13.7031Z" fill="#5CAFCD"/>
<path d="M23.7285 12.3609C23.6827 12.0781 23.634 11.7984 23.5809 11.5215C23.4797 10.9946 23.365 10.4797 23.2371 9.9767C23.2209 9.91286 23.2038 9.84946 23.1873 9.78562C22.5994 9.24574 22.0031 8.73525 21.4031 8.25614C21.0328 7.9602 20.6601 7.67545 20.2874 7.40299C19.8361 7.07437 19.3836 6.76241 18.9319 6.46911C18.4708 6.16966 18.0101 5.88886 17.5522 5.62824C16.4729 5.01334 15.4063 4.50789 14.3735 4.11719C14.1041 4.50263 13.8439 4.9269 13.5965 5.38781C13.5256 5.52009 13.4552 5.65501 13.3856 5.79299C13.2564 6.05208 13.1325 6.31928 13.0127 6.59218C13.6094 6.82516 14.2118 7.09586 14.8166 7.40299C15.2264 7.61096 15.6362 7.83604 16.0473 8.07603C16.1037 8.10894 16.1601 8.14119 16.2169 8.17519C16.6627 8.4402 17.108 8.72297 17.5522 9.02417C17.7852 9.18212 18.018 9.34578 18.2501 9.51294C18.9187 9.996 19.5821 10.517 20.2347 11.0738C20.9052 11.6453 21.5644 12.2536 22.2061 12.8964C22.8484 13.5385 23.4571 14.1975 24.0284 14.8679C23.9608 14.0123 23.8601 13.1748 23.7285 12.3609Z" fill="#5CAFCD"/>
<path d="M11.376 22.7412C11.4212 23.0242 11.4701 23.3039 11.5232 23.5805C11.6239 24.1074 11.7391 24.6225 11.8668 25.1251C11.8832 25.1894 11.9003 25.2528 11.9172 25.3166C12.5047 25.8565 13.101 26.3668 13.7014 26.8457C14.0719 27.1418 14.444 27.4266 14.8167 27.6988C15.2684 28.0277 15.721 28.3394 16.172 28.6329C16.6333 28.9319 17.094 29.213 17.5523 29.474C18.6312 30.0885 19.6978 30.5939 20.7308 30.9851C21 30.5996 21.2602 30.1751 21.5076 29.7142C21.5785 29.582 21.6489 29.447 21.718 29.309C21.8479 29.05 21.9716 28.7828 22.0914 28.5103C21.4947 28.2771 20.8927 28.0064 20.2875 27.6988C19.8777 27.4913 19.4679 27.2658 19.0572 27.026C19.0008 26.9931 18.9438 26.9606 18.8872 26.9271C18.4414 26.6621 17.9961 26.3789 17.5523 26.0781C17.3191 25.9197 17.0866 25.7565 16.8545 25.5889C16.1858 25.1063 15.522 24.5852 14.8698 24.028C14.1994 23.4568 13.5397 22.8484 12.8985 22.2057C12.2553 21.5638 11.6472 20.9046 11.0757 20.2344C11.1433 21.0897 11.2444 21.9269 11.376 22.7412Z" fill="#5CAFCD"/>
<path d="M29.4466 30.4831L30.4809 29.4492C31.3633 28.566 31.834 27.3568 31.9295 25.9318C31.9817 25.1587 31.9218 24.3222 31.7594 23.4394C31.6667 22.9412 31.5416 22.4285 31.3841 21.9045C31.2689 21.5199 31.1355 21.1294 30.9855 20.7332C30.5948 19.7004 30.0893 18.6338 29.4749 17.5547C29.2138 18.0134 28.9328 18.4734 28.6336 18.9346C28.3398 19.386 28.0283 19.8386 27.6997 20.2896C28.0064 20.8951 28.2773 21.4973 28.5109 22.0938C28.6195 22.3715 28.7202 22.6479 28.8119 22.9226C28.8608 23.0693 28.9063 23.2139 28.9495 23.3578C29.1002 23.8593 29.2167 24.3428 29.2987 24.8061C29.5975 26.4841 29.4499 27.8899 28.8633 28.8661C27.8879 29.4518 26.4824 29.6001 24.8039 29.3014C24.63 29.6872 24.4472 30.0578 24.257 30.4112C23.9975 30.8931 23.7237 31.344 23.437 31.7612C24.3196 31.9246 25.1565 31.9839 25.9293 31.9319C27.3542 31.836 28.5636 31.3659 29.4466 30.4831Z" fill="#5CAFCD"/>
<path d="M9.51498 16.8558C9.3476 17.0879 9.18438 17.3204 9.02621 17.5536C8.72479 17.9974 8.4418 18.4432 8.17679 18.8887C8.14345 18.9453 8.11076 19.0021 8.07764 19.0585C8.1112 19.8568 8.17263 20.6404 8.25796 21.4045C8.31083 21.8753 8.37182 22.3397 8.44268 22.7947C8.52933 23.3467 8.62915 23.8865 8.74059 24.4135C8.85488 24.9512 8.98212 25.4755 9.12142 25.9842C9.45049 27.1813 9.84734 28.2933 10.3006 29.3003C10.7643 29.2178 11.2474 29.1017 11.7491 28.951C11.893 28.9076 12.0376 28.8622 12.1846 28.813C12.4586 28.7216 12.7352 28.6204 13.0129 28.5123C12.7565 27.9255 12.5215 27.3079 12.3109 26.6629C12.1685 26.2268 12.0376 25.778 11.9174 25.3186C11.9005 25.2548 11.8834 25.1914 11.8669 25.1271C11.7392 24.6245 11.6241 24.1094 11.5234 23.5825C11.4703 23.3059 11.4214 23.0261 11.3762 22.7432C11.2445 21.9288 11.1434 21.0917 11.0758 20.2364C11.0059 19.3584 10.9701 18.4623 10.9701 17.5536C10.9701 16.6452 11.0059 15.7488 11.0758 14.8711C10.5186 15.5237 9.99783 16.1871 9.51498 16.8558Z" fill="#47B178"/>
<path d="M26.8466 21.4023C26.3673 22.0026 25.8573 22.5988 25.3174 23.1863C25.777 23.0661 26.2256 22.9349 26.6615 22.7925C26.7328 22.3375 26.794 21.8731 26.8466 21.4023Z" fill="#47B178"/>
<path d="M8.25781 13.7019C8.73715 13.1015 9.2472 12.5055 9.78752 11.918C9.32749 12.0384 8.87886 12.1694 8.44253 12.3115C8.37167 12.7672 8.31068 13.2311 8.25781 13.7019Z" fill="#47B178"/>
<path d="M25.5902 18.2533C25.7576 18.021 25.9199 17.7885 26.0792 17.5553C26.3799 17.1112 26.6629 16.6659 26.9279 16.2201C26.9615 16.1638 26.994 16.1069 27.0271 16.0503C26.9931 15.2518 26.9325 14.4686 26.8468 13.7043C26.7941 13.2336 26.7329 12.7696 26.6616 12.3139C26.5754 11.7624 26.476 11.2226 26.3641 10.6954C26.2498 10.1575 26.123 9.6334 25.9829 9.12467C25.6545 7.92754 25.2578 6.81553 24.8042 5.80859C24.3404 5.89086 23.8573 6.00713 23.3561 6.15806C23.2117 6.20128 23.0671 6.24691 22.9202 6.29583C22.6457 6.38752 22.3691 6.48822 22.0918 6.59681C22.3482 7.18364 22.5828 7.80074 22.7934 8.44592C22.9362 8.88204 23.0671 9.33066 23.1878 9.79047C23.2043 9.85431 23.2214 9.91771 23.2376 9.98155C23.3655 10.4846 23.4802 10.9994 23.5814 11.5264C23.6344 11.8032 23.6834 12.0829 23.729 12.3657C23.8606 13.1796 23.9613 14.0172 24.0289 14.8727C24.0984 15.7505 24.1348 16.6468 24.1348 17.5553C24.1348 18.4639 24.0984 19.3601 24.0289 20.238C24.5861 19.5854 25.1069 18.922 25.5902 18.2533Z" fill="#47B178"/>
<path d="M23.4371 3.34547C22.9284 2.60618 22.378 1.9724 21.7951 1.46257C20.7199 0.522771 19.5323 0 18.284 0H16.821C15.573 0 14.3851 0.522771 13.3097 1.46257C12.7264 1.9724 12.1766 2.60618 11.6677 3.34547C11.3805 3.76272 11.1071 4.21376 10.8476 4.69595C10.6574 5.04936 10.4747 5.41966 10.3007 5.80576C9.84749 6.81248 9.45064 7.92449 9.12158 9.12162C9.63031 8.98232 10.1548 8.85486 10.6927 8.74057C11.2199 8.6289 11.7596 8.52953 12.3111 8.44287C12.5217 7.79769 12.7566 7.18059 13.0131 6.59398C13.1329 6.32108 13.2568 6.05388 13.386 5.7948C13.4556 5.65681 13.526 5.52189 13.5968 5.38961C13.8443 4.9287 14.1045 4.50443 14.3739 4.11899C15.3499 2.72047 16.4481 1.83134 17.5526 1.55559C18.6569 1.83134 19.7554 2.72047 20.7311 4.11899C21.1271 3.96872 21.5178 3.83599 21.9024 3.72016" fill="#47B178"/>
<path d="M16.8208 35.1062H18.2838C19.5321 35.1062 20.7198 34.5832 21.7949 33.6434C22.3778 33.1336 22.9282 32.4998 23.437 31.7603C23.7237 31.3431 23.9975 30.8922 24.257 30.4103C24.4472 30.0569 24.6299 29.6863 24.8039 29.3005C25.2576 28.2935 25.6542 27.1815 25.9826 25.9844L24.4123 26.3652C23.8851 26.4771 23.345 26.5767 22.7931 26.6631C22.5825 27.3081 22.348 27.9256 22.0915 28.5125C21.9718 28.7849 21.848 29.0521 21.7182 29.3112C21.6491 29.4492 21.5786 29.5841 21.5078 29.7164C21.2603 30.1773 21.0001 30.6018 20.731 30.9872C19.7552 32.3857 18.6568 33.2744 17.5524 33.5502C16.4479 33.2744 15.3497 32.3857 14.3737 30.9872C13.9775 31.1373 13.5872 31.27 13.2027 31.3856L11.6675 31.7603C12.1764 32.4998 12.7262 33.1336 13.3095 33.6434C14.3849 34.5832 15.5728 35.1062 16.8208 35.1062Z" fill="#47B178"/>
</g>
<defs>
<clipPath id="clip0">
<rect width="130" height="35.1055" fill="white"/>
</clipPath>
</defs>
</svg>
