<svg width="120" height="48" viewBox="0 0 120 48" fill="none" xmlns="http://www.w3.org/2000/svg">
<g clip-path="url(#clip0)">
<path fill-rule="evenodd" clip-rule="evenodd" d="M47.4685 23.7768C47.4685 36.9077 36.8417 47.5537 23.7348 47.5537C10.6268 47.5537 0 36.9077 0 23.7768C0 10.6448 10.6268 0 23.7348 0C36.8417 0 47.4685 10.6448 47.4685 23.7768ZM38.7806 17.4574C38.6285 17.3683 38.4554 17.3213 38.2791 17.3213C38.1028 17.3213 37.9297 17.3683 37.7775 17.4574L24.9779 24.9287C24.8249 25.0185 24.6981 25.1469 24.6101 25.301C24.5221 25.4551 24.476 25.6295 24.4763 25.8069V29.7459C24.4763 30.1083 24.6659 30.4418 24.9779 30.623C25.1298 30.712 25.3027 30.7589 25.4788 30.7589C25.6549 30.7589 25.8278 30.712 25.9797 30.623L30.1911 28.1634V37.2964C30.1898 37.4287 30.2147 37.56 30.2644 37.6826C30.3141 37.8053 30.3876 37.9169 30.4806 38.011C30.5736 38.1052 30.6843 38.18 30.8064 38.2311C30.9284 38.2823 31.0594 38.3087 31.1917 38.3091C31.3679 38.3087 31.5409 38.2619 31.6932 38.1735L34.2093 36.7049C34.3621 36.6151 34.4888 36.487 34.5767 36.3331C34.6647 36.1792 34.7109 36.0051 34.7108 35.8278V25.525L38.7806 23.1481C38.9333 23.0583 39.0598 22.9301 39.1475 22.7762C39.2353 22.6224 39.2813 22.4482 39.2809 22.2711V18.3356C39.2809 17.9733 39.0889 17.6386 38.7806 17.4574ZM24.9779 15.0697L29.0116 17.4262C29.022 17.4324 29.0307 17.4412 29.0367 17.4517C29.0428 17.4622 29.0462 17.4741 29.0464 17.4862V20.4101C29.0464 20.7185 29.3764 20.9129 29.6428 20.7581C31.2097 19.8438 35.4283 17.3866 36.9833 16.4819C37.0428 16.4468 37.092 16.3966 37.1261 16.3365C37.1602 16.2764 37.1778 16.2083 37.1774 16.1392C37.1769 16.0701 37.1582 16.0023 37.1233 15.9426C37.0884 15.883 37.0385 15.8335 36.9785 15.7992L25.9797 9.38019C25.8277 9.29131 25.6548 9.24447 25.4788 9.24447C25.3027 9.24447 25.1298 9.29131 24.9779 9.38019C24.825 9.46958 24.6982 9.5975 24.6102 9.75119C24.5222 9.90488 24.476 10.079 24.4763 10.2561V14.1939C24.4763 14.555 24.6659 14.8898 24.9779 15.0697ZM22.7078 9.37899C22.5558 9.29011 22.3829 9.24327 22.2069 9.24327C22.0308 9.24327 21.8579 9.29011 21.7059 9.37899L10.7024 15.804C10.6429 15.838 10.5933 15.887 10.5587 15.9461C10.5241 16.0053 10.5056 16.0725 10.5051 16.141C10.5046 16.2095 10.5221 16.277 10.5559 16.3366C10.5897 16.3962 10.6386 16.4459 10.6976 16.4807C12.2502 17.383 16.4963 19.857 18.0561 20.7653C18.1156 20.7999 18.1833 20.8182 18.2521 20.8181C18.321 20.818 18.3886 20.7996 18.4481 20.7649C18.5075 20.7301 18.5566 20.6801 18.5904 20.6201C18.6242 20.5601 18.6415 20.4922 18.6404 20.4233V17.4478L22.5122 15.1873C22.9442 14.9342 23.2105 14.4698 23.2105 13.9695V10.2561C23.2105 9.89492 23.0185 9.56017 22.709 9.38019L22.7078 9.37899ZM22.4918 24.9287L9.68975 17.4598C9.53799 17.3709 9.3653 17.324 9.18942 17.324C9.01355 17.324 8.84085 17.3709 8.6891 17.4598C8.53621 17.5492 8.40944 17.6771 8.32144 17.8308C8.23344 17.9845 8.18728 18.1585 8.18757 18.3356V22.2711C8.18757 22.6334 8.37954 22.967 8.6891 23.1481L12.7577 25.5238V35.8278C12.7577 36.1878 12.9485 36.5237 13.258 36.7037L15.7764 38.1747C15.9294 38.2629 16.103 38.3091 16.2796 38.3086C16.4561 38.3081 16.6295 38.2609 16.7819 38.1719C16.9344 38.0829 17.0607 37.9551 17.1479 37.8016C17.2351 37.648 17.2802 37.4742 17.2786 37.2976V28.1646L21.49 30.6242C21.4936 30.6242 21.496 30.6266 21.4984 30.6278C21.6498 30.7143 21.8212 30.7596 21.9956 30.7589C22.1699 30.7583 22.3411 30.7118 22.4918 30.6242C22.6447 30.5345 22.7715 30.4064 22.8595 30.2525C22.9475 30.0986 22.9936 29.9244 22.9934 29.7471V25.8057C22.9934 25.4458 22.8014 25.1098 22.4918 24.9299V24.9287ZM61.0013 30.3398C64.5791 30.3398 66.8888 27.5179 66.8888 23.9028C66.8888 20.3214 64.5791 17.4994 61.0013 17.4994H57.679V30.3398H61.0013ZM52.7441 13.4404C52.7441 13.1224 52.996 12.8381 53.3128 12.8381H61.0348C67.1419 12.8381 72.144 17.8149 72.144 23.9016C72.144 30.0531 67.1419 35.0299 61.0336 35.0299H53.3128C52.9972 35.0299 52.7441 34.7456 52.7441 34.4276V13.4404ZM74.8316 21.082C74.8316 20.6693 75.1471 20.3837 75.5263 20.3837H77.0464C77.428 20.3837 77.6164 20.5745 77.7111 20.8277L78.3758 22.445C79.0081 21.2716 80.1156 20.067 82.0149 20.067C83.3455 20.067 84.3258 20.4149 84.8633 20.8277C85.1176 21.0184 85.1176 21.3352 84.9593 21.6196L83.5015 24.5051C83.3455 24.7931 83.0923 25.0138 82.6796 24.8531C82.4264 24.7595 81.8889 24.6323 81.5722 24.6323C80.4635 24.6323 79.6405 25.4266 79.6405 26.6624V34.334C79.6405 34.778 79.3885 35.0323 78.851 35.0323H75.5263C75.3419 35.0305 75.1656 34.9562 75.0354 34.8256C74.9053 34.695 74.8316 34.5184 74.8304 34.334L74.8316 21.082ZM87.846 21.082C87.846 20.6693 88.1616 20.3837 88.5419 20.3837H91.959C92.3405 20.3837 92.6549 20.6693 92.6549 21.082V34.334C92.654 34.5185 92.5804 34.6953 92.4502 34.8259C92.3199 34.9566 92.1435 35.0308 91.959 35.0323H88.5407C88.3564 35.0305 88.1803 34.9562 88.0503 34.8255C87.9203 34.6949 87.847 34.5183 87.846 34.334V21.082ZM87.4969 15.6289C87.4969 14.1075 88.6991 12.8393 90.2181 12.8393C91.737 12.8393 92.9729 14.1075 92.9729 15.6289C92.9729 17.119 91.737 18.3548 90.2181 18.3548C89.8604 18.3545 89.5063 18.2838 89.176 18.1466C88.8457 18.0094 88.5456 17.8086 88.2929 17.5554C88.0402 17.3023 87.8399 17.0019 87.7033 16.6713C87.5667 16.3407 87.4966 15.9865 87.4969 15.6289ZM97.2178 24.7283H95.952C95.86 24.7299 95.7685 24.713 95.6832 24.6784C95.5979 24.6439 95.5204 24.5925 95.4554 24.5273C95.3905 24.4621 95.3393 24.3844 95.3051 24.299C95.2708 24.2135 95.2542 24.122 95.2561 24.03V21.0832C95.2561 20.6705 95.5405 20.3861 95.952 20.3861H97.2178V19.1815C97.2178 15.2485 99.2743 12.5225 103.516 12.5225C105.414 12.5225 107.346 13.3144 107.979 13.9167C108.2 14.0775 108.262 14.4566 108.105 14.741L106.555 17.4682C106.472 17.5949 106.344 17.6852 106.197 17.7205C106.049 17.7557 105.894 17.7333 105.763 17.6578C105.288 17.3734 104.593 17.089 103.864 17.089C102.217 17.089 102.027 18.0081 102.027 19.1815V20.3861H105.701C106.078 20.3861 106.395 20.6705 106.395 21.082V24.0312C106.394 24.2156 106.32 24.3921 106.19 24.5227C106.06 24.6534 105.884 24.7276 105.699 24.7295H102.027V34.3364C102.027 34.7168 101.679 35.0335 101.302 35.0335H97.9137C97.7312 35.0264 97.5582 34.9506 97.4291 34.8214C97.3001 34.6922 97.2246 34.519 97.2178 34.3364V24.7283ZM110.851 24.3791H109.649C109.301 24.3791 109.014 24.0612 109.014 23.6808V20.7329C109.014 20.3214 109.3 20.0358 109.649 20.0358H110.851V15.978C110.851 15.5977 111.168 15.2785 111.547 15.2785H115.028C115.378 15.2785 115.661 15.5977 115.661 15.978V20.0358H118.606C118.984 20.0358 119.301 20.3214 119.301 20.7329V23.6808C119.299 23.8652 119.226 24.0418 119.095 24.1724C118.965 24.303 118.789 24.3773 118.605 24.3791H115.663V29.4832C115.663 30.1815 116.011 30.497 116.645 30.497C117.149 30.497 118.099 30.2751 118.449 30.1815C118.828 30.0855 119.176 30.2439 119.272 30.6254L119.904 33.3838C120 33.8277 119.839 34.0173 119.43 34.2081C118.449 34.6196 116.802 35.0323 115.251 35.0323C112.468 35.0323 110.853 33.2566 110.853 29.9283L110.851 24.3791Z" fill="black"/>
</g>
<defs>
<clipPath id="clip0">
<rect width="120" height="47.5537" fill="white"/>
</clipPath>
</defs>
</svg>
