<svg width="99" height="71" viewBox="0 0 99 71" fill="none" xmlns="http://www.w3.org/2000/svg">
<path d="M47.3739 11.0851V41.9865H21.8879L47.3739 11.0851ZM47.3739 0C47.3739 7.06161 41.677 12.7821 34.6445 12.7821C27.6121 12.7821 21.8879 7.06161 21.8879 0H47.3739ZM51.5716 41.9865C51.5716 34.9249 57.2684 29.2044 64.3009 29.2044C71.3334 29.2044 77.0303 34.9249 77.0303 41.9865H51.5716ZM51.5716 30.9014V0H77.0575L51.5716 30.9014ZM65.8274 68.3991C67.1357 68.4265 68.4168 67.9338 69.3709 67.0306L71.1154 68.9191C69.9705 70.1234 68.3623 70.9993 65.8546 70.9993C61.5752 70.9993 58.8221 68.1528 58.8221 64.2935C58.7404 60.6532 61.6297 57.6698 65.2277 57.5877H65.4458C69.698 57.5877 72.0966 60.8174 71.8786 65.3336H61.875C62.2293 67.2222 63.5377 68.4265 65.8274 68.3991ZM68.8802 63.226C68.6077 61.4743 67.5719 60.1879 65.5003 60.1879C63.565 60.1879 62.2293 61.2827 61.875 63.226H68.8802ZM0 68.2622L7.71393 60.3795H0.190804V57.9162H11.2847V60.4342L3.57076 68.317H11.3937V70.7803H0V68.2622ZM20.0617 68.3991C21.37 68.4265 22.6512 67.9338 23.5779 67.0306L25.3224 68.9191C24.1776 70.1234 22.5694 70.9993 20.0617 70.9993C15.7822 70.9993 13.0292 68.1528 13.0292 64.2935C12.9474 60.6532 15.8367 57.6698 19.4347 57.5877H19.6528C23.905 57.5877 26.3037 60.8174 26.0856 65.3336H16.1093C16.4637 67.2222 17.772 68.4265 20.0617 68.3991ZM23.1145 63.226C22.842 61.4743 21.8062 60.1879 19.7346 60.1879C17.7993 60.1879 16.4637 61.2827 16.1093 63.226H23.1145ZM42.7946 64.3209C42.7946 60.2153 45.8475 57.6425 49.2274 57.6425C50.8629 57.6151 52.4166 58.3267 53.5069 59.5584V51.9767H56.2327V70.753H53.5069V68.9739C52.4438 70.2603 50.8629 71.0267 49.2002 70.9993C45.9292 70.9993 42.7946 68.3991 42.7946 64.3209ZM53.6432 64.2935C53.5887 62.0491 51.7079 60.27 49.4727 60.3248C47.2376 60.3795 45.4659 62.2681 45.5204 64.5125C45.5749 66.7295 47.3739 68.4812 49.5818 68.4812C51.9259 68.4812 53.6432 66.62 53.6432 64.2935ZM73.6776 68.0159L76.158 66.7295C76.8122 67.9338 78.0933 68.6454 79.4562 68.618C81.0099 68.618 81.8004 67.8243 81.8004 66.9211C81.8004 65.881 80.3012 65.662 78.693 65.3336C76.5124 64.8683 74.25 64.1566 74.25 61.5017C74.25 59.4763 76.1853 57.5877 79.2109 57.6151C81.6096 57.6151 83.3813 58.5731 84.3899 60.1058L82.1002 61.3648C81.446 60.4069 80.3557 59.8595 79.2109 59.8868C77.739 59.8868 77.003 60.5985 77.003 61.4196C77.003 62.3502 78.1751 62.5965 80.0286 63.0071C82.1275 63.4724 84.5262 64.1566 84.5262 66.839C84.5262 68.618 82.9725 70.9993 79.3199 70.9719C76.6487 70.9993 74.7679 69.9318 73.6776 68.0159ZM91.913 65.0325L89.7596 67.4137V70.753H87.0339V51.9767H89.7596V64.2661L95.5383 57.8888H98.8637L93.8483 63.3903L99 70.753H95.9199L91.913 65.0325ZM34.5628 57.6151C31.3191 57.6151 28.5933 59.7226 28.5933 63.226V70.753H31.3736V63.5819C31.3736 61.4743 32.573 60.2153 34.6445 60.2153C36.7161 60.2153 37.7247 61.4743 37.7247 63.5819V70.753H40.4777V63.226C40.505 59.7226 37.7792 57.6151 34.5628 57.6151Z" fill="black"/>
</svg>
