<svg width="124" height="32" viewBox="0 0 124 32" fill="none" xmlns="http://www.w3.org/2000/svg">
<g clip-path="url(#clip0)">
<path d="M42.2397 20.5386V11.3316C42.2397 10.765 42.6997 10.3047 43.2658 10.3047C43.8319 10.3047 44.2918 10.765 44.2918 11.3316V20.5386C44.2918 21.1051 43.8319 21.5655 43.2658 21.5655C42.735 21.5655 42.2397 21.1051 42.2397 20.5386ZM53.9863 20.9281L49.5283 13.8104V20.5386C49.5283 21.1051 49.0683 21.5655 48.5022 21.5655C47.9361 21.5655 47.4762 21.1051 47.4762 20.5386V11.6149C47.4762 10.8713 48.0776 10.2339 48.856 10.2339H48.9268C49.3867 10.2339 49.8467 10.4817 50.0944 10.8713L54.517 17.8827V11.2608C54.517 10.6942 54.977 10.2339 55.5431 10.2339C56.1092 10.2339 56.5691 10.6942 56.5691 11.2608V20.1844C56.5691 20.9281 55.9677 21.5655 55.1893 21.5655C54.6939 21.5655 54.234 21.353 53.9863 20.9281ZM63.7162 12.2169V20.6448C63.7162 21.176 63.2916 21.6009 62.7609 21.6009H62.6194C62.0886 21.6009 61.6641 21.176 61.6641 20.6448V12.2169H59.2935C58.7628 12.2169 58.3382 11.792 58.3382 11.2608C58.3382 10.7296 58.7628 10.3047 59.2935 10.3047H66.1221C66.6528 10.3047 67.0774 10.7296 67.0774 11.2608C67.0774 11.792 66.6528 12.2169 66.1221 12.2169H63.7162ZM68.7049 20.6448V11.19C68.7049 10.6942 69.1295 10.2693 69.6249 10.2693H75.8166C76.3119 10.2693 76.7365 10.6942 76.7365 11.19C76.7365 11.6857 76.3119 12.1107 75.8166 12.1107H70.7571V14.7311H75.109C75.6043 14.7311 76.0289 15.156 76.0289 15.6518C76.0289 16.1476 75.6043 16.5725 75.109 16.5725H70.7571V19.6533H75.8166C76.3119 19.6533 76.7365 20.0782 76.7365 20.574C76.7365 21.0697 76.3119 21.4947 75.8166 21.4947H69.6249C69.1295 21.5655 68.7049 21.176 68.7049 20.6448ZM85.4049 20.9635L83.7774 17.3161H81.2653V20.574C81.2653 21.1406 80.8054 21.6009 80.2393 21.6009H80.2039C79.6378 21.6009 79.1778 21.1406 79.1778 20.574V11.3316C79.1778 10.765 79.6378 10.3047 80.2039 10.3047H83.9543C86.6433 10.3047 87.8816 12.0044 87.8816 13.8104C87.8816 15.3331 87.0679 16.5017 85.8295 16.962L87.2448 20.149C87.5278 20.8218 87.0679 21.5655 86.3248 21.5655C85.9357 21.5655 85.5465 21.353 85.4049 20.9635ZM83.9897 12.0753H81.3007V15.4393H84.0251C85.1926 15.4393 85.8649 14.8373 85.8649 13.775C85.8295 12.8897 85.1573 12.0753 83.9897 12.0753ZM97.6469 20.4323C96.7977 21.2822 95.6301 21.778 94.4272 21.778C93.2242 21.778 92.092 21.3884 91.2428 20.5031C90.0045 19.2638 89.8276 17.7765 89.8276 15.9351C89.8276 14.0937 90.0045 12.571 91.2428 11.367C92.092 10.5172 93.2242 10.0922 94.4272 10.0922C95.6301 10.0922 96.7977 10.5526 97.6469 11.4024C97.9299 11.7211 98.1776 12.0398 98.3545 12.4294C98.6729 13.1022 98.1776 13.8458 97.4346 13.8458C97.01 13.8458 96.6562 13.5979 96.4793 13.2084C96.4085 12.9959 96.267 12.8189 96.1255 12.6418C95.7717 12.1815 95.1348 11.9336 94.4272 11.9336C93.7903 11.9336 93.1534 12.2169 92.6935 12.6772C91.9151 13.4917 91.9151 14.8727 91.9151 15.9351C91.9151 16.962 91.9151 18.3785 92.6935 19.1929C93.1534 19.6533 93.7903 19.9366 94.4272 19.9366C95.1348 19.9366 95.7717 19.6887 96.1255 19.2283C96.267 19.0513 96.4085 18.8388 96.4793 18.6263C96.6208 18.2368 97.01 17.9889 97.4346 17.9889C98.1776 17.9889 98.6729 18.7326 98.3545 19.4054C98.1776 19.7949 97.9299 20.149 97.6469 20.4323ZM108.65 20.5031C107.801 21.353 106.598 21.778 105.395 21.778C104.192 21.778 103.025 21.353 102.14 20.5031C100.902 19.2638 100.725 17.7765 100.725 15.9351C100.725 14.0937 100.937 12.571 102.14 11.367C102.989 10.5172 104.192 10.0922 105.395 10.0922C106.598 10.0922 107.766 10.5172 108.65 11.367C109.889 12.6064 110.066 14.0937 110.066 15.9351C110.101 17.7765 109.889 19.2992 108.65 20.5031ZM107.2 12.7127C106.74 12.2523 106.068 11.969 105.431 11.969C104.794 11.969 104.086 12.2523 103.662 12.7127C102.883 13.5271 102.848 14.9082 102.848 15.9705C102.848 16.9974 102.883 18.3785 103.662 19.1929C104.122 19.6533 104.794 19.9366 105.431 19.9366C106.068 19.9366 106.775 19.6533 107.2 19.1929C107.978 18.3785 108.014 16.9974 108.014 15.9705C108.014 14.9082 107.978 13.4917 107.2 12.7127ZM121.989 20.574V13.5271L119.336 20.7156C119.194 21.1406 118.77 21.4238 118.31 21.4238C117.85 21.4238 117.46 21.1406 117.284 20.7156L114.63 13.4209V20.574C114.63 21.1406 114.17 21.5655 113.639 21.5655C113.073 21.5655 112.649 21.1051 112.649 20.574V11.8274C112.649 10.9775 113.356 10.2693 114.205 10.2693H114.347C114.984 10.2693 115.585 10.6588 115.798 11.2962L118.38 18.3076L120.999 11.2962C121.211 10.6942 121.812 10.2693 122.449 10.2693C123.298 10.2693 124.006 10.9775 124.006 11.8274V20.574C124.006 21.1406 123.546 21.5655 123.015 21.5655C122.414 21.5655 121.989 21.1406 121.989 20.574ZM27.9103 0H4.02788C1.79885 0 0.0297852 1.77057 0.0297852 3.96607V27.8687C0.0297852 30.0996 1.79885 31.8702 4.02788 31.8702H27.9103C30.1039 31.8702 31.873 30.0996 31.873 27.9041V4.00148C31.873 1.77057 30.1039 0 27.9103 0ZM20.1971 5.84287C20.1971 5.24087 20.6571 4.78053 21.2586 4.78053C21.8601 4.78053 22.32 5.24087 22.32 5.84287V20.0428C22.32 20.6448 21.8601 21.1051 21.2586 21.1051C20.6571 21.1051 20.1971 20.6448 20.1971 20.0428V5.84287ZM14.8899 5.3117C14.8899 4.7097 15.3499 4.24936 15.9514 4.24936C16.5529 4.24936 17.0128 4.7097 17.0128 5.3117V20.7156C17.0128 21.3176 16.5529 21.778 15.9514 21.778C15.3499 21.778 14.8899 21.3176 14.8899 20.7156V5.3117ZM9.58274 5.84287C9.58274 5.24087 10.0427 4.78053 10.6442 4.78053C11.2457 4.78053 11.7056 5.24087 11.7056 5.84287V20.0428C11.7056 20.6448 11.2457 21.1051 10.6442 21.1051C10.0427 21.1051 9.58274 20.6448 9.58274 20.0428V5.84287ZM4.27554 7.96754C4.27554 7.36555 4.7355 6.9052 5.33698 6.9052C5.93847 6.9052 6.39842 7.36555 6.39842 7.96754V17.5286C6.39842 18.1306 5.93847 18.5909 5.33698 18.5909C4.7355 18.5909 4.27554 18.1306 4.27554 17.5286V7.96754ZM27.2734 24.1859C27.0965 24.3276 23.1692 27.6208 15.9514 27.6208C8.73359 27.6208 4.80626 24.3276 4.62936 24.1859C4.1694 23.7964 4.13402 23.1236 4.52321 22.6986C4.91241 22.2383 5.58465 22.2029 6.00923 22.5924C6.07999 22.5924 9.58274 25.4961 15.9514 25.4961C22.3908 25.4961 25.8582 22.5924 25.8582 22.557C26.3181 22.1675 26.9904 22.2383 27.3442 22.6632C27.7687 23.1236 27.698 23.7964 27.2734 24.1859ZM27.6272 17.5286C27.6272 18.1306 27.1673 18.5909 26.5658 18.5909C25.9643 18.5909 25.5043 18.1306 25.5043 17.5286V7.96754C25.5043 7.36555 25.9643 6.9052 26.5658 6.9052C27.1673 6.9052 27.6272 7.36555 27.6272 7.96754V17.5286Z" fill="black"/>
</g>
<defs>
<clipPath id="clip0">
<rect width="124" height="31.8702" fill="white"/>
</clipPath>
</defs>
</svg>
