<svg width="25" height="24" viewBox="0 0 25 24" fill="none" xmlns="http://www.w3.org/2000/svg">
<path fill-rule="evenodd" clip-rule="evenodd" d="M12.0049 0C5.38016 0 0.00488281 5.37528 0.00488281 12C0.00488281 18.6247 5.38016 24 12.0049 24C18.6166 24 24.0049 18.6247 24.0049 12C24.0049 5.37528 18.6166 0 12.0049 0ZM19.9311 5.53145C21.3628 7.27548 22.2218 9.5011 22.2478 11.9089C21.9094 11.8438 18.5255 11.154 15.1155 11.5835C15.0374 11.4143 14.9723 11.2321 14.8943 11.0499C14.686 10.5553 14.4517 10.0477 14.2175 9.56616C17.9919 8.03038 19.7099 5.81779 19.9311 5.53145ZM12.0049 1.77006C14.6079 1.77006 16.9897 2.7462 18.7988 4.34707C18.6166 4.60738 17.0678 6.6768 13.4235 8.04338C11.7446 4.95878 9.8834 2.43384 9.59708 2.04338C10.365 1.86117 11.1719 1.77006 12.0049 1.77006ZM7.6448 2.73319C7.91811 3.09761 9.74024 5.63558 11.4452 8.6551C6.65564 9.93058 2.42571 9.90456 1.97018 9.90456C2.63394 6.72886 4.78146 4.08677 7.6448 2.73319ZM1.74892 12.013C1.74892 11.9089 1.74892 11.8048 1.74892 11.7006C2.19143 11.7137 7.16324 11.7787 12.2782 10.243C12.5775 10.8156 12.8509 11.4013 13.1112 11.987C12.981 12.026 12.8378 12.0651 12.7077 12.1041C7.42355 13.8091 4.61226 18.4686 4.37799 18.859C2.75108 17.0499 1.74892 14.6421 1.74892 12.013ZM12.0049 22.256C9.63613 22.256 7.44956 21.449 5.71854 20.0954C5.90077 19.718 7.9832 15.7093 13.7619 13.692C13.788 13.679 13.801 13.679 13.827 13.6659C15.2717 17.4013 15.8574 20.538 16.0136 21.436C14.7771 21.9696 13.4235 22.256 12.0049 22.256ZM17.7186 20.4989C17.6144 19.8742 17.0678 16.8807 15.7272 13.1974C18.942 12.6898 21.7533 13.5228 22.1047 13.6399C21.6621 16.4902 20.0222 18.9501 17.7186 20.4989Z" fill="white"/>
</svg>
