<svg width="120" height="34" viewBox="0 0 120 34" fill="none" xmlns="http://www.w3.org/2000/svg">
<path d="M16.2101 33.0388C6.89877 33.0388 0 25.8609 0 16.7888V16.7091C0 7.71674 6.77914 0.359375 16.4893 0.359375C22.4509 0.359375 26.0199 2.35324 28.9509 5.24434L24.5245 10.3088C22.092 8.09557 19.5997 6.73974 16.4494 6.73974C11.1258 6.73974 7.27761 11.1661 7.27761 16.5894V16.6891C7.27761 22.1124 11.0261 26.6186 16.4494 26.6186C20.0583 26.6186 22.2715 25.183 24.7638 22.91L29.1902 27.3762C25.9202 30.8655 22.3114 33.0388 16.2101 33.0388Z" fill="#436CF2"/>
<path d="M36.667 0H29.8081V32.9586H36.667V0Z" fill="#436CF2"/>
<path d="M49.408 13.3394C46.5568 13.3394 44.7025 15.3732 44.1642 18.4836H54.5123C54.0936 15.413 52.2991 13.3394 49.408 13.3394ZM61.0921 22.7903H44.2638C44.9418 25.9008 47.1151 27.5357 50.1856 27.5357C52.4985 27.5357 54.1534 26.8179 56.0476 25.0434L59.9755 28.5127C57.7225 31.3041 54.4725 33.0189 50.0859 33.0189C42.8083 33.0189 37.4448 27.9146 37.4448 20.5173V20.4176C37.4448 13.4989 42.3697 7.81641 49.408 7.81641C57.4832 7.81641 61.1918 14.0971 61.1918 20.956V21.0357C61.1918 21.7336 61.1519 22.1523 61.0921 22.7903Z" fill="#436CF2"/>
<path d="M74.2514 32.9006H68.0106L58.48 8.51562H65.7576L71.1809 24.7257L76.6441 8.51562H83.7821L74.2514 32.9006Z" fill="#436CF2"/>
<path d="M92.6751 13.3394C89.8239 13.3394 87.9696 15.3732 87.4312 18.4836H97.7794C97.3607 15.413 95.5662 13.3394 92.6751 13.3394ZM104.359 22.7903H87.5309C88.2088 25.9008 90.3822 27.5357 93.4527 27.5357C95.7457 27.5357 97.4205 26.8179 99.3147 25.0434L103.243 28.5127C100.99 31.3041 97.7395 33.0189 93.353 33.0189C86.0754 33.0189 80.7119 27.9146 80.7119 20.5173V20.4176C80.7119 13.4989 85.6368 7.81641 92.6751 7.81641C100.75 7.81641 104.459 14.0971 104.459 20.956V21.0357C104.459 21.7336 104.419 22.1523 104.359 22.7903Z" fill="#436CF2"/>
<path d="M119.273 15.493C114.707 15.493 111.916 18.2446 111.916 24.0268V32.9593H105.057V8.75376H111.916V13.6387C113.311 10.289 115.584 8.13566 119.632 8.31511V15.493H119.273Z" fill="#436CF2"/>
</svg>
