<svg width="24" height="24" viewBox="0 0 24 24" fill="none" xmlns="http://www.w3.org/2000/svg">
<path fill-rule="evenodd" clip-rule="evenodd" d="M10.7466 14.5C10.1762 14.5 9.67463 14.8413 9.30956 15.2795C8.66989 16.0474 7.78041 16.5 6.86341 16.5C5.23824 16.5 3.69951 15.0783 3.48457 13H11.707C11.7201 12.8353 11.7268 12.6685 11.7268 12.5C11.7268 9.46243 9.5494 7 6.86341 7C4.17742 7 2 9.46243 2 12.5C2 15.5376 4.17742 18 6.86341 18C8.92548 18 10.6878 16.5487 11.3953 14.5H10.7466ZM6.86341 8.5C5.37217 8.5 3.9537 9.69705 3.56399 11.5H10.1628C9.77312 9.69705 8.35465 8.5 6.86341 8.5Z" fill="#2356A8"/>
<path d="M21.999 7H21.1222C20.5017 7 19.9162 7.28808 19.5376 7.77977L16.8335 11.2915L14.1293 7.77977C13.7507 7.28808 13.1653 7 12.5447 7H11.668L15.903 12.4998L11.6676 18H12.5443C13.1649 18 13.7504 17.7119 14.129 17.2202L16.8335 13.7081L19.5379 17.2202C19.9166 17.7119 20.502 18 21.1226 18H21.9993L17.7639 12.4998L21.999 7Z" fill="#2356A8"/>
</svg>
