<svg width="25" height="23" viewBox="0 0 25 23" fill="none" xmlns="http://www.w3.org/2000/svg">
<path fill-rule="evenodd" clip-rule="evenodd" d="M11.9682 0C5.36268 0 0.00488281 5.27773 0.00488281 11.7845C0.00488281 16.9899 3.45442 21.4001 8.15167 22.9906C8.73883 23.0629 8.95901 22.7015 8.95901 22.4123C8.95901 22.1231 8.95901 21.4001 8.95901 20.3879C5.65626 21.1109 4.92231 18.7974 4.92231 18.7974C4.40855 17.4237 3.60121 17.0622 3.60121 17.0622C2.5003 16.3393 3.67461 16.3393 3.67461 16.3393C4.84892 16.4116 5.50947 17.5683 5.50947 17.5683C6.61039 19.3758 8.29846 18.8697 8.95901 18.5805C9.03241 17.7852 9.39938 17.2791 9.69296 16.9899C7.05075 16.7008 4.26176 15.6886 4.26176 11.1338C4.26176 9.83248 4.70213 8.82031 5.50947 7.95274C5.43608 7.73585 4.99571 6.50679 5.65626 4.91624C5.65626 4.91624 6.68378 4.62705 8.95901 6.1453C9.91314 5.85611 10.9407 5.78381 11.9682 5.78381C12.9957 5.78381 14.0232 5.92841 14.9774 6.1453C17.2526 4.62705 18.2801 4.91624 18.2801 4.91624C18.9407 6.50679 18.5003 7.73585 18.4269 8.02504C19.1608 8.82031 19.6746 9.90478 19.6746 11.2061C19.6746 15.7609 16.8856 16.7008 14.2434 16.9899C14.6838 17.3514 15.0508 18.0744 15.0508 19.1589C15.0508 20.7494 15.0508 21.9785 15.0508 22.4123C15.0508 22.7015 15.2709 23.0629 15.8581 22.9906C20.6287 21.4001 24.0049 16.9899 24.0049 11.7845C23.9315 5.27773 18.5737 0 11.9682 0Z" fill="white"/>
</svg>
