<svg width="24" height="24" viewBox="0 0 24 24" fill="none" xmlns="http://www.w3.org/2000/svg">
<path d="M20.0829 15.2018L21.2849 15.9228C21.359 15.9672 21.4204 16.03 21.463 16.1052C21.5056 16.1804 21.528 16.2654 21.528 16.3518C21.528 16.4382 21.5056 16.5232 21.463 16.5983C21.4204 16.6735 21.359 16.7364 21.2849 16.7808L12.5149 22.0428C12.3593 22.1362 12.1813 22.1856 11.9999 22.1856C11.8184 22.1856 11.6404 22.1362 11.4849 22.0428L2.71485 16.7808C2.6407 16.7364 2.57932 16.6735 2.5367 16.5983C2.49408 16.5232 2.47168 16.4382 2.47168 16.3518C2.47168 16.2654 2.49408 16.1804 2.5367 16.1052C2.57932 16.03 2.6407 15.9672 2.71485 15.9228L3.91685 15.2018L11.9999 20.0518L20.0829 15.2018ZM20.0829 10.5018L21.2849 11.2228C21.359 11.2672 21.4204 11.33 21.463 11.4052C21.5056 11.4804 21.528 11.5654 21.528 11.6518C21.528 11.7382 21.5056 11.8232 21.463 11.8983C21.4204 11.9735 21.359 12.0364 21.2849 12.0808L11.9999 17.6518L2.71485 12.0808C2.6407 12.0364 2.57932 11.9735 2.5367 11.8983C2.49408 11.8232 2.47168 11.7382 2.47168 11.6518C2.47168 11.5654 2.49408 11.4804 2.5367 11.4052C2.57932 11.33 2.6407 11.2672 2.71485 11.2228L3.91685 10.5018L11.9999 15.3518L20.0829 10.5018ZM12.5139 1.31078L21.2849 6.57278C21.359 6.61717 21.4204 6.68003 21.463 6.75521C21.5056 6.8304 21.528 6.91535 21.528 7.00178C21.528 7.0882 21.5056 7.17316 21.463 7.24834C21.4204 7.32353 21.359 7.38639 21.2849 7.43078L11.9999 13.0018L2.71485 7.43078C2.6407 7.38639 2.57932 7.32353 2.5367 7.24834C2.49408 7.17316 2.47168 7.0882 2.47168 7.00178C2.47168 6.91535 2.49408 6.8304 2.5367 6.75521C2.57932 6.68003 2.6407 6.61717 2.71485 6.57278L11.4849 1.31078C11.6404 1.21734 11.8184 1.16797 11.9999 1.16797C12.1813 1.16797 12.3593 1.21734 12.5149 1.31078H12.5139ZM11.9999 3.33378L5.88685 7.00178L11.9999 10.6698L18.1129 7.00178L11.9999 3.33378Z" fill="#2356A8"/>
</svg>
