<svg width="100" height="24" viewBox="0 0 100 24" fill="none" xmlns="http://www.w3.org/2000/svg">
<path fill-rule="evenodd" clip-rule="evenodd" d="M11.3738 0C5.06467 0 0 5.40138 0 11.9988C0 18.5962 5.06467 23.9976 11.3738 23.9976C14.4953 23.9976 17.3192 22.6681 19.3671 20.5365L24.3119 15.876L29.2583 20.5383C31.3051 22.6713 34.1319 24 37.25 24C43.5592 24 48.6239 18.5986 48.6239 12.0012C48.6239 5.40381 43.5592 0.00243164 37.25 0.00243164C34.1305 0.00243164 31.3057 1.32804 29.256 3.46415L22.5475 9.78697C22.4961 9.83196 22.4459 9.87921 22.3971 9.92869L15.629 16.3077C15.5903 16.3442 15.5526 16.3818 15.5159 16.4206C14.4462 17.5502 12.986 18.2376 11.3738 18.2376C8.16023 18.2376 5.50459 15.4734 5.50459 11.9988C5.50459 8.52419 8.16023 5.76 11.3738 5.76C12.9844 5.76 14.446 6.44786 15.5121 7.57551C16.5812 8.70623 18.3238 8.716 19.4044 7.59733C20.485 6.47866 20.4943 4.65517 19.4253 3.52445C17.3739 1.35475 14.5224 0 11.3738 0ZM32.9972 16.3101L28.4244 12L32.9948 7.69234C33.0341 7.65537 33.0723 7.61722 33.1094 7.57794C34.1772 6.44858 35.6362 5.76243 37.25 5.76243C40.4636 5.76243 43.1193 8.52662 43.1193 12.0012C43.1193 15.4758 40.4636 18.24 37.25 18.24C35.6395 18.24 34.1779 17.5521 33.1117 16.4245C33.0746 16.3852 33.0364 16.3471 32.9972 16.3101ZM56.8807 12C56.8807 8.55374 59.5506 5.76 62.844 5.76C66.1375 5.76 68.8073 8.55374 68.8073 12V12.24H56.8807V12ZM68.8073 21.12V18H56.8807V21.12C56.8807 22.7106 55.6485 24 54.1284 24C52.6084 24 51.3761 22.7106 51.3761 21.12V12C51.3761 5.37258 56.5105 0 62.844 0C69.1776 0 74.3119 5.37258 74.3119 12V21.12C74.3119 22.7106 73.0797 24 71.5596 24C70.0396 24 68.8073 22.7106 68.8073 21.12ZM81.7627 0.843533C80.6878 -0.281177 78.9452 -0.281177 77.8703 0.843533C76.7955 1.96824 76.7955 3.79176 77.8703 4.91647L84.6398 12L77.8703 19.0835C76.7955 20.2082 76.7955 22.0318 77.8703 23.1565C78.9452 24.2812 80.6878 24.2812 81.7627 23.1565L88.5321 16.0729L95.3015 23.1565C96.3764 24.2812 98.119 24.2812 99.1939 23.1565C100.269 22.0318 100.269 20.2082 99.1939 19.0835L92.4244 12L99.1939 4.91647C100.269 3.79176 100.269 1.96824 99.1939 0.843533C98.119 -0.281177 96.3764 -0.281177 95.3015 0.843533L88.5321 7.92706L81.7627 0.843533Z" fill="#39455D"/>
</svg>
