<svg width="124" height="35" viewBox="0 0 124 35" fill="none" xmlns="http://www.w3.org/2000/svg">
<path d="M95.0081 11.7906H91.6902V13.4501C90.5548 12.1404 88.8953 11.4414 87.1492 11.4414C83.2194 11.4414 80.3379 14.6722 80.3379 19.2137C80.3379 23.5798 83.2199 26.7234 87.062 26.7234C88.8958 26.7234 90.2928 26.1121 91.6025 24.6275V26.6358C91.6025 29.6922 90.3804 31.1768 87.9353 31.1768C86.6251 31.1768 85.3153 30.5655 84.7045 29.5178C84.3548 28.9065 84.2676 28.3824 84.1804 27.1598H80.9497C80.9497 31.526 83.6563 34.2332 87.9353 34.2332C90.3804 34.2332 92.5635 33.2727 93.7861 31.4383C94.7466 30.0414 95.0081 28.8188 95.0081 25.9373V11.7906ZM87.7605 14.3234C90.2056 14.3234 91.7774 16.2445 91.7774 18.9516C91.7774 21.746 90.1184 23.667 87.7605 23.667C85.3153 23.667 83.7435 21.8332 83.7435 19.0388C83.7435 16.244 85.3153 14.3234 87.7605 14.3234Z" fill="#C02428"/>
<path d="M30.5635 11.7882V26.2841H33.8814V18.8616C33.8814 15.8051 34.6676 14.4954 36.5886 14.4954C38.0732 14.4954 38.7717 15.718 38.7717 18.3379V26.3718H42.0897V18.9492C42.0897 15.8928 42.8758 14.5831 44.7973 14.5831C46.3691 14.5831 46.9804 15.6308 46.9804 18.4251V26.459H50.2984V17.2898C50.2984 13.3605 48.6394 11.3518 45.4081 11.3518C43.6619 11.3518 42.1773 12.1379 41.1296 13.4477C40.2563 12.0503 38.8589 11.3518 37.2871 11.3518C35.8901 11.3518 35.104 11.701 33.8819 13.0985V11.7882H30.5635ZM62.786 11.7882V13.4477C61.3014 11.9631 60.0784 11.3518 58.245 11.3518C54.3153 11.3518 51.4337 14.5826 51.4337 18.8616C51.4337 23.4026 54.3158 26.6333 58.3322 26.6333C60.0788 26.6333 61.2142 26.1097 62.786 24.7123V26.1969H66.104V11.7887L62.786 11.7882ZM58.8563 14.321C61.3014 14.321 62.9604 16.2421 62.9604 18.9492C62.9604 21.7436 61.3014 23.6646 58.8563 23.6646C56.4984 23.6646 54.8394 21.7436 54.8394 18.9492C54.8394 16.3292 56.586 14.321 58.8563 14.321ZM72.1296 11.7882H68.8112V26.2841H72.1291L72.1296 11.7882ZM70.4701 3.6672C70.1827 3.66435 69.8975 3.71887 69.6314 3.82758C69.3652 3.93628 69.1234 4.09697 68.9201 4.30026C68.7168 4.50355 68.5561 4.74534 68.4474 5.01149C68.3387 5.27764 68.2842 5.5628 68.2871 5.85028C68.2871 7.07284 69.2476 8.03336 70.4701 8.03336C71.6927 8.03336 72.6532 7.07284 72.6532 5.85028C72.6561 5.5628 72.6015 5.27764 72.4928 5.01149C72.3841 4.74534 72.2234 4.50355 72.0202 4.30026C71.8169 4.09697 71.5751 3.93628 71.3089 3.82758C71.0428 3.71887 70.7576 3.66435 70.4701 3.6672ZM75.186 0H78.504V26.1969H75.186V0Z" fill="#525357"/>
<path d="M100.335 11.788H97.0169V20.1716C97.0169 22.4418 97.4534 23.6639 98.5015 24.887C99.6364 26.1095 101.296 26.7208 103.13 26.7208C105.051 26.7208 106.622 26.1095 107.845 24.887C108.98 23.6644 109.33 22.4418 109.33 20.1716V11.788H106.011V20.0834C106.011 22.5285 105.138 23.6639 103.129 23.6639C101.208 23.6639 100.335 22.5285 100.335 20.0834V11.788ZM111.6 11.788V26.2839H114.918V19.2982C114.918 15.7177 115.704 14.408 117.974 14.408C120.07 14.408 120.682 15.3685 120.682 18.1629V26.2839H124V17.3777C124 13.3608 122.341 11.3521 118.761 11.3521C117.189 11.3521 116.141 11.789 114.831 13.0987V11.788H111.6ZM13.5354 12.9234C10.7406 12.9234 8.38314 15.1941 8.38314 18.0757C8.38314 20.9577 10.6534 23.2275 13.5354 23.2275C16.3298 23.2275 18.6872 20.9572 18.6872 18.0757C18.6872 15.1937 16.3298 12.9234 13.5354 12.9234ZM5.5016 17.9885C5.5016 13.6219 9.08161 10.0418 13.4478 10.0418C17.8139 10.0418 21.3949 13.6219 21.3949 17.988C21.3949 18.2496 21.3949 18.5993 21.3077 18.8609C21.2205 19.647 21.8313 20.2583 22.6175 20.2583C23.9272 20.2583 24.1021 18.5993 24.1021 17.988C24.1021 12.1368 19.299 7.33419 13.4482 7.33419C7.59797 7.33419 2.79491 12.1372 2.79491 17.988C2.79491 23.8383 7.59797 28.6413 13.4482 28.6413C16.5918 28.6413 19.3867 27.3316 21.3077 25.1485L23.4908 26.9824C21.1329 29.7767 17.4652 31.5229 13.5359 31.5229C11.7568 31.5288 9.99416 31.1827 8.34935 30.5047C6.70455 29.8266 5.21009 28.8299 3.95202 27.572C2.69394 26.314 1.6971 24.8197 1.01885 23.1749C0.340613 21.5302 -0.00562543 19.7676 6.91171e-05 17.9885C6.91171e-05 10.5659 6.02569 4.45312 13.5354 4.45312C20.958 4.45312 26.9831 10.5659 26.9831 17.9885C26.9831 20.9577 25.5862 23.4023 22.7042 23.4023C21.4816 23.4023 20.6959 22.7911 20.259 22.1798C18.8621 24.4501 16.3298 25.9347 13.4478 25.9347C9.08161 25.9347 5.5016 22.4418 5.5016 17.9885ZM13.5354 15.6306C13.8454 15.6293 14.1526 15.6894 14.4392 15.8074C14.7259 15.9255 14.9863 16.0991 15.2054 16.3183C15.4246 16.5376 15.5982 16.798 15.7162 17.0847C15.8342 17.3713 15.8942 17.6785 15.8929 17.9885C15.8942 18.2984 15.8341 18.6056 15.716 18.8922C15.598 19.1788 15.4244 19.4392 15.2053 19.6583C14.9861 19.8775 14.7257 20.0511 14.4391 20.1691C14.1525 20.2871 13.8454 20.3472 13.5354 20.3459C13.2255 20.3473 12.9183 20.2872 12.6316 20.1692C12.345 20.0513 12.0845 19.8777 11.8653 19.6585C11.6461 19.4393 11.4724 19.1789 11.3544 18.8923C11.2363 18.6056 11.1762 18.2985 11.1775 17.9885C11.1762 17.6785 11.2362 17.3712 11.3542 17.0846C11.4723 16.7979 11.6459 16.5374 11.8651 16.3182C12.0843 16.099 12.3448 15.9253 12.6315 15.8073C12.9182 15.6893 13.2254 15.6292 13.5354 15.6306Z" fill="#C02428"/>
</svg>
