<svg width="124" height="28" viewBox="0 0 124 28" fill="none" xmlns="http://www.w3.org/2000/svg">
<path d="M25.5371 23.7965L28.6637 21.3459C29.5426 22.867 30.9453 23.7458 32.5509 23.7458C34.2916 23.7458 35.2212 22.6135 35.2212 21.3797C35.2212 19.9094 33.4297 19.4361 31.5199 18.8446C29.12 18.101 26.4328 17.1715 26.4328 13.7406C26.4328 10.8675 28.9341 8.58594 32.3988 8.58594C35.3226 8.58594 36.9957 9.68448 38.4492 11.1886L35.6268 13.3181C34.8832 12.2196 33.8353 11.6281 32.4326 11.6281C30.8439 11.6281 29.982 12.49 29.982 13.6223C29.982 14.9913 31.7058 15.4645 33.6156 16.1067C36.0493 16.9011 38.8041 17.9658 38.8041 21.4135C38.8041 24.2697 36.5394 27.0076 32.5847 27.0076C29.3229 27.0245 27.1596 25.6387 25.5371 23.7965ZM53.0175 14.4843H56.3639V15.8532C57.1582 14.8392 58.3581 14.2307 59.7609 14.2307C62.6509 14.2307 64.4086 16.0898 64.4086 19.2671V26.7541H60.9777V19.7066C60.9777 18.0672 60.2172 17.1039 58.7131 17.1039C57.4286 17.1039 56.3808 17.9827 56.3808 20.0446V26.7541H53.0175V14.4843ZM65.186 20.6361C65.186 16.2926 68.3802 14.2477 71.1519 14.2477C72.7406 14.2477 74.0081 14.8392 74.8194 15.7011V8.83945H78.1826V26.771H74.8194V25.4021C74.0081 26.3654 72.7068 27.0245 71.1181 27.0245C68.4985 27.0245 65.186 24.9458 65.186 20.6361ZM74.9039 20.6023C74.9039 18.777 73.5856 17.3067 71.7604 17.3067C69.9013 17.3067 68.4647 18.7094 68.4647 20.6023C68.4647 22.4952 69.8844 23.9148 71.7604 23.9148C73.5856 23.9148 74.9039 22.4276 74.9039 20.6023ZM78.96 17.8137C78.96 12.7097 82.8134 8.60284 88.1202 8.60284C90.7736 8.60284 93.0045 9.56617 94.6269 11.0872C95.286 11.7126 95.8438 12.4224 96.2832 13.1998L93.2918 15.0251C92.1932 12.9801 90.4863 11.9323 88.154 11.9323C84.8922 11.9323 82.3571 14.6026 82.3571 17.8306C82.3571 21.1262 84.8414 23.7289 88.2723 23.7289C90.875 23.7289 92.7171 22.2586 93.3594 19.977H87.7315V16.7151H97.0437V18.0841C97.0437 22.9008 93.6129 27.0414 88.2723 27.0414C82.6613 27.0245 78.96 22.7656 78.96 17.8137ZM97.8887 14.4843H101.235V16.4954C101.843 15.211 102.959 14.4843 104.632 14.4843H105.984L104.767 17.7461H103.855C102.063 17.7461 101.269 18.6756 101.269 20.9572V26.7541H97.9056V14.4843H97.8887ZM106.846 14.4843H110.209V26.771H106.846V17.763H105.629L106.846 14.4843ZM108.536 12.6252C109.652 12.6252 110.547 11.7295 110.547 10.614C110.547 9.49857 109.652 8.60284 108.536 8.60284C107.421 8.60284 106.525 9.49857 106.525 10.614C106.525 11.7126 107.421 12.6252 108.536 12.6252ZM111.004 20.6361C111.004 16.2926 114.198 14.2477 116.97 14.2477C118.558 14.2477 119.826 14.8392 120.637 15.7011V8.83945H124V26.771H120.637V25.4021C119.826 26.3654 118.524 27.0245 116.936 27.0245C114.316 27.0245 111.004 24.9458 111.004 20.6361ZM120.738 20.6023C120.738 18.777 119.42 17.3067 117.595 17.3067C115.736 17.3067 114.299 18.7094 114.299 20.6023C114.299 22.4952 115.719 23.9148 117.595 23.9148C119.403 23.9148 120.738 22.4276 120.738 20.6023ZM52.2232 20.6023C52.2232 17.0701 49.6374 14.2477 45.8855 14.2477C42.3532 14.2477 39.497 17.1039 39.497 20.6361C39.497 24.1683 42.1504 27.0245 45.9869 27.0245C48.6403 27.0245 50.5501 25.7401 51.6148 23.9148L48.9445 22.3262C48.3868 23.4078 47.2882 24.0838 46.0038 24.0838C44.2292 24.0838 43.1307 23.205 42.742 21.8529H52.2232V20.6023ZM42.8941 19.1319C43.418 17.9827 44.4827 17.1884 45.9193 17.1884C47.3389 17.1884 48.4037 17.8475 48.8431 19.1319H42.8941Z" fill="#243746"/>
<path d="M14.3319 19.6016H7.16602V26.7674H14.3319V19.6016Z" fill="#99E1F4"/>
<path d="M7.16587 12.418H0V19.6007H7.16587V12.418Z" fill="#99E1F4"/>
<path d="M7.16587 19.6016H0V26.7674H7.16587V19.6016Z" fill="#1A82E2"/>
<path d="M21.5145 12.418H14.3486V19.6007H21.5145V12.418Z" fill="#00B2E3"/>
<path d="M14.3319 5.25391H7.16602V12.4198H14.3319V5.25391Z" fill="#00B2E3"/>
<path d="M7.16602 12.418V19.6007H14.3488V12.418H7.16602Z" fill="#009DD9"/>
<path d="M21.5145 5.25391H14.3486V12.4198H21.5145V5.25391Z" fill="#1A82E2"/>
<path d="M28.934 0.930969V5.10543H27.9707V0.930969H26.4834V0.0859375H30.4381V0.914069H28.934V0.930969Z" fill="#243746"/>
<path d="M37.4687 5.1028H36.556L35.4406 1.45226L34.3252 5.1028H33.4125L32.0098 0.0664062L33.0238 0.0833066L33.9533 3.63244L35.0012 0.0833066H35.9645L37.0124 3.63244L37.925 0.0833066H38.8883L37.4687 5.1028Z" fill="#243746"/>
<path d="M40.8154 5.10543V0.0859375H41.7788V5.10543H40.8154Z" fill="#243746"/>
<path d="M44.0264 5.10543V0.0859375H44.9897V4.2604H46.6629L46.6798 5.10543H44.0264Z" fill="#243746"/>
<path d="M48.6738 5.10543V0.0859375H49.6372V5.10543H48.6738Z" fill="#243746"/>
<path d="M54.0484 5.2054C52.6288 5.2054 51.6992 4.15756 51.6992 2.6027C51.6992 1.04784 52.6288 0 54.0653 0C55.5019 0 56.4145 1.04784 56.4145 2.6027C56.3976 4.14066 55.485 5.2054 54.0484 5.2054ZM54.0484 0.79433C53.1865 0.79433 52.6795 1.50416 52.6795 2.6027C52.6795 3.70124 53.2034 4.41107 54.0484 4.41107C54.9103 4.41107 55.4343 3.70124 55.4343 2.6027C55.4343 1.50416 54.9103 0.79433 54.0484 0.79433Z" fill="#243746"/>
</svg>
