<svg width="70" height="62" viewBox="0 0 70 62" fill="none" xmlns="http://www.w3.org/2000/svg">
<path d="M0 0H70V61.9776H0V0Z" fill="#E6E6E1"/>
<path d="M69.9999 0.000274669H0.000488281L35.0023 51.1547L69.9999 0" fill="#D8D8D3"/>
<path d="M27.5955 61.9792H42.4075L35.0018 51.1562L27.5952 61.9792" fill="#B4B6B4"/>
<path d="M35.0123 32.5135L20.0806 10.5977V29.4105L28.6069 41.9342L34.9977 32.5322L35.0123 32.5135Z" fill="#1A1918"/>
<path d="M35.0122 32.5135L41.4428 41.9543L49.9148 29.5674V10.5977L35.0122 32.5138" fill="#ED9D4A"/>
<path d="M34.9985 32.534L28.6074 41.9361L35.0194 51.3499L41.4434 41.9561L35.0128 32.5156L34.9982 32.534" fill="#BB7731"/>
<path d="M9.47656 51.3761H20.0808V29.4133L9.47656 13.8477V51.3761Z" fill="#4CB2D4"/>
<path d="M9.47656 10.5977V13.8451L20.0808 29.4105V10.5977H9.47656Z" fill="#1B82AD"/>
<path d="M49.915 29.5707V51.3764H60.5155V14.0742L49.915 29.5704" fill="#C02439"/>
<path d="M60.5152 10.5977H49.915V29.5674L60.5155 14.0709V10.5977" fill="#8F202F"/>
</svg>
