<svg width="124" height="60" viewBox="0 0 124 60" fill="none" xmlns="http://www.w3.org/2000/svg">
<path d="M0 8.96875H17.6521C29.2989 9.01723 37.9675 15.9237 37.9675 28.7192C37.9675 41.4176 29.2747 48.3726 17.6521 48.3726H0V8.96875ZM9.734 17.4262V39.9151H17.2646C23.6329 39.9151 27.9671 35.9165 27.9671 28.7194C27.9671 21.4249 23.6329 17.4262 17.2648 17.4262H9.73376H9.734ZM45.6192 28.501C45.6192 26.926 45.3285 25.7143 43.7548 25.7143C42.5439 25.7143 41.0912 26.2958 40.8006 26.4655L40.51 18.8076C40.7522 18.5167 44.0936 17.5232 47.7017 17.5232C51.2854 17.5232 53.731 18.8561 54.7722 21.9823C56.225 19.2681 58.3074 17.5232 62.1332 17.5232C64.9663 17.5232 67.2908 18.5655 67.5088 18.9773L66.2979 27.8468C66.0072 27.4348 63.3923 26.5137 60.5108 26.5137C56.9271 26.5137 55.6438 29.4221 55.3532 32.5481V48.3726H45.6192V28.501ZM84.9427 39.9878C84.7731 40.1575 83.3205 40.7877 82.1098 40.7877C80.5358 40.7877 80.2452 39.5031 80.2452 38.0008V18.0807H70.5112V40.3999C70.5112 46.531 73.2959 48.9786 78.0902 48.9786C81.7465 48.9786 85.088 47.9363 85.3302 47.6939L84.9427 39.9878ZM91.6743 59.2777V28.501C91.6743 26.8775 91.3836 25.7143 89.8099 25.7143C88.599 25.7143 87.1463 26.2476 86.8557 26.5139L86.5651 18.7591C86.8073 18.5894 90.1003 17.4747 93.7566 17.4747C97.171 17.4747 99.6166 18.6382 100.706 21.5945C102.619 19.2196 105.573 17.5474 109.98 17.5474C118.261 17.5474 124 24.0906 124 33.2992C124 42.3869 118.261 48.9543 109.98 48.9543C106.324 48.9543 103.37 47.6697 101.408 45.8281V59.2779H91.6743V59.2777ZM101.384 28.2102V38.3641C102.837 39.6487 105.04 40.4968 107.171 40.4968C111.336 40.4968 114.072 37.7099 114.072 33.2992C114.072 28.8404 111.409 26.0049 107.171 26.0049C104.919 26.0049 102.619 26.9987 101.384 28.2102Z" fill="#414042"/>
<path d="M75.4171 13.5977C78.5655 13.5977 80.6725 12.4585 80.6725 9.25906C80.6725 8.07138 80.1639 6.52013 79.0257 4.94463C77.8389 3.27218 77.0882 3.00556 75.4171 0C73.746 3.00556 72.9952 3.27218 71.8085 4.94463C70.6702 6.52013 70.1616 8.07138 70.1616 9.25906C70.1616 12.4585 72.2686 13.5977 75.4171 13.5977ZM71.9538 5.01735C73.0921 3.41761 73.8186 3.17523 75.4171 0.290861C77.0155 3.17523 77.7421 3.41761 78.8804 5.01735C79.9702 6.52013 80.4546 7.99867 80.4546 9.13787C80.4546 12.1919 78.4202 13.3069 75.4171 13.3069C72.414 13.3069 70.3796 12.2161 70.3796 9.13787C70.3796 7.99867 70.8882 6.52013 71.9538 5.01735Z" fill="url(#paint0_linear)"/>
<path d="M75.4171 13.4302C78.4779 13.4302 80.5515 12.3186 80.5515 9.18123C80.5515 8.02021 80.0579 6.51306 78.947 4.98144C77.7869 3.35093 77.0463 3.10369 75.4171 0.164062C73.7879 3.10394 73.0473 3.35093 71.8872 4.98144C70.7763 6.51306 70.2827 8.01997 70.2827 9.18123C70.2827 12.3186 72.3563 13.4302 75.4171 13.4302Z" fill="url(#paint1_linear)"/>
<defs>
<linearGradient id="paint0_linear" x1="75.4114" y1="13.5991" x2="75.4114" y2="0" gradientUnits="userSpaceOnUse">
<stop stop-color="#2746F1"/>
<stop offset="1" stop-color="#61B7F5"/>
</linearGradient>
<linearGradient id="paint1_linear" x1="75.4109" y1="13.425" x2="75.4109" y2="0.170563" gradientUnits="userSpaceOnUse">
<stop stop-color="#275AF1"/>
<stop offset="0.1582" stop-color="#336DF2"/>
<stop offset="0.5228" stop-color="#4C92F4"/>
<stop offset="0.8162" stop-color="#5BA9F5"/>
<stop offset="1" stop-color="#61B2F5"/>
</linearGradient>
</defs>
</svg>
