<svg width="124" height="31" viewBox="0 0 124 31" fill="none" xmlns="http://www.w3.org/2000/svg">
<path d="M34.8024 14.7421V14.7415V14.7421ZM118.15 22.2987L118.192 22.2993C120.701 22.2993 122.467 20.5606 122.487 18.0723C122.496 16.8401 122.14 15.7121 121.484 14.8973C120.791 14.0348 119.82 13.5749 118.677 13.5658H118.654C117.111 13.5658 115.678 14.7366 114.273 17.1457L114.162 17.3379L114.09 17.1283C113.735 16.096 113.419 15.2359 113.23 14.7211C113.098 14.3622 113.04 14.2009 113.026 14.1486C112.958 13.8881 112.736 13.7262 112.443 13.7262C112.264 13.7262 112.073 13.7872 111.893 13.902C111.714 14.0159 111.614 14.155 111.578 14.3409L111.569 14.3688C110.163 18.7535 109.004 20.8822 108.022 20.8822C107.879 20.881 107.768 20.8345 107.684 20.7416C107.427 20.4573 107.49 19.7813 107.578 18.8452C107.642 18.1576 107.715 17.3792 107.685 16.5531C107.627 14.965 106.758 14.0114 105.361 14.001C103.585 14.0004 102.435 15.8913 101.905 17.0184L101.747 17.3543L101.712 16.9838C101.579 15.5891 101.111 13.9233 99.6336 13.9124C97.9098 13.9124 96.5965 15.9351 95.7953 17.6328L95.5806 18.0878L95.6019 17.5854C95.6969 15.3213 95.775 13.9843 95.8342 13.6135C95.8925 13.2415 95.8618 12.9918 95.74 12.8488C95.6246 12.7148 95.4072 12.6653 95.0883 12.6854C94.5364 12.7203 94.2543 13.0562 93.8294 14.1821C93.1315 16.031 91.3563 20.3328 89.9389 20.3328C89.6576 20.3307 89.435 20.235 89.2719 20.0476C88.6776 19.3664 88.9154 17.5241 89.2443 14.975L89.2692 14.7822C89.425 13.5752 89.1596 13.3177 88.5038 13.1971C88.4381 13.1848 88.3715 13.1782 88.3046 13.1777C87.781 13.1777 87.5362 13.6791 87.0473 15.0725C86.1771 17.552 85.058 20.1597 83.7496 20.1597C83.7016 20.1597 83.6545 20.156 83.6062 20.1484C82.9128 20.0303 82.928 19.0019 82.9472 17.6987C82.9569 16.9941 82.9687 16.195 82.8603 15.4737C82.6647 14.1793 81.9024 13.3711 80.8695 13.3629C78.8091 13.3629 77.4196 16.0016 76.7733 17.5748L76.627 17.9307L76.5781 17.5487C76.4511 16.5388 76.3677 15.524 76.3281 14.507L76.3263 14.4691L76.3497 14.4393C80.2059 9.58509 81.9364 6.0821 81.9595 3.08084C81.9744 1.16351 81.0897 0.0118447 79.5933 0C78.499 0 75.8975 0.911435 74.9933 9.35336C74.8244 10.9382 74.7331 12.5303 74.72 14.124L74.7194 14.1556L74.7014 14.1811C72.9372 16.7347 69.1718 21.1273 65.4854 21.1273C62.1546 21.1273 59.4971 18.4325 59.4971 13.6758C59.4971 7.29907 64.0105 3.38394 67.4072 3.38394H67.4355C68.1735 3.38941 68.8064 3.59562 69.2656 3.98012C69.7425 4.3792 69.9924 4.93863 69.9872 5.59768C69.9806 6.47814 69.6936 6.93067 69.4163 7.36771C69.3455 7.48038 69.2741 7.59215 69.2091 7.71059C69.1435 7.83026 69.0837 8.00367 69.1709 8.15219C69.2602 8.30435 69.4883 8.40002 69.7661 8.40214C70.5746 8.40214 71.7974 7.23164 71.8107 5.4683C71.8247 3.62266 70.27 1.72082 67.4962 1.72082C63.2986 1.72082 57.6451 6.33236 57.6451 13.8061C57.6451 19.0927 60.9598 22.7467 65.4498 22.7467C68.636 22.7467 71.7879 20.4652 74.5793 16.6546L74.7503 16.4237L74.7625 16.7104C74.8217 18.1054 74.9228 19.2042 74.9966 20.0069C75.0443 20.5229 75.0789 20.8956 75.0777 21.1012C75.0741 21.5516 75.1473 21.865 75.3031 22.057C75.4583 22.2492 75.7049 22.34 76.0791 22.3424C76.7059 22.3424 76.8317 21.9151 77.0798 20.8606L77.1512 20.5597C77.4597 19.282 78.5993 15.1114 80.3131 15.1114C80.5931 15.1141 80.809 15.1967 80.9624 15.3592C81.3408 15.7607 81.2995 16.5847 81.2515 17.5393C81.2212 18.1348 81.1908 18.7499 81.2503 19.3491C81.4116 20.9666 82.1101 21.7578 83.3854 21.7669C84.695 21.7675 86.0617 20.3568 86.783 19.046L86.9191 18.7991L86.9722 19.0766C87.1053 19.7782 87.7005 22.0809 89.5644 22.0809C91.2536 22.0809 92.7029 20.3021 94.2913 16.6409L94.4994 16.1628L94.4866 16.6843C94.4529 18.0717 94.3779 19.7658 94.3773 21.0757C94.3767 22.0888 94.479 22.4755 94.9474 22.4755L95.0537 22.4803C95.5029 22.4803 95.8078 22.2121 95.9599 21.6819C97.1553 17.5159 98.1882 15.5758 99.2118 15.5758C100.214 15.5834 100.308 17.416 100.388 20.6541L100.394 20.8813C100.418 22.0138 100.459 22.5149 101.162 22.5201C101.696 22.5201 101.829 22.1007 102.105 21.0681C102.158 20.8713 102.215 20.6553 102.283 20.4221C103.248 17.0737 104.048 15.7076 105.044 15.7076C105.897 15.714 105.944 16.5932 105.96 16.882C105.993 17.5007 105.929 18.1485 105.868 18.7738C105.81 19.3551 105.752 19.9565 105.774 20.515C105.826 21.8246 106.543 22.5514 107.793 22.5608C109.415 22.5608 110.88 20.6632 112.162 16.9221L112.251 16.6615L112.353 16.9182C112.586 17.5062 112.889 18.3022 113.169 19.2519L113.18 19.288L113.165 19.3223C111.922 22.08 111.046 25.1518 111.034 26.793C111.017 28.9545 111.995 30.3592 113.525 30.371H113.552C114.384 30.371 116.325 30.0366 116.362 26.9436C116.378 25.676 116.078 23.8835 115.473 21.6151L115.403 21.3554L115.626 21.5042C116.402 22.0172 117.273 22.2914 118.15 22.2987ZM76.3327 11.8089C76.3673 11.0338 76.4326 10.2791 76.5252 9.56535C77.126 4.96657 78.3791 1.75514 79.5742 1.75514H79.5796C80.1494 1.75939 80.4343 2.19036 80.4285 3.03528C80.4121 5.11175 79.0964 8.08446 76.5185 11.8708L76.3169 12.1672L76.3327 11.8089ZM114.44 28.3419C114.25 28.5952 113.985 28.7237 113.653 28.7237C113.273 28.7204 112.987 28.5879 112.792 28.3277C112.246 27.5991 112.4 25.8861 113.29 22.7771C113.397 22.4053 113.512 22.032 113.634 21.6667L113.737 21.3566L113.828 21.6703C114.864 25.2593 115.07 27.5037 114.44 28.3419ZM114.763 19.1471L114.744 19.1128L114.706 18.9934L114.724 18.9579C115.906 16.5221 117.26 15.126 118.439 15.126H118.451C119.782 15.136 120.702 16.3338 120.689 18.0373C120.68 19.1744 120.179 19.8292 119.76 20.1782C119.283 20.5767 118.646 20.8045 118.015 20.8045C116.457 20.7926 115.388 19.8964 114.763 19.1471ZM118.439 15.2283V15.2268V15.2283ZM39.3711 21.896C41.1958 21.7502 42.6433 19.2686 43.1809 18.208L43.3194 17.9347L43.3719 18.2366C43.6301 19.7278 44.4413 22.2334 46.9788 22.2535H47C48.0976 22.2535 49.3428 21.5819 50.6014 20.3121L50.6938 20.2189L50.7609 20.331C51.6082 21.7481 52.7447 22.501 53.9547 22.439C55.736 22.3464 56.8172 21.0842 56.9122 20.2074C56.9365 19.9838 56.8776 19.7734 56.7497 19.6315C56.5897 19.4529 56.357 19.4323 56.1864 19.596L56.1047 19.6731C55.6901 20.0713 54.9175 20.8133 54.0756 20.857C53.0448 20.9074 52.2825 20.2912 51.7898 19.0192L51.7695 18.9658L51.8041 18.9208C54.6386 15.2134 56.6276 9.55655 56.4311 5.76229C56.3406 4.00624 55.8301 1.91277 53.9122 1.91277L53.7691 1.91641C53.0345 1.95437 52.3663 2.30455 51.7835 2.95662C50.004 4.94744 49.0729 9.8475 49.4109 15.4403C49.4807 16.6023 49.6827 17.6884 50.0104 18.6672L50.0289 18.7222L49.9916 18.7666C48.9398 19.9957 47.9021 20.6726 47.0693 20.6726C45.0657 20.6726 45.1331 17.313 45.2914 14.5274C45.3257 13.9266 45.3764 13.544 45.1987 13.3265C45.0718 13.1707 44.8592 13.0939 44.5494 13.0914L44.5133 13.0911C43.8001 13.0911 43.651 13.2378 43.2863 14.2959C42.5273 16.4942 41.0291 20.1834 39.5221 20.1834C39.1045 20.1794 38.7856 20.037 38.5672 19.7588C37.8362 18.8258 38.3914 16.4988 38.8372 14.6282C38.9174 14.292 38.9942 13.9691 39.0601 13.6703C39.1576 13.2269 39.1279 12.9034 38.9711 12.7075C38.8138 12.5123 38.5001 12.4333 38.0861 12.4661C37.4408 12.5177 37.028 12.788 36.8285 14.0153L36.7884 14.2704L36.6384 14.0888C36.3565 13.6727 35.8071 13.1771 34.7869 13.1771C34.6976 13.1771 34.605 13.1807 34.5093 13.1883C33.4208 13.2776 32.1814 14.036 31.2742 15.1679C30.2152 16.4893 29.7092 18.1619 29.8501 19.8781C29.8574 19.9689 29.8705 20.0561 29.8835 20.1427L29.8908 20.1903L29.858 20.2265C29.2245 20.9165 28.5788 21.267 27.9392 21.267C26.9518 21.2597 26.3854 20.5259 26.3854 19.3035C26.3854 17.2462 27.7797 11.0435 27.7797 8.79818C27.7797 6.40859 26.7149 5.1078 24.8659 5.09352H24.838C22.138 5.09352 20.0339 8.15705 18.0203 14.4602C17.829 15.0653 17.6434 15.6722 17.4633 16.2807L17.1805 17.2286L17.2641 16.2433C17.4462 14.1304 17.5735 12.0132 17.6458 9.89366C17.7461 6.84745 17.3345 4.887 16.3867 3.90055C15.8755 3.36845 15.1994 3.10635 14.3187 3.09967H14.2962C10.9925 3.09967 9.40982 8.67153 8.25724 12.6031C7.90949 13.79 7.22402 16.4672 6.76633 18.2973L7.03754 17.8566C7.24072 15.5521 7.82962 9.77947 7.79104 6.64761C7.74913 3.28797 6.63087 1.78187 4.16323 1.76304H4.13285C2.81475 1.76304 1.90028 2.41814 1.36545 2.96755C0.506554 3.84953 -0.028583 5.13847 0.00118059 6.25157C0.0194032 6.92824 0.434575 7.53049 0.749219 7.53049C0.954224 7.53049 1.06781 7.25685 1.11701 7.09376C1.88054 4.57023 2.86851 3.34324 4.13619 3.34324C4.66192 3.34719 5.0534 3.50208 5.34618 3.81703C6.33688 4.87971 6.15648 7.74917 5.82999 12.9587C5.7243 14.6376 5.60524 16.5398 5.50471 18.7037C5.48718 19.0607 5.46632 19.4176 5.44215 19.7743C5.34587 21.2767 5.26934 22.4642 5.8394 22.5526C6.58106 22.6683 7.06366 22.367 7.31088 21.6333C7.67715 20.5442 8.49869 17.5675 10.0883 12.1284C11.6135 6.9088 12.7658 5.0097 14.24 5.0097C15.9432 5.0097 16.0702 7.93413 15.758 14.1055C15.6915 15.4139 15.6025 16.8957 15.5341 18.5081C15.5247 18.7347 15.5141 18.9546 15.5032 19.1659C15.4376 20.5014 15.3859 21.5543 15.7674 21.9582C15.8864 22.084 16.048 22.1462 16.2621 22.1475C17.0004 22.1475 17.2225 21.5003 17.5903 20.4272C17.6552 20.238 17.7242 20.0358 17.801 19.8244C20.3309 12.8454 22.2015 6.79035 24.7123 6.79035C25.4652 6.79035 26.0513 7.40202 26.0513 8.595C26.0513 11.3487 24.7047 16.6694 24.7047 19.3676C24.7047 20.3343 24.9829 21.2017 25.5083 21.8116C26.0477 22.4378 26.8024 22.7713 27.6907 22.7789H27.7102C28.5502 22.7789 29.4252 22.3707 30.3121 21.5659L30.3953 21.4905L30.4621 21.5807C31.0461 22.3655 31.9882 22.7874 33.0057 22.709C34.5661 22.5875 35.8754 21.1981 36.3626 19.8879L36.4579 19.6315L36.553 19.8879C36.915 20.86 37.698 22.0317 39.3711 21.896ZM53.75 3.66062L53.7767 3.66001C53.955 3.66001 54.1117 3.7493 54.2417 3.92606C54.8613 4.76369 54.8707 7.82115 53.805 11.2998C53.196 13.2879 52.3769 15.1661 51.4372 16.7305L51.2872 16.9795L51.2489 16.6913C51.1384 15.85 51.0837 14.9741 51.0454 14.2288C50.7736 8.97069 52.3642 3.7326 53.75 3.66062ZM36.4361 15.9496C35.89 18.147 34.8428 20.7996 32.9546 20.9514L32.801 20.9578C32.0177 20.9578 31.5785 20.4452 31.4956 19.4332C31.3918 18.1673 31.9375 16.6849 32.8857 15.6557C33.4892 15.0002 34.1701 14.6394 34.8027 14.6394H34.8155C35.6139 14.6455 36.1737 15.2866 36.4309 15.8847L36.4446 15.9156L36.4361 15.9496ZM45.1936 7.89373C44.4965 7.89373 43.9338 8.44284 43.9283 9.11799C43.9228 9.79799 44.4823 10.3556 45.1747 10.3608L45.1848 10.4619V10.3608C45.8717 10.3608 46.4342 9.81196 46.4397 9.13712C46.4452 8.45681 45.886 7.8992 45.1936 7.89373ZM89.0168 7.89373C88.3198 7.89373 87.7573 8.44284 87.7516 9.11799C87.7461 9.79799 88.3052 10.3556 88.998 10.3608L89.0077 10.4619V10.3608C89.6953 10.3608 90.2578 9.81196 90.2632 9.13712C90.2681 8.45681 89.7093 7.8992 89.0168 7.89373Z" fill="#010101"/>
<path d="M123.144 20.9062C122.917 20.9067 122.699 20.997 122.539 21.1576C122.379 21.3181 122.288 21.5357 122.288 21.7627C122.289 21.9895 122.379 22.2068 122.539 22.367C122.7 22.5273 122.917 22.6174 123.144 22.6177C123.371 22.6174 123.588 22.5273 123.749 22.3671C123.909 22.2068 124 21.9895 124 21.7627C124 21.5357 123.91 21.318 123.749 21.1574C123.589 20.9968 123.371 20.9065 123.144 20.9062ZM123.144 22.494C122.739 22.494 122.412 22.1682 122.412 21.763C122.412 21.3579 122.739 21.0311 123.144 21.0311C123.549 21.0311 123.876 21.3579 123.876 21.763C123.876 22.1682 123.549 22.494 123.144 22.494ZM123.523 21.5392C123.523 21.3624 123.436 21.2658 123.213 21.2658H122.833V22.2523H122.957V21.8204H123.135L123.429 22.2523H123.57L123.275 21.8204C123.409 21.797 123.523 21.7211 123.523 21.5392ZM123.117 21.7093H122.958V21.3755H123.179C123.285 21.3755 123.4 21.4122 123.4 21.5386C123.399 21.7029 123.252 21.7093 123.117 21.7093Z" fill="#020202"/>
</svg>
