<svg width="124" height="49" viewBox="0 0 124 49" fill="none" xmlns="http://www.w3.org/2000/svg">
<path d="M20.3983 16.775L19.3 24.1641L11.676 35.3225L14.2458 33.9024L56.1194 10.8167L63.9247 6.53488L20.3983 16.775ZM20.1424 14.8103L52.9738 7.33572L50.8412 7.04742L42.2148 5.85149L23.9384 3.32083L0 0L8.77565 6.46013L19.8118 14.586L20.1424 14.8103ZM94.3569 42.2098C93.9943 44.3453 93.7704 44.8152 89.2599 48.3282L88.183 46.8547C91.6485 44.025 92.0856 43.7047 92.4055 41.8147L95.6577 23.3526L97.7584 23.0643L94.3569 42.2098ZM96.916 16.0062L99.0166 15.7179L98.2915 19.8075L96.2229 20.0958L96.916 16.0062ZM100.541 36.2301C100.509 36.5505 100.477 36.8708 100.477 37.1805C100.477 38.654 101.053 39.4228 103.506 39.4228C105.542 39.4228 107.558 38.7394 109.733 37.725L110.245 39.284C108.112 40.4159 105.66 41.206 103.271 41.206C99.9656 41.206 98.4621 39.9033 98.4621 37.2339C98.4728 36.6466 98.5368 36.07 98.6541 35.504L99.6884 29.5778C100.499 25.0931 102.802 22.8828 107.323 22.8828C110.181 22.8828 111.993 24.3349 111.993 26.9724C111.993 29.802 110.117 31.3183 105.297 32.6637C101.896 33.6034 100.989 33.8596 100.989 33.8596L100.541 36.2301ZM109.999 26.8976C109.999 25.3066 108.955 24.5805 107.11 24.5805C103.964 24.5805 102.301 26.2143 101.682 29.6846L101.288 31.9269C101.288 31.9269 101.97 31.7561 105.372 30.8485C108.667 29.9836 109.999 28.7876 109.999 26.8976ZM113.987 38.8569C113.998 38.622 114.019 38.3978 114.062 38.1735L116.376 24.9649H113.006L113.294 23.2351H116.696L117.453 18.9212L119.522 18.6329L118.732 23.2244H124L123.605 24.9543H118.402L116.131 37.9493C116.088 38.1735 116.067 38.3764 116.056 38.6006C116.056 39.284 116.408 39.4549 117.25 39.4549C118.231 39.4549 119.458 39.1666 120.758 38.6327L121.27 39.9994C119.937 40.7576 118.423 41.174 116.888 41.1954C115.118 41.206 113.987 40.4479 113.987 38.8569ZM40.1568 25.0504C42.4707 23.7797 45.2218 22.84 47.2691 22.84C49.1138 22.84 50.0201 23.7797 50.3507 25.0824C52.8458 23.6302 55.5542 22.84 57.5802 22.84C59.99 22.84 60.8004 24.431 60.8004 26.3531C60.8004 26.9404 60.7364 27.517 60.6085 28.0829L58.3693 40.8323H54.0294L56.2367 28.2751C56.2686 28.1149 56.2686 27.9548 56.2686 27.7946C56.2686 27.3354 56.0447 27.0471 55.3623 27.0471C54.2 27.0471 51.7369 28.1256 50.1268 29.1187L48.0581 40.8537H43.7183L45.9255 28.2965C45.9575 28.1363 45.9682 27.9761 45.9575 27.8159C45.9575 27.3568 45.7336 27.0685 45.0512 27.0685C43.8889 27.0685 41.4257 28.147 39.8156 29.14L37.747 40.875H33.4072L35.7424 27.7092L40.1568 25.0504ZM74.8649 40.843H71.2182L71.1862 38.8889C69.6827 40.2771 67.7847 41.206 65.4388 41.206C62.4105 41.206 61.3442 39.583 61.3442 37.1805C61.3549 36.5612 61.4189 35.9418 61.5362 35.3332L62.4425 30.1971C63.2636 25.4134 64.3938 22.8507 71.1968 22.8507C72.8923 22.8507 76.0378 23.3953 77.8505 23.9826L74.8649 40.843ZM73.0202 26.7588C72.1992 26.5987 71.3674 26.5026 70.5251 26.5026C67.742 26.5026 67.1875 27.6665 66.8143 29.9729L65.716 36.1554C65.6841 36.2942 65.6841 36.4437 65.6841 36.5825C65.6841 37.2339 66.0786 37.5222 66.8783 37.5222C68.2432 37.5222 70.2478 36.2195 71.5807 34.8847L73.0202 26.7588ZM80.6123 23.5448L85.0587 22.9361L81.9131 40.8537H77.5733L80.6123 23.5448ZM81.9451 16.0062L86.3916 15.3975L85.5386 20.3094L81.0921 20.9607L81.9451 16.0062ZM89.1853 16.0062L93.6318 15.3975L89.1533 40.843H84.8135L89.1853 16.0062Z" fill="#FFAD2A"/>
</svg>
