<svg width="130" height="14" viewBox="0 0 130 14" fill="none" xmlns="http://www.w3.org/2000/svg">
<path fill-rule="evenodd" clip-rule="evenodd" d="M97.5282 0.100939C97.9971 0.100939 98.096 0.382184 98.096 0.618658V1.48926H97.1997C96.7512 1.48926 96.6572 1.22144 96.6572 0.996772V0.101753H97.5282V0.100939ZM97.4521 2.95328C97.8237 2.95328 98.0203 3.1405 98.0203 3.49582V10.8033H97.2123V10.7748C96.923 10.7488 96.7329 10.5388 96.7329 10.2355V2.95328H97.4521ZM54.6882 8.65104C54.9649 8.90216 55.0443 9.00677 55.0471 9.01124L55.0793 9.05398L55.0427 9.09264C53.7964 10.3979 52.5448 10.9547 50.8574 10.9547C47.8284 10.9547 45.5438 8.60545 45.5438 5.49018C45.5438 2.41155 47.889 0 50.8826 0C52.9372 0 54.0707 0.80914 54.9897 1.6834L55.0345 1.72573L54.993 1.77132C54.991 1.77376 54.7622 2.02773 54.5367 2.25322C54.2803 2.53853 53.9319 2.46853 53.7186 2.28171C52.8485 1.55153 51.9392 1.21127 50.8574 1.21127C48.5907 1.21127 46.8817 3.02939 46.8817 5.43931C46.8817 7.83823 48.6282 9.71782 50.8574 9.71782C51.9807 9.71782 52.8248 9.40035 53.7703 8.62173C54.0031 8.41497 54.3943 8.35717 54.6882 8.65104ZM73.8767 2.7514C75.6908 2.7514 76.8174 3.96511 76.8174 5.91917V10.7528H76.1483C75.6257 10.7528 75.5552 10.4272 75.5552 10.109V6.17152C75.5552 4.73558 74.8511 3.91261 73.6244 3.91261C72.5877 3.91261 71.5417 4.63424 71.5417 6.24723V10.7528H70.8477C70.4814 10.7528 70.2795 10.551 70.2795 10.1847V6.14629C70.2795 4.74739 69.5579 3.91261 68.3491 3.91261C67.1423 3.91261 66.2668 4.9049 66.2668 6.27246V10.1847C66.2668 10.6385 66.0678 10.7276 65.7239 10.7276H65.0047V2.87757H65.6986C66.0755 2.87757 66.2916 3.09329 66.2916 3.47059V4.02535C66.776 3.34564 67.4598 2.70134 68.7276 2.70134C70.201 2.70134 70.9047 3.58618 71.2104 4.18001C71.8929 3.21946 72.7664 2.7514 73.8763 2.7514H73.8767ZM82.9889 2.77663C84.8058 2.77663 86.7371 4.20525 86.7371 6.85286C86.7371 9.50088 84.8058 10.9295 82.9885 10.9295C81.8175 10.9295 80.8708 10.435 80.0987 9.41866V13.151H79.3795C79.0242 13.151 78.8366 12.9544 78.8366 12.5828V2.92804H79.4552C79.8761 2.92804 80.0983 3.14172 80.0983 3.54629V4.35625C80.8712 3.29354 81.8183 2.77663 82.9889 2.77663ZM85.4245 6.85286C85.4245 4.9224 84.0846 3.91261 82.7614 3.91261C81.4154 3.91261 80.023 5.00299 80.023 6.82762C80.023 8.66813 81.415 9.76828 82.7614 9.76828C84.3296 9.76828 85.4245 8.56963 85.4245 6.85286ZM106.349 3.49623C106.349 3.11364 106.7 2.90281 106.942 2.90281H107.636V9.35191C107.636 11.7822 106.187 13.1758 103.661 13.1758C102.337 13.1758 101.145 12.8066 100.116 12.0789L100.072 12.0476L100.096 11.9991C100.099 11.993 100.175 11.8416 100.376 11.5148C100.484 11.3398 100.622 11.2584 100.775 11.2604C100.902 11.2636 101.042 11.3186 101.246 11.4435C101.976 11.8514 102.799 12.0655 103.636 12.0655C105.376 12.0655 106.374 11.0854 106.374 9.37715V8.649C105.548 9.65636 104.575 10.1468 103.409 10.1468C101.616 10.1468 99.711 8.85047 99.711 6.4487C99.711 5.37744 100.118 4.40835 100.858 3.7205C101.537 3.08841 102.467 2.72576 103.409 2.72576C104.893 2.72576 105.815 3.47385 106.349 4.16251V3.49623ZM106.4 6.49957C106.4 4.81902 104.976 3.9122 103.636 3.9122C102.122 3.9122 101.023 4.98997 101.023 6.47434C101.023 7.94935 102.147 9.06131 103.636 9.06131C104.995 9.06131 106.4 8.1032 106.4 6.49957ZM113.581 2.77663C115.413 2.77663 116.597 4.00988 116.597 5.91877V10.7777H115.827C115.474 10.7777 115.31 10.6059 115.31 10.2355V6.19676C115.31 4.78198 114.532 3.93784 113.227 3.93784C111.897 3.93784 110.969 4.90816 110.969 6.29769L110.994 10.7777H109.706V2.92804H110.4C110.696 2.92804 110.994 3.09573 110.994 3.47059V4.1389C111.61 3.23452 112.479 2.77663 113.581 2.77663ZM91.4698 2.8271C93.6176 2.8271 94.8142 3.94232 94.8399 5.96883V10.7528H94.1455C93.7751 10.7528 93.6026 10.5884 93.6026 10.2355V9.70438C92.911 10.507 91.968 10.9295 90.8642 10.9295C88.8438 10.9295 87.9231 9.64048 87.9231 8.44305C87.9231 6.86303 89.1515 5.95703 91.2932 5.95703H92.5928V6.39863C92.5928 6.76372 92.4072 6.94118 92.025 6.94118H91.3941C89.9858 6.94118 89.2105 7.46582 89.2105 8.41782C89.2105 9.4325 90.1853 9.89446 91.0909 9.89446C92.5464 9.89446 93.6021 9.03973 93.6021 7.86266V5.99447C93.6021 4.68389 92.8093 3.96267 91.3689 3.96267C90.7197 3.96267 90.1348 4.07826 89.4734 4.33712C89.2329 4.4173 88.9402 4.41038 88.8364 4.1503C88.7574 3.94877 88.6814 3.74606 88.6085 3.54222L88.589 3.48768L88.6419 3.46326C89.6106 3.02328 90.4828 2.8271 91.4698 2.8271ZM59.6911 2.8271C61.8385 2.8271 63.0356 3.94232 63.0612 5.96883V10.7528H62.3668C61.9965 10.7528 61.8239 10.5884 61.8239 10.2355V9.70438C61.1328 10.507 60.1897 10.9295 59.0855 10.9295C57.0651 10.9295 56.1448 9.64048 56.1448 8.44305C56.1448 6.86303 57.3732 5.95703 59.5149 5.95703H60.8051V6.39863C60.8051 6.76372 60.6191 6.94118 60.2373 6.94118H59.6154C58.2072 6.94118 57.4322 7.46582 57.4322 8.41782C57.4322 9.4325 58.407 9.89446 59.3126 9.89446C60.7681 9.89446 61.8239 9.03973 61.8239 7.86266V5.99447C61.8239 4.68389 61.0306 3.96267 59.5902 3.96267C58.941 3.96267 58.3565 4.07826 57.6947 4.33712C57.453 4.41811 57.1616 4.41038 57.0582 4.1503C56.979 3.94884 56.903 3.74612 56.8303 3.54222L56.8099 3.48687L56.864 3.46326C57.6133 3.13277 58.4742 2.8271 59.6911 2.8271ZM129.571 5.74212C129.855 5.94156 130 6.18821 130 6.47434V6.61638C129.997 6.83739 129.917 7.14835 129.571 7.40843L129.57 7.40924C129.403 7.5285 127.704 8.70517 125.906 9.95144C124.147 11.1704 122.165 12.5441 121.923 12.7155V12.9137L121.805 12.7159C121.8 12.7057 121.794 12.6971 121.8 12.6833H121.797V11.6487C121.797 11.2958 121.836 11.1261 122.229 10.8644C122.557 10.6535 127.749 7.0527 128.438 6.57568C127.755 6.1007 122.629 2.5422 122.277 2.28496L122.236 2.25485C121.976 2.06681 121.772 1.91865 121.772 1.52711V0.295491L121.87 0.364683C122.177 0.577957 129.37 5.59194 129.571 5.74212ZM125.075 7.13492C124.897 7.13492 124.721 7.07305 124.535 6.94973C124.086 6.64976 121.781 5.04695 121.758 5.03067L121.731 5.01194V4.22153C121.731 4.04 121.809 3.89632 121.946 3.82673C122.093 3.75184 122.277 3.77626 122.437 3.89266C122.784 4.1157 126.137 6.443 126.171 6.46701L126.247 6.51952L126.17 6.57121C126.17 6.57121 125.943 6.72221 125.692 6.89804C125.476 7.05596 125.275 7.13492 125.075 7.13492ZM18.0127 8.97868C18.259 9.22492 18.3851 9.32668 18.3864 9.3279L18.4372 9.3686L18.3949 9.41825C17.7815 10.1334 16.8666 10.9547 15.217 10.9547C12.9971 10.9547 11.1908 9.12602 11.1908 6.87809C11.1908 4.57807 12.9593 2.77663 15.217 2.77663C16.4856 2.77663 17.4498 3.20318 18.3428 4.15966L18.3819 4.20199L18.3432 4.24473C18.2028 4.40021 18.0591 4.55283 17.9118 4.7018C17.6643 4.94845 17.4046 4.93421 17.0693 4.65499C16.6167 4.28787 16.0383 3.9122 15.1917 3.9122C13.6846 3.9122 12.5034 5.20405 12.5034 6.85286C12.5034 8.50207 13.7175 9.79393 15.267 9.79393C15.9821 9.79393 16.6386 9.52733 17.219 9.00229C17.3896 8.86553 17.7441 8.71005 18.0127 8.97909V8.97868ZM26.3988 0.101346C26.7439 0.101346 26.9666 0.334157 26.9666 0.694769V1.48966H26.0707C25.6222 1.48966 25.5278 1.22185 25.5278 0.997179V0.101753H26.3988V0.101346ZM26.2978 2.95369C26.6695 2.95369 26.8656 3.14091 26.8656 3.49623V10.8037H26.0581V10.7752C25.7683 10.7492 25.5783 10.5392 25.5783 10.2359V2.95328H26.2978V2.95369ZM34.5944 3.37006C34.7185 3.07213 34.944 2.92764 35.2835 2.92764H36.1626L36.1239 3.01596C36.093 3.08678 33.0429 10.087 32.9179 10.3617C32.7856 10.6531 32.5947 10.7777 32.2801 10.7777H32.1283C31.8035 10.7777 31.6016 10.7154 31.4645 10.3857C31.3403 10.1122 28.2898 3.06154 28.2592 2.99032L28.221 2.90199H29.1245C29.4693 2.90199 29.7098 3.05992 29.8393 3.37006C29.9308 3.64479 31.8434 8.28513 32.204 9.16062C32.5654 8.28554 34.4808 3.64276 34.5944 3.37006ZM42.5026 6.38602C42.5759 6.38602 42.63 6.36648 42.6614 6.32781C42.7053 6.27612 42.7159 6.1821 42.6927 6.05593C42.5885 4.75593 41.6499 3.88656 40.3569 3.88656C39.074 3.88656 38.0723 4.94275 37.9209 6.4548C37.9205 6.45928 37.8961 6.63348 37.8961 6.87769C37.8961 7.09747 37.9205 7.27127 37.9205 7.27289C38.0817 8.8114 39.1517 9.84358 40.584 9.84358C41.4155 9.84358 42.0952 9.59327 42.6618 9.07759C42.8124 8.92699 43.0985 8.83379 43.4001 9.07474C43.6036 9.25301 43.7802 9.40442 43.7802 9.40442L43.8299 9.44674L43.7859 9.49477C42.8657 10.5042 41.8705 10.9543 40.5587 10.9543C38.3214 10.9543 36.6339 9.19073 36.6339 6.85286C36.6339 4.51417 38.2563 2.75099 40.4073 2.75099C42.3712 2.75099 43.8165 4.08192 44.0041 6.06407C44.0354 6.48777 43.9398 6.8321 43.7273 7.06084C43.5214 7.28266 43.2112 7.39541 42.8054 7.39541C42.1151 7.39541 40.4488 7.39785 39.0137 7.42064L38.9498 7.42145V6.92816C38.9498 6.58871 39.1525 6.38561 39.4924 6.38561H42.5026V6.38602ZM6.21263 0.490449C6.36241 0.815245 10.7622 10.59 10.807 10.6885L10.8469 10.7777H10.0931C9.93272 10.7777 9.44512 10.7777 9.25301 10.3621C9.11381 10.0597 5.89516 2.75425 5.42303 1.68259L3.1226 6.84024H6.52766V7.40843C6.52766 7.7784 6.25903 8.02668 5.85894 8.02668H2.6118C2.48928 8.29694 1.73265 9.96039 1.59345 10.2616C1.39809 10.6246 1.17016 10.7781 0.82949 10.7781H0L0.0398872 10.6885C0.0846585 10.5892 4.53411 0.691106 4.63383 0.466436C4.77221 0.21653 4.99485 0.0757042 5.24679 0.0757042H5.54961C5.89028 0.0757042 6.05715 0.180306 6.21182 0.489228L6.21263 0.490856V0.490449ZM23.706 9.66653C23.7772 9.71944 23.8619 9.82608 23.8619 10.0328C23.8619 10.3108 23.8375 10.5351 23.8366 10.5449L23.8326 10.5786L23.8021 10.5941C23.4016 10.7948 22.7613 10.9291 22.2086 10.9291C20.7682 10.9291 19.9749 10.1354 19.9749 8.69499V0.126174H20.5936C20.9843 0.126174 21.2367 0.358984 21.2367 0.719597V2.95328H23.0165C23.3385 2.95328 23.6852 3.13888 23.6852 3.54629V4.08884H21.2371L21.2623 8.51876C21.2623 9.33115 21.6742 9.74305 22.4862 9.74305C22.7528 9.74305 22.9441 9.69624 23.2269 9.61932C23.4142 9.56315 23.5892 9.58025 23.706 9.66694V9.66653Z" fill="#356AE6"/>
</svg>
