<svg width="124" height="28" viewBox="0 0 124 28" fill="none" xmlns="http://www.w3.org/2000/svg">
<path d="M1.79086e-05 13.9385C-0.0121808 6.24241 6.20917 0.0245031 13.931 7.11964e-05C21.6527 -0.0243607 27.9107 6.24241 27.8985 13.9507C27.8985 21.6711 21.6527 27.9257 13.9432 27.9135C6.24576 27.9135 1.79086e-05 21.6589 1.79086e-05 13.9385ZM7.01428 17.4322C7.07528 18.2751 7.09967 19.1302 7.19726 19.9731C7.29485 20.7794 7.11187 20.5961 7.91699 20.6817C9.85658 20.9138 11.8328 20.8771 13.7602 20.5595C15.8706 20.2052 17.8467 19.5089 19.579 18.214C21.421 16.8336 22.4945 15.0135 22.4945 12.6802C22.4945 10.2737 21.482 8.33134 19.579 6.86543C17.249 5.06969 14.0895 4.88645 11.662 6.40122C10.125 7.36628 9.12466 8.81998 8.38054 10.4325C7.39244 12.668 7.05088 15.0135 7.01428 17.4322Z" fill="#4264FA"/>
<path d="M37.2672 9.23452C39.3043 6.65696 43.0981 7.40213 44.4644 9.89419C44.6962 9.55214 44.9524 9.22231 45.2085 8.91691C46.404 7.64645 48.185 7.27997 49.8562 7.95185C51.4909 8.61151 52.5522 10.1141 52.5644 11.8243C52.5766 14.3652 52.5766 16.8939 52.5766 19.4348C52.5766 19.8135 52.4546 19.9235 52.0886 19.9235H50.271C49.8684 19.9235 49.7586 19.8013 49.7586 19.386V12.7283C49.7586 11.8976 49.4781 11.1891 48.8315 10.6516C47.5141 9.56435 45.7087 10.1385 45.1109 11.8365C44.9889 12.1664 44.928 12.5206 44.928 12.8749C44.9158 15.0004 44.9402 17.126 44.9524 19.2516C44.9524 19.838 44.8792 19.9113 44.318 19.9113H42.6956C42.2564 19.9113 42.1588 19.8135 42.1588 19.386V12.7894C42.1588 12.1175 41.9881 11.5067 41.5611 10.9814C40.39 9.57657 38.3406 9.88197 37.5965 11.6044C37.4013 12.0564 37.3038 12.5328 37.2916 13.0337C37.255 15.1348 37.2794 17.2482 37.2794 19.3493C37.2794 19.8502 37.2062 19.9235 36.6938 19.9235H34.9738C34.62 19.9235 34.498 19.8013 34.498 19.447V8.37941C34.498 8.03736 34.62 7.92742 34.9494 7.92742C35.5715 7.92742 36.2059 7.92742 36.828 7.92742C37.1574 7.92742 37.2672 8.04958 37.2794 8.37941V8.79475C37.2672 8.79475 37.2672 9.0635 37.2672 9.23452Z" fill="#4364FA"/>
<path d="M88.4285 9.32047C88.8555 9.00286 89.2337 8.68524 89.6606 8.42871C92.1735 6.93836 95.3208 7.57359 97.1262 9.91905C99.3952 12.8509 98.7365 17.2242 95.7356 19.252C93.5398 20.7424 90.6121 20.5225 88.6725 18.7023L88.4285 18.4702V19.3742C88.4285 19.814 88.3187 19.9239 87.904 19.9239H86.1474C85.7448 19.9239 85.6228 19.8017 85.6228 19.3986V12.9242V3.66449C85.6228 3.16364 85.7082 3.07812 86.2084 3.07812H87.9284C88.3187 3.07812 88.4285 3.18807 88.4285 3.57898V8.95399C88.4285 9.07615 88.4285 9.19831 88.4285 9.32047ZM95.699 13.9381C95.6624 13.6571 95.6502 13.3762 95.5892 13.0952C95.1256 10.8352 92.7469 9.55257 90.6731 10.4443C88.8921 11.2139 87.9894 13.3395 88.6481 15.233C89.2215 16.8577 90.6853 17.7983 92.1979 17.7128C94.2229 17.5907 95.6746 15.9659 95.699 13.9381ZM73.3753 9.33269L73.5827 9.14945C76.4494 6.64518 80.5116 7.29262 82.4756 10.5665C84.22 13.4617 83.4271 17.2975 80.6945 19.2154C78.5598 20.7057 75.6809 20.5469 73.7169 18.8367C73.6071 18.739 73.4973 18.6534 73.3509 18.5191C73.3387 18.6901 73.3387 18.8 73.3387 18.91V24.1873C73.3387 24.7126 73.2655 24.7858 72.741 24.7858H70.9966C70.655 24.7858 70.5452 24.6637 70.5452 24.3339V8.39206C70.5452 8.06223 70.6672 7.94007 71.0088 7.94007C71.6309 7.94007 72.2408 7.94007 72.863 7.94007C73.2289 7.94007 73.3387 8.06223 73.3509 8.44092C73.3509 8.70967 73.3509 8.99064 73.3631 9.25939C73.3631 9.28382 73.3631 9.30825 73.3753 9.33269ZM73.3265 13.9381C73.3509 14.1946 73.3753 14.4634 73.4241 14.7199C73.7535 16.6745 75.6199 17.9938 77.5717 17.664C78.0596 17.5784 78.5232 17.3952 78.9379 17.1265C80.5604 16.0637 81.0849 13.7549 80.0968 12.0202C79.1575 10.3833 77.2789 9.73581 75.5955 10.4443C74.2414 11.0185 73.3509 12.3989 73.3265 13.9381ZM64.5068 9.39377V8.36763C64.5068 8.07444 64.6532 7.94007 64.9338 7.94007H66.8734C67.154 7.94007 67.3004 8.08666 67.3004 8.36763V19.2765C67.3004 19.8873 67.2394 19.9483 66.6416 19.9483H65.0436C64.6044 19.9483 64.5068 19.8506 64.5068 19.4231V18.5435C64.4702 18.5557 64.4337 18.5679 64.3971 18.5924C61.506 21.4142 56.846 20.5591 55.0406 16.7111C53.6134 13.6693 54.7723 9.94348 57.6268 8.35541C59.7493 7.17046 62.3843 7.47586 64.1897 9.1128C64.2873 9.18609 64.3727 9.25939 64.5068 9.39377ZM64.5068 13.8526C64.4946 13.7426 64.4824 13.535 64.458 13.3273C64.2141 11.2384 62.1281 9.77246 60.0787 10.2489C57.9805 10.7375 56.7363 13.0585 57.456 15.1719C57.9805 16.7233 59.481 17.8105 60.9692 17.7128C62.982 17.5907 64.4824 16.0026 64.5068 13.8526ZM112.643 13.9259C112.655 17.383 109.776 20.2293 106.251 20.2415C102.725 20.2537 99.8099 17.4319 99.7977 13.9503C99.7855 10.4688 102.664 7.62245 106.202 7.62245C109.74 7.62245 112.631 10.4443 112.643 13.9259ZM109.862 13.9259C109.813 13.6083 109.788 13.2784 109.703 12.973C109.227 11.0551 107.324 9.82132 105.495 10.2367C103.311 10.7253 102.055 13.0341 102.786 15.1963C103.323 16.7478 104.811 17.8228 106.312 17.725C108.3 17.5907 109.862 15.9293 109.862 13.9259Z" fill="#4365FA"/>
<path d="M118.657 11.7279C119.328 10.604 119.987 9.52899 120.596 8.44178C120.816 8.05087 121.084 7.89206 121.524 7.91649C122.182 7.95314 122.841 7.91649 123.5 7.92871C123.658 7.92871 123.805 8.002 123.915 8.11195C123.976 8.19746 123.902 8.41734 123.829 8.52729C122.719 10.2375 121.597 11.9478 120.462 13.6458C120.34 13.7924 120.34 14 120.462 14.1344C121.585 15.8202 122.707 17.5182 123.817 19.2162C123.878 19.2895 123.927 19.375 123.963 19.4483C124.061 19.6927 123.939 19.9003 123.671 19.9125C122.865 19.9248 122.06 19.937 121.255 19.9003C121.084 19.8881 120.865 19.7049 120.767 19.5338C120.109 18.4833 119.474 17.4083 118.84 16.3333C118.791 16.2478 118.742 16.1745 118.669 16.0645L117.254 18.4466C117.022 18.8253 116.79 19.1918 116.571 19.5827C116.449 19.827 116.205 19.9736 115.937 19.9492C115.205 19.937 114.473 19.9492 113.741 19.937C113.607 19.937 113.411 19.8637 113.35 19.766C113.302 19.6682 113.35 19.4606 113.436 19.3506C114.558 17.6282 115.68 15.9179 116.815 14.2077C116.949 14 116.961 13.8657 116.815 13.658C115.705 11.9844 114.595 10.3108 113.509 8.62502C113.424 8.49064 113.35 8.25854 113.411 8.12416C113.46 8.02643 113.704 7.96535 113.863 7.96535C114.534 7.95314 115.205 7.96535 115.876 7.95314C116.242 7.94092 116.473 8.08751 116.656 8.40513C117.254 9.43127 117.864 10.433 118.474 11.4469C118.523 11.5202 118.584 11.6057 118.657 11.7279Z" fill="#4364FA"/>
<path d="M19.7253 12.337C18.8348 12.7768 18.0053 13.1677 17.188 13.583C17.0172 13.6808 16.883 13.8151 16.7976 13.9862C16.3829 14.8046 15.9803 15.6353 15.5655 16.5026C15.4313 16.2217 15.3094 15.9896 15.1874 15.7453C15.0044 15.3666 14.7848 15.0123 14.6506 14.6092C14.4189 13.9007 13.9309 13.4853 13.2478 13.2288C12.6378 12.9967 12.0645 12.6668 11.418 12.3614C11.5278 12.3004 11.6009 12.2393 11.6741 12.2149C12.4061 11.8606 13.138 11.4941 13.8699 11.1521C14.0895 11.0543 14.2603 10.8833 14.3579 10.6634C14.736 9.85718 15.1386 9.05093 15.5533 8.18359C15.8583 8.79439 16.1755 9.34411 16.395 9.93047C16.639 10.6756 17.2246 11.262 17.9809 11.5063C18.5542 11.714 19.1032 12.0316 19.7253 12.337Z" fill="#4365FA"/>
</svg>
