<svg width="84" height="76" viewBox="0 0 84 76" fill="none" xmlns="http://www.w3.org/2000/svg">
<path fill-rule="evenodd" clip-rule="evenodd" d="M42.6153 68.192L46.0641 66.7594C45.8725 66.2763 45.3061 65.9431 44.6313 65.9431C43.7691 65.939 42.5736 66.7011 42.6153 68.192ZM46.6639 69.5787L47.9802 70.4533C47.5553 71.0821 46.5348 72.1649 44.7646 72.1649C42.5736 72.1649 40.9908 70.4699 40.9908 68.3086C40.9908 66.0139 42.5861 64.4522 44.5771 64.4522C46.5806 64.4522 47.5595 66.0431 47.8802 66.9051L48.0552 67.3424L42.8985 69.4746C43.2942 70.2492 43.9065 70.6449 44.7687 70.6449C45.6268 70.6449 46.2266 70.2201 46.6639 69.5787ZM38.3042 71.9317H39.9995V60.5959H38.3042V71.9317ZM35.5384 68.3211C35.5384 66.9634 34.6304 65.9681 33.4766 65.9681C32.3103 65.9681 31.3273 66.9634 31.3273 68.3211C31.3273 69.6662 32.3061 70.6449 33.4766 70.6449C34.6345 70.6449 35.5384 69.6662 35.5384 68.3211ZM37.0296 64.6854V71.611C37.0296 74.4596 35.351 75.6298 33.3641 75.6298C31.4939 75.6298 30.3693 74.3721 29.9444 73.3518L31.4189 72.7396C31.6813 73.3685 32.327 74.1139 33.3641 74.1139C34.6345 74.1139 35.4259 73.3268 35.4259 71.8484V71.2945H35.3635C34.9844 71.7609 34.2513 72.1732 33.3308 72.1732C31.4023 72.1732 29.632 70.4949 29.632 68.3294C29.632 66.1513 31.3981 64.4564 33.3308 64.4564C34.2513 64.4564 34.9844 64.8645 35.3635 65.3184H35.4218V64.6896C35.4218 64.6854 37.0296 64.6854 37.0296 64.6854ZM18.5315 68.3086C18.5315 66.9218 17.5401 65.9723 16.3947 65.9723C15.245 65.9723 14.2578 66.9218 14.2578 68.3086C14.2578 69.6829 15.2492 70.6449 16.3947 70.6449C17.5401 70.6449 18.5315 69.6787 18.5315 68.3086ZM20.1976 68.3086C20.1976 70.5283 18.4898 72.1649 16.3947 72.1649C14.2995 72.1649 12.5917 70.5283 12.5917 68.3086C12.5917 66.0722 14.2995 64.4522 16.3947 64.4522C18.4898 64.4522 20.1976 66.0722 20.1976 68.3086ZM27.0537 68.3086C27.0537 66.9218 26.0623 65.9723 24.9169 65.9723C23.7672 65.9723 22.7801 66.9218 22.7801 68.3086C22.7801 69.6829 23.7714 70.6449 24.9169 70.6449C26.0623 70.6449 27.0537 69.6787 27.0537 68.3086ZM28.7198 68.3086C28.7198 70.5283 27.012 72.1649 24.9169 72.1649C22.8217 72.1649 21.1139 70.5283 21.1139 68.3086C21.1139 66.0722 22.8217 64.4522 24.9169 64.4522C27.012 64.4522 28.7198 66.0722 28.7198 68.3086ZM6.07718 72.1649C2.77826 72.1649 0 69.4746 0 66.1763C0 62.8739 2.77826 60.1836 6.07718 60.1836C7.90575 60.1836 9.20533 60.8999 10.1842 61.8369L9.03039 62.9905C8.33062 62.3325 7.38093 61.8202 6.07718 61.8202C3.66547 61.8202 1.77859 63.7651 1.77859 66.1722C1.77859 68.5834 3.66547 70.5241 6.07718 70.5241C7.63917 70.5241 8.53055 69.8952 9.1012 69.3247C9.56771 68.8583 9.87595 68.1836 9.99257 67.2633H6.07718V65.6266H11.5837C11.642 65.9181 11.6712 66.268 11.6712 66.6469C11.6712 67.8755 11.3338 69.3955 10.255 70.4741C9.20533 71.5777 7.85994 72.1649 6.07718 72.1649Z" fill="#5F6368"/>
<path d="M52.0503 71.8277V61.7578H53.351L56.8489 67.8912H56.9017L60.3996 61.7578H61.7003V71.8277H60.3996V65.8526L60.4523 64.1655H60.3996L57.2532 69.6837H56.4974L53.351 64.1655H53.2983L53.351 65.8526V71.8277H52.0503Z" fill="#63666A"/>
<path d="M65.6727 72.0569C64.9345 72.0569 64.3369 71.846 63.8447 71.4242C63.3525 71.0024 63.1064 70.4401 63.1064 69.7547C63.1064 68.999 63.4053 68.4191 63.9853 67.9973C64.5654 67.5755 65.286 67.3646 66.1297 67.3646C66.8856 67.3646 67.5184 67.5052 67.993 67.7864V67.5931C67.993 67.0834 67.8172 66.6792 67.4656 66.3805C67.1141 66.0817 66.6922 65.9236 66.1825 65.9236C65.8134 65.9236 65.4618 66.0114 65.163 66.1872C64.8642 66.3629 64.6533 66.6089 64.5302 66.9253L63.3525 66.4156C63.5107 66.0114 63.8271 65.6248 64.3017 65.2733C64.7763 64.9218 65.3915 64.7461 66.1649 64.7461C67.0438 64.7461 67.782 65.0097 68.3621 65.5194C68.9421 66.029 69.2409 66.7671 69.2409 67.6985V71.8636H68.0105V70.9146H67.9578C67.4305 71.6527 66.6747 72.0569 65.6727 72.0569ZM65.8837 70.8619C66.411 70.8619 66.9032 70.6685 67.3426 70.2643C67.782 69.8601 67.993 69.4032 67.993 68.8584C67.6238 68.5597 67.0789 68.4015 66.3407 68.4015C65.7079 68.4015 65.2333 68.5421 64.9169 68.8057C64.6005 69.0693 64.4423 69.4032 64.4423 69.7547C64.4423 70.0886 64.5829 70.3522 64.8818 70.5631C65.1806 70.774 65.5145 70.8619 65.8837 70.8619Z" fill="#63666A"/>
<path d="M74.286 72.0569C73.7587 72.0569 73.2841 71.9514 72.8798 71.723C72.4755 71.4945 72.1591 71.2133 71.9482 70.8794H71.8779L71.9306 71.8284V74.8687H70.6475V64.9394H71.8779V65.8884H71.9306C72.1415 65.5545 72.4404 65.2733 72.8622 65.0448C73.2841 64.8164 73.7587 64.7109 74.2684 64.7109C75.1648 64.7109 75.9207 65.0624 76.571 65.7654C77.2214 66.4683 77.5378 67.347 77.5378 68.3839C77.5378 69.4208 77.2214 70.2995 76.571 71.0024C75.9383 71.7054 75.1648 72.0569 74.286 72.0569ZM74.075 70.8619C74.6727 70.8619 75.1824 70.6334 75.6219 70.1765C76.0613 69.7195 76.2722 69.122 76.2722 68.3663C76.2722 67.6107 76.0613 67.0131 75.6219 66.5562C75.1824 66.0993 74.6727 65.8708 74.075 65.8708C73.4598 65.8708 72.9501 66.0993 72.5282 66.5386C72.1064 66.9956 71.8955 67.5931 71.8955 68.3488C71.8955 69.1044 72.1064 69.7195 72.5282 70.1589C72.9501 70.651 73.4598 70.8619 74.075 70.8619Z" fill="#63666A"/>
<path d="M81.2938 72.0549C80.5204 72.0549 79.8876 71.8616 79.3955 71.4926C78.8857 71.1235 78.5342 70.649 78.2881 70.0866L79.4482 69.6121C79.8173 70.4733 80.4325 70.9126 81.3114 70.9126C81.7157 70.9126 82.0496 70.8248 82.2957 70.649C82.5594 70.4733 82.6824 70.2448 82.6824 69.9461C82.6824 69.4891 82.366 69.1904 81.7332 69.0322L80.3446 68.6983C79.9052 68.5929 79.4833 68.3644 79.0966 68.0656C78.7099 67.7669 78.499 67.3275 78.499 66.8003C78.499 66.1852 78.7627 65.6931 79.3076 65.3241C79.8525 64.9375 80.4853 64.7617 81.2235 64.7617C81.8387 64.7617 82.3836 64.9023 82.8582 65.1835C83.3328 65.4647 83.6843 65.8513 83.8777 66.3785L82.7527 66.8355C82.5067 66.2204 81.9793 65.9216 81.1708 65.9216C80.7841 65.9216 80.4677 66.0095 80.204 66.1676C79.9404 66.3258 79.8173 66.5367 79.8173 66.8179C79.8173 67.2045 80.1161 67.4857 80.7313 67.6263L82.1024 67.9426C82.7527 68.1008 83.2273 68.3468 83.5437 68.7159C83.8601 69.0849 84.0007 69.4891 84.0007 69.9461C84.0007 70.5611 83.7546 71.0884 83.2449 71.4926C82.7527 71.844 82.1024 72.0549 81.2938 72.0549Z" fill="#63666A"/>
<path d="M34.6108 37.8721C36.1895 39.8461 37.7973 42.3198 38.6387 43.819C39.6634 45.768 40.0882 47.084 40.8505 49.4244C41.2962 50.7154 41.721 51.1069 42.6124 51.1069C43.5871 51.1069 44.0328 50.4489 44.3743 49.4244C45.0866 47.2131 45.6364 45.5306 46.507 43.9231C48.2189 40.8455 50.3765 38.1053 52.4842 35.4733C53.0632 34.7362 56.7495 30.3926 58.4072 26.9444C58.4072 26.9444 60.4357 23.1797 60.4357 17.9157C60.4357 12.9933 58.4364 9.57422 58.4364 9.57422L52.6466 11.1276L49.1186 20.3936L48.2481 21.6555L48.0648 21.8928L47.8274 22.1844L47.4317 22.6591L46.8527 23.238L43.7204 25.7908L35.9021 30.3176L34.6108 37.8721Z" fill="#34A853"/>
<path d="M26.5303 26.3136C28.4505 30.6822 32.1118 34.5011 34.611 37.8702L47.8525 22.1825C47.8525 22.1825 45.9823 24.6312 42.6125 24.6312C38.8471 24.6312 35.7939 21.6327 35.7939 17.8389C35.7939 15.2319 37.3476 13.4453 37.3476 13.4453L28.3713 15.8399L26.5303 26.3136Z" fill="#FBBC04"/>
<path d="M48.0108 0.8125C52.4052 2.2326 56.1707 5.20606 58.4366 9.60378L47.8526 22.2098C47.8526 22.2098 49.4062 20.394 49.4062 17.8162C49.4062 13.9474 46.1406 11.0239 42.6126 11.0239C39.2679 11.0239 37.3477 13.4435 37.3477 13.4435V5.49758L48.0108 0.8125Z" fill="#4285F4"/>
<path d="M28.9502 6.36754C31.5827 3.23583 36.1895 0 42.5583 0C45.6364 0 47.9815 0.816244 47.9815 0.816244L37.3475 13.4514H29.8166L28.9502 6.36754Z" fill="#1A73E8"/>
<path d="M26.5304 26.3176C26.5304 26.3176 24.7935 22.8693 24.7935 17.8969C24.7935 13.1868 26.6345 9.08064 28.9796 6.39453L37.3769 13.4742L26.5304 26.3176Z" fill="#EA4335"/>
</svg>
