<svg width="80" height="80" viewBox="0 0 80 80" fill="none" xmlns="http://www.w3.org/2000/svg">
<g clip-path="url(#clip0)">
<path d="M65.4157 34.8306C67.1949 35.8578 69.47 35.2482 70.4973 33.4689C71.5245 31.6897 70.9149 29.4146 69.1357 28.3873C67.3564 27.3601 65.0813 27.9697 64.0541 29.7489C63.0268 31.5282 63.6364 33.8033 65.4157 34.8306Z" fill="url(#paint0_linear)"/>
<path d="M60.5417 23.4282C62.3209 24.4555 64.596 23.8458 65.6233 22.0666C66.6505 20.2874 66.0409 18.0122 64.2616 16.985C62.4824 15.9577 60.2073 16.5674 59.18 18.3466C58.1528 20.1258 58.7624 22.401 60.5417 23.4282Z" fill="url(#paint1_linear)"/>
<path d="M53.196 16.3227C54.9752 17.35 57.2503 16.7404 58.2776 14.9611C59.3048 13.1819 58.6952 10.9068 56.9159 9.87953C55.1367 8.85228 52.8616 9.46189 51.8343 11.2411C50.8071 13.0204 51.4167 15.2955 53.196 16.3227Z" fill="url(#paint2_linear)"/>
<path d="M42.1227 15.6587C43.902 16.6859 46.1771 16.0763 47.2043 14.2971C48.2316 12.5178 47.6219 10.2427 45.8427 9.21546C44.0635 8.18822 41.7883 8.79783 40.7611 10.5771C39.7339 12.3563 40.3435 14.6314 42.1227 15.6587Z" fill="url(#paint3_linear)"/>
<path d="M64.053 29.7468L55.993 43.7071C55.6507 44.2999 54.8919 44.5032 54.2991 44.161C53.7063 43.8187 53.503 43.0599 53.8452 42.4671L65.6252 22.0636L59.182 18.3436L48.642 36.5994C48.2998 37.1921 47.5409 37.3955 46.9482 37.0532C46.3554 36.711 46.152 35.9521 46.4943 35.3594L58.2743 14.9559L51.831 11.2359L40.0511 31.6394C39.7088 32.2322 38.95 32.4355 38.3572 32.0933C37.7644 31.751 37.5611 30.9922 37.9033 30.3994L47.2033 14.2914L40.7601 10.5714L25.2601 37.4181L24.347 28.9557C24.2053 26.2251 22.0747 24.1072 19.5748 24.1816C17.0664 24.2855 15.1454 26.5612 15.2736 29.2755C15.2736 29.2755 16.1588 43.9416 16.5246 50.2123C16.8904 56.483 19.6814 62.8337 28.7384 68.0628C43.7339 76.7204 51.7623 65.9148 53.7562 62.4612C55.7501 59.0077 70.4962 33.4668 70.4962 33.4668L64.053 29.7468Z" fill="url(#paint4_linear)"/>
<path d="M31.4492 42.2344C34.2872 45.3591 37.4637 49.1464 36.7697 56.3518" stroke="#94F1DD" stroke-width="1.57076"/>
<path d="M51.3037 48.8945C47.0826 48.9135 42.1426 48.7407 37.2514 43.4044" stroke="#94F1DD" stroke-width="1.57076"/>
</g>
<defs>
<linearGradient id="paint0_linear" x1="64.0541" y1="29.749" x2="70.8592" y2="30.6108" gradientUnits="userSpaceOnUse">
<stop stop-color="#2D65BA"/>
<stop offset="1" stop-color="#133D8A"/>
</linearGradient>
<linearGradient id="paint1_linear" x1="59.18" y1="18.3466" x2="65.9852" y2="19.2084" gradientUnits="userSpaceOnUse">
<stop stop-color="#2D65BA"/>
<stop offset="1" stop-color="#133D8A"/>
</linearGradient>
<linearGradient id="paint2_linear" x1="51.8343" y1="11.2411" x2="58.6395" y2="12.103" gradientUnits="userSpaceOnUse">
<stop stop-color="#2D65BA"/>
<stop offset="1" stop-color="#133D8A"/>
</linearGradient>
<linearGradient id="paint3_linear" x1="40.7611" y1="10.5771" x2="47.5663" y2="11.4389" gradientUnits="userSpaceOnUse">
<stop stop-color="#2D65BA"/>
<stop offset="1" stop-color="#133D8A"/>
</linearGradient>
<linearGradient id="paint4_linear" x1="16.3139" y1="25.8098" x2="63.3764" y2="34.6753" gradientUnits="userSpaceOnUse">
<stop stop-color="#2D65BA"/>
<stop offset="1" stop-color="#133D8A"/>
</linearGradient>
<clipPath id="clip0">
<path d="M0 0H80V80H0V0Z" fill="white"/>
</clipPath>
</defs>
</svg>
