<svg width="24" height="24" viewBox="0 0 24 24" fill="none" xmlns="http://www.w3.org/2000/svg">
<path d="M3.05623 3.79805C2.86511 3.59031 2.8718 3.26882 3.0714 3.06922C3.271 2.86962 3.5925 2.86293 3.80023 3.05404L20.1702 18.1144C20.7784 18.6739 20.7982 19.6273 20.2139 20.2117C19.6295 20.7961 18.6761 20.7762 18.1166 20.168L3.05623 3.79805Z" fill="#2356A8"/>
<path d="M2.70577 8.1998C2.57769 8.0624 2.58145 7.84824 2.71427 7.71542C2.84709 7.5826 3.06125 7.57884 3.19865 7.70692L16.2608 19.8835C16.6646 20.2599 16.6758 20.8962 16.2854 21.2865C15.895 21.6769 15.2588 21.6657 14.8823 21.2619L2.70577 8.1998Z" fill="#2356A8"/>
<path d="M3.41623 13.2056C3.2908 13.064 3.29731 12.8492 3.43107 12.7154C3.56483 12.5817 3.77961 12.5752 3.92121 12.7006L11.2461 19.1884C11.6561 19.5515 11.6753 20.1851 11.288 20.5724C10.9007 20.9597 10.2672 20.9405 9.90401 20.5305L3.41623 13.2056Z" fill="#2356A8"/>
<path d="M12.6994 3.9165C12.574 3.77489 12.5805 3.56012 12.7143 3.42636C12.848 3.29259 13.0628 3.28609 13.2044 3.41152L20.5293 9.8993C20.9393 10.2624 20.9585 10.896 20.5712 11.2833C20.1839 11.6706 19.5504 11.6514 19.1872 11.2414L12.6994 3.9165Z" fill="#2356A8"/>
<path d="M7.70773 3.1998C7.57964 3.0624 7.5834 2.84824 7.71622 2.71542C7.84905 2.5826 8.06321 2.57884 8.2006 2.70692L21.2627 14.8835C21.6665 15.2599 21.6777 15.8962 21.2873 16.2865C20.897 16.6769 20.2607 16.6657 19.8843 16.2619L7.70773 3.1998Z" fill="#2356A8"/>
</svg>
