<svg width="24" height="24" viewBox="0 0 24 24" fill="none" xmlns="http://www.w3.org/2000/svg">
<path d="M16.947 12C17.2122 12 17.4666 12.1054 17.6541 12.2929C17.8416 12.4804 17.947 12.7348 17.947 13V22H15.947V14H7.947V22H5.947V13C5.947 12.7348 6.05236 12.4804 6.23989 12.2929C6.42743 12.1054 6.68178 12 6.947 12H16.947ZM11.947 16V18H9.947V16H11.947ZM11.947 6C13.0614 5.99967 14.154 6.30972 15.1021 6.89541C16.0502 7.4811 16.8165 8.31928 17.315 9.316L15.525 10.211C15.1929 9.54616 14.6823 8.98697 14.0502 8.59613C13.4181 8.2053 12.6896 7.99827 11.9465 7.99827C11.2034 7.99827 10.4749 8.2053 9.84282 8.59613C9.21075 8.98697 8.70005 9.54616 8.368 10.211L6.579 9.316C7.07753 8.31928 7.8438 7.4811 8.79192 6.89541C9.74005 6.30972 10.8326 5.99967 11.947 6ZM11.947 2C13.8043 1.9996 15.6251 2.51647 17.2051 3.49267C18.7852 4.46888 20.0622 5.86584 20.893 7.527L19.104 8.422C18.4394 7.09297 17.4178 5.97529 16.1537 5.19425C14.8896 4.41321 13.4329 3.99968 11.947 4C10.4611 3.99968 9.00441 4.41321 7.7403 5.19425C6.47619 5.97529 5.45458 7.09297 4.79 8.422L3 7.527C3.83086 5.86569 5.10801 4.46862 6.68828 3.49241C8.26856 2.51619 10.0895 1.99941 11.947 2Z" fill="#2356A8"/>
</svg>
