<svg width="127" height="70" viewBox="0 0 127 70" fill="none" xmlns="http://www.w3.org/2000/svg">
<path fill-rule="evenodd" clip-rule="evenodd" d="M47.053 34.231V42.1918C35.3655 42.1918 25.8906 32.7468 25.8906 21.0956H33.8766C33.8766 28.3501 39.7761 34.231 47.053 34.231ZM102.603 21.0956H94.6169C94.6169 13.8411 88.718 7.96083 81.4406 7.96083V0C93.1281 0 102.603 9.44498 102.603 21.0956ZM68.2137 21.0956C68.2137 28.3501 74.1132 34.231 81.3906 34.231V42.1918C69.7031 42.1918 60.2282 32.7468 60.2282 21.0956H60.2299C60.2299 13.8411 54.3304 7.96083 47.053 7.96083V0C58.741 0 68.2159 9.44498 68.2159 21.0956H68.2137Z" fill="#FF5000"/>
<path fill-rule="evenodd" clip-rule="evenodd" d="M30.8099 55.7662L30.6159 58.5949C28.7791 58.5949 27.49 59.465 27.49 60.7523V65.8285H24.4876V55.9478H27.3838L27.4366 57.1443C28.2141 56.2743 29.3796 55.7662 30.8099 55.7662ZM38.1798 55.7662L37.9852 58.5949C36.1489 58.5949 34.8593 59.465 34.8593 60.7523V65.8285H31.8575V55.9478H34.7536L34.8065 57.1443C35.5834 56.2743 36.749 55.7662 38.1798 55.7662ZM126.575 65.8285H123.697L123.644 64.6137C122.99 65.502 122.019 66.0095 120.712 66.0095C118.169 66.0095 116.121 63.9972 116.121 60.9333C116.121 57.8516 118.169 55.7662 120.712 55.7662C121.966 55.7662 122.92 56.256 123.573 57.0901V51.6873H126.575V65.8285ZM123.573 60.879C123.573 59.4107 122.708 58.3951 121.401 58.3951C120.094 58.3951 119.229 59.4107 119.229 60.8973C119.229 62.3656 120.094 63.3629 121.401 63.3629C122.708 63.3629 123.573 62.3839 123.573 60.879ZM47.98 61.9666H41.3752C41.552 62.9821 42.0814 63.5987 43.2298 63.5987C44.0417 63.5987 44.7129 63.2539 45.1722 62.6921L47.5034 63.8522C46.6732 65.1395 45.1367 66.0095 43.2648 66.0095C40.2274 66.0095 38.1965 64.0154 38.1965 60.9881C38.1965 57.8694 40.1568 55.7662 43.1236 55.7662C46.0726 55.7662 48.0506 57.7426 48.0506 60.734C48.0506 61.1508 48.0156 61.6223 47.98 61.9666ZM41.3752 59.9H44.907C44.7129 58.7942 44.1301 58.1776 43.1236 58.1776C42.1348 58.1776 41.5871 58.7942 41.3752 59.9ZM85.2255 58.3951C83.8658 58.3951 82.9827 59.3925 82.9827 60.879C82.9827 62.3656 83.848 63.3629 85.2255 63.3629C86.0557 63.3629 86.6914 63.1271 87.1685 62.5648L88.8635 64.6137C87.9276 65.5562 86.5857 66.0095 85.102 66.0095C81.9584 66.0095 79.8569 63.9612 79.8569 60.879C79.8569 57.8151 81.9762 55.7662 85.1727 55.7662C86.4617 55.7662 87.6451 56.2195 88.546 56.9451L86.8504 59.0299C86.4439 58.6492 85.9323 58.3951 85.2255 58.3951ZM65.0433 58.3951C63.6837 58.3951 62.8006 59.3925 62.8006 60.879C62.8006 62.3656 63.6659 63.3629 65.0433 63.3629C65.8736 63.3629 66.5092 63.1271 66.9863 62.5648L68.6814 64.6137C67.7454 65.5562 66.4035 66.0095 64.9199 66.0095C61.7762 66.0095 59.6747 63.9612 59.6747 60.879C59.6747 57.8151 61.794 55.7662 64.9905 55.7662C66.2795 55.7662 67.4629 56.2195 68.3638 56.9451L66.6683 59.0299C66.2623 58.6492 65.7501 58.3951 65.0433 58.3951ZM90.0577 65.8285V51.6873H93.0595V65.8285H90.0577ZM78.749 64.7947C78.749 67.9311 76.5591 69.9982 73.2386 69.9982C71.7199 69.9982 70.378 69.5809 69.4243 68.7834L70.0777 66.372C71.0492 67.1153 72.0557 67.3693 73.168 67.3693C74.6872 67.3693 75.711 66.372 75.7466 64.8677C75.0403 65.647 74.0688 66.0095 73.0801 66.0095C70.943 66.0095 69.5127 64.4687 69.5127 62.1298V55.9478H72.5145V61.6765C72.5145 62.6921 73.1507 63.3629 74.1395 63.3629C75.111 63.3629 75.7466 62.6921 75.7466 61.6765V55.9478H78.749V64.7947ZM94.1491 60.879C94.1491 57.8151 96.2684 55.7662 99.4476 55.7662C102.573 55.7662 104.692 57.8151 104.692 60.879C104.692 63.9612 102.573 66.0095 99.4476 66.0095C96.2684 66.0095 94.1491 63.9612 94.1491 60.879ZM101.584 60.879C101.584 59.3925 100.719 58.3951 99.4298 58.3951C98.123 58.3951 97.2577 59.3925 97.2577 60.879C97.2577 62.3656 98.123 63.3629 99.4298 63.3629C100.719 63.3629 101.584 62.3656 101.584 60.879ZM115.001 55.9478V62.2206C115.001 64.487 113.147 66.0095 110.375 66.0095C107.602 66.0095 105.747 64.2872 105.747 61.6765V55.9478H108.75V61.6765C108.75 62.6921 109.403 63.3629 110.375 63.3629C111.346 63.3629 111.999 62.6921 111.999 61.6765V55.9478H115.001ZM23.2821 55.9478V62.2206C23.2821 64.487 21.4275 66.0095 18.6548 66.0095C15.8821 66.0095 14.028 64.2872 14.028 61.6765V55.9478H17.0299V61.6765C17.0299 62.6921 17.6839 63.3629 18.6548 63.3629C19.6263 63.3629 20.2797 62.6921 20.2797 61.6765V55.9478H23.2821ZM58.6234 59.6282V65.8285H55.6216V60.0992C55.6216 59.0659 54.897 58.3951 53.8026 58.3951C52.6898 58.3951 51.9658 59.0659 51.9658 60.0992V65.8285H48.9634V55.9478H51.8596L51.8951 57.0536C52.6542 56.1835 53.7314 55.7662 54.8619 55.7662C57.1225 55.7662 58.6234 57.3076 58.6234 59.6282ZM10.8574 60.9266L13.0997 62.8952C11.7788 64.6674 9.65358 65.8175 7.25663 65.8175C3.24877 65.8175 0 62.6047 0 58.6409C0 54.6776 3.24877 51.4643 7.25663 51.4643C9.67029 51.4643 11.8074 52.6309 13.1266 54.4241L10.9108 56.4381C10.1593 55.2211 8.80392 54.4086 7.25663 54.4086C4.8931 54.4086 2.97705 56.3036 2.97705 58.6409C2.97705 60.9786 4.8931 62.8737 7.25663 62.8737C8.76834 62.8737 10.0962 62.0972 10.8574 60.9266ZM124.356 49.0828H123.873V50.6496H123.684V49.0828H123.196V48.9023H124.423L124.356 49.0828ZM126.021 50.6496V49.3872C126.021 49.3717 126.021 49.3573 126.021 49.3451C126.021 49.3307 126.022 49.3174 126.023 49.3041C126.023 49.2909 126.024 49.2759 126.025 49.2604C126.026 49.2444 126.028 49.225 126.029 49.2018H126.024C126.009 49.2427 125.994 49.2759 125.98 49.3014C125.966 49.3268 125.953 49.3512 125.939 49.3739L125.481 50.1299H125.357L124.874 49.3739C124.861 49.3529 124.846 49.3291 124.832 49.3025C124.817 49.2759 124.803 49.2427 124.787 49.2018H124.782C124.783 49.225 124.785 49.2444 124.787 49.2604C124.789 49.2759 124.79 49.2909 124.791 49.3041C124.791 49.3174 124.792 49.3307 124.792 49.3451C124.792 49.3573 124.792 49.3717 124.792 49.3872V50.6496H124.604V48.9023H124.797L125.334 49.7347C125.357 49.7702 125.374 49.7989 125.387 49.8222C125.4 49.8454 125.411 49.867 125.42 49.8886H125.422C125.431 49.867 125.44 49.8454 125.452 49.8222C125.463 49.7989 125.48 49.7702 125.502 49.7347L126.014 48.9023H126.21V50.6496H126.021Z" fill="#414042"/>
</svg>
