<svg width="130" height="43" viewBox="0 0 130 43" fill="none" xmlns="http://www.w3.org/2000/svg">
<path d="M18.3451 9.56641H0.333547V15.2993H12.0703C12.7999 15.2993 13.3836 15.883 13.3836 16.6126V26.7649H10.882C10.1524 26.7649 9.56864 26.1812 9.56864 25.4516V18.1552H4.60713C2.06383 18.1552 0 20.2191 0 22.7624V27.8907C0 30.434 2.06383 32.4978 4.60713 32.4978H22.9522V14.1527C22.9314 11.6302 20.8884 9.56641 18.3451 9.56641Z" fill="#0ABF53"/>
<path d="M40.1507 26.7672H37.6491C36.9194 26.7672 36.3357 26.1835 36.3357 25.4538V9.56865H31.3742C28.8309 9.56865 26.7671 11.6325 26.7671 14.1758V27.9138C26.7671 30.4571 28.8309 32.5209 31.3742 32.5209H49.7193V0H40.1507V26.7672Z" fill="#0ABF53"/>
<path d="M66.9178 26.7649H64.4162C63.6865 26.7649 63.1028 26.1812 63.1028 25.4516V9.56641H53.5342V27.9115C53.5342 30.4548 55.598 32.5186 58.1413 32.5186H66.9178V35.3955H53.8677V42.0873H71.8793C74.4226 42.0873 76.4864 40.0235 76.4864 37.4802V9.56641H66.9178V26.7649Z" fill="#0ABF53"/>
<path d="M98.6259 9.56641H80.2808V27.9115C80.2808 30.4548 82.3446 32.5186 84.8879 32.5186H102.899V26.7858H91.1628C90.4331 26.7858 89.8494 26.2021 89.8494 25.4725V15.3201H92.351C93.0807 15.3201 93.6644 15.9038 93.6644 16.6334V23.9298H98.6259C101.169 23.9298 103.233 21.866 103.233 19.3227V14.1944C103.233 11.6302 101.169 9.56641 98.6259 9.56641Z" fill="#0ABF53"/>
<path d="M125.393 9.56641H107.048V32.5186H116.616V15.3201H119.118C119.848 15.3201 120.431 15.9038 120.431 16.6334V32.5186H130V14.1735C130 11.6302 127.936 9.56641 125.393 9.56641Z" fill="#0ABF53"/>
</svg>
