<svg width="120" height="31" viewBox="0 0 120 31" fill="none" xmlns="http://www.w3.org/2000/svg">
<path d="M21.9616 2.29633C20.5522 0.68993 18.0046 0.0012295 14.7455 0.0012295H5.28639C4.96376 0.00105719 4.65166 0.116042 4.40625 0.325484C4.16085 0.534928 3.99825 0.825078 3.94772 1.14373L0.0108623 26.1246C-0.0073923 26.2405 -0.00030704 26.3589 0.0316304 26.4718C0.0635678 26.5847 0.119598 26.6893 0.195861 26.7785C0.272123 26.8676 0.366806 26.9392 0.473384 26.9882C0.579963 27.0372 0.695904 27.0626 0.81322 27.0625H6.65284L8.11948 17.76L8.07401 18.0513C8.12357 17.7333 8.28508 17.4435 8.52944 17.234C8.7738 17.0245 9.08493 16.9092 9.40679 16.9088H12.1818C17.6333 16.9088 21.9018 14.6946 23.1487 8.28918C23.1858 8.09974 23.2178 7.91536 23.2456 7.73519C23.616 5.36768 23.243 3.75623 21.9625 2.29717" fill="#003087"/>
<path d="M93.4516 14.1843C93.0946 16.5282 91.3047 16.5282 89.5737 16.5282H88.5887L89.2799 12.1519C89.322 11.8875 89.5493 11.693 89.817 11.693H90.2691C91.4478 11.693 92.5609 11.693 93.1351 12.364C93.4777 12.7656 93.5813 13.3617 93.4516 14.1843ZM92.6981 8.06852H86.1681C85.9519 8.06863 85.7427 8.14582 85.5782 8.28624C85.4137 8.42665 85.3047 8.6211 85.2706 8.83468L82.632 25.5781C82.6199 25.6557 82.6247 25.7351 82.6461 25.8107C82.6675 25.8863 82.705 25.9563 82.756 26.0161C82.807 26.0758 82.8704 26.1238 82.9417 26.1568C83.013 26.1897 83.0906 26.2069 83.1692 26.207H86.52C86.8324 26.207 87.0985 25.9797 87.1473 25.6716L87.8966 20.9231C87.9656 20.4828 88.3462 20.1569 88.7924 20.1569H90.8585C95.1607 20.1569 97.6427 18.0765 98.291 13.9502C98.5832 12.1468 98.3028 10.729 97.4583 9.73638C96.5297 8.64524 94.8837 8.06768 92.6989 8.06768" fill="#009CDE"/>
<path d="M46.8761 14.1859C46.5191 16.5299 44.7292 16.5299 42.9974 16.5299H42.0123L42.7035 12.1535C42.7456 11.8892 42.9729 11.6947 43.2407 11.6947H43.6928C44.8715 11.6947 45.9845 11.6947 46.5587 12.3657C46.9022 12.7673 47.0058 13.3634 46.8761 14.1859ZM46.1226 8.07018H39.5926C39.1464 8.07018 38.7658 8.39516 38.6959 8.83634L36.0565 25.5798C36.0442 25.6574 36.0489 25.7368 36.0702 25.8125C36.0916 25.8881 36.1291 25.9583 36.1801 26.018C36.2312 26.0778 36.2946 26.1258 36.366 26.1587C36.4374 26.1916 36.515 26.2087 36.5936 26.2087H39.7121C40.1584 26.2087 40.5381 25.8837 40.608 25.4425L41.3211 20.9256C41.3901 20.4844 41.7707 20.1594 42.2169 20.1594H44.283C48.5852 20.1594 51.0672 18.0782 51.7155 13.9519C52.0077 12.1485 51.7273 10.7307 50.8829 9.73804C49.9542 8.6469 48.3082 8.06934 46.1234 8.06934L46.1226 8.07018ZM61.2832 20.1973C60.9801 21.9839 59.5631 23.1836 57.7538 23.1836C56.8471 23.1836 56.1205 22.8915 55.6541 22.3392C55.191 21.7919 55.0176 21.0115 55.1641 20.1434C55.4453 18.372 56.8866 17.1344 58.6682 17.1344C59.5564 17.1344 60.2762 17.4291 60.7528 17.9864C61.2318 18.548 61.4204 19.3327 61.2832 20.1973ZM65.641 14.1102H62.5141C62.3841 14.11 62.2583 14.1564 62.1595 14.2408C62.0607 14.3253 61.9954 14.4423 61.9753 14.5707L61.8389 15.4446L61.62 15.1281C60.9431 14.1455 59.4335 13.8163 57.9264 13.8163C54.472 13.8163 51.521 16.4347 50.9468 20.1056C50.648 21.9384 51.0723 23.6888 52.1112 24.9104C53.0651 26.0327 54.4265 26.5 56.0489 26.5C58.834 26.5 60.3781 24.7117 60.3781 24.7117L60.2384 25.5806C60.2261 25.6583 60.2308 25.7378 60.2522 25.8135C60.2735 25.8892 60.3111 25.9594 60.3623 26.0192C60.4134 26.079 60.4769 26.127 60.5484 26.1598C60.6199 26.1927 60.6977 26.2097 60.7764 26.2095H63.5918C64.038 26.2095 64.4185 25.8854 64.4884 25.4434L66.179 14.7399C66.1912 14.6622 66.1863 14.5827 66.1648 14.507C66.1434 14.4313 66.1057 14.3611 66.0545 14.3013C66.0033 14.2416 65.9397 14.1936 65.8682 14.1607C65.7967 14.1279 65.7189 14.1109 65.6402 14.111" fill="#003087"/>
<path d="M107.859 20.1973C107.556 21.9839 106.139 23.1836 104.329 23.1836C103.422 23.1836 102.696 22.8915 102.229 22.3392C101.766 21.7919 101.593 21.0115 101.739 20.1434C102.021 18.372 103.461 17.1344 105.244 17.1344C106.132 17.1344 106.852 17.4291 107.328 17.9864C107.807 18.548 107.996 19.3327 107.859 20.1973ZM112.216 14.1102H109.09C108.96 14.11 108.834 14.1564 108.735 14.2408C108.636 14.3253 108.571 14.4423 108.551 14.5707L108.414 15.4446L108.195 15.1281C107.518 14.1456 106.009 13.8164 104.502 13.8164C101.048 13.8164 98.0973 16.4348 97.5222 20.1056C97.2234 21.9384 97.6485 23.6888 98.6875 24.9104C99.6414 26.0327 101.003 26.5 102.625 26.5C105.411 26.5 106.955 24.7117 106.955 24.7117L106.815 25.5806C106.803 25.6582 106.807 25.7377 106.829 25.8134C106.85 25.8891 106.887 25.9593 106.938 26.0191C106.989 26.079 107.053 26.127 107.124 26.1599C107.195 26.1927 107.273 26.2097 107.352 26.2095H110.166C110.613 26.2095 110.993 25.8854 111.064 25.4434L112.754 14.74C112.767 14.6622 112.762 14.5827 112.74 14.507C112.719 14.4313 112.681 14.3611 112.63 14.3013C112.579 14.2416 112.515 14.1936 112.444 14.1608C112.372 14.1279 112.294 14.1109 112.216 14.111" fill="#009CDE"/>
<path d="M82.2952 14.1114H79.1515C78.8509 14.1114 78.5705 14.2604 78.4022 14.5096L74.0662 20.8948L72.2283 14.7588C72.1722 14.5716 72.0573 14.4075 71.9007 14.2908C71.7441 14.174 71.554 14.1108 71.3586 14.1105H68.2696C68.1829 14.1106 68.0976 14.1313 68.0206 14.1709C67.9435 14.2105 67.8771 14.268 67.8267 14.3384C67.7763 14.4089 67.7435 14.4904 67.7309 14.5761C67.7183 14.6618 67.7263 14.7492 67.7543 14.8312L71.2146 24.9899L67.9597 29.5826C67.9022 29.6642 67.8682 29.7599 67.8614 29.8595C67.8546 29.959 67.8752 30.0585 67.9211 30.1471C67.9669 30.2357 68.0362 30.31 68.1215 30.3619C68.2067 30.4138 68.3045 30.4413 68.4043 30.4414H71.5447C71.841 30.4414 72.1197 30.2958 72.2898 30.0516L82.7414 14.9659C82.7982 14.8844 82.8315 14.7888 82.8378 14.6897C82.8441 14.5905 82.8231 14.4916 82.7771 14.4035C82.7311 14.3154 82.6619 14.2416 82.577 14.1901C82.492 14.1386 82.3946 14.1114 82.2952 14.1114Z" fill="#003087"/>
<path d="M115.902 8.52821L113.221 25.5781C113.209 25.6558 113.214 25.7352 113.235 25.8109C113.256 25.8865 113.294 25.9566 113.345 26.0164C113.396 26.0762 113.46 26.1241 113.531 26.157C113.603 26.19 113.68 26.207 113.759 26.207H116.454C116.9 26.207 117.281 25.882 117.351 25.4409L119.993 8.6966C120.006 8.61888 120.001 8.53942 119.98 8.4637C119.958 8.38799 119.921 8.31781 119.869 8.25802C119.818 8.19823 119.755 8.15024 119.683 8.11738C119.612 8.08452 119.534 8.06756 119.455 8.06768H116.44C116.31 8.06735 116.184 8.11353 116.085 8.19787C115.987 8.2822 115.922 8.39909 115.902 8.52737" fill="#009CDE"/>
<path d="M21.9616 2.29633C20.5522 0.68993 18.0046 0.0012295 14.7455 0.0012295H5.28639C4.96376 0.00105719 4.65166 0.116042 4.40625 0.325484C4.16085 0.534928 3.99825 0.825078 3.94772 1.14373L0.0108623 26.1246C-0.0073923 26.2405 -0.00030704 26.3589 0.0316304 26.4718C0.0635678 26.5847 0.119598 26.6893 0.195861 26.7785C0.272123 26.8676 0.366806 26.9392 0.473384 26.9882C0.579963 27.0372 0.695904 27.0626 0.81322 27.0625H6.65284L8.11948 17.76L8.07401 18.0513C8.12357 17.7333 8.28508 17.4435 8.52944 17.234C8.7738 17.0245 9.08493 16.9092 9.40679 16.9088H12.1818C17.6333 16.9088 21.9018 14.6946 23.1487 8.28918C23.1858 8.09974 23.2178 7.91536 23.2456 7.73519C23.616 5.36768 23.243 3.75623 21.9625 2.29717" fill="#003087"/>
<path d="M9.69473 7.77108C9.73898 7.49265 9.88102 7.23911 10.0953 7.05595C10.3097 6.8728 10.5822 6.77202 10.8642 6.77171H18.2799C19.158 6.77171 19.9772 6.82896 20.7257 6.94852C21.1349 7.01435 21.5398 7.10489 21.9381 7.21962C22.3904 7.34679 22.8281 7.52118 23.2439 7.73993C23.616 5.37159 23.2422 3.76098 21.9616 2.30107C20.5514 0.695515 18.0046 0.00681525 14.7455 0.00681525H5.28555C4.96321 0.00704499 4.65151 0.122208 4.40646 0.331614C4.1614 0.541023 3.99905 0.830953 3.94856 1.14932L0.0100188 26.1277C-0.00835939 26.2435 -0.00139518 26.362 0.030432 26.475C0.0622592 26.5879 0.118192 26.6926 0.194377 26.7818C0.270562 26.871 0.365187 26.9427 0.471732 26.9918C0.578276 27.0409 0.694207 27.0664 0.811535 27.0664H6.652L8.11864 17.7631L9.69473 7.77108Z" fill="#003087"/>
<path d="M23.2449 7.73712C23.216 7.92236 23.1837 8.10705 23.1481 8.29111C21.9012 14.6957 17.6326 16.9108 12.1811 16.9108H9.40524C9.08344 16.911 8.77232 17.0263 8.52807 17.2358C8.28382 17.4453 8.12252 17.7353 8.07331 18.0533L6.65213 27.0636L6.248 29.6197C6.23193 29.7212 6.23806 29.8249 6.26596 29.9238C6.29387 30.0227 6.34288 30.1143 6.40963 30.1924C6.47637 30.2706 6.55926 30.3333 6.65258 30.3762C6.7459 30.4192 6.84743 30.4415 6.95017 30.4414H11.8729C12.4555 30.4414 12.9506 30.0171 13.0424 29.442L13.0904 29.1911L14.0182 23.3111L14.0771 22.9861C14.1212 22.7075 14.2633 22.4537 14.4779 22.2705C14.6924 22.0873 14.9653 21.9867 15.2474 21.9868H15.9841C20.7528 21.9868 24.4867 20.0503 25.5779 14.4464C26.0325 12.1059 25.7968 10.1501 24.5928 8.7769C24.2105 8.35117 23.7537 7.9988 23.2449 7.73712Z" fill="#009CDE"/>
<path d="M21.9385 7.21515C21.7482 7.15874 21.552 7.10823 21.35 7.06361C21.1479 7.01898 20.9391 6.97941 20.7253 6.94574C19.9759 6.82366 19.1576 6.7664 18.2786 6.7664H10.8637C10.5815 6.76606 10.3085 6.86671 10.094 7.05016C9.8795 7.23361 9.73773 7.48774 9.69431 7.76662L8.11822 17.7603L8.07275 18.0508C8.12197 17.7328 8.28326 17.4428 8.52752 17.2333C8.77177 17.0238 9.08288 16.9085 9.40468 16.9083H12.1805C17.632 16.9083 21.9006 14.694 23.1475 8.28861C23.1845 8.09918 23.2157 7.91564 23.2443 7.73463C22.915 7.56232 22.572 7.41758 22.2188 7.30187C22.1271 7.27156 22.0336 7.24294 21.9385 7.21431" fill="#012169"/>
</svg>
