<svg width="140" height="20" viewBox="0 0 140 20" fill="none" xmlns="http://www.w3.org/2000/svg">
<path d="M4.77693 16.1534H8.04446C10.5668 16.1534 11.8278 15.3221 11.8278 13.7171C11.8278 12.1409 10.4807 11.281 7.84384 11.281H4.77693V16.1534ZM4.77693 4.40205V8.93076H7.64322C9.79283 8.93076 10.9106 8.12807 10.9106 6.66639C10.9106 5.17578 9.76422 4.40205 7.61449 4.40205H4.77693ZM0.219727 18.5898V16.1534H2.14009V4.40205H0.219727V1.96561H7.90121C11.4265 1.96561 13.5762 3.59939 13.5762 6.43704C13.5762 8.30005 12.4871 9.44659 11.1114 9.99105C13.089 10.5358 14.4934 11.9402 14.4934 13.8604C14.4934 16.8986 12.1432 18.5898 8.3023 18.5898H0.219727Z" fill="black"/>
<path d="M28.4237 9.93381C28.1371 8.95937 27.4205 8.38594 26.4747 8.38594C24.2679 8.38594 22.1754 10.0197 22.1754 13.0005V16.1534H26.4175V18.5898H16.959V16.1534H19.6531V8.81591H17.5322V6.37956H22.1467V8.44319C22.9207 7.01015 24.4971 5.97847 26.5893 5.97847C28.9398 5.97847 30.4013 7.32562 30.8313 9.24588L28.4237 9.93381Z" fill="black"/>
<path d="M41.3225 13.6612C40.5199 13.3745 39.316 13.1453 38.1983 13.1453C36.5931 13.1453 35.0453 13.6612 35.0453 15.1231C35.0453 16.212 36.0197 16.7282 37.3669 16.7282C39.2301 16.7282 41.3225 15.7248 41.3225 14.0053V13.6612ZM41.3225 11.4829V10.7951C41.3225 9.07521 39.9465 8.35865 38.4562 8.35865C37.0518 8.35865 35.8479 8.93211 34.8732 9.8203L33.2109 8.01492C34.3576 6.95425 35.9913 5.97981 38.4562 5.97981C41.523 5.97981 43.9021 7.61356 43.9021 10.7089V16.1547H45.679V18.5912H41.3225V17.3013C40.6632 18.3618 38.8862 18.9922 37.1377 18.9922C34.6153 18.9922 32.437 17.7026 32.437 15.1517C32.437 12.1422 35.3895 10.9957 38.0834 10.9957C39.4022 10.9957 40.4912 11.2537 41.3225 11.4829Z" fill="black"/>
<path d="M56.2843 3.94347H53.4467V0.217452H56.2843V3.94347ZM60.985 16.1534V18.5898H48.6602V16.1534H53.7621V8.81591H49.8641V6.37956H56.2843V16.1534H60.985Z" fill="black"/>
<path d="M64.0239 16.1534H65.8868V8.81591H64.1383V6.37956H68.3805V7.95597C69.1256 6.75228 70.6734 5.97847 72.565 5.97847C75.2879 5.97847 77.2369 7.6981 77.2369 10.4783V16.1534H79.1001V18.5898H72.7658V16.1534H74.7148V11.1661C74.7148 9.04526 73.425 8.44319 72.2498 8.44319C70.3292 8.44319 68.4092 9.87656 68.4092 12.0833V16.1534H70.358V18.5898H64.0239V16.1534Z" fill="black"/>
<path d="M82.5691 8.81726H79.3877V6.38091H82.5691V1.96696H85.0912V6.38091H91.0242V8.81726H85.0912V13.9477C85.0912 15.8396 86.4097 16.6133 87.9287 16.6133C89.3619 16.6133 90.5658 15.811 91.4542 14.9224L93.1453 16.6706C92.0276 17.8746 90.3078 18.9922 87.9287 18.9922C84.862 18.9922 82.5691 17.3013 82.5691 14.0339V8.81726Z" fill="black"/>
<path d="M106.903 9.93381C106.617 8.95937 105.9 8.38594 104.954 8.38594C102.747 8.38594 100.655 10.0197 100.655 13.0005V16.1534H104.897V18.5898H95.4385V16.1534H98.1327V8.81591H96.0118V6.37956H100.626V8.44319C101.4 7.01015 102.977 5.97847 105.069 5.97847C107.419 5.97847 108.881 7.32562 109.311 9.24588L106.903 9.93381Z" fill="black"/>
<path d="M113.697 11.2251H121.206C120.834 9.47657 119.286 8.3014 117.566 8.3014C115.617 8.3014 114.127 9.50518 113.697 11.2251ZM123.872 16.7282C122.611 18.0464 120.375 18.9922 117.881 18.9922C113.783 18.9922 110.917 16.2406 110.917 12.486C110.917 8.73137 113.697 5.97981 117.566 5.97981C121.407 5.97981 124.101 8.93211 124.101 12.9446V13.3745H113.582C114.012 15.4097 115.703 16.642 117.91 16.642C119.745 16.642 121.321 15.8969 122.181 14.9511L123.872 16.7282Z" fill="black"/>
<path d="M129.376 11.2251H136.885C136.513 9.47657 134.965 8.3014 133.245 8.3014C131.296 8.3014 129.806 9.50518 129.376 11.2251ZM139.551 16.7282C138.29 18.0464 136.054 18.9922 133.561 18.9922C129.462 18.9922 126.596 16.2406 126.596 12.486C126.596 8.73137 129.376 5.97981 133.245 5.97981C137.086 5.97981 139.78 8.93211 139.78 12.9446V13.3745H129.261C129.691 15.4097 131.382 16.642 133.589 16.642C135.424 16.642 137 15.8969 137.86 14.9511L139.551 16.7282Z" fill="black"/>
</svg>
