<svg width="130" height="28" viewBox="0 0 130 28" fill="none" xmlns="http://www.w3.org/2000/svg">
<g clip-path="url(#clip0)">
<path d="M37.3792 5.625L40.0748 17.8626H40.1467L42.8783 5.625H46.724V22.2983H43.7768V17.4666L44.0284 11.0111H43.9565L41.0812 22.3379H39.1044L36.265 11.0903H36.1932L36.4448 17.4666V22.2983H33.4976V5.625H37.3792Z" fill="#DB581F"/>
<path d="M55.9609 18.7339H51.9714L51.1448 22.2983H48.1616L52.4027 5.625H55.4937L59.7347 22.2983H56.7876L55.9609 18.7339ZM52.5824 16.12H55.3499L53.9841 10.2191H53.9122L52.5824 16.12Z" fill="#DB581F"/>
<path d="M71.5236 22.2983H68.5764L63.94 11.6448L63.8681 11.6844V22.2983H60.9209V5.625H63.8681L68.5045 16.2785L68.5764 16.2389V5.625H71.5236V22.2983Z" fill="#DB581F"/>
<path d="M83.8154 19.8026C83.42 20.5154 82.809 21.1491 81.9824 21.7035C81.1557 22.258 80.1134 22.5352 78.8914 22.5352C77.274 22.5352 75.9801 22.0204 75.0097 20.9511C74.0393 19.9214 73.5361 18.4164 73.5361 16.4758V11.4065C73.5361 9.50553 74.0034 8.00058 74.9378 6.97088C75.8723 5.90157 77.1303 5.38672 78.6758 5.38672C80.365 5.38672 81.6229 5.82236 82.4496 6.73325C83.2763 7.64414 83.7076 8.91147 83.7435 10.6144V10.6936H80.976C80.9401 9.74315 80.7604 9.06989 80.4009 8.63424C80.0415 8.1986 79.5024 8.00058 78.7476 8.00058C78.0288 8.00058 77.4537 8.27781 77.0584 8.83226C76.663 9.38672 76.4474 10.258 76.4474 11.4065V16.5154C76.4474 17.7036 76.663 18.5352 77.0584 19.0897C77.4537 19.6441 78.0647 19.9214 78.8555 19.9214C79.4305 19.9214 79.8618 19.8422 80.1494 19.6441C80.4369 19.4857 80.6525 19.2085 80.8322 18.8521V15.8818H78.8555V13.5847H83.8154V19.8026Z" fill="#DB581F"/>
<path d="M96.2513 16.3174C96.2513 18.258 95.7841 19.8026 94.8137 20.9115C93.8433 22.0204 92.5853 22.5748 90.968 22.5748C89.3506 22.5748 88.0926 22.0204 87.1222 20.9115C86.1518 19.8026 85.6846 18.2976 85.6846 16.3174V11.6441C85.6846 9.70355 86.1518 8.159 87.1222 7.05008C88.0926 5.94117 89.3506 5.38672 90.932 5.38672C92.5134 5.38672 93.8073 5.94117 94.7777 7.05008C95.7481 8.159 96.2154 9.70355 96.2154 11.6441V16.3174H96.2513ZM93.3041 11.6045C93.3041 10.4164 93.0885 9.50553 92.6931 8.91147C92.2978 8.31741 91.7227 8.00058 90.932 8.00058C90.1413 8.00058 89.5662 8.31741 89.1709 8.91147C88.7755 9.50553 88.5958 10.4164 88.5958 11.6045V16.3174C88.5958 17.5451 88.7755 18.4164 89.1709 19.0501C89.5662 19.6441 90.1413 19.961 90.932 19.961C91.6868 19.961 92.2618 19.6441 92.6931 19.0501C93.0885 18.456 93.3041 17.5451 93.3041 16.3174V11.6045Z" fill="#DB581F"/>
<path d="M101.103 16.3181V22.2983H98.1562V5.625H103.404C104.913 5.625 106.099 6.10025 106.962 7.09035C107.824 8.08045 108.256 9.34777 108.256 10.9715C108.256 12.5557 107.824 13.8626 106.926 14.8527C106.063 15.8428 104.877 16.3181 103.368 16.3181H101.103ZM101.103 13.7042H103.404C104.051 13.7042 104.518 13.4666 104.841 12.9517C105.165 12.4369 105.345 11.8032 105.345 11.0111C105.345 10.2191 105.165 9.54579 104.841 9.03094C104.518 8.51609 104.015 8.23886 103.404 8.23886H101.103V13.7042Z" fill="#DB581F"/>
<path d="M115.552 18.7339H111.562L110.736 22.2983H107.752L111.994 5.625H115.084L119.326 22.2983H116.342L115.552 18.7339ZM112.173 16.12H114.941L113.575 10.2587H113.503L112.173 16.12Z" fill="#DB581F"/>
<path d="M124.214 12.7537H124.286L126.801 5.625H130L125.687 16.3577V22.2983H122.74V16.1597L118.499 5.625H121.734L124.214 12.7537Z" fill="#DB581F"/>
<path d="M4.24108 18.6546L0 13.9813L4.24108 9.34766V18.6546Z" fill="#D1D72C"/>
<path d="M8.4823 13.9788L4.24121 9.34514L8.4823 4.67188V13.9788Z" fill="#F7CA5C"/>
<path d="M12.6871 9.34653L8.48193 4.67327L12.6871 0V9.34653Z" fill="#F1874C"/>
<path d="M8.4823 23.327L4.24121 18.6537L8.4823 13.9805V23.327Z" fill="#B3C868"/>
<path d="M12.6871 18.6546L8.48193 13.9813L12.6871 9.34766V18.6546Z" fill="#F1874C"/>
<path d="M12.6871 27.9989L8.48193 23.3256L12.6871 18.6523V27.9989Z" fill="#F7A532"/>
<path d="M21.1694 18.6546L25.4105 13.9813L21.1694 9.34766V18.6546Z" fill="#CC2B2B"/>
<path d="M16.9282 13.9788L21.1693 9.34514L16.9282 4.67188V13.9788Z" fill="#D7302F"/>
<path d="M12.6875 9.34653L16.9286 4.67327L12.6875 0V9.34653Z" fill="#F7A532"/>
<path d="M16.9282 23.327L21.1693 18.6537L16.9282 13.9805V23.327Z" fill="#DE3D29"/>
<path d="M12.6875 18.6546L16.9286 13.9813L12.6875 9.34766V18.6546Z" fill="#DE3D29"/>
<path d="M12.6875 27.9989L16.9286 23.3256L12.6875 18.6523V27.9989Z" fill="#EC6550"/>
</g>
<defs>
<clipPath id="clip0">
<rect width="130" height="28" fill="white"/>
</clipPath>
</defs>
</svg>
