<svg width="121" height="28" viewBox="0 0 121 28" fill="none" xmlns="http://www.w3.org/2000/svg">
<path d="M78.3566 10.0333C76.3332 8.25556 73.8907 7.38672 71.0665 7.38672C68.2813 7.38672 65.8388 8.25699 63.8139 10.0333C61.7905 11.7724 60.7622 14.1931 60.7622 17.2941C60.7622 20.395 61.7905 22.8144 63.8139 24.592C65.8373 26.3312 68.2813 27.2014 71.0665 27.2014C73.8907 27.2014 76.3332 26.3312 78.3566 24.592C80.4189 22.8144 81.4472 20.395 81.4472 17.2941C81.4472 14.1931 80.4175 11.7724 78.3566 10.0333ZM67.2516 21.2639C66.1844 20.2436 65.6472 18.9189 65.6472 17.2941C65.6472 15.6679 66.1801 14.3446 67.2516 13.3614C68.3187 12.3411 69.5803 11.8495 71.0651 11.8495C72.5513 11.8495 73.8504 12.3411 74.919 13.3614C76.0236 14.3446 76.5607 15.6679 76.5607 17.2941C76.5607 18.9203 76.0279 20.2436 74.919 21.2639C73.8518 22.247 72.5528 22.7386 71.0651 22.7386C69.5803 22.7386 68.3216 22.247 67.2516 21.2639Z" fill="black"/>
<path d="M88.6642 26.6707V0.722656H83.8555V26.6707H88.6642Z" fill="black"/>
<path d="M104.186 7.91797V18.2712C104.186 20.7662 102.825 22.4196 100.234 22.4196C97.5998 22.4196 96.2748 20.7677 96.2748 18.2712V7.91797H91.4575V19.0657C91.4575 23.3842 94.2053 27.2025 100.234 27.2025H100.271C106.263 27.2025 109.006 23.2999 109.006 19.0657V7.91797H104.186Z" fill="black"/>
<path d="M55.6435 7.91797L50.8348 20.6233L46.0261 7.91797H40.9121L48.5853 26.6738H53.0901L60.7618 7.91797H55.6435Z" fill="black"/>
<path d="M40.937 16.7639C40.937 14.0416 40.06 11.8109 38.3419 10.0333C36.6237 8.25556 34.4131 7.38672 31.7027 7.38672C28.9175 7.38672 26.5498 8.33273 24.6027 10.1847C22.6931 12.0382 21.7412 14.3817 21.7412 17.2941C21.7412 20.2064 22.6945 22.5886 24.5653 24.4406C26.475 26.294 28.7648 27.2014 31.4737 27.2014C35.6358 27.2014 38.5737 25.3866 40.3638 21.7183L36.7778 19.6762C35.5969 21.9827 33.8774 23.1173 31.5501 23.1173C28.6885 23.1173 26.6651 21.3025 26.3597 18.4287H40.9356V16.7639H40.937ZM31.5472 11.0164C34.2561 11.0164 36.052 12.5283 36.5085 14.9491H26.3569C27.0841 12.7184 29.0658 11.0164 31.5472 11.0164Z" fill="black"/>
<path d="M21.7411 26.6727L15.2892 15.4807C19.3706 14.006 21.394 11.4352 21.394 7.69116C21.3983 3.11545 17.7317 0.203125 11.8933 0.203125H0.484375V26.6727H5.52205V15.9337H9.79788L15.979 26.6727H21.7411ZM11.8933 4.58877C14.8701 4.58877 16.3592 5.76056 16.3592 8.06699C16.3592 10.3734 14.8687 11.5452 11.8933 11.5452H5.52205V4.58877H11.8933Z" fill="black"/>
<path d="M117.158 27.2034C114.063 27.2034 111.553 24.7155 111.553 21.6445V2.85156H116.361V7.92598H120.484V11.7829H116.361V21.3387C116.361 22.239 117.097 22.9678 118.007 22.9678H120.484V27.2034H117.158Z" fill="black"/>
</svg>
