<svg width="110" height="46" viewBox="0 0 110 46" fill="none" xmlns="http://www.w3.org/2000/svg">
<g clip-path="url(#clip0)">
<path d="M7.73051 17.936C7.73051 16.7445 8.70826 16.286 10.328 16.286C12.65 16.286 15.5833 16.989 17.9055 18.2417V11.061C15.3695 10.0528 12.864 9.65551 10.328 9.65551C4.125 9.65551 0 12.8945 0 18.303C0 26.736 11.611 25.3917 11.611 29.028C11.611 30.4333 10.389 30.8917 8.67775 30.8917C6.14174 30.8917 2.90275 29.8527 0.336016 28.4472V35.7195C3.17775 36.9417 6.05 37.461 8.67775 37.461C15.0333 37.461 19.4028 34.314 19.4028 28.8445C19.3722 19.739 7.73051 21.3583 7.73051 17.936ZM28.386 3.54449L20.9305 5.13326L20.9 29.6083C20.9 34.1307 24.2917 37.461 28.814 37.461C31.3195 37.461 33.1528 37.0028 34.161 36.4528V30.25C33.1835 30.6472 28.3555 32.0527 28.3555 27.5305V16.6833H34.161V10.175H28.3555L28.386 3.54449ZM43.664 12.436L43.175 10.175H36.575V36.911H44.214V18.7917C46.0165 16.439 49.0722 16.8667 50.0195 17.2028V10.175C49.0417 9.80826 45.4667 9.13601 43.664 12.436ZM51.8833 10.175H59.5528V36.911H51.8833V10.175ZM51.8833 7.85275L59.5528 6.20275V0L51.8833 1.61949V7.85254V7.85275ZM75.5028 9.65551C72.5083 9.65551 70.5833 11.061 69.514 12.039L69.1165 10.1445H62.3945V45.772L70.0333 44.1527L70.064 35.5055C71.164 36.3 72.7833 37.4305 75.4722 37.4305C80.9417 37.4305 85.9222 33.0305 85.9222 23.3445C85.8917 14.4833 80.85 9.65551 75.5028 9.65551ZM73.6695 30.7083C71.8667 30.7083 70.797 30.0667 70.064 29.2722L70.0333 17.936C70.8278 17.05 71.9278 16.439 73.6695 16.439C76.45 16.439 78.375 19.5555 78.375 23.5583C78.375 27.6528 76.4805 30.7083 73.6695 30.7083ZM110 23.65C110 15.8278 106.211 9.65551 98.9695 9.65551C91.697 9.65551 87.297 15.828 87.297 23.589C87.297 32.786 92.4917 37.4305 99.947 37.4305C103.583 37.4305 106.333 36.6055 108.411 35.4445V29.3333C106.333 30.3722 103.95 31.014 100.925 31.014C97.961 31.014 95.3333 29.975 94.9972 26.3695H109.939C109.939 25.972 110 24.3833 110 23.65ZM94.9055 20.7472C94.9055 17.2945 97.014 15.8583 98.939 15.8583C100.803 15.8583 102.789 17.2945 102.789 20.7472H94.9055Z" fill="#6772E5"/>
</g>
<defs>
<clipPath id="clip0">
<rect width="110" height="45.98" fill="white"/>
</clipPath>
</defs>
</svg>
