<svg width="24" height="24" viewBox="0 0 24 24" fill="none" xmlns="http://www.w3.org/2000/svg">
<path d="M18.25 11V8C18.25 7.86193 18.3619 7.75 18.5 7.75H19.5C20.7426 7.75 21.75 8.75736 21.75 10V14C21.75 15.2426 20.7426 16.25 19.5 16.25H17.5C16.5335 16.25 15.75 17.0335 15.75 18V20C15.75 21.2426 14.7426 22.25 13.5 22.25H10.5C9.25736 22.25 8.25 21.2426 8.25 20V15C8.25 14.3096 8.80964 13.75 9.5 13.75H15.5C17.0188 13.75 18.25 12.5188 18.25 11Z" stroke="#2356A8" stroke-width="1.5"/>
<path d="M5.75 14L5.75 16C5.75 16.1381 5.63807 16.25 5.5 16.25L4.5 16.25C3.25736 16.25 2.25 15.2426 2.25 14L2.25 10C2.25 8.75736 3.25736 7.75 4.5 7.75L6.5 7.75C7.4665 7.75 8.25 6.9665 8.25 6L8.25 4C8.25 2.75736 9.25736 1.75 10.5 1.75L13.5 1.75C14.7426 1.75 15.75 2.75736 15.75 4L15.75 10C15.75 10.6904 15.1904 11.25 14.5 11.25L8.5 11.25C6.98122 11.25 5.75 12.4812 5.75 14Z" stroke="#2356A8" stroke-width="1.5"/>
<circle cx="11.5" cy="5" r="1" fill="#2356A8"/>
<circle cx="12.5" cy="19" r="1" fill="#2356A8"/>
<rect x="6.5" y="7" width="5" height="1.5" fill="#2356A8"/>
<rect x="12.5" y="15.5" width="5" height="1.5" fill="#2356A8"/>
</svg>
