<svg width="24" height="24" viewBox="0 0 24 24" fill="none" xmlns="http://www.w3.org/2000/svg">
<path d="M12 13.4992C11.6022 13.4992 11.2206 13.3412 10.9393 13.0599C10.658 12.7786 10.5 12.397 10.5 11.9992C10.5 11.6014 10.658 11.2198 10.9393 10.9385C11.2206 10.6572 11.6022 10.4992 12 10.4992C12.3978 10.4992 12.7794 10.6572 13.0607 10.9385C13.342 11.2198 13.5 11.6014 13.5 11.9992C13.5 12.397 13.342 12.7786 13.0607 13.0599C12.7794 13.3412 12.3978 13.4992 12 13.4992ZM11.472 16.4932C11.647 16.7032 11.823 16.9072 12 17.1022C12.177 16.9072 12.353 16.7042 12.528 16.4932C12.176 16.5007 11.824 16.5007 11.472 16.4932ZM9.477 16.3682C8.70906 16.2883 7.9462 16.1654 7.192 16.0002C7.117 16.3502 7.06 16.6902 7.022 17.0162C6.832 18.5992 7.097 19.5612 7.5 19.7932C7.903 20.0262 8.868 19.7742 10.145 18.8192C10.408 18.6222 10.673 18.4032 10.939 18.1642C10.4185 17.5933 9.9304 16.9937 9.477 16.3682ZM16.808 16.0002C16.091 16.1602 15.325 16.2842 14.523 16.3682C14.0696 16.9937 13.5815 17.5933 13.061 18.1642C13.327 18.4042 13.592 18.6222 13.855 18.8192C15.132 19.7742 16.097 20.0262 16.5 19.7932C16.903 19.5612 17.167 18.5992 16.979 17.0162C16.9377 16.6751 16.881 16.3361 16.809 16.0002H16.808ZM18.258 15.6132C18.835 18.2522 18.532 20.3532 17.25 21.0932C15.968 21.8332 13.997 21.0452 12 19.2262C10.003 21.0452 8.032 21.8322 6.75 21.0922C5.468 20.3522 5.165 18.2522 5.741 15.6122C3.167 14.7932 1.5 13.4792 1.5 11.9992C1.5 10.5192 3.167 9.2062 5.741 8.3852C5.165 5.7462 5.468 3.6452 6.75 2.9052C8.032 2.1652 10.003 2.9532 12 4.7722C13.997 2.9532 15.968 2.1662 17.25 2.9062C18.532 3.6462 18.835 5.7462 18.259 8.3862C20.833 9.2052 22.5 10.5192 22.5 11.9992C22.5 13.4792 20.833 14.7922 18.259 15.6132H18.258ZM10.938 5.8342C10.6837 5.604 10.4191 5.38545 10.145 5.1792C8.868 4.2242 7.903 3.9722 7.5 4.2052C7.097 4.4372 6.833 5.3992 7.021 6.9822C7.061 7.3092 7.117 7.6482 7.191 7.9982C7.94553 7.83293 8.70872 7.71007 9.477 7.6302C9.952 6.9772 10.442 6.3762 10.939 5.8342H10.938ZM14.523 7.6302C15.325 7.7142 16.091 7.8392 16.808 7.9982C16.883 7.6482 16.94 7.3082 16.978 6.9822C17.168 5.3992 16.903 4.4372 16.5 4.2052C16.097 3.9722 15.132 4.2242 13.855 5.1792C13.5806 5.38542 13.3156 5.60398 13.061 5.8342C13.558 6.3762 14.048 6.9772 14.523 7.6302ZM12.528 7.5052C12.353 7.2952 12.177 7.0912 12 6.8962C11.823 7.0912 11.647 7.2942 11.472 7.5052C11.824 7.49773 12.176 7.49773 12.528 7.5052ZM8.372 14.7032C8.18956 14.4023 8.01352 14.0976 7.844 13.7892C7.749 14.0462 7.661 14.2992 7.581 14.5502C7.838 14.6062 8.102 14.6572 8.371 14.7032H8.372ZM10.304 14.9372C11.4331 15.0211 12.5669 15.0211 13.696 14.9372C14.3332 14.0012 14.9001 13.0191 15.392 11.9992C14.9001 10.9793 14.3332 9.99725 13.696 9.0612C12.5669 8.97733 11.4331 8.97733 10.304 9.0612C9.6668 9.99725 9.09991 10.9793 8.608 11.9992C9.09991 13.0191 9.6668 14.0012 10.304 14.9372ZM16.156 10.2092C16.251 9.9522 16.339 9.6992 16.419 9.4482C16.1568 9.39131 15.8934 9.3403 15.629 9.2952C15.8111 9.59611 15.9868 9.90084 16.156 10.2092ZM6.13 9.8362C5.79 9.9462 5.468 10.0662 5.166 10.1962C3.701 10.8242 3 11.5342 3 11.9992C3 12.4642 3.7 13.1742 5.166 13.8022C5.468 13.9322 5.79 14.0522 6.13 14.1622C6.352 13.4622 6.627 12.7362 6.955 11.9992C6.63982 11.2942 6.36439 10.572 6.13 9.8362ZM7.58 9.4482C7.661 9.6982 7.749 9.9522 7.844 10.2082C8.01353 9.90017 8.18957 9.59577 8.372 9.2952C8.102 9.3412 7.838 9.3922 7.581 9.4482H7.58ZM17.87 14.1622C18.21 14.0522 18.532 13.9322 18.834 13.8022C20.299 13.1742 21 12.4642 21 11.9992C21 11.5342 20.3 10.8242 18.834 10.1962C18.5183 10.0617 18.1966 9.94158 17.87 9.8362C17.648 10.5362 17.373 11.2622 17.045 11.9992C17.373 12.7362 17.648 13.4612 17.87 14.1622ZM16.42 14.5502C16.339 14.3002 16.251 14.0462 16.156 13.7902C15.9865 14.0982 15.8104 14.4026 15.628 14.7032C15.898 14.6572 16.162 14.6062 16.419 14.5502H16.42Z" fill="#2356A8"/>
</svg>
