<svg width="130" height="30" viewBox="0 0 130 30" fill="none" xmlns="http://www.w3.org/2000/svg">
<path d="M85.3744 4.33216C81.9517 4.31049 79.1788 7.08335 79.1788 10.4844C79.1572 13.9072 81.93 16.68 85.3311 16.68C88.7539 16.7017 91.5267 13.9288 91.5267 10.5278C91.5484 7.12668 88.8188 4.35382 85.4178 4.33216C85.4178 4.33216 85.3961 4.33216 85.3744 4.33216ZM85.3744 15.2503C82.7532 15.2286 80.6519 13.1056 80.6519 10.4844C80.6736 7.86321 82.7965 5.76191 85.4178 5.76191C88.039 5.78357 90.1403 7.90654 90.1403 10.5278C90.1186 13.149 87.9957 15.2503 85.3744 15.2503Z" fill="#24B4A6"/>
<path d="M47.8542 10.572V10.182C47.8542 9.12054 47.5942 8.05906 47.0743 7.12755C46.4894 6.02273 45.4713 5.17788 44.2798 4.80961C43.4783 4.57132 42.6334 4.48467 41.7886 4.59298C40.8787 4.65797 40.0122 5.00458 39.2973 5.54615C37.6076 6.84593 36.6978 8.92558 36.8927 11.0485C37.0227 12.4133 37.5859 13.6698 38.5175 14.6663C39.4056 15.6628 40.6404 16.291 41.9619 16.421C42.6984 16.5076 43.4349 16.4643 44.1498 16.3343C45.0163 16.161 45.8395 15.8144 46.5544 15.2945C46.8144 15.0995 47.031 14.8829 47.2476 14.6446C47.4642 14.4063 47.4209 14.038 47.1826 13.8214C47.161 13.7997 47.1393 13.7781 47.1176 13.7781C46.836 13.5615 46.4461 13.6048 46.2078 13.8647C45.8179 14.3197 45.298 14.6663 44.7131 14.8612C43.8899 15.2078 42.98 15.3162 42.0918 15.1645C41.0953 15.0562 40.1855 14.5796 39.5139 13.8647C38.7991 13.0632 38.3442 12.0884 38.2142 11.0269C38.1925 10.8969 38.1925 10.7669 38.2142 10.637H47.8758L47.8542 10.572ZM38.4308 8.9689C38.6691 8.18903 39.1024 7.47415 39.6873 6.91092C40.3155 6.32602 41.1387 5.97941 42.0052 5.91442C42.5684 5.84943 43.1533 5.89276 43.7166 6.0444C44.5831 6.26103 45.3196 6.8026 45.8179 7.53914C46.1645 8.05905 46.4028 8.64396 46.5111 9.25052C46.5111 9.31551 46.5327 9.3805 46.5544 9.42382H38.3875C38.3441 9.25052 38.3658 9.09888 38.4308 8.9689Z" fill="#24B4A6"/>
<path d="M32.5817 7.03877C32.0185 6.0206 31.087 5.24074 29.9605 4.89413C29.1373 4.65584 28.2708 4.56918 27.426 4.63417C26.7111 4.69916 25.9962 4.91579 25.368 5.28406C24.3715 5.8473 23.5916 6.69216 23.1367 7.73199C22.5951 8.81514 22.3785 10.0283 22.5301 11.2197C22.6601 12.3462 23.0934 13.4294 23.7866 14.3175C24.6748 15.5307 26.0395 16.3105 27.5343 16.4622C28.2708 16.5488 29.0074 16.5055 29.7222 16.3755C30.6321 16.2239 31.4986 15.834 32.2135 15.2491C32.4301 15.0757 32.6467 14.8591 32.82 14.6425C33.0367 14.3609 32.9933 13.9493 32.7117 13.7326C32.7117 13.7326 32.6901 13.7326 32.6901 13.711C32.4301 13.4943 32.0402 13.5377 31.8235 13.7976C31.4986 14.1659 31.087 14.4692 30.6537 14.6642C29.7439 15.0974 28.7257 15.2491 27.7292 15.0974C26.7327 14.9891 25.8229 14.5125 25.1513 13.7976C24.4148 12.9744 23.9599 11.9563 23.8516 10.8731V10.5698H33.4699V10.5048C33.5133 9.29172 33.21 8.07859 32.5817 7.03877ZM23.9382 9.31338C23.9382 9.22673 23.9815 9.18341 23.9815 9.09675C24.1765 8.33855 24.5664 7.62367 25.108 7.03877C25.6929 6.41054 26.4728 5.99894 27.3393 5.91229C27.9459 5.82563 28.5741 5.82564 29.1807 5.95562C30.0905 6.17225 30.892 6.71382 31.4119 7.49369C31.7586 8.0136 31.9968 8.5985 32.1052 9.20507V9.29172H23.9382V9.31338Z" fill="#24B4A6"/>
<path d="M129.177 13.6911C128.917 13.4744 128.527 13.5178 128.31 13.7777C127.985 14.146 127.595 14.4276 127.184 14.6442C126.274 15.0775 125.256 15.2508 124.259 15.1208C123.155 14.9909 122.136 14.4493 121.422 13.5828C120.815 12.8679 120.447 11.9797 120.338 11.0482C120.295 10.8749 120.295 10.7016 120.295 10.5283H130C130 10.2033 130 9.85673 129.957 9.53178C129.848 8.53528 129.502 7.58211 128.96 6.73726C128.332 5.80575 127.422 5.11253 126.339 4.76592C125.537 4.5493 124.714 4.50597 123.891 4.59262C123.068 4.67928 122.288 4.96089 121.616 5.41581C120.728 6.04404 120.013 6.91056 119.558 7.90706C119.104 8.92522 118.93 10.03 119.039 11.1348C119.19 12.4779 119.797 13.7344 120.75 14.7092C121.638 15.6624 122.851 16.2473 124.151 16.3556C124.844 16.4423 125.537 16.399 126.209 16.269C127.076 16.1173 127.899 15.7707 128.614 15.2291C128.874 15.0125 129.134 14.7959 129.35 14.5359C129.523 14.276 129.458 13.886 129.177 13.6911ZM120.447 9.2285C120.663 8.232 121.227 7.34382 122.028 6.69393C122.635 6.21734 123.371 5.93573 124.129 5.87074C124.779 5.82741 125.429 5.87074 126.057 6.04404C126.837 6.304 127.487 6.80225 127.942 7.49546C128.289 8.01537 128.527 8.60027 128.635 9.20684V9.33682H120.512C120.447 9.31515 120.447 9.27183 120.447 9.2285Z" fill="#24B4A6"/>
<path d="M75.258 9.05514V15.5107C75.258 15.5974 75.258 15.684 75.2146 15.7707C75.128 16.074 74.8247 16.2906 74.5214 16.2473C74.2182 16.2039 73.9799 15.944 73.9582 15.6407V9.53173C73.9799 8.94683 73.8932 8.34026 73.6982 7.77703C73.3733 6.75886 72.4851 6.02232 71.4236 5.89235C70.7088 5.7407 69.9506 5.82736 69.279 6.10898C68.2609 6.54224 67.481 7.43042 67.1777 8.51357C67.1344 8.60022 67.1344 8.70854 67.1344 8.81685V15.6407C67.1344 15.9657 66.8744 16.2473 66.5495 16.2473H66.5278C66.2029 16.2473 65.9213 16.009 65.8779 15.684V0.519911C65.9429 0.216629 66.2245 0 66.5278 0C66.8528 0 67.1127 0.238295 67.1344 0.56324V6.32561H67.1777C67.1777 6.28228 67.221 6.28228 67.221 6.23895C67.9792 5.35076 69.0624 4.76586 70.2322 4.61422C70.9471 4.52757 71.6836 4.5709 72.3768 4.78753C73.7632 5.17746 74.8247 6.3256 75.0847 7.75536C75.193 8.18862 75.258 8.62188 75.258 9.05514Z" fill="#24B4A6"/>
<path d="M6.45606 16.4849C2.925 16.4415 0.0438192 19.2577 0.000493286 22.7671C-0.0428327 26.2982 2.77335 29.1794 6.28276 29.2227C9.81382 29.266 12.695 26.4498 12.7383 22.9404C12.7383 22.9188 12.7383 22.8754 12.7383 22.8538C12.7817 19.366 9.98713 16.5065 6.49939 16.4849C6.49939 16.4849 6.47772 16.4849 6.45606 16.4849ZM6.36941 28.0529C3.48823 28.0096 1.21362 25.6483 1.25695 22.7671C1.30027 19.886 3.66154 17.6113 6.54271 17.6547C9.40223 17.698 11.6768 20.0376 11.6552 22.8971C11.6118 25.7783 9.25058 28.0746 6.36941 28.0529Z" fill="#24B4A6"/>
<path d="M61.0469 15.5519C61.0686 15.8769 60.8519 16.1802 60.527 16.2452C60.1804 16.3101 59.8554 16.0935 59.7904 15.7469C59.7904 15.7252 59.7904 15.7036 59.7904 15.6819V9.61629C59.8121 9.03139 59.7255 8.46816 59.5738 7.90492C59.3788 7.16838 58.8806 6.56182 58.2307 6.19355C57.9058 6.04191 57.5375 5.9336 57.1909 5.89027C56.5193 5.78196 55.8261 5.86861 55.1762 6.1069C54.1147 6.54016 53.2915 7.45 52.9883 8.55481C52.9449 8.64146 52.9449 8.72812 52.9449 8.81477V15.7252C52.9016 16.0502 52.62 16.2668 52.295 16.2452C51.9701 16.2452 51.6885 15.9852 51.6885 15.6603V15.6386V5.37036C51.7101 5.02375 51.9918 4.7638 52.3384 4.7638C52.685 4.7638 52.9449 5.02375 52.9449 5.37036C52.9449 5.39202 52.9449 5.41368 52.9449 5.41368V6.36685L53.0749 6.23687C53.8331 5.37036 54.8946 4.80712 56.0427 4.65548C56.8009 4.54717 57.5808 4.63382 58.3174 4.87211C59.6388 5.28371 60.6136 6.36685 60.8952 7.70996C60.9819 8.12155 61.0252 8.51149 61.0252 8.92308C61.0469 11.1544 61.0469 13.364 61.0469 15.5519Z" fill="#24B4A6"/>
<path d="M104.719 15.5113V15.728C104.654 16.0312 104.373 16.2479 104.069 16.2479C103.744 16.2479 103.484 16.0096 103.463 15.6846V14.7315H103.419C103.376 14.7748 103.333 14.8181 103.333 14.8614C102.618 15.728 101.6 16.2695 100.495 16.3995C99.7584 16.5295 98.9786 16.4862 98.2637 16.2695C96.8556 15.9013 95.7724 14.7748 95.4692 13.345C95.3825 12.9118 95.3392 12.4785 95.3392 12.0453V5.54636C95.3175 5.30806 95.4258 5.09143 95.5991 4.93979C95.7724 4.78815 96.0324 4.74482 96.249 4.85314C96.4657 4.93979 96.6173 5.13475 96.639 5.37305V11.5687C96.639 12.1536 96.7256 12.7601 96.8989 13.3234C97.2239 14.2982 98.0687 14.9914 99.0869 15.1647C99.8451 15.3164 100.647 15.2297 101.361 14.9481C102.38 14.4932 103.16 13.5833 103.419 12.5002C103.463 12.3919 103.463 12.3052 103.463 12.1969V5.2864C103.549 4.98312 103.853 4.76649 104.156 4.80982C104.459 4.85314 104.698 5.11309 104.719 5.41638V5.54636C104.719 8.83913 104.719 12.1969 104.719 15.5113Z" fill="#24B4A6"/>
<path d="M5.28638 4.76562C2.38355 4.76562 0.0439453 7.10523 0.0439453 10.0081C0.0439453 12.9109 2.38355 15.2505 5.28638 15.2505C8.18922 15.2505 10.5288 12.9109 10.5288 10.0081C10.5072 7.12689 8.16756 4.78729 5.28638 4.76562ZM5.28638 14.0807C3.03344 14.059 1.21375 12.2393 1.21375 9.96474C1.23541 7.71179 3.0551 5.8921 5.32971 5.8921C7.58266 5.91376 9.40235 7.73345 9.40235 10.0081C9.35902 12.261 7.53933 14.0807 5.28638 14.0807Z" fill="#24B4A6"/>
<path d="M115.161 15.724C114.641 16.0706 114.035 16.2873 113.406 16.3739C113.146 16.4172 112.843 16.4172 112.713 16.4606C111.803 16.5039 110.915 16.2656 110.135 15.8107C109.55 15.4641 109.095 14.9658 108.792 14.3592C108.705 14.1643 108.662 13.9477 108.705 13.7527C108.792 13.4061 109.139 13.1894 109.485 13.2761C109.594 13.2978 109.68 13.3411 109.767 13.4061C109.897 13.4711 109.984 13.5794 110.027 13.7094C110.46 14.5542 111.305 15.1175 112.258 15.2041C112.908 15.2908 113.558 15.1608 114.143 14.8575C114.338 14.7708 114.533 14.6409 114.663 14.4676C115.183 13.991 115.334 13.2328 115.009 12.5829C114.858 12.2579 114.619 11.9763 114.316 11.7597C113.883 11.4564 113.385 11.2181 112.865 11.0665C112.475 10.9365 112.128 10.8498 111.738 10.7199C111.132 10.5032 110.568 10.1783 110.092 9.7667C109.55 9.24679 109.225 8.55358 109.182 7.79537C109.139 7.36211 109.182 6.92886 109.312 6.53892C109.594 5.82405 110.157 5.23914 110.893 4.95752C111.565 4.65424 112.302 4.54593 113.038 4.65424C113.645 4.69757 114.23 4.9142 114.749 5.2608C115.226 5.60741 115.616 6.04067 115.876 6.56058C115.963 6.71222 115.963 6.88553 115.919 7.03717C115.854 7.27546 115.659 7.47043 115.399 7.51376C115.139 7.53542 114.879 7.4271 114.749 7.21047C114.706 7.16714 114.706 7.12382 114.663 7.0805C114.338 6.45227 113.71 5.99734 113.016 5.91069C112.518 5.8457 112.042 5.88903 111.565 6.084C110.785 6.34396 110.33 7.16714 110.59 7.96867C110.59 7.99034 110.59 7.99034 110.612 8.012C110.72 8.4236 110.937 8.79187 111.262 9.05182C111.63 9.3551 112.063 9.57173 112.518 9.70171C112.908 9.83169 113.298 9.91834 113.688 10.0483C114.251 10.2216 114.771 10.4816 115.226 10.8282C115.876 11.2831 116.288 11.9763 116.396 12.7562C116.677 13.9043 116.179 15.1175 115.161 15.724Z" fill="#24B4A6"/>
<path d="M20.6018 5.65183C20.5152 5.99843 20.1686 6.21506 19.8219 6.17174C19.4753 6.10675 19.1287 6.06342 18.7821 6.08509C17.634 6.17174 16.6375 6.84329 16.0743 7.83979C15.8576 8.1864 15.771 8.57633 15.771 8.96626V15.5085C15.771 15.6168 15.771 15.7251 15.7276 15.8118C15.6193 16.0934 15.3594 16.2667 15.0778 16.245C14.7745 16.245 14.5145 16.0284 14.4712 15.7251V5.52185C14.4712 5.41353 14.4712 5.30522 14.5145 5.21857C14.6012 4.91528 14.9045 4.74198 15.2077 4.78531C15.511 4.82863 15.7493 5.08859 15.771 5.39187V6.38837H15.8143L15.9443 6.25839C16.5292 5.54351 17.3524 5.0236 18.2622 4.80697C18.8904 4.69866 19.5187 4.69865 20.1469 4.85029C20.4718 4.93695 20.6885 5.28356 20.6018 5.65183Z" fill="#24B4A6"/>
<path d="M10.5721 3.42369C10.5721 4.03025 10.0738 4.50683 9.48891 4.50683C8.90401 4.50683 8.40576 4.00859 8.40576 3.42369C8.40576 2.81714 8.90401 2.34055 9.48891 2.34055C10.0738 2.31889 10.5504 2.79547 10.5721 3.42369C10.5721 3.40203 10.5721 3.40203 10.5721 3.42369Z" fill="#24B4A6"/>
</svg>
