<svg width="22" height="21" viewBox="0 0 22 21" fill="none" xmlns="http://www.w3.org/2000/svg">
<path d="M15.2438 14.5862C16.0557 14.5022 16.6716 13.8023 16.6436 12.9624C16.6156 12.1225 15.9157 11.4506 15.0758 11.4506H15.0199C14.152 11.4786 13.4801 12.2065 13.5081 13.0744C13.5361 13.4943 13.704 13.8583 13.956 14.1102C13.0041 15.986 11.5483 17.3578 9.36462 18.5056C7.88082 19.2895 6.34103 19.5695 4.80124 19.3735C3.54141 19.2056 2.56155 18.6456 1.94563 17.7218C1.04975 16.3499 0.965763 14.8661 1.72166 13.3823C2.25359 12.3185 3.09347 11.5346 3.6254 11.1426C3.51342 10.7787 3.34544 10.1628 3.26145 9.71484C-0.797997 12.6544 -0.378054 16.6299 0.853778 18.5056C1.77765 19.9055 3.6534 20.7733 5.72512 20.7733C6.28504 20.7733 6.84496 20.7173 7.40489 20.5774C10.9884 19.8775 13.704 17.7498 15.2438 14.5862Z" fill="#2356A8"/>
<path d="M20.1707 11.1135C18.043 8.62185 14.9074 7.25004 11.3239 7.25004H10.876C10.624 6.74611 10.0921 6.41016 9.50418 6.41016H9.44818C8.5803 6.43815 7.90839 7.16605 7.93639 8.03393C7.96439 8.87382 8.66429 9.54573 9.50418 9.54573H9.56017C10.1761 9.51773 10.708 9.12579 10.932 8.59386H11.4359C13.5636 8.59386 15.5793 9.20977 17.3991 10.4136C18.7989 11.3375 19.8068 12.5413 20.3667 13.9971C20.8426 15.173 20.8146 16.3208 20.3107 17.3007C19.5268 18.7845 18.211 19.5964 16.4752 19.5964C15.3554 19.5964 14.2915 19.2604 13.7316 19.0084C13.4236 19.2884 12.8637 19.7363 12.4718 20.0163C13.6756 20.5762 14.9074 20.8842 16.0833 20.8842C18.7709 20.8842 20.7586 19.4004 21.5145 17.9166C22.3264 16.2928 22.2704 13.4932 20.1707 11.1135Z" fill="#2356A8"/>
<path d="M5.94912 15.0619C5.97711 15.9018 6.67702 16.5737 7.5169 16.5737H7.5729C8.44078 16.5457 9.11269 15.8178 9.08469 14.95C9.05669 14.1101 8.35679 13.4382 7.5169 13.4382H7.46091C7.40492 13.4382 7.32093 13.4382 7.26494 13.4662C6.11709 11.5624 5.64116 9.49071 5.80914 7.25101C5.92112 5.57124 6.48105 4.11544 7.46091 2.9116C8.2728 1.87574 9.84059 1.37181 10.9044 1.34382C13.872 1.28782 15.1319 4.98332 15.2159 6.46712C15.5798 6.55111 16.1957 6.74708 16.6157 6.88706C16.2797 2.35168 13.4801 0 10.7925 0C8.2728 0 5.94912 1.81975 5.02524 4.50739C3.73742 8.0909 4.5773 11.5344 6.14509 14.2501C6.00511 14.446 5.92112 14.754 5.94912 15.0619Z" fill="#2356A8"/>
</svg>
