<svg width="124" height="41" viewBox="0 0 124 41" fill="none" xmlns="http://www.w3.org/2000/svg">
<path d="M53.0644 21.4812C53.0644 27.3538 48.4703 31.6812 42.8323 31.6812C37.1942 31.6812 32.6001 27.3538 32.6001 21.4812C32.6001 15.5673 37.1942 11.2812 42.8323 11.2812C48.4703 11.2812 53.0644 15.5673 53.0644 21.4812ZM48.5853 21.4812C48.5853 17.8114 45.9226 15.3005 42.8323 15.3005C39.7419 15.3005 37.0793 17.8114 37.0793 21.4812C37.0793 25.1142 39.7419 27.6619 42.8323 27.6619C45.9226 27.6619 48.5853 25.1096 48.5853 21.4812Z" fill="#EA4335"/>
<path d="M75.1386 21.4812C75.1386 27.3538 70.5445 31.6812 64.9065 31.6812C59.2684 31.6812 54.6743 27.3538 54.6743 21.4812C54.6743 15.5719 59.2684 11.2812 64.9065 11.2812C70.5445 11.2812 75.1386 15.5673 75.1386 21.4812ZM70.6595 21.4812C70.6595 17.8114 67.9968 15.3005 64.9065 15.3005C61.8161 15.3005 59.1535 17.8114 59.1535 21.4812C59.1535 25.1142 61.8161 27.6619 64.9065 27.6619C67.9968 27.6619 70.6595 25.1096 70.6595 21.4812Z" fill="#FBBC05"/>
<path d="M96.2925 11.8975V30.2096C96.2925 37.7423 91.8502 40.8189 86.5984 40.8189C81.6548 40.8189 78.6794 37.5124 77.5573 34.8083L81.4571 33.185C82.1515 34.8451 83.853 36.8042 86.5938 36.8042C89.9555 36.8042 92.0387 34.7301 92.0387 30.8258V29.3588H91.8824C90.8799 30.5959 88.9484 31.6766 86.5111 31.6766C81.4111 31.6766 76.7388 27.2342 76.7388 21.518C76.7388 15.7604 81.4111 11.2812 86.5111 11.2812C88.9438 11.2812 90.8753 12.3619 91.8824 13.5622H92.0387V11.9021H96.2925V11.8975ZM92.356 21.518C92.356 17.9264 89.9601 15.3005 86.9112 15.3005C83.8208 15.3005 81.2317 17.9264 81.2317 21.518C81.2317 25.0728 83.8208 27.6619 86.9112 27.6619C89.9601 27.6619 92.356 25.0728 92.356 21.518Z" fill="#4285F4"/>
<path d="M103.306 1.16406V31.0558H98.937V1.16406H103.306Z" fill="#34A853"/>
<path d="M120.33 24.839L123.807 27.1567C122.685 28.8169 119.981 31.6773 115.308 31.6773C109.514 31.6773 105.187 27.1981 105.187 21.4773C105.187 15.4116 109.551 11.2773 114.807 11.2773C120.1 11.2773 122.689 15.4898 123.535 17.7661L124 18.925L110.365 24.5723C111.409 26.6187 113.032 27.6626 115.308 27.6626C117.589 27.6626 119.171 26.5405 120.33 24.839ZM109.629 21.1692L118.744 17.3845C118.242 16.1106 116.734 15.223 114.959 15.223C112.682 15.223 109.514 17.2327 109.629 21.1692Z" fill="#EA4335"/>
<path d="M16.0633 18.8272V14.4998H30.6459C30.7885 15.254 30.862 16.1461 30.862 17.1119C30.862 20.3586 29.9745 24.3732 27.1141 27.2336C24.3319 30.1308 20.777 31.676 16.0679 31.676C7.33956 31.676 0 24.5664 0 15.838C0 7.10963 7.33956 0 16.0679 0C20.8966 0 24.3364 1.89467 26.9209 4.36419L23.8674 7.41774C22.0141 5.67943 19.5032 4.3274 16.0633 4.3274C9.68951 4.3274 4.70449 9.46417 4.70449 15.838C4.70449 22.2118 9.68951 27.3486 16.0633 27.3486C20.1976 27.3486 22.5521 25.6885 24.0605 24.1801C25.2838 22.9568 26.0886 21.2093 26.4059 18.8226L16.0633 18.8272Z" fill="#4285F4"/>
</svg>
