<svg width="124" height="36" viewBox="0 0 124 36" fill="none" xmlns="http://www.w3.org/2000/svg">
<path d="M7.10498 0C5.97099 0 4.50086 1.20412 3.63361 2.00566C1.72694 3.70035 0 6.81654 0 9.31774C0 12.8718 3.01857 14.2134 3.78206 14.2134C4.03378 14.2134 4.24839 14.0834 4.24839 13.7413C4.24839 13.4732 4.07859 13.2501 3.90966 13.0209C3.21059 11.9508 2.98605 10.9295 2.98605 9.55202C2.98605 6.68007 4.30884 4.04761 5.4061 2.843C5.60842 2.625 6.06557 2.15406 6.20235 2.15406C6.33814 2.15406 6.37178 2.2648 6.37178 2.6071L6.24431 21.4048C6.24431 24.3434 5.39753 25.5107 5.39753 26.2026C5.39753 26.5066 5.52898 26.5855 5.77996 26.5855C6.96832 26.5855 8.15259 25.1352 8.4881 24.6062C9.5285 22.8068 9.7837 21.402 9.7837 17.3502V1.55449C9.7837 1.12693 9.66392 0.942115 9.25829 0.678497C8.6651 0.301278 7.98539 0 7.10498 0ZM41.0831 0.0524502C40.5241 0.0524502 40.2852 0.345028 40.2588 1.25035L40.1348 4.99893L36.8607 4.88533C36.6621 4.88023 36.5724 4.94312 36.4855 5.11787C36.2075 5.63989 36.0611 6.04892 36.0611 6.73003C36.0611 7.28461 36.3122 7.34377 36.5361 7.34377L39.9426 7.44171L39.9322 14.6034C39.9322 16.1223 38.9749 18.0928 37.2764 19.7317C37.2764 19.7317 37.4225 19.2369 37.4142 18.7178C37.4142 17.2483 36.4697 15.9166 35.2106 14.9743L32.1374 12.6593C32.7816 11.913 33.8731 10.433 33.8731 9.18326C33.8731 8.2143 33.2646 7.80725 32.1304 7.80725C30.5295 7.80725 28.673 9.27536 28.673 11.4528C28.673 12.2465 29.0257 12.9609 29.5617 13.5073C28.8216 14.9135 27.7744 16.7637 26.9967 18.0813C26.4094 19.0901 25.4158 20.6358 24.8279 20.6358C24.3945 20.6358 24.1941 19.9529 24.1941 17.3294C24.1941 15.1498 24.3488 12.78 24.4264 10.5052C24.4264 9.98381 24.341 9.50281 23.665 9.03125C23.0431 8.63228 22.2752 8.07509 21.4841 8.07509C19.7255 8.07509 18.5275 9.69546 17.7057 11.2799C16.8552 12.922 16.3953 14.3059 15.7465 16.3136L15.8181 9.40375C15.8402 8.91106 15.716 8.71978 15.3222 8.55212C14.8115 8.33523 14.0597 8.08516 13.3927 8.08516C12.8354 8.08516 12.7676 8.32578 12.7676 8.91218L12.6927 17.2034L12.6841 20.4013C12.6841 23.2844 13.0447 23.7652 14.7533 23.7652C15.6992 23.7652 16.0022 23.6539 16.0209 22.8665C16.0469 22.3458 16.2956 21.0841 16.6321 19.8188C17.6163 16.0842 18.7824 13.1303 20.7931 10.8789C21.0028 10.6604 21.1649 10.7386 21.1319 11.0485C21.1319 11.0485 20.814 16.1027 20.814 18.17C20.814 21.8467 21.379 23.7653 23.206 23.7653C24.9991 23.7653 26.7601 21.4583 27.7215 19.901L30.8053 14.736C32.8036 16.441 34.198 17.763 34.198 19.3711C34.198 20.3707 33.5682 21.3486 32.6089 21.3486C31.41 21.3486 30.644 20.0826 29.8342 20.0826C29.1621 20.0826 28.2994 21.3819 28.2994 22.1197C28.2994 22.8162 29.8173 23.8016 32.5408 23.8016C36.5613 23.8016 38.7181 21.0387 40.0125 17.9792C40.2602 21.6105 41.7052 23.7316 43.9588 23.7316C45.437 23.7316 47.1454 21.8615 47.9225 19.5772C47.9225 19.5772 47.9993 20.1702 48.5895 21.3851C49.4019 22.9717 50.6369 23.7002 52.1709 23.7002C54.079 23.7002 55.7109 22.5419 56.7073 20.5984C56.8583 22.0711 58.0933 23.6929 60.0791 23.6929C61.3257 23.6929 62.4622 22.7365 63.2082 21.1612C63.2082 21.1612 64.1745 23.763 66.9694 23.763C68.5392 23.763 70.398 22.3069 70.8423 21.2488L70.8912 22.7875L66.7443 26.6167C65.5402 27.7872 64.2594 29.4688 64.2594 31.3307C64.2594 33.6986 66.4921 35.0602 68.457 35.0602C70.4995 35.0602 71.8546 33.7645 72.597 32.6788C73.5313 31.274 73.9259 28.6262 73.9259 26.038L73.8333 22.1462C76.6282 19.0699 78.8156 14.8178 79.7894 11.8092L81.9109 11.7533C82.3219 11.7256 82.3014 11.8877 82.2446 12.1276C81.8717 13.7053 81.5461 15.4921 81.5461 17.2715C81.5461 20.2113 82.2224 21.4907 83.1944 22.5362C84.0395 23.4122 84.88 23.7076 85.7646 23.7076C87.4946 23.7076 88.5807 22.277 88.9252 21.3752C89.7376 22.9618 90.9344 23.7007 92.468 23.7007C94.3762 23.7007 96.0082 22.5424 97.0046 20.5989C97.1557 22.0716 98.3904 23.6934 100.376 23.6934C101.86 23.6934 102.721 22.8362 103.397 21.2211C103.411 21.7406 103.431 22.2944 103.446 22.8137C103.464 23.0824 103.679 23.2525 103.871 23.3226C104.501 23.5616 105.055 23.6811 105.552 23.6811C106.849 23.6811 107.131 23.4144 107.131 22.5655C107.131 21.1654 107.172 18.9532 107.569 17.1769C107.991 15.4086 108.627 13.4066 109.505 12.0137C109.584 11.8698 109.778 11.9076 109.787 12.0819C109.913 15.0623 110.112 20.1074 110.894 21.4135C111.28 22.0364 111.876 22.4904 112.769 22.4904C113.188 22.4904 113.701 22.3117 113.832 22.2002C113.965 22.0963 114.032 21.9809 114.024 21.7667C114.024 17.9567 115.211 14.2682 116.399 11.7882C116.432 11.7147 116.524 11.7089 116.521 11.8058L116.455 14.551C116.455 19.0597 116.78 21.9081 119.029 23.2776C119.471 23.5253 119.97 23.6547 120.476 23.6533C121.627 23.6533 122.671 23.0097 123.186 21.9748C123.606 21.1705 124 19.6225 124 18.7456C124 18.4062 124.004 17.8537 123.448 17.8537C123.144 17.8537 122.96 18.0787 122.888 18.4185C122.71 19.155 122.565 19.7866 122.29 20.5149C122.028 21.21 121.636 21.6148 121.171 21.6148C120.625 21.6148 120.348 21.1847 120.19 20.9188C119.493 19.8549 119.437 17.4109 119.437 15.3709L119.605 10.1203C119.605 9.68589 119.424 9.16598 118.754 8.78267C118.305 8.52365 117.169 8.03607 116.472 8.03607C115.827 8.03607 115.514 8.40222 115.281 8.93978C114.844 9.90526 113.384 13.6922 112.992 16.7711C112.978 16.8523 112.877 16.8694 112.87 16.7659C112.666 14.5886 112.562 11.9652 112.564 10.1953C112.564 9.66028 112.434 8.8954 111.3 8.39974C110.749 8.17092 110.294 8.03085 109.737 8.03085C109.047 8.03085 108.898 8.36916 108.651 8.81747C107.869 10.2645 107.328 12.1514 106.518 14.5316L106.53 9.08519C106.53 8.83052 106.374 8.49668 105.927 8.40682C104.82 8.15203 104.307 8.03631 103.87 8.03631C103.553 8.03631 103.378 8.28999 103.378 8.5643L103.318 17.8505C103.104 18.9872 102.236 21.7006 101.005 21.7006C99.9941 21.7006 99.5224 20.6752 99.5224 16.3889L99.7058 9.42289C99.7058 8.9829 99.4174 8.79809 98.997 8.61178C98.3958 8.37264 97.9176 8.27768 97.3066 8.27768C96.5398 8.27768 96.2767 8.64521 96.4318 9.52804C95.5889 8.38607 94.7462 7.75492 93.2575 7.75492C90.2686 7.75492 88.0156 11.355 88.0156 16.5866C87.9863 18.0536 88.3403 19.5116 88.3403 19.5116C88.0698 20.7291 87.4341 21.7216 86.5558 21.7216C85.4477 21.7216 84.7416 20.1529 84.7416 17.4343C84.7416 14.7077 85.7787 11.6324 85.7787 10.7989C85.7787 9.82981 85.1446 9.21669 84.0221 9.21669C83.4599 9.21669 81.374 9.69048 80.3046 9.84597C80.3046 9.84597 80.4253 9.33601 80.4163 8.93505C80.4163 7.97951 79.9686 7.38069 78.8571 7.38069C77.4988 7.38069 76.5015 8.35189 76.5015 10.0088C76.5015 10.7522 76.9291 11.44 77.4951 11.8095C76.7604 14.878 75.5658 17.1599 73.8055 19.7092L73.9538 9.38622C73.9538 9.05064 73.8646 8.84221 73.2081 8.58704C72.861 8.4369 72.2954 8.26352 71.5824 8.26352C70.5491 8.26352 70.6175 9.00242 70.6727 9.55563C70.1999 8.71618 69.1649 7.71975 67.568 7.71975C63.2165 7.71975 61.8805 14.3643 62.5357 19.083C62.5357 19.6584 61.9746 21.7006 60.7074 21.7006C59.6967 21.7006 59.225 20.6752 59.225 16.3889L59.4102 9.42289C59.4102 8.98278 59.1198 8.79796 58.6994 8.61178C58.0982 8.37264 57.6217 8.27768 57.0108 8.27768C56.2438 8.27768 55.9807 8.64521 56.1358 9.52791C55.2929 8.38594 54.4485 7.7548 52.9596 7.7548C49.9707 7.7548 47.6879 11.0472 47.6879 16.2786C47.6879 18.2755 45.9708 21.3229 44.7667 21.3229C44.0978 21.3229 43.3856 20.0933 43.3856 16.9517C43.3889 14.8103 43.6806 7.52051 43.6806 7.52051L47.8836 7.45228C48.0842 7.45041 48.2003 7.23092 48.2747 7.09569C48.4677 6.70356 48.561 6.44242 48.561 5.97323C48.561 5.5499 48.4764 5.39529 47.9342 5.36471L43.7451 5.1129L43.9234 1.20524C43.9359 0.958521 43.7872 0.79769 43.5182 0.677254C42.7073 0.359694 41.7129 0.0525745 41.0831 0.0524502ZM53.8035 10.2914C54.9241 10.2914 56.0612 11.3148 56.0612 14.9457C56.0612 19.5173 54.398 21.6443 53.119 21.6443C51.92 21.6443 51.0098 19.9496 51.0098 16.6209C51.0098 13.2562 51.8986 10.2914 53.8035 10.2914ZM94.1601 10.2914C95.2807 10.2914 96.4178 11.3148 96.4178 14.9457C96.4178 19.5173 94.7545 21.6443 93.4755 21.6443C92.2765 21.6443 91.3662 19.9496 91.3662 16.6209C91.3663 13.2562 92.2552 10.2914 94.1601 10.2914ZM68.5636 10.3124C70.026 10.3124 70.673 11.8218 70.673 14.7481C70.673 19.16 69.3632 21.672 67.7726 21.672C66.7571 21.672 65.5895 20.0024 65.651 16.7186C65.651 14.6189 66.3347 10.3124 68.5636 10.3124ZM71.0395 25.0713V26.8091C71.0395 32.5757 69.505 33.5599 68.2719 33.5599C67.8047 33.5599 66.6603 33.2066 66.6603 31.78C66.6603 29.7857 68.7425 27.5171 69.3895 26.8161L71.0395 25.0713Z" fill="black"/>
</svg>
