<svg width="70" height="70" viewBox="0 0 70 70" fill="none" xmlns="http://www.w3.org/2000/svg">
<path d="M35 70C54.33 70 70 54.33 70 35C70 15.67 54.33 0 35 0C15.67 0 0 15.67 0 35C0 54.33 15.67 70 35 70Z" fill="#2DAAE1"/>
<path d="M57.4416 21.0771C55.7907 21.8097 54.0175 22.3049 52.1532 22.5275C54.0559 21.3881 55.5135 19.5826 56.2018 17.4338C54.3943 18.5073 52.4163 19.263 50.3535 19.6682C48.6748 17.8789 46.281 16.7617 43.6327 16.7617C38.5493 16.7617 34.4266 20.8827 34.4266 25.969C34.4266 26.6897 34.5078 27.3928 34.6639 28.0678C27.0115 27.6833 20.2272 24.0177 15.6861 18.4479C14.8932 19.8082 14.4393 21.3898 14.4393 23.0773C14.4393 26.2713 16.065 29.0893 18.5352 30.7401C17.0729 30.6948 15.6427 30.3001 14.3641 29.589V29.7053C14.3641 34.1668 17.5374 37.8869 21.7497 38.7329C20.9759 38.9449 20.1639 39.0557 19.3238 39.0557C18.7298 39.0557 18.1535 38.9995 17.5905 38.8936C18.7622 42.5504 22.1626 45.2121 26.1905 45.2874C23.0393 47.7576 19.0687 49.2301 14.7562 49.2301C14.0134 49.2301 13.2793 49.1857 12.5586 49.0989C16.6339 51.712 21.4727 53.2375 26.6726 53.2375C43.6076 53.2375 52.8694 39.2076 52.8694 27.0407C52.8694 26.6412 52.8606 26.2448 52.8414 25.8497C54.6459 24.5445 56.2036 22.9284 57.4416 21.0771Z" fill="white"/>
</svg>
