<svg width="124" height="24" viewBox="0 0 124 24" fill="none" xmlns="http://www.w3.org/2000/svg">
<g clip-path="url(#clip0)">
<path d="M9.71295 3.78049C8.25891 3.78049 7.8227 4.42026 7.8227 5.84522V8.20075H11.7195L11.3415 12.0394H7.8227V23.6426H3.14071V12.0394H0V8.22983H3.14071V5.93246C3.14071 2.03565 4.71107 0 9.04409 0C9.94559 0 10.8762 0.0581614 11.7777 0.174484V3.78049" fill="#3B5998"/>
<path d="M12.0393 15.4438C12.0393 11.1398 14.075 7.88281 18.3789 7.88281C20.7054 7.88281 22.1303 9.07512 22.8283 10.5873V8.23178H27.3067V23.6736H22.7992V21.3472C22.1594 22.8303 20.6763 23.9935 18.3498 23.9935C14.075 23.9935 12.0103 20.7656 12.0103 16.4325L12.0393 15.4438ZM16.7213 16.4907C16.7213 18.7881 17.5647 20.3293 19.7457 20.3293C21.665 20.3293 22.6247 18.9335 22.6247 16.7233V15.153C22.6247 12.9428 21.636 11.547 19.7457 11.547C17.5647 11.547 16.7213 13.0592 16.7213 15.3856V16.4907Z" fill="#3B5998"/>
<path d="M37.0199 7.88281C38.8229 7.88281 40.5677 8.26086 41.4983 8.92972L40.4514 12.2449C39.4917 11.7796 38.4157 11.547 37.3398 11.547C34.8097 11.547 33.7047 13.001 33.7047 15.5019V16.4035C33.7047 18.9044 34.8097 20.3584 37.3398 20.3584C38.4157 20.3584 39.4917 20.0967 40.4514 19.6314L41.4983 22.9466C40.5677 23.5864 38.852 23.9935 37.0199 23.9935C31.5236 23.9935 29.0518 21.0564 29.0518 16.3162V15.5892C29.0518 10.849 31.5236 7.88281 37.0199 7.88281Z" fill="#3B5998"/>
<path d="M42.1089 16.5198V15.153C42.1089 10.7618 44.6098 7.88281 49.6989 7.88281C54.4973 7.88281 56.6201 10.7909 56.6201 15.0948V17.5667H46.7909C46.8781 19.6896 47.8378 20.6201 50.426 20.6201C52.1126 20.6201 53.7993 20.3003 55.3988 19.6896L56.2421 22.8884C55.0207 23.5282 52.4907 24.0226 50.2515 24.0226C44.319 23.9935 42.1089 21.0564 42.1089 16.5198ZM46.7909 14.4841H52.4325V14.1061C52.4325 12.4194 51.7637 11.0817 49.6989 11.0817C47.6051 11.0817 46.7909 12.4194 46.7909 14.4841Z" fill="#3B5998"/>
<path d="M73.9521 16.431C73.9521 20.735 71.8873 23.992 67.5834 23.992C65.2569 23.992 63.6284 22.8288 62.9886 21.3456V23.6721H58.5684V0.465723L63.2504 0.0585938V10.3822C63.9192 9.01544 65.4314 7.91038 67.6125 7.91038C71.8873 7.91038 73.9811 11.1383 73.9811 15.4714L73.9521 16.431ZM69.2701 15.355C69.2701 13.174 68.4267 11.5455 66.1875 11.5455C64.2682 11.5455 63.2504 12.9123 63.2504 15.1224V16.7509C63.2504 18.961 64.2973 20.3278 66.1875 20.3278C68.4267 20.3278 69.2701 18.6993 69.2701 16.5183V15.355Z" fill="#3B5998"/>
<path d="M75.4937 16.3162V15.531C75.4937 11.0817 78.0237 7.88281 83.171 7.88281C88.3182 7.88281 90.8483 11.0817 90.8483 15.531V16.3162C90.8483 20.7656 88.3182 23.9644 83.171 23.9644C78.0237 23.9644 75.4937 20.7946 75.4937 16.3162ZM86.1953 15.2111C86.1953 13.1755 85.352 11.547 83.171 11.547C80.9899 11.547 80.1466 13.1755 80.1466 15.2111V16.6652C80.1466 18.7008 80.9899 20.3293 83.171 20.3293C85.352 20.3293 86.1953 18.7008 86.1953 16.6652V15.2111Z" fill="#3B5998"/>
<path d="M92.4473 16.3162V15.531C92.4473 11.0817 94.9773 7.88281 100.125 7.88281C105.272 7.88281 107.802 11.0817 107.802 15.531V16.3162C107.802 20.7656 105.272 23.9644 100.125 23.9644C94.9773 23.9644 92.4473 20.7946 92.4473 16.3162ZM103.149 15.2111C103.149 13.1755 102.306 11.547 100.125 11.547C97.9435 11.547 97.1002 13.1755 97.1002 15.2111V16.6652C97.1002 18.7008 97.9435 20.3293 100.125 20.3293C102.306 20.3293 103.149 18.7008 103.149 16.6652V15.2111Z" fill="#3B5998"/>
<path d="M114.229 15.5894L118.853 8.20292H123.797L118.969 15.8511L124 23.6738H119.027L114.229 16.1129V23.6738H109.576V0.46746L114.229 0.03125" fill="#3B5998"/>
</g>
<defs>
<clipPath id="clip0">
<rect width="124" height="23.9916" fill="white"/>
</clipPath>
</defs>
</svg>
