<svg width="124" height="33" viewBox="0 0 124 33" fill="none" xmlns="http://www.w3.org/2000/svg">
<path d="M91.3623 2.3528C91.3623 1.05406 92.4426 0 93.7745 0H121.588C122.92 0 124 1.05406 124 2.3528V30.492C124 31.7912 122.92 32.8444 121.588 32.8444H93.7745C92.4426 32.8444 91.3623 31.7912 91.3623 30.4925V2.35237V2.3528Z" fill="#006699"/>
<path d="M0 27.5115H13.6206V23.0394H4.93002V5.97924H0V27.5115ZM20.5166 27.5115V12.6805H15.587V27.5115H20.5166ZM18.0522 10.656C19.7709 10.656 20.8409 9.51705 20.8409 8.09297C20.809 6.63787 19.7709 5.53125 18.0849 5.53125C16.3985 5.53125 15.2958 6.6383 15.2958 8.09297C15.2958 9.51705 16.3658 10.656 18.0199 10.656H18.0522ZM22.8052 27.5115H27.7348V19.2289C27.7348 18.7857 27.7666 18.3424 27.8972 18.0267C28.253 17.141 29.0641 16.2235 30.4261 16.2235C32.2103 16.2235 32.9241 17.5838 32.9241 19.5765V27.5111H37.8528V19.0075C37.8528 14.4518 35.4208 12.3321 32.1772 12.3321C29.5181 12.3321 28.3503 13.8186 27.7016 14.8313H27.7348V12.6805H22.8052C22.8702 14.0723 22.8052 27.5115 22.8052 27.5115ZM44.8074 5.97924H39.8778V27.5115H44.8074V22.703L46.0394 21.1518L49.899 27.5115H55.9632L49.4777 18.3049L55.1525 12.0417H49.2184C49.2184 12.0417 45.1645 17.645 44.8074 18.3101V5.97924Z" fill="black"/>
<path d="M69.1455 21.3266C69.2105 20.9458 69.3079 20.2153 69.3079 19.3891C69.3079 15.5553 67.3617 11.663 62.2379 11.663C56.7569 11.663 54.2271 15.9977 54.2271 19.9293C54.2271 24.7917 57.3083 27.8281 62.6914 27.8281C64.8323 27.8281 66.8099 27.5127 68.4321 26.8481L67.7834 23.5924C66.4532 24.0335 65.0912 24.2545 63.4052 24.2545C61.1028 24.2545 59.0925 23.309 58.9301 21.2948L69.1455 21.3258V21.3266ZM58.8978 17.9917C59.0274 16.7261 59.8713 14.8588 61.979 14.8588C64.2163 14.8588 64.7358 16.8524 64.7358 17.9917H58.8982H58.8978ZM81.4755 5.9809V13.4347H81.4104C80.6967 12.3914 79.205 11.6953 77.2278 11.6953C73.4328 11.6953 70.0927 14.7322 70.1246 19.9202C70.1246 24.7292 73.1412 27.8612 76.9026 27.8612C78.9461 27.8612 80.8914 26.9747 81.8649 25.2663H81.9618L82.1569 27.5132H86.5347C86.4701 26.469 86.4046 24.6659 86.4046 22.8942V5.98047H81.4751L81.4755 5.9809ZM81.4755 20.6482C81.4755 21.0273 81.4432 21.4076 81.3777 21.7229C81.0869 23.0841 79.9192 24.0322 78.4921 24.0322C76.4494 24.0322 75.1192 22.3876 75.1192 19.7936C75.1192 17.3581 76.2551 15.3964 78.5248 15.3964C80.0488 15.3964 81.1188 16.4401 81.4109 17.7367C81.4755 18.0223 81.4755 18.3389 81.4755 18.6232V20.6478V20.6482Z" fill="black"/>
<path d="M101.256 27.4959V12.6649H96.3264V27.4959H101.256H101.256ZM98.7921 10.6403C100.511 10.6403 101.581 9.50142 101.581 8.0782C101.548 6.62267 100.511 5.51562 98.8248 5.51562C97.1375 5.51562 96.0356 6.62267 96.0356 8.0782C96.0356 9.50142 97.1052 10.6403 98.7598 10.6403H98.7916H98.7921ZM103.984 27.4959H108.914V19.2146C108.914 18.7718 108.946 18.3281 109.076 18.0119C109.432 17.1258 110.243 16.2088 111.605 16.2088C113.389 16.2088 114.102 17.5687 114.102 19.5626V27.4959H119.032V18.9923C119.032 14.437 116.6 12.3173 113.357 12.3173C110.698 12.3173 109.53 13.8034 108.881 14.8157H108.914V12.6653H103.985C104.049 14.0567 103.984 27.4963 103.984 27.4963V27.4959Z" fill="white"/>
</svg>
