<svg width="24" height="24" viewBox="0 0 24 24" fill="none" xmlns="http://www.w3.org/2000/svg">
<path d="M12 0C5.38306 0 0 5.38306 0 12C0 18.6169 5.38306 24 12 24C18.6169 24 24 18.6169 24 12C24 5.38306 18.6169 0 12 0ZM12 22C6.48608 22 2 17.5139 2 12C2 6.48608 6.48608 2 12 2C17.5139 2 22 6.48608 22 12C22 17.5139 17.5139 22 12 22Z" fill="#4FABD6"/>
<path d="M6.41895 17.5801L14.7905 14.7896L17.5811 6.41797L9.20947 9.2085L6.41895 17.5801ZM10.7905 10.7896L14.4189 9.58008L13.2095 13.2085L9.58105 14.418L10.7905 10.7896Z" fill="#4FABD6"/>
</svg>
