<svg width="116" height="32" viewBox="0 0 116 32" fill="none" xmlns="http://www.w3.org/2000/svg">
<path d="M29.7933 7.33408C25.6614 7.33408 22.5081 9.9909 21.312 14.2418C19.3548 11.2662 17.8325 7.86546 16.9626 4.99609H12.6132V16.261C12.6132 18.4927 10.7647 20.2994 8.48132 20.2994C6.19789 20.2994 4.34939 18.4927 4.34939 16.261V4.99609H0V16.261C0 20.937 3.80572 24.6566 8.48132 24.6566C13.1569 24.6566 16.9626 20.937 16.9626 16.261V14.3481C17.8325 16.0485 18.9198 17.8551 20.1159 19.4492L17.3976 31.8831H21.8557L23.8129 22.8499C25.5527 23.9127 27.5099 24.5503 29.7933 24.5503C34.5777 24.5503 38.4921 20.7245 38.4921 15.8359C38.4921 11.1599 34.5777 7.33408 29.7933 7.33408ZM29.7933 20.1931C28.0536 20.1931 26.3138 19.4492 24.9003 18.2802L25.3352 16.5798V16.4736C25.6614 14.6669 26.64 11.585 29.9021 11.585C32.2942 11.585 34.2514 13.4979 34.2514 15.8359C34.1427 18.2802 32.0768 20.1931 29.7933 20.1931Z" fill="#6FDA44"/>
<path d="M102.427 15.3032C105.037 13.8155 106.885 11.0523 106.885 7.86409H103.079C103.079 10.6273 100.796 12.8591 98.0777 12.8591H97.534V0H93.7283V24.1242H97.534V16.4723H97.9689C98.4039 16.4723 98.8388 16.6851 98.9475 17.0037L104.276 24.1242H108.734L102.427 15.3032Z" fill="#4B4B4B"/>
<path fill-rule="evenodd" clip-rule="evenodd" d="M70.4599 7.33273C65.6756 7.33273 61.7611 11.1587 61.7611 15.9409C61.7611 20.7232 65.6756 24.5491 70.4599 24.5491C75.2442 24.5491 79.1587 20.7232 79.1587 15.9409C79.1587 11.1587 75.2442 7.33273 70.4599 7.33273ZM70.4599 21.0418C67.6328 21.0418 65.3494 18.81 65.3494 16.0473C65.3494 13.2841 67.6328 11.0523 70.4599 11.0523C73.287 11.0523 75.5704 13.2841 75.5704 16.0473C75.5704 18.7041 73.1783 21.0418 70.4599 21.0418Z" fill="#4B4B4B"/>
<path d="M89.8147 11.4773C87.3138 11.4773 85.3566 13.4964 85.3566 15.9409V24.1236H81.5508V7.86409H85.3566V10.4145C85.3566 10.4145 86.9876 7.86409 90.2496 7.86409H91.337V11.4773H89.8147Z" fill="#4B4B4B"/>
<path d="M51.8662 7.86409L54.6934 19.0227L57.7379 7.86409H61.5436L56.7593 24.1236H53.0623L50.1265 12.7528L47.1907 24.1236H43.4937L38.6006 7.86409H42.2976L45.5596 19.0227L48.278 7.86409H51.8662Z" fill="#4B4B4B"/>
<path d="M108.083 8.39546H109.387V11.69H109.822V8.39546H111.018V7.97047H108.083V8.39546Z" fill="#4B4B4B"/>
<path d="M112.214 7.97047H111.78V11.5836H112.214V8.60821L113.519 10.5209L114.824 8.60821V11.5836H115.259V7.97047H114.824L113.519 9.98955L112.214 7.97047Z" fill="#4B4B4B"/>
</svg>
