<svg width="88" height="88" viewBox="0 0 88 88" fill="none" xmlns="http://www.w3.org/2000/svg">
<path opacity="0.8" d="M17.9813 52.1016L6.875 71.3536L19.8377 70.6654L25.7269 82.2358L36.001 64.4241C28.6395 62.5197 22.3182 58.0868 17.9813 52.1016Z" fill="#80DDDB"/>
<path opacity="0.8" d="M69.9385 51.5664C65.6336 57.5677 59.3123 62.0166 51.9668 63.953L62.2729 81.7967L68.1622 70.2263L81.1248 70.9144L69.9385 51.5664Z" fill="#80DDDB"/>
<path d="M43.2787 71.4324C61.1057 71.4324 75.5574 56.9807 75.5574 39.1537C75.5574 21.3267 61.1057 6.875 43.2787 6.875C25.4517 6.875 11 21.3267 11 39.1537C11 56.9807 25.4517 71.4324 43.2787 71.4324Z" fill="url(#paint0_linear)"/>
<path d="M59.7386 36.2289C60.4587 35.5247 60.0586 34.2925 59.0664 34.1484L49.8325 32.8042C49.4324 32.7401 49.0963 32.5001 48.9203 32.132L44.7915 23.7623C44.3434 22.8501 43.0471 22.8501 42.599 23.7623L38.4861 32.132C38.3101 32.4841 37.958 32.7401 37.574 32.8042L28.34 34.1484C27.3478 34.2925 26.9477 35.5247 27.6679 36.2289L34.3413 42.7422C34.6293 43.0303 34.7574 43.4304 34.6934 43.8144L33.125 53.0004C32.949 53.9926 34.0052 54.7607 34.9014 54.2806L43.1591 49.9437C43.5112 49.7517 43.9433 49.7517 44.2953 49.9437L52.5531 54.2806C53.4492 54.7447 54.4895 53.9926 54.3294 53.0004L52.7451 43.8144C52.6811 43.4144 52.8091 43.0143 53.0972 42.7422L59.7386 36.2289Z" fill="white"/>
<defs>
<linearGradient id="paint0_linear" x1="66" y1="57.75" x2="14.4375" y2="22.6875" gradientUnits="userSpaceOnUse">
<stop stop-color="#2356A7"/>
<stop offset="1" stop-color="#3D77D3"/>
</linearGradient>
</defs>
</svg>
