<svg width="88" height="88" viewBox="0 0 88 88" fill="none" xmlns="http://www.w3.org/2000/svg">
<path d="M71.5 19.8125C67.375 19.8125 64.1795 24.3409 67.1055 28.3964C68.5768 30.4362 68.222 31.6644 67.2293 33.0968C65.1255 36.1256 62.0813 38.625 57.75 38.625C50.8145 38.625 47.1515 33.0269 46.3898 28.2835C46.1258 26.6334 45.9773 25.3971 47.5888 23.8652C48.9528 22.5726 49.8602 20.7719 49.3625 18.6327C48.8235 16.3295 46.7142 14.4375 44 14.4375C40.964 14.4375 38.5 16.8455 38.5 19.8125C38.5 21.4384 39.3057 22.8171 40.4112 23.8652C42.0227 25.3971 41.8715 26.6334 41.6102 28.2835C40.8457 33.0243 37.1827 38.625 30.25 38.625C25.9187 38.625 22.8745 36.1256 20.7707 33.0941C19.7752 31.6644 19.4205 30.4362 20.8945 28.3964C23.8205 24.3409 20.625 19.8125 16.5 19.8125C13.464 19.8125 11 22.2205 11 25.1875C11 27.3294 12.276 29.2053 14.146 30.0465C16.4148 31.0651 16.5 33.5859 16.5 35.8811V57.0625H71.5V35.8811C71.5 33.5859 71.5853 31.0651 73.854 30.0465C75.724 29.2053 77 27.3294 77 25.1875C77 22.2205 74.5333 19.8125 71.5 19.8125Z" fill="#2D65BA"/>
<path fill-rule="evenodd" clip-rule="evenodd" d="M75.625 69.4375C75.625 71.7157 73.7782 73.5625 71.5 73.5625H16.5C14.2218 73.5625 12.375 71.7157 12.375 69.4375C12.375 67.1593 14.2218 65.3125 16.5 65.3125H71.5C73.7782 65.3125 75.625 67.1593 75.625 69.4375Z" fill="#2D65BA"/>
<path fill-rule="evenodd" clip-rule="evenodd" d="M71.5 57.0625V65.3125H16.5V57.0625H71.5Z" fill="#9EFCDE"/>
</svg>
