<svg width="88" height="88" viewBox="0 0 88 88" fill="none" xmlns="http://www.w3.org/2000/svg">
<g clip-path="url(#clip0)">
<path d="M40.875 18.8588L51.8125 14.1445L56.5 31.4302" stroke="#9EFCDE" stroke-width="3" stroke-linejoin="round"/>
<path fill-rule="evenodd" clip-rule="evenodd" d="M42.4375 28.2891H78.375L75.25 75.4319H45.5625L42.4375 28.2891Z" fill="#2D65BA"/>
<path fill-rule="evenodd" clip-rule="evenodd" d="M42.625 28.875H52.25L53.625 75.625H45.6739L42.625 28.875Z" fill="#3573D1"/>
<path d="M24.75 77C32.3439 77 38.5 70.8439 38.5 63.25C38.5 55.6561 32.3439 49.5 24.75 49.5C17.1561 49.5 11 55.6561 11 63.25C11 70.8439 17.1561 77 24.75 77Z" fill="url(#paint0_linear)"/>
<path fill-rule="evenodd" clip-rule="evenodd" d="M16.7244 35.2439C20.3442 35.8025 23.6883 37.9482 25.6619 41.3859C27.6357 44.8243 27.811 48.8107 26.4813 52.2431C22.8606 51.6837 19.5164 49.538 17.5429 46.1002C15.589 42.6967 15.3975 38.7563 16.6834 35.3477L16.7244 35.2439Z" fill="url(#paint1_linear)"/>
<rect x="50.875" y="37.2695" width="7.07149" height="7.07149" transform="rotate(-1.16298 50.875 37.2695)" fill="#9EFCDE"/>
<rect x="67.2969" y="39.875" width="9.625" height="9.625" transform="rotate(24.8654 67.2969 39.875)" fill="#9EFCDE"/>
<rect x="53.9531" y="53.625" width="7.07149" height="7.07149" transform="rotate(13.9374 53.9531 53.625)" fill="#9EFCDE"/>
</g>
<defs>
<linearGradient id="paint0_linear" x1="11" y1="49.5" x2="38.5" y2="49.5" gradientUnits="userSpaceOnUse">
<stop stop-color="#9EFCDE"/>
<stop offset="1" stop-color="#4FABD6"/>
</linearGradient>
<linearGradient id="paint1_linear" x1="20.7831" y1="32.8873" x2="11.1743" y2="46.871" gradientUnits="userSpaceOnUse">
<stop stop-color="#2D65BA"/>
<stop offset="1" stop-color="#133D8A"/>
</linearGradient>
<clipPath id="clip0">
<rect x="9.625" y="11" width="68.75" height="66" fill="white"/>
</clipPath>
</defs>
</svg>
