<svg width="24" height="24" viewBox="0 0 24 24" fill="none" xmlns="http://www.w3.org/2000/svg">
<path d="M16.33 13.5C17.1628 12.8455 17.8359 12.0103 18.2984 11.0575C18.761 10.1047 19.0009 9.05916 19 8H21C21.0011 9.41043 20.6701 10.8013 20.0339 12.0601C19.3977 13.3189 18.4742 14.4103 17.338 15.246L19.866 19.624C20.1312 20.0834 20.2031 20.6293 20.0658 21.1416C19.9286 21.6539 19.5934 22.0908 19.134 22.356L15.607 16.248C14.4697 16.7456 13.2415 17.0016 12 17C10.7586 17.0016 9.53038 16.7456 8.39303 16.248L4.86603 22.356C4.40669 22.0908 4.07151 21.6539 3.93424 21.1416C3.79696 20.6293 3.86883 20.0834 4.13403 19.624L9.19703 10.854C8.692 10.3574 8.32779 9.73574 8.1416 9.05239C7.95541 8.36905 7.9539 7.64852 8.13724 6.9644C8.32057 6.28028 8.68218 5.65707 9.18513 5.1584C9.68808 4.65973 10.3144 4.30347 11 4.126V2H13V4.126C13.6857 4.30347 14.312 4.65973 14.8149 5.1584C15.3179 5.65707 15.6795 6.28028 15.8628 6.9644C16.0462 7.64852 16.0447 8.36905 15.8585 9.05239C15.6723 9.73574 15.3081 10.3574 14.803 10.854L16.33 13.5ZM14.6 14.502L13.072 11.855C12.3713 12.0495 11.6308 12.0495 10.93 11.855L9.40203 14.502C10.206 14.823 11.082 15 12.001 15C12.919 15 13.796 14.823 14.6 14.502ZM12 10C12.5305 10 13.0392 9.78929 13.4142 9.41421C13.7893 9.03914 14 8.53043 14 8C14 7.46957 13.7893 6.96086 13.4142 6.58579C13.0392 6.21071 12.5305 6 12 6C11.4696 6 10.9609 6.21071 10.5858 6.58579C10.2107 6.96086 10 7.46957 10 8C10 8.53043 10.2107 9.03914 10.5858 9.41421C10.9609 9.78929 11.4696 10 12 10Z" fill="#2356A8"/>
</svg>
