<svg width="24" height="24" viewBox="0 0 24 24" fill="none" xmlns="http://www.w3.org/2000/svg">
<path d="M21.6406 21C22.5334 18.3659 21.6406 17.0488 20.3015 15.7317C21.1943 13.2439 20.9264 6.86341 14.4986 3C15.6889 4.60976 18.0696 9.14634 16.2841 12.6585C14.4986 11.4878 10.0348 8.26829 6.46378 4.7561C7.50533 6.65854 10.0348 10.4634 11.3739 11.7805C9.88601 10.7561 6.0174 8.26829 3.78551 6.07317C4.67827 8.26829 9.23133 13.9756 13.1595 15.7317C12.1179 16.9024 8.07074 18.3659 2 14.8537C3.48793 17.7805 8.9635 22.8439 17.1769 19.6829C18.0696 19.0976 19.8551 18.8927 21.6406 21Z" stroke="#2356A8" stroke-width="1.5" stroke-linejoin="round"/>
</svg>
