<svg width="20" height="11" viewBox="0 0 20 11" fill="none" xmlns="http://www.w3.org/2000/svg">
<path fill-rule="evenodd" clip-rule="evenodd" d="M8.74659 7.5C8.17625 7.5 7.67463 7.84133 7.30956 8.27953C6.66989 9.04736 5.78041 9.5 4.86341 9.5C3.23824 9.5 1.69951 8.07828 1.48457 6H9.70699C9.72012 5.83532 9.72682 5.66854 9.72682 5.5C9.72682 2.46243 7.5494 0 4.86341 0C2.17742 0 0 2.46243 0 5.5C0 8.53757 2.17742 11 4.86341 11C6.92548 11 8.68781 9.54868 9.39528 7.5H8.74659ZM4.86341 1.5C3.37217 1.5 1.9537 2.69705 1.56399 4.5H8.16283C7.77312 2.69705 6.35465 1.5 4.86341 1.5Z" fill="#2356A8"/>
<path d="M19.999 0H19.1222C18.5017 0 17.9162 0.288078 17.5376 0.779773L14.8335 4.29148L12.1293 0.779773C11.7507 0.288078 11.1653 0 10.5447 0H9.66796L13.903 5.49978L9.66763 11H10.5443C11.1649 11 11.7504 10.7119 12.129 10.2202L14.8335 6.70809L17.5379 10.2202C17.9166 10.7119 18.502 11 19.1226 11H19.9993L15.7639 5.49978L19.999 0Z" fill="#2356A8"/>
</svg>
